<svg width="800" height="280" viewBox="0 0 800 280" fill="none" xmlns="http://www.w3.org/2000/svg" role="img" aria-labelledby="title desc">
<title id="title">Daily pixel drop</title>
<desc id="desc">2026 / 08 / 31. LEGENDARY drop Crystal Ball.</desc>
<rect width="800" height="280" rx="8" fill="#0D1117"/>
<rect x="1" y="1" width="798" height="278" rx="7" stroke="#243246"/>
<rect x="18" y="18" width="764" height="244" rx="5" fill="url(#dotgrid)" opacity="0.58"/>
<path d="M52 46H32V66M748 46H768V66M52 234H32V214M748 234H768V214" stroke="#f2cc60" stroke-width="1.5" stroke-linecap="square" opacity="0.76"/>
<rect x="304" y="56" width="192" height="188" rx="5" stroke="#f2cc60" opacity="0.54"/>
<circle cx="385.00" cy="95.00" r="3.40" fill="#533566"/>
<circle cx="395.00" cy="95.00" r="3.40" fill="#533566"/>
<circle cx="405.00" cy="95.00" r="3.40" fill="#533566"/>
<circle cx="415.00" cy="95.00" r="3.40" fill="#533566"/>
<circle cx="365.00" cy="105.00" r="3.40" fill="#533566"/>
<circle cx="375.00" cy="105.00" r="3.40" fill="#533566"/>
<circle cx="385.00" cy="105.00" r="3.40" fill="#8d6b59"/>
<circle cx="395.00" cy="105.00" r="3.40" fill="#6a4a61"/>
<circle cx="405.00" cy="105.00" r="3.40" fill="#533566"/>
<circle cx="415.00" cy="105.00" r="3.40" fill="#533566"/>
<circle cx="425.00" cy="105.00" r="3.40" fill="#533566"/>
<circle cx="435.00" cy="105.00" r="3.40" fill="#533566"/>
<circle cx="355.00" cy="115.00" r="3.40" fill="#533566"/>
<circle cx="365.00" cy="115.00" r="3.40" fill="#533566"/>
<circle cx="375.00" cy="115.00" r="3.40" fill="#533566"/>
<circle cx="385.00" cy="115.00" r="3.40" fill="#77575e"/>
<circle cx="395.00" cy="115.00" r="3.40" fill="#5d3e64"/>
<circle cx="405.00" cy="115.00" r="3.40" fill="#533566"/>
<circle cx="415.00" cy="115.00" r="3.40" fill="#533566"/>
<circle cx="425.00" cy="115.00" r="3.40" fill="#533566"/>
<circle cx="435.00" cy="115.00" r="3.40" fill="#543666"/>
<circle cx="445.00" cy="115.00" r="3.40" fill="#533566"/>
<circle cx="355.00" cy="125.00" r="3.40" fill="#533566"/>
<circle cx="365.00" cy="125.00" r="3.40" fill="#533566"/>
<circle cx="375.00" cy="125.00" r="3.40" fill="#5d3f64"/>
<circle cx="385.00" cy="125.00" r="3.40" fill="#533566"/>
<circle cx="395.00" cy="125.00" r="3.40" fill="#533566"/>
<circle cx="405.00" cy="125.00" r="3.40" fill="#533566"/>
<circle cx="415.00" cy="125.00" r="3.40" fill="#533566"/>
<circle cx="425.00" cy="125.00" r="3.40" fill="#8e6d59"/>
<circle cx="435.00" cy="125.00" r="3.40" fill="#9f7d55"/>
<circle cx="445.00" cy="125.00" r="3.40" fill="#533566"/>
<circle cx="345.00" cy="135.00" r="3.40" fill="#523566"/>
<circle cx="355.00" cy="135.00" r="3.40" fill="#533566"/>
<circle cx="365.00" cy="135.00" r="3.40" fill="#533566"/>
<circle cx="375.00" cy="135.00" r="3.40" fill="#bd994e"/>
<circle cx="385.00" cy="135.00" r="3.40" fill="#7d5d5c"/>
<circle cx="395.00" cy="135.00" r="3.40" fill="#533566"/>
<circle cx="405.00" cy="135.00" r="3.40" fill="#533566"/>
<circle cx="415.00" cy="135.00" r="3.40" fill="#533566"/>
<circle cx="425.00" cy="135.00" r="3.40" fill="#86655a"/>
<circle cx="435.00" cy="135.00" r="3.40" fill="#977656"/>
<circle cx="445.00" cy="135.00" r="3.40" fill="#533566"/>
<circle cx="455.00" cy="135.00" r="3.40" fill="#523465"/>
<circle cx="345.00" cy="145.00" r="3.40" fill="#523465"/>
<circle cx="355.00" cy="145.00" r="3.40" fill="#533566"/>
<circle cx="365.00" cy="145.00" r="3.40" fill="#906f58"/>
<circle cx="375.00" cy="145.00" r="3.40" fill="#f7d040"/>
<circle cx="385.00" cy="145.00" r="3.40" fill="#d9b447"/>
<circle cx="395.00" cy="145.00" r="3.40" fill="#6f4f60"/>
<circle cx="405.00" cy="145.00" r="3.40" fill="#533566"/>
<circle cx="415.00" cy="145.00" r="3.40" fill="#533566"/>
<circle cx="425.00" cy="145.00" r="3.40" fill="#533566"/>
<circle cx="435.00" cy="145.00" r="3.40" fill="#533566"/>
<circle cx="445.00" cy="145.00" r="3.40" fill="#533566"/>
<circle cx="455.00" cy="145.00" r="3.40" fill="#533465"/>
<circle cx="345.00" cy="155.00" r="3.40" fill="#523565"/>
<circle cx="355.00" cy="155.00" r="3.40" fill="#533566"/>
<circle cx="365.00" cy="155.00" r="3.40" fill="#906f58"/>
<circle cx="375.00" cy="155.00" r="3.40" fill="#f7d040"/>
<circle cx="385.00" cy="155.00" r="3.40" fill="#d9b447"/>
<circle cx="395.00" cy="155.00" r="3.40" fill="#6f4f60"/>
<circle cx="405.00" cy="155.00" r="3.40" fill="#533566"/>
<circle cx="415.00" cy="155.00" r="3.40" fill="#533566"/>
<circle cx="425.00" cy="155.00" r="3.40" fill="#533566"/>
<circle cx="435.00" cy="155.00" r="3.40" fill="#533566"/>
<circle cx="445.00" cy="155.00" r="3.40" fill="#533566"/>
<circle cx="455.00" cy="155.00" r="3.40" fill="#533465"/>
<circle cx="355.00" cy="165.00" r="3.40" fill="#533566"/>
<circle cx="365.00" cy="165.00" r="3.40" fill="#533566"/>
<circle cx="375.00" cy="165.00" r="3.40" fill="#bd994e"/>
<circle cx="385.00" cy="165.00" r="3.40" fill="#7d5d5c"/>
<circle cx="395.00" cy="165.00" r="3.40" fill="#533566"/>
<circle cx="405.00" cy="165.00" r="3.40" fill="#533566"/>
<circle cx="415.00" cy="165.00" r="3.40" fill="#533566"/>
<circle cx="425.00" cy="165.00" r="3.40" fill="#533566"/>
<circle cx="435.00" cy="165.00" r="3.40" fill="#533566"/>
<circle cx="445.00" cy="165.00" r="3.40" fill="#533566"/>
<circle cx="355.00" cy="175.00" r="3.40" fill="#533566"/>
<circle cx="365.00" cy="175.00" r="3.40" fill="#533566"/>
<circle cx="375.00" cy="175.00" r="3.40" fill="#5d3e64"/>
<circle cx="385.00" cy="175.00" r="3.40" fill="#533566"/>
<circle cx="395.00" cy="175.00" r="3.40" fill="#533566"/>
<circle cx="405.00" cy="175.00" r="3.40" fill="#533566"/>
<circle cx="415.00" cy="175.00" r="3.40" fill="#533566"/>
<circle cx="425.00" cy="175.00" r="3.40" fill="#533566"/>
<circle cx="435.00" cy="175.00" r="3.40" fill="#533566"/>
<circle cx="445.00" cy="175.00" r="3.40" fill="#533566"/>
<circle cx="365.00" cy="185.00" r="3.40" fill="#7d698b"/>
<circle cx="375.00" cy="185.00" r="3.40" fill="#847191"/>
<circle cx="385.00" cy="185.00" r="3.40" fill="#847191"/>
<circle cx="395.00" cy="185.00" r="3.40" fill="#847191"/>
<circle cx="405.00" cy="185.00" r="3.40" fill="#847191"/>
<circle cx="415.00" cy="185.00" r="3.40" fill="#847191"/>
<circle cx="425.00" cy="185.00" r="3.40" fill="#847191"/>
<circle cx="435.00" cy="185.00" r="3.40" fill="#7d698b"/>
<circle cx="365.00" cy="195.00" r="3.40" fill="#b4acbc"/>
<circle cx="375.00" cy="195.00" r="3.40" fill="#b4acbc"/>
<circle cx="385.00" cy="195.00" r="3.40" fill="#b4acbc"/>
<circle cx="395.00" cy="195.00" r="3.40" fill="#b4acbc"/>
<circle cx="405.00" cy="195.00" r="3.40" fill="#b4acbc"/>
<circle cx="415.00" cy="195.00" r="3.40" fill="#b4acbc"/>
<circle cx="425.00" cy="195.00" r="3.40" fill="#b4acbc"/>
<circle cx="435.00" cy="195.00" r="3.40" fill="#b4acbc"/>
<circle cx="365.00" cy="205.00" r="3.40" fill="#b4acbc"/>
<circle cx="375.00" cy="205.00" r="3.40" fill="#b4acbc"/>
<circle cx="385.00" cy="205.00" r="3.40" fill="#b4acbc"/>
<circle cx="395.00" cy="205.00" r="3.40" fill="#b4acbc"/>
<circle cx="405.00" cy="205.00" r="3.40" fill="#b4acbc"/>
<circle cx="415.00" cy="205.00" r="3.40" fill="#b4acbc"/>
<circle cx="425.00" cy="205.00" r="3.40" fill="#b4acbc"/>
<circle cx="435.00" cy="205.00" r="3.40" fill="#b4acbc"/>
<circle cx="375.00" cy="215.00" r="3.40" fill="#b4acbb"/>
<circle cx="385.00" cy="215.00" r="3.40" fill="#b4acbb"/>
<circle cx="395.00" cy="215.00" r="3.40" fill="#b4acbb"/>
<circle cx="405.00" cy="215.00" r="3.40" fill="#b4acbb"/>
<circle cx="415.00" cy="215.00" r="3.40" fill="#b4acbb"/>
<circle cx="425.00" cy="215.00" r="3.40" fill="#b4acbb"/>
<defs>
  <pattern id="dotgrid" width="24" height="24" patternUnits="userSpaceOnUse">
    <circle cx="4" cy="4" r="0.85" fill="#58A6FF" opacity="0.22"/>
  </pattern>
</defs>
</svg>
