<svg width="800" height="280" viewBox="0 0 800 280" fill="none" xmlns="http://www.w3.org/2000/svg" role="img" aria-labelledby="title desc">
<title id="title">Daily pixel drop</title>
<desc id="desc">2026 / 05 / 28. COMMON drop Cookie.</desc>
<rect width="800" height="280" rx="8" fill="#0D1117"/>
<rect x="1" y="1" width="798" height="278" rx="7" stroke="#243246"/>
<rect x="18" y="18" width="764" height="244" rx="5" fill="url(#dotgrid)" opacity="0.58"/>
<path d="M52 46H32V66M748 46H768V66M52 234H32V214M748 234H768V214" stroke="#8b949e" stroke-width="1.5" stroke-linecap="square" opacity="0.76"/>
<rect x="304" y="56" width="192" height="188" rx="5" stroke="#8b949e" opacity="0.54"/>
<circle cx="385.00" cy="85.00" r="3.40" fill="#d8793b"/>
<circle cx="395.00" cy="85.00" r="3.40" fill="#db7f3e"/>
<circle cx="405.00" cy="85.00" r="3.40" fill="#db7e3e"/>
<circle cx="365.00" cy="95.00" r="3.40" fill="#d87a3a"/>
<circle cx="375.00" cy="95.00" r="3.40" fill="#de8443"/>
<circle cx="385.00" cy="95.00" r="3.40" fill="#eb9a52"/>
<circle cx="395.00" cy="95.00" r="3.40" fill="#f7b663"/>
<circle cx="405.00" cy="95.00" r="3.40" fill="#f7b562"/>
<circle cx="415.00" cy="95.00" r="3.40" fill="#efa558"/>
<circle cx="425.00" cy="95.00" r="3.40" fill="#e28846"/>
<circle cx="435.00" cy="95.00" r="3.40" fill="#d97c3c"/>
<circle cx="355.00" cy="105.00" r="3.40" fill="#d97c3b"/>
<circle cx="365.00" cy="105.00" r="3.40" fill="#c57645"/>
<circle cx="375.00" cy="105.00" r="3.40" fill="#955b49"/>
<circle cx="385.00" cy="105.00" r="3.40" fill="#e09956"/>
<circle cx="395.00" cy="105.00" r="3.40" fill="#ffc76d"/>
<circle cx="405.00" cy="105.00" r="3.40" fill="#ffc86e"/>
<circle cx="415.00" cy="105.00" r="3.40" fill="#fdc26a"/>
<circle cx="425.00" cy="105.00" r="3.40" fill="#d4884f"/>
<circle cx="435.00" cy="105.00" r="3.40" fill="#dd8646"/>
<circle cx="445.00" cy="105.00" r="3.40" fill="#d7793a"/>
<circle cx="345.00" cy="115.00" r="3.40" fill="#d47536"/>
<circle cx="355.00" cy="115.00" r="3.40" fill="#f7b964"/>
<circle cx="365.00" cy="115.00" r="3.40" fill="#c17943"/>
<circle cx="375.00" cy="115.00" r="3.40" fill="#925630"/>
<circle cx="385.00" cy="115.00" r="3.40" fill="#e19250"/>
<circle cx="395.00" cy="115.00" r="3.40" fill="#f4a65c"/>
<circle cx="405.00" cy="115.00" r="3.40" fill="#fbbb67"/>
<circle cx="415.00" cy="115.00" r="3.40" fill="#ea9f59"/>
<circle cx="425.00" cy="115.00" r="3.40" fill="#885242"/>
<circle cx="435.00" cy="115.00" r="3.40" fill="#a0633e"/>
<circle cx="445.00" cy="115.00" r="3.40" fill="#e8984f"/>
<circle cx="455.00" cy="115.00" r="3.40" fill="#d07031"/>
<circle cx="345.00" cy="125.00" r="3.40" fill="#da833e"/>
<circle cx="355.00" cy="125.00" r="3.40" fill="#ffc86e"/>
<circle cx="365.00" cy="125.00" r="3.40" fill="#f9b564"/>
<circle cx="375.00" cy="125.00" r="3.40" fill="#f29f58"/>
<circle cx="385.00" cy="125.00" r="3.40" fill="#ec9a57"/>
<circle cx="395.00" cy="125.00" r="3.40" fill="#c47d51"/>
<circle cx="405.00" cy="125.00" r="3.40" fill="#f29f58"/>
<circle cx="415.00" cy="125.00" r="3.40" fill="#ec9b56"/>
<circle cx="425.00" cy="125.00" r="3.40" fill="#c3783d"/>
<circle cx="435.00" cy="125.00" r="3.40" fill="#e4954f"/>
<circle cx="445.00" cy="125.00" r="3.40" fill="#ffc76d"/>
<circle cx="455.00" cy="125.00" r="3.40" fill="#d6803b"/>
<circle cx="335.00" cy="135.00" r="3.40" fill="#ac5811"/>
<circle cx="345.00" cy="135.00" r="3.40" fill="#de8b44"/>
<circle cx="355.00" cy="135.00" r="3.40" fill="#fec56c"/>
<circle cx="365.00" cy="135.00" r="3.40" fill="#dc9457"/>
<circle cx="375.00" cy="135.00" r="3.40" fill="#a06348"/>
<circle cx="385.00" cy="135.00" r="3.40" fill="#e49452"/>
<circle cx="395.00" cy="135.00" r="3.40" fill="#9f5f38"/>
<circle cx="405.00" cy="135.00" r="3.40" fill="#f2a75c"/>
<circle cx="415.00" cy="135.00" r="3.40" fill="#fdc36b"/>
<circle cx="425.00" cy="135.00" r="3.40" fill="#f8b161"/>
<circle cx="435.00" cy="135.00" r="3.40" fill="#f09d57"/>
<circle cx="445.00" cy="135.00" r="3.40" fill="#e99f58"/>
<circle cx="455.00" cy="135.00" r="3.40" fill="#da803e"/>
<circle cx="465.00" cy="135.00" r="3.40" fill="#ac5811"/>
<circle cx="335.00" cy="145.00" r="3.40" fill="#ac5811"/>
<circle cx="345.00" cy="145.00" r="3.40" fill="#d47a37"/>
<circle cx="355.00" cy="145.00" r="3.40" fill="#ee9d55"/>
<circle cx="365.00" cy="145.00" r="3.40" fill="#d4864b"/>
<circle cx="375.00" cy="145.00" r="3.40" fill="#8a4f2e"/>
<circle cx="385.00" cy="145.00" r="3.40" fill="#e89751"/>
<circle cx="395.00" cy="145.00" r="3.40" fill="#f9b664"/>
<circle cx="405.00" cy="145.00" r="3.40" fill="#fec46c"/>
<circle cx="415.00" cy="145.00" r="3.40" fill="#fcbe68"/>
<circle cx="425.00" cy="145.00" r="3.40" fill="#f4a45b"/>
<circle cx="435.00" cy="145.00" r="3.40" fill="#d78a52"/>
<circle cx="445.00" cy="145.00" r="3.40" fill="#794838"/>
<circle cx="455.00" cy="145.00" r="3.40" fill="#d47a3c"/>
<circle cx="465.00" cy="145.00" r="3.40" fill="#ac5811"/>
<circle cx="335.00" cy="155.00" r="3.40" fill="#ac5811"/>
<circle cx="345.00" cy="155.00" r="3.40" fill="#ca712e"/>
<circle cx="355.00" cy="155.00" r="3.40" fill="#a66542"/>
<circle cx="365.00" cy="155.00" r="3.40" fill="#bc7643"/>
<circle cx="375.00" cy="155.00" r="3.40" fill="#f19e58"/>
<circle cx="385.00" cy="155.00" r="3.40" fill="#ef9f59"/>
<circle cx="395.00" cy="155.00" r="3.40" fill="#fbbd68"/>
<circle cx="405.00" cy="155.00" r="3.40" fill="#f7ae60"/>
<circle cx="415.00" cy="155.00" r="3.40" fill="#f29f58"/>
<circle cx="425.00" cy="155.00" r="3.40" fill="#f29f58"/>
<circle cx="435.00" cy="155.00" r="3.40" fill="#e3904b"/>
<circle cx="445.00" cy="155.00" r="3.40" fill="#b96f39"/>
<circle cx="455.00" cy="155.00" r="3.40" fill="#d17635"/>
<circle cx="465.00" cy="155.00" r="3.40" fill="#ac5811"/>
<circle cx="335.00" cy="165.00" r="3.40" fill="#ac5811"/>
<circle cx="345.00" cy="165.00" r="3.40" fill="#bb631f"/>
<circle cx="355.00" cy="165.00" r="3.40" fill="#d68040"/>
<circle cx="365.00" cy="165.00" r="3.40" fill="#eb9750"/>
<circle cx="375.00" cy="165.00" r="3.40" fill="#ca8151"/>
<circle cx="385.00" cy="165.00" r="3.40" fill="#975c49"/>
<circle cx="395.00" cy="165.00" r="3.40" fill="#d0874e"/>
<circle cx="405.00" cy="165.00" r="3.40" fill="#f29f58"/>
<circle cx="415.00" cy="165.00" r="3.40" fill="#d98c54"/>
<circle cx="425.00" cy="165.00" r="3.40" fill="#9a6041"/>
<circle cx="435.00" cy="165.00" r="3.40" fill="#ed9a55"/>
<circle cx="445.00" cy="165.00" r="3.40" fill="#e78f4b"/>
<circle cx="455.00" cy="165.00" r="3.40" fill="#c06723"/>
<circle cx="465.00" cy="165.00" r="3.40" fill="#ac5811"/>
<circle cx="335.00" cy="175.00" r="3.40" fill="#ac5811"/>
<circle cx="345.00" cy="175.00" r="3.40" fill="#ac5811"/>
<circle cx="355.00" cy="175.00" r="3.40" fill="#ce7532"/>
<circle cx="365.00" cy="175.00" r="3.40" fill="#ea944f"/>
<circle cx="375.00" cy="175.00" r="3.40" fill="#d3874b"/>
<circle cx="385.00" cy="175.00" r="3.40" fill="#834c2d"/>
<circle cx="395.00" cy="175.00" r="3.40" fill="#bc7947"/>
<circle cx="405.00" cy="175.00" r="3.40" fill="#f29f58"/>
<circle cx="415.00" cy="175.00" r="3.40" fill="#a66640"/>
<circle cx="425.00" cy="175.00" r="3.40" fill="#653b2e"/>
<circle cx="435.00" cy="175.00" r="3.40" fill="#dd8b4c"/>
<circle cx="445.00" cy="175.00" r="3.40" fill="#d27936"/>
<circle cx="455.00" cy="175.00" r="3.40" fill="#ad5912"/>
<circle cx="465.00" cy="175.00" r="3.40" fill="#ac5811"/>
<circle cx="345.00" cy="185.00" r="3.40" fill="#ac5811"/>
<circle cx="355.00" cy="185.00" r="3.40" fill="#ac5811"/>
<circle cx="365.00" cy="185.00" r="3.40" fill="#c46e29"/>
<circle cx="375.00" cy="185.00" r="3.40" fill="#e8914d"/>
<circle cx="385.00" cy="185.00" r="3.40" fill="#ed9953"/>
<circle cx="395.00" cy="185.00" r="3.40" fill="#ef9b55"/>
<circle cx="405.00" cy="185.00" r="3.40" fill="#ef9b55"/>
<circle cx="415.00" cy="185.00" r="3.40" fill="#eb964f"/>
<circle cx="425.00" cy="185.00" r="3.40" fill="#e28a44"/>
<circle cx="435.00" cy="185.00" r="3.40" fill="#cb742f"/>
<circle cx="445.00" cy="185.00" r="3.40" fill="#ae5913"/>
<circle cx="455.00" cy="185.00" r="3.40" fill="#ac5811"/>
<circle cx="355.00" cy="195.00" r="3.40" fill="#ac5811"/>
<circle cx="365.00" cy="195.00" r="3.40" fill="#ac5811"/>
<circle cx="375.00" cy="195.00" r="3.40" fill="#b9631e"/>
<circle cx="385.00" cy="195.00" r="3.40" fill="#d47b38"/>
<circle cx="395.00" cy="195.00" r="3.40" fill="#df8643"/>
<circle cx="405.00" cy="195.00" r="3.40" fill="#d77f3b"/>
<circle cx="415.00" cy="195.00" r="3.40" fill="#bc6721"/>
<circle cx="425.00" cy="195.00" r="3.40" fill="#ad5912"/>
<circle cx="435.00" cy="195.00" r="3.40" fill="#ac5811"/>
<circle cx="445.00" cy="195.00" r="3.40" fill="#ac5811"/>
<circle cx="365.00" cy="205.00" r="3.40" fill="#ac5811"/>
<circle cx="375.00" cy="205.00" r="3.40" fill="#ac5811"/>
<circle cx="385.00" cy="205.00" r="3.40" fill="#ac5811"/>
<circle cx="395.00" cy="205.00" r="3.40" fill="#ac5811"/>
<circle cx="405.00" cy="205.00" r="3.40" fill="#ac5811"/>
<circle cx="415.00" cy="205.00" r="3.40" fill="#ac5811"/>
<circle cx="425.00" cy="205.00" r="3.40" fill="#ac5811"/>
<circle cx="435.00" cy="205.00" r="3.40" fill="#ac5811"/>
<circle cx="385.00" cy="215.00" r="3.40" fill="#ac5811"/>
<circle cx="395.00" cy="215.00" r="3.40" fill="#ac5811"/>
<circle cx="405.00" cy="215.00" r="3.40" fill="#ac5811"/>
<defs>
  <pattern id="dotgrid" width="24" height="24" patternUnits="userSpaceOnUse">
    <circle cx="4" cy="4" r="0.85" fill="#58A6FF" opacity="0.22"/>
  </pattern>
</defs>
</svg>
