<svg width="800" height="280" viewBox="0 0 800 280" fill="none" xmlns="http://www.w3.org/2000/svg" role="img" aria-labelledby="title desc">
<title id="title">Daily pixel drop</title>
<desc id="desc">2026 / 07 / 23. RARE drop Crystal Ball.</desc>
<rect width="800" height="280" rx="8" fill="#0D1117"/>
<rect x="1" y="1" width="798" height="278" rx="7" stroke="#243246"/>
<rect x="18" y="18" width="764" height="244" rx="5" fill="url(#dotgrid)" opacity="0.58"/>
<path d="M52 46H32V66M748 46H768V66M52 234H32V214M748 234H768V214" stroke="#58a6ff" stroke-width="1.5" stroke-linecap="square" opacity="0.76"/>
<rect x="304" y="56" width="192" height="188" rx="5" stroke="#58a6ff" opacity="0.54"/>
<circle cx="385.00" cy="85.00" r="3.40" fill="#9e87d6"/>
<circle cx="395.00" cy="85.00" r="3.40" fill="#8f77d0"/>
<circle cx="405.00" cy="85.00" r="3.40" fill="#8572cd"/>
<circle cx="415.00" cy="85.00" r="3.40" fill="#8482d3"/>
<circle cx="365.00" cy="95.00" r="3.40" fill="#a380d4"/>
<circle cx="375.00" cy="95.00" r="3.40" fill="#a081d3"/>
<circle cx="385.00" cy="95.00" r="3.40" fill="#9b7bd0"/>
<circle cx="395.00" cy="95.00" r="3.40" fill="#835cc4"/>
<circle cx="405.00" cy="95.00" r="3.40" fill="#815dc5"/>
<circle cx="415.00" cy="95.00" r="3.40" fill="#6658c1"/>
<circle cx="425.00" cy="95.00" r="3.40" fill="#6a6bc9"/>
<circle cx="435.00" cy="95.00" r="3.40" fill="#94a0e1"/>
<circle cx="355.00" cy="105.00" r="3.40" fill="#a37cd2"/>
<circle cx="365.00" cy="105.00" r="3.40" fill="#ae8ed7"/>
<circle cx="375.00" cy="105.00" r="3.40" fill="#ebdff3"/>
<circle cx="385.00" cy="105.00" r="3.40" fill="#dec9eb"/>
<circle cx="395.00" cy="105.00" r="3.40" fill="#8d5cc4"/>
<circle cx="405.00" cy="105.00" r="3.40" fill="#8a60c6"/>
<circle cx="415.00" cy="105.00" r="3.40" fill="#6b5ac1"/>
<circle cx="425.00" cy="105.00" r="3.40" fill="#7270c9"/>
<circle cx="435.00" cy="105.00" r="3.40" fill="#6b74cc"/>
<circle cx="445.00" cy="105.00" r="3.40" fill="#9bafe9"/>
<circle cx="355.00" cy="115.00" r="3.40" fill="#9f75cf"/>
<circle cx="365.00" cy="115.00" r="3.40" fill="#dcc1e9"/>
<circle cx="375.00" cy="115.00" r="3.40" fill="#dbb1e3"/>
<circle cx="385.00" cy="115.00" r="3.40" fill="#c381d1"/>
<circle cx="395.00" cy="115.00" r="3.40" fill="#955dc4"/>
<circle cx="405.00" cy="115.00" r="3.40" fill="#7e5bc2"/>
<circle cx="415.00" cy="115.00" r="3.40" fill="#7c74ca"/>
<circle cx="425.00" cy="115.00" r="3.40" fill="#d9d8f0"/>
<circle cx="435.00" cy="115.00" r="3.40" fill="#7078cc"/>
<circle cx="445.00" cy="115.00" r="3.40" fill="#87a1e1"/>
<circle cx="345.00" cy="125.00" r="3.40" fill="#a17ad1"/>
<circle cx="355.00" cy="125.00" r="3.40" fill="#b285d5"/>
<circle cx="365.00" cy="125.00" r="3.40" fill="#c991d7"/>
<circle cx="375.00" cy="125.00" r="3.40" fill="#bc6dca"/>
<circle cx="385.00" cy="125.00" r="3.40" fill="#a261c5"/>
<circle cx="395.00" cy="125.00" r="3.40" fill="#8459c1"/>
<circle cx="405.00" cy="125.00" r="3.40" fill="#6955be"/>
<circle cx="415.00" cy="125.00" r="3.40" fill="#8e81cf"/>
<circle cx="425.00" cy="125.00" r="3.40" fill="#c1c1e8"/>
<circle cx="435.00" cy="125.00" r="3.40" fill="#808dd5"/>
<circle cx="445.00" cy="125.00" r="3.40" fill="#849fe0"/>
<circle cx="455.00" cy="125.00" r="3.40" fill="#97aee7"/>
<circle cx="345.00" cy="135.00" r="3.40" fill="#a078d1"/>
<circle cx="355.00" cy="135.00" r="3.40" fill="#ab78d0"/>
<circle cx="365.00" cy="135.00" r="3.40" fill="#b567c8"/>
<circle cx="375.00" cy="135.00" r="3.40" fill="#ac5fc5"/>
<circle cx="385.00" cy="135.00" r="3.40" fill="#9c5ac3"/>
<circle cx="395.00" cy="135.00" r="3.40" fill="#7956c0"/>
<circle cx="405.00" cy="135.00" r="3.40" fill="#765ac1"/>
<circle cx="415.00" cy="135.00" r="3.40" fill="#856ec9"/>
<circle cx="425.00" cy="135.00" r="3.40" fill="#837ed0"/>
<circle cx="435.00" cy="135.00" r="3.40" fill="#989fdd"/>
<circle cx="445.00" cy="135.00" r="3.40" fill="#b8c9f0"/>
<circle cx="455.00" cy="135.00" r="3.40" fill="#95b1ea"/>
<circle cx="345.00" cy="145.00" r="3.40" fill="#9d7ad2"/>
<circle cx="355.00" cy="145.00" r="3.40" fill="#a373cf"/>
<circle cx="365.00" cy="145.00" r="3.40" fill="#ad66c9"/>
<circle cx="375.00" cy="145.00" r="3.40" fill="#a85ac3"/>
<circle cx="385.00" cy="145.00" r="3.40" fill="#9f58c2"/>
<circle cx="395.00" cy="145.00" r="3.40" fill="#9259c2"/>
<circle cx="405.00" cy="145.00" r="3.40" fill="#7b57c0"/>
<circle cx="415.00" cy="145.00" r="3.40" fill="#a08ed5"/>
<circle cx="425.00" cy="145.00" r="3.40" fill="#8b80d2"/>
<circle cx="435.00" cy="145.00" r="3.40" fill="#c2c0eb"/>
<circle cx="445.00" cy="145.00" r="3.40" fill="#c4d4f3"/>
<circle cx="455.00" cy="145.00" r="3.40" fill="#92b2ea"/>
<circle cx="355.00" cy="155.00" r="3.40" fill="#9d7ad2"/>
<circle cx="365.00" cy="155.00" r="3.40" fill="#a66ecd"/>
<circle cx="375.00" cy="155.00" r="3.40" fill="#ac67c9"/>
<circle cx="385.00" cy="155.00" r="3.40" fill="#a660c6"/>
<circle cx="395.00" cy="155.00" r="3.40" fill="#9f5fc5"/>
<circle cx="405.00" cy="155.00" r="3.40" fill="#ac81d2"/>
<circle cx="415.00" cy="155.00" r="3.40" fill="#c2b5e4"/>
<circle cx="425.00" cy="155.00" r="3.40" fill="#8983d3"/>
<circle cx="435.00" cy="155.00" r="3.40" fill="#939ce0"/>
<circle cx="445.00" cy="155.00" r="3.40" fill="#96b3eb"/>
<circle cx="355.00" cy="165.00" r="3.40" fill="#9a82d6"/>
<circle cx="365.00" cy="165.00" r="3.40" fill="#9d7bd3"/>
<circle cx="375.00" cy="165.00" r="3.40" fill="#a375d0"/>
<circle cx="385.00" cy="165.00" r="3.40" fill="#a673cf"/>
<circle cx="395.00" cy="165.00" r="3.40" fill="#a777d0"/>
<circle cx="405.00" cy="165.00" r="3.40" fill="#9e79d0"/>
<circle cx="415.00" cy="165.00" r="3.40" fill="#a792da"/>
<circle cx="425.00" cy="165.00" r="3.40" fill="#7c76cf"/>
<circle cx="435.00" cy="165.00" r="3.40" fill="#889fe1"/>
<circle cx="445.00" cy="165.00" r="3.40" fill="#90afe9"/>
<circle cx="365.00" cy="175.00" r="3.40" fill="#9889d9"/>
<circle cx="375.00" cy="175.00" r="3.40" fill="#9986d8"/>
<circle cx="385.00" cy="175.00" r="3.40" fill="#9b84d6"/>
<circle cx="395.00" cy="175.00" r="3.40" fill="#9c87d8"/>
<circle cx="405.00" cy="175.00" r="3.40" fill="#9483d6"/>
<circle cx="415.00" cy="175.00" r="3.40" fill="#8d85d7"/>
<circle cx="425.00" cy="175.00" r="3.40" fill="#8390db"/>
<circle cx="435.00" cy="175.00" r="3.40" fill="#8dabe7"/>
<circle cx="365.00" cy="185.00" r="3.40" fill="#9b6858"/>
<circle cx="375.00" cy="185.00" r="3.40" fill="#b5919e"/>
<circle cx="385.00" cy="185.00" r="3.40" fill="#9e97d4"/>
<circle cx="395.00" cy="185.00" r="3.40" fill="#9095de"/>
<circle cx="405.00" cy="185.00" r="3.40" fill="#8d97df"/>
<circle cx="415.00" cy="185.00" r="3.40" fill="#989fd8"/>
<circle cx="425.00" cy="185.00" r="3.40" fill="#b29ca4"/>
<circle cx="435.00" cy="185.00" r="3.40" fill="#a16e56"/>
<circle cx="365.00" cy="195.00" r="3.40" fill="#9e653f"/>
<circle cx="375.00" cy="195.00" r="3.40" fill="#a36842"/>
<circle cx="385.00" cy="195.00" r="3.40" fill="#c28154"/>
<circle cx="395.00" cy="195.00" r="3.40" fill="#be8263"/>
<circle cx="405.00" cy="195.00" r="3.40" fill="#b97f62"/>
<circle cx="415.00" cy="195.00" r="3.40" fill="#b87950"/>
<circle cx="425.00" cy="195.00" r="3.40" fill="#a06741"/>
<circle cx="435.00" cy="195.00" r="3.40" fill="#99623e"/>
<circle cx="365.00" cy="205.00" r="3.40" fill="#8f5a3a"/>
<circle cx="375.00" cy="205.00" r="3.40" fill="#98603d"/>
<circle cx="385.00" cy="205.00" r="3.40" fill="#935d3b"/>
<circle cx="395.00" cy="205.00" r="3.40" fill="#a06640"/>
<circle cx="405.00" cy="205.00" r="3.40" fill="#9f6540"/>
<circle cx="415.00" cy="205.00" r="3.40" fill="#955e3c"/>
<circle cx="425.00" cy="205.00" r="3.40" fill="#8f5a3a"/>
<circle cx="435.00" cy="205.00" r="3.40" fill="#8d5939"/>
<circle cx="385.00" cy="215.00" r="3.40" fill="#8b5738"/>
<circle cx="395.00" cy="215.00" r="3.40" fill="#8b5738"/>
<circle cx="405.00" cy="215.00" r="3.40" fill="#925c3b"/>
<circle cx="415.00" cy="215.00" r="3.40" fill="#8e5939"/>
<defs>
  <pattern id="dotgrid" width="24" height="24" patternUnits="userSpaceOnUse">
    <circle cx="4" cy="4" r="0.85" fill="#58A6FF" opacity="0.22"/>
  </pattern>
</defs>
</svg>
