<svg width="800" height="300" viewBox="0 0 800 300" fill="none" xmlns="http://www.w3.org/2000/svg" role="img" aria-labelledby="title desc">
<title id="title">Daily pixel drop</title>
<desc id="desc">2026 / 05 / 17. COMMON drop Static Cherry.</desc>
<rect width="800" height="300" rx="8" fill="#0D1117"/>
<rect x="1" y="1" width="798" height="298" rx="7" stroke="#243246"/>
<rect x="18" y="18" width="764" height="264" rx="5" fill="url(#dotgrid)" opacity="0.58"/>
<path d="M52 46H32V66M748 46H768V66M52 254H32V234M748 254H768V234" stroke="#8b949e" stroke-width="1.5" stroke-linecap="square" opacity="0.76"/>
<circle cx="59.16" cy="43.16" r="1.16" fill="#8fa7bf" opacity="0.84"/>
<circle cx="62.66" cy="43.16" r="1.16" fill="#8fa7bf" opacity="0.84"/>
<circle cx="66.16" cy="43.16" r="1.16" fill="#8fa7bf" opacity="0.84"/>
<circle cx="69.66" cy="43.16" r="1.16" fill="#8fa7bf" opacity="0.84"/>
<circle cx="59.16" cy="46.66" r="1.16" fill="#8fa7bf" opacity="0.84"/>
<circle cx="73.16" cy="46.66" r="1.16" fill="#8fa7bf" opacity="0.84"/>
<circle cx="59.16" cy="50.16" r="1.16" fill="#8fa7bf" opacity="0.84"/>
<circle cx="73.16" cy="50.16" r="1.16" fill="#8fa7bf" opacity="0.84"/>
<circle cx="59.16" cy="53.66" r="1.16" fill="#8fa7bf" opacity="0.84"/>
<circle cx="73.16" cy="53.66" r="1.16" fill="#8fa7bf" opacity="0.84"/>
<circle cx="59.16" cy="57.16" r="1.16" fill="#8fa7bf" opacity="0.84"/>
<circle cx="73.16" cy="57.16" r="1.16" fill="#8fa7bf" opacity="0.84"/>
<circle cx="59.16" cy="60.66" r="1.16" fill="#8fa7bf" opacity="0.84"/>
<circle cx="73.16" cy="60.66" r="1.16" fill="#8fa7bf" opacity="0.84"/>
<circle cx="59.16" cy="64.16" r="1.16" fill="#8fa7bf" opacity="0.84"/>
<circle cx="62.66" cy="64.16" r="1.16" fill="#8fa7bf" opacity="0.84"/>
<circle cx="66.16" cy="64.16" r="1.16" fill="#8fa7bf" opacity="0.84"/>
<circle cx="69.66" cy="64.16" r="1.16" fill="#8fa7bf" opacity="0.84"/>
<circle cx="83.66" cy="43.16" r="1.16" fill="#8fa7bf" opacity="0.84"/>
<circle cx="87.16" cy="43.16" r="1.16" fill="#8fa7bf" opacity="0.84"/>
<circle cx="90.66" cy="43.16" r="1.16" fill="#8fa7bf" opacity="0.84"/>
<circle cx="80.16" cy="46.66" r="1.16" fill="#8fa7bf" opacity="0.84"/>
<circle cx="94.16" cy="46.66" r="1.16" fill="#8fa7bf" opacity="0.84"/>
<circle cx="80.16" cy="50.16" r="1.16" fill="#8fa7bf" opacity="0.84"/>
<circle cx="94.16" cy="50.16" r="1.16" fill="#8fa7bf" opacity="0.84"/>
<circle cx="80.16" cy="53.66" r="1.16" fill="#8fa7bf" opacity="0.84"/>
<circle cx="83.66" cy="53.66" r="1.16" fill="#8fa7bf" opacity="0.84"/>
<circle cx="87.16" cy="53.66" r="1.16" fill="#8fa7bf" opacity="0.84"/>
<circle cx="90.66" cy="53.66" r="1.16" fill="#8fa7bf" opacity="0.84"/>
<circle cx="94.16" cy="53.66" r="1.16" fill="#8fa7bf" opacity="0.84"/>
<circle cx="80.16" cy="57.16" r="1.16" fill="#8fa7bf" opacity="0.84"/>
<circle cx="94.16" cy="57.16" r="1.16" fill="#8fa7bf" opacity="0.84"/>
<circle cx="80.16" cy="60.66" r="1.16" fill="#8fa7bf" opacity="0.84"/>
<circle cx="94.16" cy="60.66" r="1.16" fill="#8fa7bf" opacity="0.84"/>
<circle cx="80.16" cy="64.16" r="1.16" fill="#8fa7bf" opacity="0.84"/>
<circle cx="94.16" cy="64.16" r="1.16" fill="#8fa7bf" opacity="0.84"/>
<circle cx="101.16" cy="43.16" r="1.16" fill="#8fa7bf" opacity="0.84"/>
<circle cx="104.66" cy="43.16" r="1.16" fill="#8fa7bf" opacity="0.84"/>
<circle cx="108.16" cy="43.16" r="1.16" fill="#8fa7bf" opacity="0.84"/>
<circle cx="111.66" cy="43.16" r="1.16" fill="#8fa7bf" opacity="0.84"/>
<circle cx="115.16" cy="43.16" r="1.16" fill="#8fa7bf" opacity="0.84"/>
<circle cx="108.16" cy="46.66" r="1.16" fill="#8fa7bf" opacity="0.84"/>
<circle cx="108.16" cy="50.16" r="1.16" fill="#8fa7bf" opacity="0.84"/>
<circle cx="108.16" cy="53.66" r="1.16" fill="#8fa7bf" opacity="0.84"/>
<circle cx="108.16" cy="57.16" r="1.16" fill="#8fa7bf" opacity="0.84"/>
<circle cx="108.16" cy="60.66" r="1.16" fill="#8fa7bf" opacity="0.84"/>
<circle cx="101.16" cy="64.16" r="1.16" fill="#8fa7bf" opacity="0.84"/>
<circle cx="104.66" cy="64.16" r="1.16" fill="#8fa7bf" opacity="0.84"/>
<circle cx="108.16" cy="64.16" r="1.16" fill="#8fa7bf" opacity="0.84"/>
<circle cx="111.66" cy="64.16" r="1.16" fill="#8fa7bf" opacity="0.84"/>
<circle cx="115.16" cy="64.16" r="1.16" fill="#8fa7bf" opacity="0.84"/>
<circle cx="122.16" cy="43.16" r="1.16" fill="#8fa7bf" opacity="0.84"/>
<circle cx="122.16" cy="46.66" r="1.16" fill="#8fa7bf" opacity="0.84"/>
<circle cx="122.16" cy="50.16" r="1.16" fill="#8fa7bf" opacity="0.84"/>
<circle cx="122.16" cy="53.66" r="1.16" fill="#8fa7bf" opacity="0.84"/>
<circle cx="122.16" cy="57.16" r="1.16" fill="#8fa7bf" opacity="0.84"/>
<circle cx="122.16" cy="60.66" r="1.16" fill="#8fa7bf" opacity="0.84"/>
<circle cx="122.16" cy="64.16" r="1.16" fill="#8fa7bf" opacity="0.84"/>
<circle cx="125.66" cy="64.16" r="1.16" fill="#8fa7bf" opacity="0.84"/>
<circle cx="129.16" cy="64.16" r="1.16" fill="#8fa7bf" opacity="0.84"/>
<circle cx="132.66" cy="64.16" r="1.16" fill="#8fa7bf" opacity="0.84"/>
<circle cx="136.16" cy="64.16" r="1.16" fill="#8fa7bf" opacity="0.84"/>
<circle cx="143.16" cy="43.16" r="1.16" fill="#8fa7bf" opacity="0.84"/>
<circle cx="157.16" cy="43.16" r="1.16" fill="#8fa7bf" opacity="0.84"/>
<circle cx="143.16" cy="46.66" r="1.16" fill="#8fa7bf" opacity="0.84"/>
<circle cx="157.16" cy="46.66" r="1.16" fill="#8fa7bf" opacity="0.84"/>
<circle cx="146.66" cy="50.16" r="1.16" fill="#8fa7bf" opacity="0.84"/>
<circle cx="153.66" cy="50.16" r="1.16" fill="#8fa7bf" opacity="0.84"/>
<circle cx="150.16" cy="53.66" r="1.16" fill="#8fa7bf" opacity="0.84"/>
<circle cx="150.16" cy="57.16" r="1.16" fill="#8fa7bf" opacity="0.84"/>
<circle cx="150.16" cy="60.66" r="1.16" fill="#8fa7bf" opacity="0.84"/>
<circle cx="150.16" cy="64.16" r="1.16" fill="#8fa7bf" opacity="0.84"/>
<circle cx="178.16" cy="43.16" r="1.16" fill="#8fa7bf" opacity="0.84"/>
<circle cx="181.66" cy="43.16" r="1.16" fill="#8fa7bf" opacity="0.84"/>
<circle cx="185.16" cy="43.16" r="1.16" fill="#8fa7bf" opacity="0.84"/>
<circle cx="188.66" cy="43.16" r="1.16" fill="#8fa7bf" opacity="0.84"/>
<circle cx="178.16" cy="46.66" r="1.16" fill="#8fa7bf" opacity="0.84"/>
<circle cx="192.16" cy="46.66" r="1.16" fill="#8fa7bf" opacity="0.84"/>
<circle cx="178.16" cy="50.16" r="1.16" fill="#8fa7bf" opacity="0.84"/>
<circle cx="192.16" cy="50.16" r="1.16" fill="#8fa7bf" opacity="0.84"/>
<circle cx="178.16" cy="53.66" r="1.16" fill="#8fa7bf" opacity="0.84"/>
<circle cx="181.66" cy="53.66" r="1.16" fill="#8fa7bf" opacity="0.84"/>
<circle cx="185.16" cy="53.66" r="1.16" fill="#8fa7bf" opacity="0.84"/>
<circle cx="188.66" cy="53.66" r="1.16" fill="#8fa7bf" opacity="0.84"/>
<circle cx="178.16" cy="57.16" r="1.16" fill="#8fa7bf" opacity="0.84"/>
<circle cx="178.16" cy="60.66" r="1.16" fill="#8fa7bf" opacity="0.84"/>
<circle cx="178.16" cy="64.16" r="1.16" fill="#8fa7bf" opacity="0.84"/>
<circle cx="199.16" cy="43.16" r="1.16" fill="#8fa7bf" opacity="0.84"/>
<circle cx="202.66" cy="43.16" r="1.16" fill="#8fa7bf" opacity="0.84"/>
<circle cx="206.16" cy="43.16" r="1.16" fill="#8fa7bf" opacity="0.84"/>
<circle cx="209.66" cy="43.16" r="1.16" fill="#8fa7bf" opacity="0.84"/>
<circle cx="213.16" cy="43.16" r="1.16" fill="#8fa7bf" opacity="0.84"/>
<circle cx="206.16" cy="46.66" r="1.16" fill="#8fa7bf" opacity="0.84"/>
<circle cx="206.16" cy="50.16" r="1.16" fill="#8fa7bf" opacity="0.84"/>
<circle cx="206.16" cy="53.66" r="1.16" fill="#8fa7bf" opacity="0.84"/>
<circle cx="206.16" cy="57.16" r="1.16" fill="#8fa7bf" opacity="0.84"/>
<circle cx="206.16" cy="60.66" r="1.16" fill="#8fa7bf" opacity="0.84"/>
<circle cx="199.16" cy="64.16" r="1.16" fill="#8fa7bf" opacity="0.84"/>
<circle cx="202.66" cy="64.16" r="1.16" fill="#8fa7bf" opacity="0.84"/>
<circle cx="206.16" cy="64.16" r="1.16" fill="#8fa7bf" opacity="0.84"/>
<circle cx="209.66" cy="64.16" r="1.16" fill="#8fa7bf" opacity="0.84"/>
<circle cx="213.16" cy="64.16" r="1.16" fill="#8fa7bf" opacity="0.84"/>
<circle cx="220.16" cy="43.16" r="1.16" fill="#8fa7bf" opacity="0.84"/>
<circle cx="234.16" cy="43.16" r="1.16" fill="#8fa7bf" opacity="0.84"/>
<circle cx="220.16" cy="46.66" r="1.16" fill="#8fa7bf" opacity="0.84"/>
<circle cx="234.16" cy="46.66" r="1.16" fill="#8fa7bf" opacity="0.84"/>
<circle cx="223.66" cy="50.16" r="1.16" fill="#8fa7bf" opacity="0.84"/>
<circle cx="230.66" cy="50.16" r="1.16" fill="#8fa7bf" opacity="0.84"/>
<circle cx="227.16" cy="53.66" r="1.16" fill="#8fa7bf" opacity="0.84"/>
<circle cx="223.66" cy="57.16" r="1.16" fill="#8fa7bf" opacity="0.84"/>
<circle cx="230.66" cy="57.16" r="1.16" fill="#8fa7bf" opacity="0.84"/>
<circle cx="220.16" cy="60.66" r="1.16" fill="#8fa7bf" opacity="0.84"/>
<circle cx="234.16" cy="60.66" r="1.16" fill="#8fa7bf" opacity="0.84"/>
<circle cx="220.16" cy="64.16" r="1.16" fill="#8fa7bf" opacity="0.84"/>
<circle cx="234.16" cy="64.16" r="1.16" fill="#8fa7bf" opacity="0.84"/>
<circle cx="241.16" cy="43.16" r="1.16" fill="#8fa7bf" opacity="0.84"/>
<circle cx="244.66" cy="43.16" r="1.16" fill="#8fa7bf" opacity="0.84"/>
<circle cx="248.16" cy="43.16" r="1.16" fill="#8fa7bf" opacity="0.84"/>
<circle cx="251.66" cy="43.16" r="1.16" fill="#8fa7bf" opacity="0.84"/>
<circle cx="255.16" cy="43.16" r="1.16" fill="#8fa7bf" opacity="0.84"/>
<circle cx="241.16" cy="46.66" r="1.16" fill="#8fa7bf" opacity="0.84"/>
<circle cx="241.16" cy="50.16" r="1.16" fill="#8fa7bf" opacity="0.84"/>
<circle cx="241.16" cy="53.66" r="1.16" fill="#8fa7bf" opacity="0.84"/>
<circle cx="244.66" cy="53.66" r="1.16" fill="#8fa7bf" opacity="0.84"/>
<circle cx="248.16" cy="53.66" r="1.16" fill="#8fa7bf" opacity="0.84"/>
<circle cx="251.66" cy="53.66" r="1.16" fill="#8fa7bf" opacity="0.84"/>
<circle cx="241.16" cy="57.16" r="1.16" fill="#8fa7bf" opacity="0.84"/>
<circle cx="241.16" cy="60.66" r="1.16" fill="#8fa7bf" opacity="0.84"/>
<circle cx="241.16" cy="64.16" r="1.16" fill="#8fa7bf" opacity="0.84"/>
<circle cx="244.66" cy="64.16" r="1.16" fill="#8fa7bf" opacity="0.84"/>
<circle cx="248.16" cy="64.16" r="1.16" fill="#8fa7bf" opacity="0.84"/>
<circle cx="251.66" cy="64.16" r="1.16" fill="#8fa7bf" opacity="0.84"/>
<circle cx="255.16" cy="64.16" r="1.16" fill="#8fa7bf" opacity="0.84"/>
<circle cx="262.16" cy="43.16" r="1.16" fill="#8fa7bf" opacity="0.84"/>
<circle cx="262.16" cy="46.66" r="1.16" fill="#8fa7bf" opacity="0.84"/>
<circle cx="262.16" cy="50.16" r="1.16" fill="#8fa7bf" opacity="0.84"/>
<circle cx="262.16" cy="53.66" r="1.16" fill="#8fa7bf" opacity="0.84"/>
<circle cx="262.16" cy="57.16" r="1.16" fill="#8fa7bf" opacity="0.84"/>
<circle cx="262.16" cy="60.66" r="1.16" fill="#8fa7bf" opacity="0.84"/>
<circle cx="262.16" cy="64.16" r="1.16" fill="#8fa7bf" opacity="0.84"/>
<circle cx="265.66" cy="64.16" r="1.16" fill="#8fa7bf" opacity="0.84"/>
<circle cx="269.16" cy="64.16" r="1.16" fill="#8fa7bf" opacity="0.84"/>
<circle cx="272.66" cy="64.16" r="1.16" fill="#8fa7bf" opacity="0.84"/>
<circle cx="276.16" cy="64.16" r="1.16" fill="#8fa7bf" opacity="0.84"/>
<circle cx="297.16" cy="43.16" r="1.16" fill="#8fa7bf" opacity="0.84"/>
<circle cx="300.66" cy="43.16" r="1.16" fill="#8fa7bf" opacity="0.84"/>
<circle cx="304.16" cy="43.16" r="1.16" fill="#8fa7bf" opacity="0.84"/>
<circle cx="307.66" cy="43.16" r="1.16" fill="#8fa7bf" opacity="0.84"/>
<circle cx="297.16" cy="46.66" r="1.16" fill="#8fa7bf" opacity="0.84"/>
<circle cx="311.16" cy="46.66" r="1.16" fill="#8fa7bf" opacity="0.84"/>
<circle cx="297.16" cy="50.16" r="1.16" fill="#8fa7bf" opacity="0.84"/>
<circle cx="311.16" cy="50.16" r="1.16" fill="#8fa7bf" opacity="0.84"/>
<circle cx="297.16" cy="53.66" r="1.16" fill="#8fa7bf" opacity="0.84"/>
<circle cx="311.16" cy="53.66" r="1.16" fill="#8fa7bf" opacity="0.84"/>
<circle cx="297.16" cy="57.16" r="1.16" fill="#8fa7bf" opacity="0.84"/>
<circle cx="311.16" cy="57.16" r="1.16" fill="#8fa7bf" opacity="0.84"/>
<circle cx="297.16" cy="60.66" r="1.16" fill="#8fa7bf" opacity="0.84"/>
<circle cx="311.16" cy="60.66" r="1.16" fill="#8fa7bf" opacity="0.84"/>
<circle cx="297.16" cy="64.16" r="1.16" fill="#8fa7bf" opacity="0.84"/>
<circle cx="300.66" cy="64.16" r="1.16" fill="#8fa7bf" opacity="0.84"/>
<circle cx="304.16" cy="64.16" r="1.16" fill="#8fa7bf" opacity="0.84"/>
<circle cx="307.66" cy="64.16" r="1.16" fill="#8fa7bf" opacity="0.84"/>
<circle cx="318.16" cy="43.16" r="1.16" fill="#8fa7bf" opacity="0.84"/>
<circle cx="321.66" cy="43.16" r="1.16" fill="#8fa7bf" opacity="0.84"/>
<circle cx="325.16" cy="43.16" r="1.16" fill="#8fa7bf" opacity="0.84"/>
<circle cx="328.66" cy="43.16" r="1.16" fill="#8fa7bf" opacity="0.84"/>
<circle cx="318.16" cy="46.66" r="1.16" fill="#8fa7bf" opacity="0.84"/>
<circle cx="332.16" cy="46.66" r="1.16" fill="#8fa7bf" opacity="0.84"/>
<circle cx="318.16" cy="50.16" r="1.16" fill="#8fa7bf" opacity="0.84"/>
<circle cx="332.16" cy="50.16" r="1.16" fill="#8fa7bf" opacity="0.84"/>
<circle cx="318.16" cy="53.66" r="1.16" fill="#8fa7bf" opacity="0.84"/>
<circle cx="321.66" cy="53.66" r="1.16" fill="#8fa7bf" opacity="0.84"/>
<circle cx="325.16" cy="53.66" r="1.16" fill="#8fa7bf" opacity="0.84"/>
<circle cx="328.66" cy="53.66" r="1.16" fill="#8fa7bf" opacity="0.84"/>
<circle cx="318.16" cy="57.16" r="1.16" fill="#8fa7bf" opacity="0.84"/>
<circle cx="325.16" cy="57.16" r="1.16" fill="#8fa7bf" opacity="0.84"/>
<circle cx="318.16" cy="60.66" r="1.16" fill="#8fa7bf" opacity="0.84"/>
<circle cx="328.66" cy="60.66" r="1.16" fill="#8fa7bf" opacity="0.84"/>
<circle cx="318.16" cy="64.16" r="1.16" fill="#8fa7bf" opacity="0.84"/>
<circle cx="332.16" cy="64.16" r="1.16" fill="#8fa7bf" opacity="0.84"/>
<circle cx="342.66" cy="43.16" r="1.16" fill="#8fa7bf" opacity="0.84"/>
<circle cx="346.16" cy="43.16" r="1.16" fill="#8fa7bf" opacity="0.84"/>
<circle cx="349.66" cy="43.16" r="1.16" fill="#8fa7bf" opacity="0.84"/>
<circle cx="339.16" cy="46.66" r="1.16" fill="#8fa7bf" opacity="0.84"/>
<circle cx="353.16" cy="46.66" r="1.16" fill="#8fa7bf" opacity="0.84"/>
<circle cx="339.16" cy="50.16" r="1.16" fill="#8fa7bf" opacity="0.84"/>
<circle cx="353.16" cy="50.16" r="1.16" fill="#8fa7bf" opacity="0.84"/>
<circle cx="339.16" cy="53.66" r="1.16" fill="#8fa7bf" opacity="0.84"/>
<circle cx="353.16" cy="53.66" r="1.16" fill="#8fa7bf" opacity="0.84"/>
<circle cx="339.16" cy="57.16" r="1.16" fill="#8fa7bf" opacity="0.84"/>
<circle cx="353.16" cy="57.16" r="1.16" fill="#8fa7bf" opacity="0.84"/>
<circle cx="339.16" cy="60.66" r="1.16" fill="#8fa7bf" opacity="0.84"/>
<circle cx="353.16" cy="60.66" r="1.16" fill="#8fa7bf" opacity="0.84"/>
<circle cx="342.66" cy="64.16" r="1.16" fill="#8fa7bf" opacity="0.84"/>
<circle cx="346.16" cy="64.16" r="1.16" fill="#8fa7bf" opacity="0.84"/>
<circle cx="349.66" cy="64.16" r="1.16" fill="#8fa7bf" opacity="0.84"/>
<circle cx="360.16" cy="43.16" r="1.16" fill="#8fa7bf" opacity="0.84"/>
<circle cx="363.66" cy="43.16" r="1.16" fill="#8fa7bf" opacity="0.84"/>
<circle cx="367.16" cy="43.16" r="1.16" fill="#8fa7bf" opacity="0.84"/>
<circle cx="370.66" cy="43.16" r="1.16" fill="#8fa7bf" opacity="0.84"/>
<circle cx="360.16" cy="46.66" r="1.16" fill="#8fa7bf" opacity="0.84"/>
<circle cx="374.16" cy="46.66" r="1.16" fill="#8fa7bf" opacity="0.84"/>
<circle cx="360.16" cy="50.16" r="1.16" fill="#8fa7bf" opacity="0.84"/>
<circle cx="374.16" cy="50.16" r="1.16" fill="#8fa7bf" opacity="0.84"/>
<circle cx="360.16" cy="53.66" r="1.16" fill="#8fa7bf" opacity="0.84"/>
<circle cx="363.66" cy="53.66" r="1.16" fill="#8fa7bf" opacity="0.84"/>
<circle cx="367.16" cy="53.66" r="1.16" fill="#8fa7bf" opacity="0.84"/>
<circle cx="370.66" cy="53.66" r="1.16" fill="#8fa7bf" opacity="0.84"/>
<circle cx="360.16" cy="57.16" r="1.16" fill="#8fa7bf" opacity="0.84"/>
<circle cx="360.16" cy="60.66" r="1.16" fill="#8fa7bf" opacity="0.84"/>
<circle cx="360.16" cy="64.16" r="1.16" fill="#8fa7bf" opacity="0.84"/>
<circle cx="582.16" cy="43.16" r="1.16" fill="#8fa7bf" opacity="0.84"/>
<circle cx="585.66" cy="43.16" r="1.16" fill="#8fa7bf" opacity="0.84"/>
<circle cx="589.16" cy="43.16" r="1.16" fill="#8fa7bf" opacity="0.84"/>
<circle cx="578.66" cy="46.66" r="1.16" fill="#8fa7bf" opacity="0.84"/>
<circle cx="592.66" cy="46.66" r="1.16" fill="#8fa7bf" opacity="0.84"/>
<circle cx="592.66" cy="50.16" r="1.16" fill="#8fa7bf" opacity="0.84"/>
<circle cx="589.16" cy="53.66" r="1.16" fill="#8fa7bf" opacity="0.84"/>
<circle cx="585.66" cy="57.16" r="1.16" fill="#8fa7bf" opacity="0.84"/>
<circle cx="582.16" cy="60.66" r="1.16" fill="#8fa7bf" opacity="0.84"/>
<circle cx="578.66" cy="64.16" r="1.16" fill="#8fa7bf" opacity="0.84"/>
<circle cx="582.16" cy="64.16" r="1.16" fill="#8fa7bf" opacity="0.84"/>
<circle cx="585.66" cy="64.16" r="1.16" fill="#8fa7bf" opacity="0.84"/>
<circle cx="589.16" cy="64.16" r="1.16" fill="#8fa7bf" opacity="0.84"/>
<circle cx="592.66" cy="64.16" r="1.16" fill="#8fa7bf" opacity="0.84"/>
<circle cx="603.16" cy="43.16" r="1.16" fill="#8fa7bf" opacity="0.84"/>
<circle cx="606.66" cy="43.16" r="1.16" fill="#8fa7bf" opacity="0.84"/>
<circle cx="610.16" cy="43.16" r="1.16" fill="#8fa7bf" opacity="0.84"/>
<circle cx="599.66" cy="46.66" r="1.16" fill="#8fa7bf" opacity="0.84"/>
<circle cx="613.66" cy="46.66" r="1.16" fill="#8fa7bf" opacity="0.84"/>
<circle cx="599.66" cy="50.16" r="1.16" fill="#8fa7bf" opacity="0.84"/>
<circle cx="610.16" cy="50.16" r="1.16" fill="#8fa7bf" opacity="0.84"/>
<circle cx="613.66" cy="50.16" r="1.16" fill="#8fa7bf" opacity="0.84"/>
<circle cx="599.66" cy="53.66" r="1.16" fill="#8fa7bf" opacity="0.84"/>
<circle cx="606.66" cy="53.66" r="1.16" fill="#8fa7bf" opacity="0.84"/>
<circle cx="613.66" cy="53.66" r="1.16" fill="#8fa7bf" opacity="0.84"/>
<circle cx="599.66" cy="57.16" r="1.16" fill="#8fa7bf" opacity="0.84"/>
<circle cx="603.16" cy="57.16" r="1.16" fill="#8fa7bf" opacity="0.84"/>
<circle cx="613.66" cy="57.16" r="1.16" fill="#8fa7bf" opacity="0.84"/>
<circle cx="599.66" cy="60.66" r="1.16" fill="#8fa7bf" opacity="0.84"/>
<circle cx="613.66" cy="60.66" r="1.16" fill="#8fa7bf" opacity="0.84"/>
<circle cx="603.16" cy="64.16" r="1.16" fill="#8fa7bf" opacity="0.84"/>
<circle cx="606.66" cy="64.16" r="1.16" fill="#8fa7bf" opacity="0.84"/>
<circle cx="610.16" cy="64.16" r="1.16" fill="#8fa7bf" opacity="0.84"/>
<circle cx="624.16" cy="43.16" r="1.16" fill="#8fa7bf" opacity="0.84"/>
<circle cx="627.66" cy="43.16" r="1.16" fill="#8fa7bf" opacity="0.84"/>
<circle cx="631.16" cy="43.16" r="1.16" fill="#8fa7bf" opacity="0.84"/>
<circle cx="620.66" cy="46.66" r="1.16" fill="#8fa7bf" opacity="0.84"/>
<circle cx="634.66" cy="46.66" r="1.16" fill="#8fa7bf" opacity="0.84"/>
<circle cx="634.66" cy="50.16" r="1.16" fill="#8fa7bf" opacity="0.84"/>
<circle cx="631.16" cy="53.66" r="1.16" fill="#8fa7bf" opacity="0.84"/>
<circle cx="627.66" cy="57.16" r="1.16" fill="#8fa7bf" opacity="0.84"/>
<circle cx="624.16" cy="60.66" r="1.16" fill="#8fa7bf" opacity="0.84"/>
<circle cx="620.66" cy="64.16" r="1.16" fill="#8fa7bf" opacity="0.84"/>
<circle cx="624.16" cy="64.16" r="1.16" fill="#8fa7bf" opacity="0.84"/>
<circle cx="627.66" cy="64.16" r="1.16" fill="#8fa7bf" opacity="0.84"/>
<circle cx="631.16" cy="64.16" r="1.16" fill="#8fa7bf" opacity="0.84"/>
<circle cx="634.66" cy="64.16" r="1.16" fill="#8fa7bf" opacity="0.84"/>
<circle cx="648.66" cy="43.16" r="1.16" fill="#8fa7bf" opacity="0.84"/>
<circle cx="652.16" cy="43.16" r="1.16" fill="#8fa7bf" opacity="0.84"/>
<circle cx="645.16" cy="46.66" r="1.16" fill="#8fa7bf" opacity="0.84"/>
<circle cx="641.66" cy="50.16" r="1.16" fill="#8fa7bf" opacity="0.84"/>
<circle cx="641.66" cy="53.66" r="1.16" fill="#8fa7bf" opacity="0.84"/>
<circle cx="645.16" cy="53.66" r="1.16" fill="#8fa7bf" opacity="0.84"/>
<circle cx="648.66" cy="53.66" r="1.16" fill="#8fa7bf" opacity="0.84"/>
<circle cx="652.16" cy="53.66" r="1.16" fill="#8fa7bf" opacity="0.84"/>
<circle cx="641.66" cy="57.16" r="1.16" fill="#8fa7bf" opacity="0.84"/>
<circle cx="655.66" cy="57.16" r="1.16" fill="#8fa7bf" opacity="0.84"/>
<circle cx="641.66" cy="60.66" r="1.16" fill="#8fa7bf" opacity="0.84"/>
<circle cx="655.66" cy="60.66" r="1.16" fill="#8fa7bf" opacity="0.84"/>
<circle cx="645.16" cy="64.16" r="1.16" fill="#8fa7bf" opacity="0.84"/>
<circle cx="648.66" cy="64.16" r="1.16" fill="#8fa7bf" opacity="0.84"/>
<circle cx="652.16" cy="64.16" r="1.16" fill="#8fa7bf" opacity="0.84"/>
<circle cx="666.16" cy="43.16" r="1.16" fill="#8fa7bf" opacity="0.84"/>
<circle cx="669.66" cy="43.16" r="1.16" fill="#8fa7bf" opacity="0.84"/>
<circle cx="673.16" cy="43.16" r="1.16" fill="#8fa7bf" opacity="0.84"/>
<circle cx="662.66" cy="46.66" r="1.16" fill="#8fa7bf" opacity="0.84"/>
<circle cx="676.66" cy="46.66" r="1.16" fill="#8fa7bf" opacity="0.84"/>
<circle cx="662.66" cy="50.16" r="1.16" fill="#8fa7bf" opacity="0.84"/>
<circle cx="673.16" cy="50.16" r="1.16" fill="#8fa7bf" opacity="0.84"/>
<circle cx="676.66" cy="50.16" r="1.16" fill="#8fa7bf" opacity="0.84"/>
<circle cx="662.66" cy="53.66" r="1.16" fill="#8fa7bf" opacity="0.84"/>
<circle cx="669.66" cy="53.66" r="1.16" fill="#8fa7bf" opacity="0.84"/>
<circle cx="676.66" cy="53.66" r="1.16" fill="#8fa7bf" opacity="0.84"/>
<circle cx="662.66" cy="57.16" r="1.16" fill="#8fa7bf" opacity="0.84"/>
<circle cx="666.16" cy="57.16" r="1.16" fill="#8fa7bf" opacity="0.84"/>
<circle cx="676.66" cy="57.16" r="1.16" fill="#8fa7bf" opacity="0.84"/>
<circle cx="662.66" cy="60.66" r="1.16" fill="#8fa7bf" opacity="0.84"/>
<circle cx="676.66" cy="60.66" r="1.16" fill="#8fa7bf" opacity="0.84"/>
<circle cx="666.16" cy="64.16" r="1.16" fill="#8fa7bf" opacity="0.84"/>
<circle cx="669.66" cy="64.16" r="1.16" fill="#8fa7bf" opacity="0.84"/>
<circle cx="673.16" cy="64.16" r="1.16" fill="#8fa7bf" opacity="0.84"/>
<circle cx="683.66" cy="43.16" r="1.16" fill="#8fa7bf" opacity="0.84"/>
<circle cx="687.16" cy="43.16" r="1.16" fill="#8fa7bf" opacity="0.84"/>
<circle cx="690.66" cy="43.16" r="1.16" fill="#8fa7bf" opacity="0.84"/>
<circle cx="694.16" cy="43.16" r="1.16" fill="#8fa7bf" opacity="0.84"/>
<circle cx="697.66" cy="43.16" r="1.16" fill="#8fa7bf" opacity="0.84"/>
<circle cx="683.66" cy="46.66" r="1.16" fill="#8fa7bf" opacity="0.84"/>
<circle cx="683.66" cy="50.16" r="1.16" fill="#8fa7bf" opacity="0.84"/>
<circle cx="683.66" cy="53.66" r="1.16" fill="#8fa7bf" opacity="0.84"/>
<circle cx="687.16" cy="53.66" r="1.16" fill="#8fa7bf" opacity="0.84"/>
<circle cx="690.66" cy="53.66" r="1.16" fill="#8fa7bf" opacity="0.84"/>
<circle cx="694.16" cy="53.66" r="1.16" fill="#8fa7bf" opacity="0.84"/>
<circle cx="697.66" cy="57.16" r="1.16" fill="#8fa7bf" opacity="0.84"/>
<circle cx="697.66" cy="60.66" r="1.16" fill="#8fa7bf" opacity="0.84"/>
<circle cx="683.66" cy="64.16" r="1.16" fill="#8fa7bf" opacity="0.84"/>
<circle cx="687.16" cy="64.16" r="1.16" fill="#8fa7bf" opacity="0.84"/>
<circle cx="690.66" cy="64.16" r="1.16" fill="#8fa7bf" opacity="0.84"/>
<circle cx="694.16" cy="64.16" r="1.16" fill="#8fa7bf" opacity="0.84"/>
<circle cx="711.66" cy="43.16" r="1.16" fill="#8fa7bf" opacity="0.84"/>
<circle cx="708.16" cy="46.66" r="1.16" fill="#8fa7bf" opacity="0.84"/>
<circle cx="711.66" cy="46.66" r="1.16" fill="#8fa7bf" opacity="0.84"/>
<circle cx="711.66" cy="50.16" r="1.16" fill="#8fa7bf" opacity="0.84"/>
<circle cx="711.66" cy="53.66" r="1.16" fill="#8fa7bf" opacity="0.84"/>
<circle cx="711.66" cy="57.16" r="1.16" fill="#8fa7bf" opacity="0.84"/>
<circle cx="711.66" cy="60.66" r="1.16" fill="#8fa7bf" opacity="0.84"/>
<circle cx="708.16" cy="64.16" r="1.16" fill="#8fa7bf" opacity="0.84"/>
<circle cx="711.66" cy="64.16" r="1.16" fill="#8fa7bf" opacity="0.84"/>
<circle cx="715.16" cy="64.16" r="1.16" fill="#8fa7bf" opacity="0.84"/>
<circle cx="725.66" cy="43.16" r="1.16" fill="#8fa7bf" opacity="0.84"/>
<circle cx="729.16" cy="43.16" r="1.16" fill="#8fa7bf" opacity="0.84"/>
<circle cx="732.66" cy="43.16" r="1.16" fill="#8fa7bf" opacity="0.84"/>
<circle cx="736.16" cy="43.16" r="1.16" fill="#8fa7bf" opacity="0.84"/>
<circle cx="739.66" cy="43.16" r="1.16" fill="#8fa7bf" opacity="0.84"/>
<circle cx="739.66" cy="46.66" r="1.16" fill="#8fa7bf" opacity="0.84"/>
<circle cx="736.16" cy="50.16" r="1.16" fill="#8fa7bf" opacity="0.84"/>
<circle cx="732.66" cy="53.66" r="1.16" fill="#8fa7bf" opacity="0.84"/>
<circle cx="729.16" cy="57.16" r="1.16" fill="#8fa7bf" opacity="0.84"/>
<circle cx="729.16" cy="60.66" r="1.16" fill="#8fa7bf" opacity="0.84"/>
<circle cx="729.16" cy="64.16" r="1.16" fill="#8fa7bf" opacity="0.84"/>
<rect x="58" y="72" width="246" height="196" rx="5" stroke="#8b949e" opacity="0.54"/>
<circle cx="169.00" cy="119.00" r="4.08" fill="#3fb950"/>
<circle cx="217.00" cy="119.00" r="4.08" fill="#3fb950"/>
<circle cx="157.00" cy="131.00" r="4.08" fill="#3fb950"/>
<circle cx="205.00" cy="131.00" r="4.08" fill="#3fb950"/>
<circle cx="145.00" cy="143.00" r="4.08" fill="#3fb950"/>
<circle cx="193.00" cy="143.00" r="4.08" fill="#3fb950"/>
<circle cx="133.00" cy="155.00" r="4.08" fill="#3fb950"/>
<circle cx="181.00" cy="155.00" r="4.08" fill="#3fb950"/>
<circle cx="133.00" cy="179.00" r="4.08" fill="#ff7b72"/>
<circle cx="145.00" cy="179.00" r="4.08" fill="#ff7b72"/>
<circle cx="157.00" cy="179.00" r="4.08" fill="#ff7b72"/>
<circle cx="205.00" cy="179.00" r="4.08" fill="#ff7b72"/>
<circle cx="217.00" cy="179.00" r="4.08" fill="#ff7b72"/>
<circle cx="229.00" cy="179.00" r="4.08" fill="#ff7b72"/>
<circle cx="121.00" cy="191.00" r="4.08" fill="#ff7b72"/>
<circle cx="133.00" cy="191.00" r="4.08" fill="#ff7b72"/>
<circle cx="145.00" cy="191.00" r="4.08" fill="#ff7b72"/>
<circle cx="157.00" cy="191.00" r="4.08" fill="#ff7b72"/>
<circle cx="169.00" cy="191.00" r="4.08" fill="#ff7b72"/>
<circle cx="193.00" cy="191.00" r="4.08" fill="#ff7b72"/>
<circle cx="205.00" cy="191.00" r="4.08" fill="#ff7b72"/>
<circle cx="217.00" cy="191.00" r="4.08" fill="#ff7b72"/>
<circle cx="229.00" cy="191.00" r="4.08" fill="#ff7b72"/>
<circle cx="241.00" cy="191.00" r="4.08" fill="#ff7b72"/>
<circle cx="121.00" cy="203.00" r="4.08" fill="#ff7b72"/>
<circle cx="133.00" cy="203.00" r="4.08" fill="#ff7b72"/>
<circle cx="145.00" cy="203.00" r="4.08" fill="#ff7b72"/>
<circle cx="157.00" cy="203.00" r="4.08" fill="#ff7b72"/>
<circle cx="169.00" cy="203.00" r="4.08" fill="#ff7b72"/>
<circle cx="193.00" cy="203.00" r="4.08" fill="#ff7b72"/>
<circle cx="205.00" cy="203.00" r="4.08" fill="#ff7b72"/>
<circle cx="217.00" cy="203.00" r="4.08" fill="#ff7b72"/>
<circle cx="229.00" cy="203.00" r="4.08" fill="#ff7b72"/>
<circle cx="241.00" cy="203.00" r="4.08" fill="#ff7b72"/>
<circle cx="133.00" cy="215.00" r="4.08" fill="#ff7b72"/>
<circle cx="145.00" cy="215.00" r="4.08" fill="#ff7b72"/>
<circle cx="157.00" cy="215.00" r="4.08" fill="#ff7b72"/>
<circle cx="205.00" cy="215.00" r="4.08" fill="#ff7b72"/>
<circle cx="217.00" cy="215.00" r="4.08" fill="#ff7b72"/>
<circle cx="229.00" cy="215.00" r="4.08" fill="#ff7b72"/>
<circle cx="349.25" cy="87.25" r="1.25" fill="#8b949e" opacity="0.95"/>
<circle cx="353.05" cy="87.25" r="1.25" fill="#8b949e" opacity="0.95"/>
<circle cx="356.85" cy="87.25" r="1.25" fill="#8b949e" opacity="0.95"/>
<circle cx="360.65" cy="87.25" r="1.25" fill="#8b949e" opacity="0.95"/>
<circle cx="364.45" cy="87.25" r="1.25" fill="#8b949e" opacity="0.95"/>
<circle cx="356.85" cy="91.05" r="1.25" fill="#8b949e" opacity="0.95"/>
<circle cx="356.85" cy="94.85" r="1.25" fill="#8b949e" opacity="0.95"/>
<circle cx="356.85" cy="98.65" r="1.25" fill="#8b949e" opacity="0.95"/>
<circle cx="356.85" cy="102.45" r="1.25" fill="#8b949e" opacity="0.95"/>
<circle cx="356.85" cy="106.25" r="1.25" fill="#8b949e" opacity="0.95"/>
<circle cx="356.85" cy="110.05" r="1.25" fill="#8b949e" opacity="0.95"/>
<circle cx="375.85" cy="87.25" r="1.25" fill="#8b949e" opacity="0.95"/>
<circle cx="379.65" cy="87.25" r="1.25" fill="#8b949e" opacity="0.95"/>
<circle cx="383.45" cy="87.25" r="1.25" fill="#8b949e" opacity="0.95"/>
<circle cx="372.05" cy="91.05" r="1.25" fill="#8b949e" opacity="0.95"/>
<circle cx="387.25" cy="91.05" r="1.25" fill="#8b949e" opacity="0.95"/>
<circle cx="372.05" cy="94.85" r="1.25" fill="#8b949e" opacity="0.95"/>
<circle cx="387.25" cy="94.85" r="1.25" fill="#8b949e" opacity="0.95"/>
<circle cx="372.05" cy="98.65" r="1.25" fill="#8b949e" opacity="0.95"/>
<circle cx="387.25" cy="98.65" r="1.25" fill="#8b949e" opacity="0.95"/>
<circle cx="372.05" cy="102.45" r="1.25" fill="#8b949e" opacity="0.95"/>
<circle cx="387.25" cy="102.45" r="1.25" fill="#8b949e" opacity="0.95"/>
<circle cx="372.05" cy="106.25" r="1.25" fill="#8b949e" opacity="0.95"/>
<circle cx="387.25" cy="106.25" r="1.25" fill="#8b949e" opacity="0.95"/>
<circle cx="375.85" cy="110.05" r="1.25" fill="#8b949e" opacity="0.95"/>
<circle cx="379.65" cy="110.05" r="1.25" fill="#8b949e" opacity="0.95"/>
<circle cx="383.45" cy="110.05" r="1.25" fill="#8b949e" opacity="0.95"/>
<circle cx="394.85" cy="87.25" r="1.25" fill="#8b949e" opacity="0.95"/>
<circle cx="398.65" cy="87.25" r="1.25" fill="#8b949e" opacity="0.95"/>
<circle cx="402.45" cy="87.25" r="1.25" fill="#8b949e" opacity="0.95"/>
<circle cx="406.25" cy="87.25" r="1.25" fill="#8b949e" opacity="0.95"/>
<circle cx="394.85" cy="91.05" r="1.25" fill="#8b949e" opacity="0.95"/>
<circle cx="410.05" cy="91.05" r="1.25" fill="#8b949e" opacity="0.95"/>
<circle cx="394.85" cy="94.85" r="1.25" fill="#8b949e" opacity="0.95"/>
<circle cx="410.05" cy="94.85" r="1.25" fill="#8b949e" opacity="0.95"/>
<circle cx="394.85" cy="98.65" r="1.25" fill="#8b949e" opacity="0.95"/>
<circle cx="410.05" cy="98.65" r="1.25" fill="#8b949e" opacity="0.95"/>
<circle cx="394.85" cy="102.45" r="1.25" fill="#8b949e" opacity="0.95"/>
<circle cx="410.05" cy="102.45" r="1.25" fill="#8b949e" opacity="0.95"/>
<circle cx="394.85" cy="106.25" r="1.25" fill="#8b949e" opacity="0.95"/>
<circle cx="410.05" cy="106.25" r="1.25" fill="#8b949e" opacity="0.95"/>
<circle cx="394.85" cy="110.05" r="1.25" fill="#8b949e" opacity="0.95"/>
<circle cx="398.65" cy="110.05" r="1.25" fill="#8b949e" opacity="0.95"/>
<circle cx="402.45" cy="110.05" r="1.25" fill="#8b949e" opacity="0.95"/>
<circle cx="406.25" cy="110.05" r="1.25" fill="#8b949e" opacity="0.95"/>
<circle cx="421.45" cy="87.25" r="1.25" fill="#8b949e" opacity="0.95"/>
<circle cx="425.25" cy="87.25" r="1.25" fill="#8b949e" opacity="0.95"/>
<circle cx="429.05" cy="87.25" r="1.25" fill="#8b949e" opacity="0.95"/>
<circle cx="417.65" cy="91.05" r="1.25" fill="#8b949e" opacity="0.95"/>
<circle cx="432.85" cy="91.05" r="1.25" fill="#8b949e" opacity="0.95"/>
<circle cx="417.65" cy="94.85" r="1.25" fill="#8b949e" opacity="0.95"/>
<circle cx="432.85" cy="94.85" r="1.25" fill="#8b949e" opacity="0.95"/>
<circle cx="417.65" cy="98.65" r="1.25" fill="#8b949e" opacity="0.95"/>
<circle cx="421.45" cy="98.65" r="1.25" fill="#8b949e" opacity="0.95"/>
<circle cx="425.25" cy="98.65" r="1.25" fill="#8b949e" opacity="0.95"/>
<circle cx="429.05" cy="98.65" r="1.25" fill="#8b949e" opacity="0.95"/>
<circle cx="432.85" cy="98.65" r="1.25" fill="#8b949e" opacity="0.95"/>
<circle cx="417.65" cy="102.45" r="1.25" fill="#8b949e" opacity="0.95"/>
<circle cx="432.85" cy="102.45" r="1.25" fill="#8b949e" opacity="0.95"/>
<circle cx="417.65" cy="106.25" r="1.25" fill="#8b949e" opacity="0.95"/>
<circle cx="432.85" cy="106.25" r="1.25" fill="#8b949e" opacity="0.95"/>
<circle cx="417.65" cy="110.05" r="1.25" fill="#8b949e" opacity="0.95"/>
<circle cx="432.85" cy="110.05" r="1.25" fill="#8b949e" opacity="0.95"/>
<circle cx="440.45" cy="87.25" r="1.25" fill="#8b949e" opacity="0.95"/>
<circle cx="455.65" cy="87.25" r="1.25" fill="#8b949e" opacity="0.95"/>
<circle cx="440.45" cy="91.05" r="1.25" fill="#8b949e" opacity="0.95"/>
<circle cx="455.65" cy="91.05" r="1.25" fill="#8b949e" opacity="0.95"/>
<circle cx="444.25" cy="94.85" r="1.25" fill="#8b949e" opacity="0.95"/>
<circle cx="451.85" cy="94.85" r="1.25" fill="#8b949e" opacity="0.95"/>
<circle cx="448.05" cy="98.65" r="1.25" fill="#8b949e" opacity="0.95"/>
<circle cx="448.05" cy="102.45" r="1.25" fill="#8b949e" opacity="0.95"/>
<circle cx="448.05" cy="106.25" r="1.25" fill="#8b949e" opacity="0.95"/>
<circle cx="448.05" cy="110.05" r="1.25" fill="#8b949e" opacity="0.95"/>
<text x="348" y="126" fill="#8b949e" font-family="Cascadia Code, SFMono-Regular, Consolas, monospace" font-size="28" font-weight="700">Static Cherry</text>
<text x="348" y="158" fill="#edf6ff" font-family="Cascadia Code, SFMono-Regular, Consolas, monospace" font-size="18" letter-spacing="1">COMMON DROP</text>
<text x="348" y="188" fill="#8fa7bf" font-family="Cascadia Code, SFMono-Regular, Consolas, monospace" font-size="15" letter-spacing="0.8">ID B8BA98</text>
<path d="M348 214H698" stroke="#243246" stroke-width="1"/>
<text x="348" y="242" fill="#8fa7bf" font-family="Cascadia Code, SFMono-Regular, Consolas, monospace" font-size="14" letter-spacing="0.7">A STATIC DAILY EASTER EGG FOR THIS PROFILE</text>
<defs>
  <pattern id="dotgrid" width="24" height="24" patternUnits="userSpaceOnUse">
    <circle cx="4" cy="4" r="0.85" fill="#58A6FF" opacity="0.22"/>
  </pattern>
</defs>
</svg>
