<svg width="800" height="280" viewBox="0 0 800 280" fill="none" xmlns="http://www.w3.org/2000/svg" role="img" aria-labelledby="title desc">
<title id="title">Daily pixel drop</title>
<desc id="desc">2026 / 08 / 23. EPIC drop Rosette.</desc>
<rect width="800" height="280" rx="8" fill="#0D1117"/>
<rect x="1" y="1" width="798" height="278" rx="7" stroke="#243246"/>
<rect x="18" y="18" width="764" height="244" rx="5" fill="url(#dotgrid)" opacity="0.58"/>
<path d="M52 46H32V66M748 46H768V66M52 234H32V214M748 234H768V214" stroke="#a371f7" stroke-width="1.5" stroke-linecap="square" opacity="0.76"/>
<rect x="304" y="56" width="192" height="188" rx="5" stroke="#a371f7" opacity="0.54"/>
<circle cx="385.00" cy="85.00" r="3.40" fill="#fe6111"/>
<circle cx="395.00" cy="85.00" r="3.40" fill="#fe6111"/>
<circle cx="405.00" cy="85.00" r="3.40" fill="#fe6011"/>
<circle cx="415.00" cy="85.00" r="3.40" fill="#fe6111"/>
<circle cx="355.00" cy="95.00" r="3.40" fill="#a52713"/>
<circle cx="365.00" cy="95.00" r="3.40" fill="#a62714"/>
<circle cx="375.00" cy="95.00" r="3.40" fill="#f95e11"/>
<circle cx="385.00" cy="95.00" r="3.40" fill="#fe6111"/>
<circle cx="395.00" cy="95.00" r="3.40" fill="#fe6111"/>
<circle cx="405.00" cy="95.00" r="3.40" fill="#fe6111"/>
<circle cx="415.00" cy="95.00" r="3.40" fill="#fe6111"/>
<circle cx="425.00" cy="95.00" r="3.40" fill="#f75d11"/>
<circle cx="435.00" cy="95.00" r="3.40" fill="#a62714"/>
<circle cx="445.00" cy="95.00" r="3.40" fill="#a62614"/>
<circle cx="355.00" cy="105.00" r="3.40" fill="#e45012"/>
<circle cx="365.00" cy="105.00" r="3.40" fill="#b53114"/>
<circle cx="375.00" cy="105.00" r="3.40" fill="#ef5712"/>
<circle cx="385.00" cy="105.00" r="3.40" fill="#fe6111"/>
<circle cx="395.00" cy="105.00" r="3.40" fill="#fe7917"/>
<circle cx="405.00" cy="105.00" r="3.40" fill="#fe7d19"/>
<circle cx="415.00" cy="105.00" r="3.40" fill="#fe6111"/>
<circle cx="425.00" cy="105.00" r="3.40" fill="#ec5512"/>
<circle cx="435.00" cy="105.00" r="3.40" fill="#b83313"/>
<circle cx="445.00" cy="105.00" r="3.40" fill="#df4d12"/>
<circle cx="345.00" cy="115.00" r="3.40" fill="#fe6111"/>
<circle cx="355.00" cy="115.00" r="3.40" fill="#fe6111"/>
<circle cx="365.00" cy="115.00" r="3.40" fill="#fc6011"/>
<circle cx="375.00" cy="115.00" r="3.40" fill="#dc5111"/>
<circle cx="385.00" cy="115.00" r="3.40" fill="#fc6111"/>
<circle cx="395.00" cy="115.00" r="3.40" fill="#ffa524"/>
<circle cx="405.00" cy="115.00" r="3.40" fill="#ffa624"/>
<circle cx="415.00" cy="115.00" r="3.40" fill="#fd6913"/>
<circle cx="425.00" cy="115.00" r="3.40" fill="#e05311"/>
<circle cx="435.00" cy="115.00" r="3.40" fill="#fe6111"/>
<circle cx="445.00" cy="115.00" r="3.40" fill="#fe6111"/>
<circle cx="455.00" cy="115.00" r="3.40" fill="#fe6111"/>
<circle cx="345.00" cy="125.00" r="3.40" fill="#fe6111"/>
<circle cx="355.00" cy="125.00" r="3.40" fill="#fe6412"/>
<circle cx="365.00" cy="125.00" r="3.40" fill="#fe7817"/>
<circle cx="375.00" cy="125.00" r="3.40" fill="#f46413"/>
<circle cx="385.00" cy="125.00" r="3.40" fill="#e3692b"/>
<circle cx="395.00" cy="125.00" r="3.40" fill="#ffa734"/>
<circle cx="405.00" cy="125.00" r="3.40" fill="#ffb142"/>
<circle cx="415.00" cy="125.00" r="3.40" fill="#e2621e"/>
<circle cx="425.00" cy="125.00" r="3.40" fill="#f46112"/>
<circle cx="435.00" cy="125.00" r="3.40" fill="#fe6a14"/>
<circle cx="445.00" cy="125.00" r="3.40" fill="#fe6111"/>
<circle cx="455.00" cy="125.00" r="3.40" fill="#fe6111"/>
<circle cx="335.00" cy="135.00" r="3.40" fill="#fe6011"/>
<circle cx="345.00" cy="135.00" r="3.40" fill="#fe6111"/>
<circle cx="355.00" cy="135.00" r="3.40" fill="#fe7f19"/>
<circle cx="365.00" cy="135.00" r="3.40" fill="#ffa624"/>
<circle cx="375.00" cy="135.00" r="3.40" fill="#ffa123"/>
<circle cx="385.00" cy="135.00" r="3.40" fill="#ffeadc"/>
<circle cx="395.00" cy="135.00" r="3.40" fill="#fee1a6"/>
<circle cx="405.00" cy="135.00" r="3.40" fill="#fff2d5"/>
<circle cx="415.00" cy="135.00" r="3.40" fill="#fdcfa8"/>
<circle cx="425.00" cy="135.00" r="3.40" fill="#ffa123"/>
<circle cx="435.00" cy="135.00" r="3.40" fill="#ffa524"/>
<circle cx="445.00" cy="135.00" r="3.40" fill="#fe6e14"/>
<circle cx="455.00" cy="135.00" r="3.40" fill="#fe6111"/>
<circle cx="335.00" cy="145.00" r="3.40" fill="#fe6111"/>
<circle cx="345.00" cy="145.00" r="3.40" fill="#fe6111"/>
<circle cx="355.00" cy="145.00" r="3.40" fill="#fe6c14"/>
<circle cx="365.00" cy="145.00" r="3.40" fill="#ff9720"/>
<circle cx="375.00" cy="145.00" r="3.40" fill="#ffa939"/>
<circle cx="385.00" cy="145.00" r="3.40" fill="#fedd9d"/>
<circle cx="395.00" cy="145.00" r="3.40" fill="#fcc319"/>
<circle cx="405.00" cy="145.00" r="3.40" fill="#fcc626"/>
<circle cx="415.00" cy="145.00" r="3.40" fill="#ffd8a0"/>
<circle cx="425.00" cy="145.00" r="3.40" fill="#ffa829"/>
<circle cx="435.00" cy="145.00" r="3.40" fill="#ff9f22"/>
<circle cx="445.00" cy="145.00" r="3.40" fill="#fe6913"/>
<circle cx="455.00" cy="145.00" r="3.40" fill="#fe6111"/>
<circle cx="465.00" cy="145.00" r="3.40" fill="#fe6111"/>
<circle cx="335.00" cy="155.00" r="3.40" fill="#fe6111"/>
<circle cx="345.00" cy="155.00" r="3.40" fill="#fe6111"/>
<circle cx="355.00" cy="155.00" r="3.40" fill="#fe6111"/>
<circle cx="365.00" cy="155.00" r="3.40" fill="#eb5a10"/>
<circle cx="375.00" cy="155.00" r="3.40" fill="#eb966c"/>
<circle cx="385.00" cy="155.00" r="3.40" fill="#fff4dc"/>
<circle cx="395.00" cy="155.00" r="3.40" fill="#fcc420"/>
<circle cx="405.00" cy="155.00" r="3.40" fill="#fcc833"/>
<circle cx="415.00" cy="155.00" r="3.40" fill="#fffbfa"/>
<circle cx="425.00" cy="155.00" r="3.40" fill="#e97230"/>
<circle cx="435.00" cy="155.00" r="3.40" fill="#f15d11"/>
<circle cx="445.00" cy="155.00" r="3.40" fill="#fe6111"/>
<circle cx="455.00" cy="155.00" r="3.40" fill="#fe6111"/>
<circle cx="465.00" cy="155.00" r="3.40" fill="#fe6110"/>
<circle cx="335.00" cy="165.00" r="3.40" fill="#a62714"/>
<circle cx="345.00" cy="165.00" r="3.40" fill="#b93413"/>
<circle cx="355.00" cy="165.00" r="3.40" fill="#e04f12"/>
<circle cx="365.00" cy="165.00" r="3.40" fill="#f05c11"/>
<circle cx="375.00" cy="165.00" r="3.40" fill="#fd851d"/>
<circle cx="385.00" cy="165.00" r="3.40" fill="#ffae39"/>
<circle cx="395.00" cy="165.00" r="3.40" fill="#fff6eb"/>
<circle cx="405.00" cy="165.00" r="3.40" fill="#ffe1b6"/>
<circle cx="415.00" cy="165.00" r="3.40" fill="#ffa731"/>
<circle cx="425.00" cy="165.00" r="3.40" fill="#f97015"/>
<circle cx="435.00" cy="165.00" r="3.40" fill="#e85910"/>
<circle cx="445.00" cy="165.00" r="3.40" fill="#d54912"/>
<circle cx="455.00" cy="165.00" r="3.40" fill="#b22f14"/>
<circle cx="465.00" cy="165.00" r="3.40" fill="#a62714"/>
<circle cx="335.00" cy="175.00" r="3.40" fill="#a62714"/>
<circle cx="345.00" cy="175.00" r="3.40" fill="#d24412"/>
<circle cx="355.00" cy="175.00" r="3.40" fill="#fe6111"/>
<circle cx="365.00" cy="175.00" r="3.40" fill="#fe6713"/>
<circle cx="375.00" cy="175.00" r="3.40" fill="#ffa624"/>
<circle cx="385.00" cy="175.00" r="3.40" fill="#ffa624"/>
<circle cx="395.00" cy="175.00" r="3.40" fill="#f5853d"/>
<circle cx="405.00" cy="175.00" r="3.40" fill="#f78f34"/>
<circle cx="415.00" cy="175.00" r="3.40" fill="#ffa624"/>
<circle cx="425.00" cy="175.00" r="3.40" fill="#ff941f"/>
<circle cx="435.00" cy="175.00" r="3.40" fill="#fe6111"/>
<circle cx="445.00" cy="175.00" r="3.40" fill="#fe6111"/>
<circle cx="455.00" cy="175.00" r="3.40" fill="#d04312"/>
<circle cx="465.00" cy="175.00" r="3.40" fill="#a62713"/>
<circle cx="345.00" cy="185.00" r="3.40" fill="#fe6111"/>
<circle cx="355.00" cy="185.00" r="3.40" fill="#fe6111"/>
<circle cx="365.00" cy="185.00" r="3.40" fill="#fe6111"/>
<circle cx="375.00" cy="185.00" r="3.40" fill="#fe851b"/>
<circle cx="385.00" cy="185.00" r="3.40" fill="#fe7d19"/>
<circle cx="395.00" cy="185.00" r="3.40" fill="#ec5a10"/>
<circle cx="405.00" cy="185.00" r="3.40" fill="#ed5e11"/>
<circle cx="415.00" cy="185.00" r="3.40" fill="#ff891c"/>
<circle cx="425.00" cy="185.00" r="3.40" fill="#fe7a18"/>
<circle cx="435.00" cy="185.00" r="3.40" fill="#fe6111"/>
<circle cx="445.00" cy="185.00" r="3.40" fill="#fe6111"/>
<circle cx="455.00" cy="185.00" r="3.40" fill="#fe6111"/>
<circle cx="355.00" cy="195.00" r="3.40" fill="#fe6111"/>
<circle cx="365.00" cy="195.00" r="3.40" fill="#fe6111"/>
<circle cx="375.00" cy="195.00" r="3.40" fill="#fe6111"/>
<circle cx="385.00" cy="195.00" r="3.40" fill="#fe6111"/>
<circle cx="395.00" cy="195.00" r="3.40" fill="#ea5711"/>
<circle cx="405.00" cy="195.00" r="3.40" fill="#e85511"/>
<circle cx="415.00" cy="195.00" r="3.40" fill="#fe6111"/>
<circle cx="425.00" cy="195.00" r="3.40" fill="#fe6111"/>
<circle cx="435.00" cy="195.00" r="3.40" fill="#fe6111"/>
<circle cx="445.00" cy="195.00" r="3.40" fill="#fe6111"/>
<circle cx="365.00" cy="205.00" r="3.40" fill="#fe6110"/>
<circle cx="375.00" cy="205.00" r="3.40" fill="#fe6111"/>
<circle cx="385.00" cy="205.00" r="3.40" fill="#fe6111"/>
<circle cx="395.00" cy="205.00" r="3.40" fill="#d34513"/>
<circle cx="405.00" cy="205.00" r="3.40" fill="#d04313"/>
<circle cx="415.00" cy="205.00" r="3.40" fill="#fe6111"/>
<circle cx="425.00" cy="205.00" r="3.40" fill="#fe6111"/>
<circle cx="435.00" cy="205.00" r="3.40" fill="#fe6011"/>
<circle cx="385.00" cy="215.00" r="3.40" fill="#fe6111"/>
<circle cx="395.00" cy="215.00" r="3.40" fill="#a72714"/>
<circle cx="405.00" cy="215.00" r="3.40" fill="#a62714"/>
<circle cx="415.00" cy="215.00" r="3.40" fill="#fe6111"/>
<defs>
  <pattern id="dotgrid" width="24" height="24" patternUnits="userSpaceOnUse">
    <circle cx="4" cy="4" r="0.85" fill="#58A6FF" opacity="0.22"/>
  </pattern>
</defs>
</svg>
