<svg width="800" height="280" viewBox="0 0 800 280" fill="none" xmlns="http://www.w3.org/2000/svg" role="img" aria-labelledby="title desc">
<title id="title">Daily pixel drop</title>
<desc id="desc">2026 / 07 / 02. EPIC drop Cherry Blossom.</desc>
<rect width="800" height="280" rx="8" fill="#0D1117"/>
<rect x="1" y="1" width="798" height="278" rx="7" stroke="#243246"/>
<rect x="18" y="18" width="764" height="244" rx="5" fill="url(#dotgrid)" opacity="0.58"/>
<path d="M52 46H32V66M748 46H768V66M52 234H32V214M748 234H768V214" stroke="#a371f7" stroke-width="1.5" stroke-linecap="square" opacity="0.76"/>
<rect x="304" y="56" width="192" height="188" rx="5" stroke="#a371f7" opacity="0.54"/>
<circle cx="385.00" cy="85.00" r="3.40" fill="#ffbcd8"/>
<circle cx="405.00" cy="85.00" r="3.40" fill="#ffbcd8"/>
<circle cx="375.00" cy="95.00" r="3.40" fill="#ffbcd8"/>
<circle cx="385.00" cy="95.00" r="3.40" fill="#ffbcd8"/>
<circle cx="395.00" cy="95.00" r="3.40" fill="#ffbcd8"/>
<circle cx="405.00" cy="95.00" r="3.40" fill="#ffbcd8"/>
<circle cx="415.00" cy="95.00" r="3.40" fill="#ffbcd8"/>
<circle cx="425.00" cy="95.00" r="3.40" fill="#ffbcd8"/>
<circle cx="375.00" cy="105.00" r="3.40" fill="#ffbcd8"/>
<circle cx="385.00" cy="105.00" r="3.40" fill="#ffbcd8"/>
<circle cx="395.00" cy="105.00" r="3.40" fill="#ffbcd8"/>
<circle cx="405.00" cy="105.00" r="3.40" fill="#ffbcd8"/>
<circle cx="415.00" cy="105.00" r="3.40" fill="#ffbcd8"/>
<circle cx="425.00" cy="105.00" r="3.40" fill="#ffbcd8"/>
<circle cx="345.00" cy="115.00" r="3.40" fill="#ffbbd8"/>
<circle cx="355.00" cy="115.00" r="3.40" fill="#ffbcd8"/>
<circle cx="365.00" cy="115.00" r="3.40" fill="#ffbcd8"/>
<circle cx="375.00" cy="115.00" r="3.40" fill="#ffbad7"/>
<circle cx="385.00" cy="115.00" r="3.40" fill="#ffbcd8"/>
<circle cx="395.00" cy="115.00" r="3.40" fill="#ffbcd8"/>
<circle cx="405.00" cy="115.00" r="3.40" fill="#ffbcd8"/>
<circle cx="415.00" cy="115.00" r="3.40" fill="#ffbcd8"/>
<circle cx="425.00" cy="115.00" r="3.40" fill="#ffbbd7"/>
<circle cx="435.00" cy="115.00" r="3.40" fill="#ffbcd8"/>
<circle cx="445.00" cy="115.00" r="3.40" fill="#ffbcd8"/>
<circle cx="345.00" cy="125.00" r="3.40" fill="#ffbcd8"/>
<circle cx="355.00" cy="125.00" r="3.40" fill="#ffbcd8"/>
<circle cx="365.00" cy="125.00" r="3.40" fill="#ffbcd8"/>
<circle cx="375.00" cy="125.00" r="3.40" fill="#feb4d3"/>
<circle cx="385.00" cy="125.00" r="3.40" fill="#feb7d5"/>
<circle cx="395.00" cy="125.00" r="3.40" fill="#ffbcd8"/>
<circle cx="405.00" cy="125.00" r="3.40" fill="#ffbcd8"/>
<circle cx="415.00" cy="125.00" r="3.40" fill="#ffb8d6"/>
<circle cx="425.00" cy="125.00" r="3.40" fill="#feb2d2"/>
<circle cx="435.00" cy="125.00" r="3.40" fill="#ffbcd8"/>
<circle cx="445.00" cy="125.00" r="3.40" fill="#ffbcd8"/>
<circle cx="455.00" cy="125.00" r="3.40" fill="#ffbcd8"/>
<circle cx="335.00" cy="135.00" r="3.40" fill="#ffbcd8"/>
<circle cx="345.00" cy="135.00" r="3.40" fill="#ffbcd8"/>
<circle cx="355.00" cy="135.00" r="3.40" fill="#ffbcd8"/>
<circle cx="365.00" cy="135.00" r="3.40" fill="#ffbcd8"/>
<circle cx="375.00" cy="135.00" r="3.40" fill="#ffbcd8"/>
<circle cx="385.00" cy="135.00" r="3.40" fill="#e570b0"/>
<circle cx="395.00" cy="135.00" r="3.40" fill="#ec89b7"/>
<circle cx="405.00" cy="135.00" r="3.40" fill="#eb84b6"/>
<circle cx="415.00" cy="135.00" r="3.40" fill="#e470af"/>
<circle cx="425.00" cy="135.00" r="3.40" fill="#ffbcd8"/>
<circle cx="435.00" cy="135.00" r="3.40" fill="#ffbcd8"/>
<circle cx="445.00" cy="135.00" r="3.40" fill="#ffbcd8"/>
<circle cx="455.00" cy="135.00" r="3.40" fill="#ffbcd8"/>
<circle cx="335.00" cy="145.00" r="3.40" fill="#ffbcd8"/>
<circle cx="345.00" cy="145.00" r="3.40" fill="#ffbcd8"/>
<circle cx="355.00" cy="145.00" r="3.40" fill="#ffbcd8"/>
<circle cx="365.00" cy="145.00" r="3.40" fill="#ffbcd8"/>
<circle cx="375.00" cy="145.00" r="3.40" fill="#ffbcd8"/>
<circle cx="385.00" cy="145.00" r="3.40" fill="#e87ab2"/>
<circle cx="395.00" cy="145.00" r="3.40" fill="#e88881"/>
<circle cx="405.00" cy="145.00" r="3.40" fill="#e98a7f"/>
<circle cx="415.00" cy="145.00" r="3.40" fill="#ec88b6"/>
<circle cx="425.00" cy="145.00" r="3.40" fill="#ffbcd8"/>
<circle cx="435.00" cy="145.00" r="3.40" fill="#ffbcd8"/>
<circle cx="445.00" cy="145.00" r="3.40" fill="#ffbcd8"/>
<circle cx="455.00" cy="145.00" r="3.40" fill="#ffbcd8"/>
<circle cx="465.00" cy="145.00" r="3.40" fill="#ffbcd8"/>
<circle cx="335.00" cy="155.00" r="3.40" fill="#ffbcd7"/>
<circle cx="345.00" cy="155.00" r="3.40" fill="#ffbcd8"/>
<circle cx="355.00" cy="155.00" r="3.40" fill="#ffbcd8"/>
<circle cx="365.00" cy="155.00" r="3.40" fill="#ffbcd8"/>
<circle cx="375.00" cy="155.00" r="3.40" fill="#fcb3d3"/>
<circle cx="385.00" cy="155.00" r="3.40" fill="#e885a4"/>
<circle cx="395.00" cy="155.00" r="3.40" fill="#eb8c66"/>
<circle cx="405.00" cy="155.00" r="3.40" fill="#f09c64"/>
<circle cx="415.00" cy="155.00" r="3.40" fill="#e783a3"/>
<circle cx="425.00" cy="155.00" r="3.40" fill="#fbb2d3"/>
<circle cx="435.00" cy="155.00" r="3.40" fill="#ffbcd8"/>
<circle cx="445.00" cy="155.00" r="3.40" fill="#ffbcd8"/>
<circle cx="455.00" cy="155.00" r="3.40" fill="#ffbcd8"/>
<circle cx="465.00" cy="155.00" r="3.40" fill="#ffbcd8"/>
<circle cx="345.00" cy="165.00" r="3.40" fill="#ffbcd8"/>
<circle cx="355.00" cy="165.00" r="3.40" fill="#ffb9d6"/>
<circle cx="365.00" cy="165.00" r="3.40" fill="#fdaed0"/>
<circle cx="375.00" cy="165.00" r="3.40" fill="#f49bc6"/>
<circle cx="385.00" cy="165.00" r="3.40" fill="#eb82b8"/>
<circle cx="395.00" cy="165.00" r="3.40" fill="#dc5e98"/>
<circle cx="405.00" cy="165.00" r="3.40" fill="#e06d93"/>
<circle cx="415.00" cy="165.00" r="3.40" fill="#e675b0"/>
<circle cx="425.00" cy="165.00" r="3.40" fill="#f498c5"/>
<circle cx="435.00" cy="165.00" r="3.40" fill="#fdacce"/>
<circle cx="445.00" cy="165.00" r="3.40" fill="#feb6d5"/>
<circle cx="455.00" cy="165.00" r="3.40" fill="#ffbcd8"/>
<circle cx="355.00" cy="175.00" r="3.40" fill="#ffbcd8"/>
<circle cx="365.00" cy="175.00" r="3.40" fill="#ffbcd8"/>
<circle cx="375.00" cy="175.00" r="3.40" fill="#ffbcd8"/>
<circle cx="385.00" cy="175.00" r="3.40" fill="#ffbcd8"/>
<circle cx="395.00" cy="175.00" r="3.40" fill="#f6a3cb"/>
<circle cx="405.00" cy="175.00" r="3.40" fill="#e571b1"/>
<circle cx="415.00" cy="175.00" r="3.40" fill="#ffbcd8"/>
<circle cx="425.00" cy="175.00" r="3.40" fill="#ffbcd8"/>
<circle cx="435.00" cy="175.00" r="3.40" fill="#ffbcd8"/>
<circle cx="445.00" cy="175.00" r="3.40" fill="#ffbcd8"/>
<circle cx="355.00" cy="185.00" r="3.40" fill="#ffbcd8"/>
<circle cx="365.00" cy="185.00" r="3.40" fill="#ffbcd8"/>
<circle cx="375.00" cy="185.00" r="3.40" fill="#ffbcd8"/>
<circle cx="385.00" cy="185.00" r="3.40" fill="#ffbcd8"/>
<circle cx="395.00" cy="185.00" r="3.40" fill="#ffbad7"/>
<circle cx="405.00" cy="185.00" r="3.40" fill="#feb4d3"/>
<circle cx="415.00" cy="185.00" r="3.40" fill="#ffbcd8"/>
<circle cx="425.00" cy="185.00" r="3.40" fill="#ffbcd8"/>
<circle cx="435.00" cy="185.00" r="3.40" fill="#ffbcd8"/>
<circle cx="445.00" cy="185.00" r="3.40" fill="#ffbcd8"/>
<circle cx="455.00" cy="185.00" r="3.40" fill="#ffbcd8"/>
<circle cx="355.00" cy="195.00" r="3.40" fill="#ffbcd8"/>
<circle cx="365.00" cy="195.00" r="3.40" fill="#ffbcd8"/>
<circle cx="375.00" cy="195.00" r="3.40" fill="#ffbcd8"/>
<circle cx="385.00" cy="195.00" r="3.40" fill="#ffbcd8"/>
<circle cx="395.00" cy="195.00" r="3.40" fill="#ffbbd7"/>
<circle cx="405.00" cy="195.00" r="3.40" fill="#feb6d4"/>
<circle cx="415.00" cy="195.00" r="3.40" fill="#ffbcd8"/>
<circle cx="425.00" cy="195.00" r="3.40" fill="#ffbcd8"/>
<circle cx="435.00" cy="195.00" r="3.40" fill="#ffbcd8"/>
<circle cx="445.00" cy="195.00" r="3.40" fill="#ffbcd8"/>
<circle cx="455.00" cy="195.00" r="3.40" fill="#ffbbd8"/>
<circle cx="355.00" cy="205.00" r="3.40" fill="#ffbcd8"/>
<circle cx="365.00" cy="205.00" r="3.40" fill="#ffbcd8"/>
<circle cx="375.00" cy="205.00" r="3.40" fill="#ffbcd8"/>
<circle cx="385.00" cy="205.00" r="3.40" fill="#ffbcd8"/>
<circle cx="395.00" cy="205.00" r="3.40" fill="#ffbcd8"/>
<circle cx="405.00" cy="205.00" r="3.40" fill="#ffbcd8"/>
<circle cx="415.00" cy="205.00" r="3.40" fill="#ffbcd8"/>
<circle cx="425.00" cy="205.00" r="3.40" fill="#ffbcd8"/>
<circle cx="435.00" cy="205.00" r="3.40" fill="#ffbcd8"/>
<circle cx="375.00" cy="215.00" r="3.40" fill="#ffbcd8"/>
<circle cx="385.00" cy="215.00" r="3.40" fill="#ffbcd8"/>
<circle cx="415.00" cy="215.00" r="3.40" fill="#ffbbd8"/>
<circle cx="425.00" cy="215.00" r="3.40" fill="#ffbcd8"/>
<defs>
  <pattern id="dotgrid" width="24" height="24" patternUnits="userSpaceOnUse">
    <circle cx="4" cy="4" r="0.85" fill="#58A6FF" opacity="0.22"/>
  </pattern>
</defs>
</svg>
