<svg width="800" height="280" viewBox="0 0 800 280" fill="none" xmlns="http://www.w3.org/2000/svg" role="img" aria-labelledby="title desc">
<title id="title">Daily pixel drop</title>
<desc id="desc">2026 / 06 / 25. COMMON drop Sports Medal.</desc>
<rect width="800" height="280" rx="8" fill="#0D1117"/>
<rect x="1" y="1" width="798" height="278" rx="7" stroke="#243246"/>
<rect x="18" y="18" width="764" height="244" rx="5" fill="url(#dotgrid)" opacity="0.58"/>
<path d="M52 46H32V66M748 46H768V66M52 234H32V214M748 234H768V214" stroke="#8b949e" stroke-width="1.5" stroke-linecap="square" opacity="0.76"/>
<rect x="304" y="56" width="192" height="188" rx="5" stroke="#8b949e" opacity="0.54"/>
<circle cx="425.00" cy="85.00" r="3.40" fill="#58b7e2"/>
<circle cx="345.00" cy="95.00" r="3.40" fill="#0074ba"/>
<circle cx="355.00" cy="95.00" r="3.40" fill="#2c88bf"/>
<circle cx="365.00" cy="95.00" r="3.40" fill="#d1d2d3"/>
<circle cx="375.00" cy="95.00" r="3.40" fill="#dcaaa9"/>
<circle cx="385.00" cy="95.00" r="3.40" fill="#f8312f"/>
<circle cx="415.00" cy="95.00" r="3.40" fill="#00a6ed"/>
<circle cx="425.00" cy="95.00" r="3.40" fill="#98c6da"/>
<circle cx="435.00" cy="95.00" r="3.40" fill="#d4cece"/>
<circle cx="445.00" cy="95.00" r="3.40" fill="#f24948"/>
<circle cx="455.00" cy="95.00" r="3.40" fill="#f8312f"/>
<circle cx="345.00" cy="105.00" r="3.40" fill="#0074ba"/>
<circle cx="355.00" cy="105.00" r="3.40" fill="#0074ba"/>
<circle cx="365.00" cy="105.00" r="3.40" fill="#5c9dc5"/>
<circle cx="375.00" cy="105.00" r="3.40" fill="#d3d3d3"/>
<circle cx="385.00" cy="105.00" r="3.40" fill="#ea6f6e"/>
<circle cx="395.00" cy="105.00" r="3.40" fill="#f8312f"/>
<circle cx="405.00" cy="105.00" r="3.40" fill="#00a6ed"/>
<circle cx="415.00" cy="105.00" r="3.40" fill="#4db6e4"/>
<circle cx="425.00" cy="105.00" r="3.40" fill="#d3d3d3"/>
<circle cx="435.00" cy="105.00" r="3.40" fill="#ea706f"/>
<circle cx="445.00" cy="105.00" r="3.40" fill="#f8312f"/>
<circle cx="455.00" cy="105.00" r="3.40" fill="#f8312f"/>
<circle cx="355.00" cy="115.00" r="3.40" fill="#0074ba"/>
<circle cx="365.00" cy="115.00" r="3.40" fill="#0074ba"/>
<circle cx="375.00" cy="115.00" r="3.40" fill="#65a1c6"/>
<circle cx="385.00" cy="115.00" r="3.40" fill="#d4c9c9"/>
<circle cx="395.00" cy="115.00" r="3.40" fill="#af6072"/>
<circle cx="405.00" cy="115.00" r="3.40" fill="#11aaeb"/>
<circle cx="415.00" cy="115.00" r="3.40" fill="#c3cfd4"/>
<circle cx="425.00" cy="115.00" r="3.40" fill="#e77d7c"/>
<circle cx="435.00" cy="115.00" r="3.40" fill="#f8312f"/>
<circle cx="445.00" cy="115.00" r="3.40" fill="#f8312f"/>
<circle cx="365.00" cy="125.00" r="3.40" fill="#0074ba"/>
<circle cx="375.00" cy="125.00" r="3.40" fill="#247ca6"/>
<circle cx="385.00" cy="125.00" r="3.40" fill="#c6af6d"/>
<circle cx="395.00" cy="125.00" r="3.40" fill="#e4bc4f"/>
<circle cx="405.00" cy="125.00" r="3.40" fill="#e6bd50"/>
<circle cx="415.00" cy="125.00" r="3.40" fill="#f4a354"/>
<circle cx="425.00" cy="125.00" r="3.40" fill="#f9422f"/>
<circle cx="435.00" cy="125.00" r="3.40" fill="#f8302f"/>
<circle cx="365.00" cy="135.00" r="3.40" fill="#ffaf2e"/>
<circle cx="375.00" cy="135.00" r="3.40" fill="#febf35"/>
<circle cx="385.00" cy="135.00" r="3.40" fill="#fdc437"/>
<circle cx="395.00" cy="135.00" r="3.40" fill="#feba32"/>
<circle cx="405.00" cy="135.00" r="3.40" fill="#feba33"/>
<circle cx="415.00" cy="135.00" r="3.40" fill="#fdc437"/>
<circle cx="425.00" cy="135.00" r="3.40" fill="#febf35"/>
<circle cx="435.00" cy="135.00" r="3.40" fill="#ffaf2d"/>
<circle cx="365.00" cy="145.00" r="3.40" fill="#febb33"/>
<circle cx="375.00" cy="145.00" r="3.40" fill="#febf35"/>
<circle cx="385.00" cy="145.00" r="3.40" fill="#ffb02e"/>
<circle cx="395.00" cy="145.00" r="3.40" fill="#f4a82f"/>
<circle cx="405.00" cy="145.00" r="3.40" fill="#f4a82f"/>
<circle cx="415.00" cy="145.00" r="3.40" fill="#ffb02e"/>
<circle cx="425.00" cy="145.00" r="3.40" fill="#fec035"/>
<circle cx="435.00" cy="145.00" r="3.40" fill="#febb33"/>
<circle cx="355.00" cy="155.00" r="3.40" fill="#ffb02e"/>
<circle cx="365.00" cy="155.00" r="3.40" fill="#fdc437"/>
<circle cx="375.00" cy="155.00" r="3.40" fill="#ffb02e"/>
<circle cx="385.00" cy="155.00" r="3.40" fill="#eea32f"/>
<circle cx="395.00" cy="155.00" r="3.40" fill="#a06a32"/>
<circle cx="405.00" cy="155.00" r="3.40" fill="#a26c32"/>
<circle cx="415.00" cy="155.00" r="3.40" fill="#eea42f"/>
<circle cx="425.00" cy="155.00" r="3.40" fill="#ffb02e"/>
<circle cx="435.00" cy="155.00" r="3.40" fill="#fdc538"/>
<circle cx="445.00" cy="155.00" r="3.40" fill="#ffb02e"/>
<circle cx="355.00" cy="165.00" r="3.40" fill="#ffb02e"/>
<circle cx="365.00" cy="165.00" r="3.40" fill="#fec437"/>
<circle cx="375.00" cy="165.00" r="3.40" fill="#ffb02e"/>
<circle cx="385.00" cy="165.00" r="3.40" fill="#9b6732"/>
<circle cx="395.00" cy="165.00" r="3.40" fill="#6d4534"/>
<circle cx="405.00" cy="165.00" r="3.40" fill="#6d4534"/>
<circle cx="415.00" cy="165.00" r="3.40" fill="#9d6832"/>
<circle cx="425.00" cy="165.00" r="3.40" fill="#ffb02e"/>
<circle cx="435.00" cy="165.00" r="3.40" fill="#fdc437"/>
<circle cx="445.00" cy="165.00" r="3.40" fill="#ffb02e"/>
<circle cx="355.00" cy="175.00" r="3.40" fill="#ffb02e"/>
<circle cx="365.00" cy="175.00" r="3.40" fill="#fdc537"/>
<circle cx="375.00" cy="175.00" r="3.40" fill="#ffb02e"/>
<circle cx="385.00" cy="175.00" r="3.40" fill="#d49130"/>
<circle cx="395.00" cy="175.00" r="3.40" fill="#6d4534"/>
<circle cx="405.00" cy="175.00" r="3.40" fill="#6d4534"/>
<circle cx="415.00" cy="175.00" r="3.40" fill="#d79330"/>
<circle cx="425.00" cy="175.00" r="3.40" fill="#ffb02e"/>
<circle cx="435.00" cy="175.00" r="3.40" fill="#fdc437"/>
<circle cx="445.00" cy="175.00" r="3.40" fill="#ffb02e"/>
<circle cx="365.00" cy="185.00" r="3.40" fill="#febf35"/>
<circle cx="375.00" cy="185.00" r="3.40" fill="#feb932"/>
<circle cx="385.00" cy="185.00" r="3.40" fill="#e59d2f"/>
<circle cx="395.00" cy="185.00" r="3.40" fill="#e69e2f"/>
<circle cx="405.00" cy="185.00" r="3.40" fill="#e59d2f"/>
<circle cx="415.00" cy="185.00" r="3.40" fill="#e69d2f"/>
<circle cx="425.00" cy="185.00" r="3.40" fill="#feb932"/>
<circle cx="435.00" cy="185.00" r="3.40" fill="#febf35"/>
<circle cx="365.00" cy="195.00" r="3.40" fill="#ffb02e"/>
<circle cx="375.00" cy="195.00" r="3.40" fill="#fdc437"/>
<circle cx="385.00" cy="195.00" r="3.40" fill="#febd34"/>
<circle cx="395.00" cy="195.00" r="3.40" fill="#ffb12f"/>
<circle cx="405.00" cy="195.00" r="3.40" fill="#ffb12e"/>
<circle cx="415.00" cy="195.00" r="3.40" fill="#febd34"/>
<circle cx="425.00" cy="195.00" r="3.40" fill="#fdc437"/>
<circle cx="435.00" cy="195.00" r="3.40" fill="#ffb02e"/>
<circle cx="375.00" cy="205.00" r="3.40" fill="#ffb02e"/>
<circle cx="385.00" cy="205.00" r="3.40" fill="#febb33"/>
<circle cx="395.00" cy="205.00" r="3.40" fill="#fdc337"/>
<circle cx="405.00" cy="205.00" r="3.40" fill="#fdc337"/>
<circle cx="415.00" cy="205.00" r="3.40" fill="#febb33"/>
<circle cx="425.00" cy="205.00" r="3.40" fill="#ffaf2e"/>
<defs>
  <pattern id="dotgrid" width="24" height="24" patternUnits="userSpaceOnUse">
    <circle cx="4" cy="4" r="0.85" fill="#58A6FF" opacity="0.22"/>
  </pattern>
</defs>
</svg>
