<svg width="800" height="280" viewBox="0 0 800 280" fill="none" xmlns="http://www.w3.org/2000/svg" role="img" aria-labelledby="title desc">
<title id="title">Daily pixel drop</title>
<desc id="desc">2026 / 06 / 15. COMMON drop Orange Heart.</desc>
<rect width="800" height="280" rx="8" fill="#0D1117"/>
<rect x="1" y="1" width="798" height="278" rx="7" stroke="#243246"/>
<rect x="18" y="18" width="764" height="244" rx="5" fill="url(#dotgrid)" opacity="0.58"/>
<path d="M52 46H32V66M748 46H768V66M52 234H32V214M748 234H768V214" stroke="#8b949e" stroke-width="1.5" stroke-linecap="square" opacity="0.76"/>
<rect x="304" y="56" width="192" height="188" rx="5" stroke="#8b949e" opacity="0.54"/>
<circle cx="355.00" cy="105.00" r="3.40" fill="#de5a1e"/>
<circle cx="365.00" cy="105.00" r="3.40" fill="#df5a1f"/>
<circle cx="375.00" cy="105.00" r="3.40" fill="#ef6121"/>
<circle cx="385.00" cy="105.00" r="3.40" fill="#fe6722"/>
<circle cx="415.00" cy="105.00" r="3.40" fill="#dd591e"/>
<circle cx="425.00" cy="105.00" r="3.40" fill="#e75d20"/>
<circle cx="435.00" cy="105.00" r="3.40" fill="#f36221"/>
<circle cx="445.00" cy="105.00" r="3.40" fill="#fe6623"/>
<circle cx="345.00" cy="115.00" r="3.40" fill="#dd591e"/>
<circle cx="355.00" cy="115.00" r="3.40" fill="#e25b1f"/>
<circle cx="365.00" cy="115.00" r="3.40" fill="#fc6623"/>
<circle cx="375.00" cy="115.00" r="3.40" fill="#ff6723"/>
<circle cx="385.00" cy="115.00" r="3.40" fill="#ff6723"/>
<circle cx="395.00" cy="115.00" r="3.40" fill="#ff6723"/>
<circle cx="405.00" cy="115.00" r="3.40" fill="#de5a1e"/>
<circle cx="415.00" cy="115.00" r="3.40" fill="#f56322"/>
<circle cx="425.00" cy="115.00" r="3.40" fill="#ff6723"/>
<circle cx="435.00" cy="115.00" r="3.40" fill="#ff742f"/>
<circle cx="445.00" cy="115.00" r="3.40" fill="#ff6e2a"/>
<circle cx="455.00" cy="115.00" r="3.40" fill="#ff6723"/>
<circle cx="345.00" cy="125.00" r="3.40" fill="#da581e"/>
<circle cx="355.00" cy="125.00" r="3.40" fill="#f96522"/>
<circle cx="365.00" cy="125.00" r="3.40" fill="#ff6723"/>
<circle cx="375.00" cy="125.00" r="3.40" fill="#ff6723"/>
<circle cx="385.00" cy="125.00" r="3.40" fill="#ff6723"/>
<circle cx="395.00" cy="125.00" r="3.40" fill="#ff6723"/>
<circle cx="405.00" cy="125.00" r="3.40" fill="#f26221"/>
<circle cx="415.00" cy="125.00" r="3.40" fill="#ff6723"/>
<circle cx="425.00" cy="125.00" r="3.40" fill="#ff7e38"/>
<circle cx="435.00" cy="125.00" r="3.40" fill="#ff944c"/>
<circle cx="445.00" cy="125.00" r="3.40" fill="#ff8841"/>
<circle cx="455.00" cy="125.00" r="3.40" fill="#ff6723"/>
<circle cx="335.00" cy="135.00" r="3.40" fill="#e75e1f"/>
<circle cx="345.00" cy="135.00" r="3.40" fill="#da581e"/>
<circle cx="355.00" cy="135.00" r="3.40" fill="#ff6723"/>
<circle cx="365.00" cy="135.00" r="3.40" fill="#ff6723"/>
<circle cx="375.00" cy="135.00" r="3.40" fill="#ff6723"/>
<circle cx="385.00" cy="135.00" r="3.40" fill="#ff6723"/>
<circle cx="395.00" cy="135.00" r="3.40" fill="#ff6723"/>
<circle cx="405.00" cy="135.00" r="3.40" fill="#ff6723"/>
<circle cx="415.00" cy="135.00" r="3.40" fill="#ff6b26"/>
<circle cx="425.00" cy="135.00" r="3.40" fill="#ff934b"/>
<circle cx="435.00" cy="135.00" r="3.40" fill="#ff944c"/>
<circle cx="445.00" cy="135.00" r="3.40" fill="#ff823c"/>
<circle cx="455.00" cy="135.00" r="3.40" fill="#ff6723"/>
<circle cx="345.00" cy="145.00" r="3.40" fill="#da581e"/>
<circle cx="355.00" cy="145.00" r="3.40" fill="#fa6522"/>
<circle cx="365.00" cy="145.00" r="3.40" fill="#ff6723"/>
<circle cx="375.00" cy="145.00" r="3.40" fill="#ff6723"/>
<circle cx="385.00" cy="145.00" r="3.40" fill="#ff6723"/>
<circle cx="395.00" cy="145.00" r="3.40" fill="#ff6723"/>
<circle cx="405.00" cy="145.00" r="3.40" fill="#ff6723"/>
<circle cx="415.00" cy="145.00" r="3.40" fill="#ff702b"/>
<circle cx="425.00" cy="145.00" r="3.40" fill="#ff944c"/>
<circle cx="435.00" cy="145.00" r="3.40" fill="#ff9149"/>
<circle cx="445.00" cy="145.00" r="3.40" fill="#ff6d29"/>
<circle cx="455.00" cy="145.00" r="3.40" fill="#ff6723"/>
<circle cx="345.00" cy="155.00" r="3.40" fill="#db591e"/>
<circle cx="355.00" cy="155.00" r="3.40" fill="#eb5f20"/>
<circle cx="365.00" cy="155.00" r="3.40" fill="#ff6723"/>
<circle cx="375.00" cy="155.00" r="3.40" fill="#ff6723"/>
<circle cx="385.00" cy="155.00" r="3.40" fill="#ff6723"/>
<circle cx="395.00" cy="155.00" r="3.40" fill="#ff6723"/>
<circle cx="405.00" cy="155.00" r="3.40" fill="#ff6723"/>
<circle cx="415.00" cy="155.00" r="3.40" fill="#ff6723"/>
<circle cx="425.00" cy="155.00" r="3.40" fill="#ff7732"/>
<circle cx="435.00" cy="155.00" r="3.40" fill="#ff6d28"/>
<circle cx="445.00" cy="155.00" r="3.40" fill="#ff6723"/>
<circle cx="455.00" cy="155.00" r="3.40" fill="#ff6723"/>
<circle cx="355.00" cy="165.00" r="3.40" fill="#db591e"/>
<circle cx="365.00" cy="165.00" r="3.40" fill="#f76422"/>
<circle cx="375.00" cy="165.00" r="3.40" fill="#ff6723"/>
<circle cx="385.00" cy="165.00" r="3.40" fill="#ff6723"/>
<circle cx="395.00" cy="165.00" r="3.40" fill="#ff6723"/>
<circle cx="405.00" cy="165.00" r="3.40" fill="#ff6723"/>
<circle cx="415.00" cy="165.00" r="3.40" fill="#ff6723"/>
<circle cx="425.00" cy="165.00" r="3.40" fill="#ff6723"/>
<circle cx="435.00" cy="165.00" r="3.40" fill="#ff6723"/>
<circle cx="445.00" cy="165.00" r="3.40" fill="#ff6723"/>
<circle cx="355.00" cy="175.00" r="3.40" fill="#df5a1f"/>
<circle cx="365.00" cy="175.00" r="3.40" fill="#dd5a1e"/>
<circle cx="375.00" cy="175.00" r="3.40" fill="#f56322"/>
<circle cx="385.00" cy="175.00" r="3.40" fill="#ff6723"/>
<circle cx="395.00" cy="175.00" r="3.40" fill="#ff6723"/>
<circle cx="405.00" cy="175.00" r="3.40" fill="#ff6723"/>
<circle cx="415.00" cy="175.00" r="3.40" fill="#ff6723"/>
<circle cx="425.00" cy="175.00" r="3.40" fill="#ff6723"/>
<circle cx="435.00" cy="175.00" r="3.40" fill="#ff6723"/>
<circle cx="445.00" cy="175.00" r="3.40" fill="#ff6723"/>
<circle cx="365.00" cy="185.00" r="3.40" fill="#e05a1f"/>
<circle cx="375.00" cy="185.00" r="3.40" fill="#db591e"/>
<circle cx="385.00" cy="185.00" r="3.40" fill="#f16121"/>
<circle cx="395.00" cy="185.00" r="3.40" fill="#ff6723"/>
<circle cx="405.00" cy="185.00" r="3.40" fill="#ff6723"/>
<circle cx="415.00" cy="185.00" r="3.40" fill="#ff6723"/>
<circle cx="425.00" cy="185.00" r="3.40" fill="#ff6723"/>
<circle cx="435.00" cy="185.00" r="3.40" fill="#ff6723"/>
<circle cx="375.00" cy="195.00" r="3.40" fill="#e15b1f"/>
<circle cx="385.00" cy="195.00" r="3.40" fill="#da591e"/>
<circle cx="395.00" cy="195.00" r="3.40" fill="#ea5f20"/>
<circle cx="405.00" cy="195.00" r="3.40" fill="#fe6723"/>
<circle cx="415.00" cy="195.00" r="3.40" fill="#ff6723"/>
<circle cx="425.00" cy="195.00" r="3.40" fill="#ff6723"/>
<circle cx="395.00" cy="205.00" r="3.40" fill="#dc591e"/>
<circle cx="405.00" cy="205.00" r="3.40" fill="#e65d20"/>
<defs>
  <pattern id="dotgrid" width="24" height="24" patternUnits="userSpaceOnUse">
    <circle cx="4" cy="4" r="0.85" fill="#58A6FF" opacity="0.22"/>
  </pattern>
</defs>
</svg>
