<svg width="800" height="280" viewBox="0 0 800 280" fill="none" xmlns="http://www.w3.org/2000/svg" role="img" aria-labelledby="title desc">
<title id="title">Daily pixel drop</title>
<desc id="desc">2026 / 07 / 20. COMMON drop Pineapple.</desc>
<rect width="800" height="280" rx="8" fill="#0D1117"/>
<rect x="1" y="1" width="798" height="278" rx="7" stroke="#243246"/>
<rect x="18" y="18" width="764" height="244" rx="5" fill="url(#dotgrid)" opacity="0.58"/>
<path d="M52 46H32V66M748 46H768V66M52 234H32V214M748 234H768V214" stroke="#8b949e" stroke-width="1.5" stroke-linecap="square" opacity="0.76"/>
<rect x="304" y="56" width="192" height="188" rx="5" stroke="#8b949e" opacity="0.54"/>
<circle cx="375.00" cy="85.00" r="3.40" fill="#2f7c31"/>
<circle cx="385.00" cy="85.00" r="3.40" fill="#2f7c31"/>
<circle cx="415.00" cy="85.00" r="3.40" fill="#2f7c31"/>
<circle cx="425.00" cy="85.00" r="3.40" fill="#2e7c31"/>
<circle cx="385.00" cy="95.00" r="3.40" fill="#2f7c31"/>
<circle cx="395.00" cy="95.00" r="3.40" fill="#2f7c31"/>
<circle cx="405.00" cy="95.00" r="3.40" fill="#2f7c31"/>
<circle cx="415.00" cy="95.00" r="3.40" fill="#2f7c31"/>
<circle cx="425.00" cy="95.00" r="3.40" fill="#2f7b30"/>
<circle cx="435.00" cy="95.00" r="3.40" fill="#3f832d"/>
<circle cx="365.00" cy="105.00" r="3.40" fill="#518b28"/>
<circle cx="375.00" cy="105.00" r="3.40" fill="#3e832d"/>
<circle cx="385.00" cy="105.00" r="3.40" fill="#2f7c31"/>
<circle cx="395.00" cy="105.00" r="3.40" fill="#38802f"/>
<circle cx="405.00" cy="105.00" r="3.40" fill="#3a812e"/>
<circle cx="415.00" cy="105.00" r="3.40" fill="#317d31"/>
<circle cx="425.00" cy="105.00" r="3.40" fill="#548d28"/>
<circle cx="435.00" cy="105.00" r="3.40" fill="#6a9622"/>
<circle cx="375.00" cy="115.00" r="3.40" fill="#709921"/>
<circle cx="385.00" cy="115.00" r="3.40" fill="#588e27"/>
<circle cx="395.00" cy="115.00" r="3.40" fill="#679523"/>
<circle cx="405.00" cy="115.00" r="3.40" fill="#699623"/>
<circle cx="415.00" cy="115.00" r="3.40" fill="#5c9026"/>
<circle cx="425.00" cy="115.00" r="3.40" fill="#629324"/>
<circle cx="435.00" cy="115.00" r="3.40" fill="#47872b"/>
<circle cx="365.00" cy="125.00" r="3.40" fill="#538c28"/>
<circle cx="375.00" cy="125.00" r="3.40" fill="#5d9026"/>
<circle cx="385.00" cy="125.00" r="3.40" fill="#709921"/>
<circle cx="395.00" cy="125.00" r="3.40" fill="#568d27"/>
<circle cx="405.00" cy="125.00" r="3.40" fill="#538c28"/>
<circle cx="415.00" cy="125.00" r="3.40" fill="#709921"/>
<circle cx="425.00" cy="125.00" r="3.40" fill="#679523"/>
<circle cx="435.00" cy="125.00" r="3.40" fill="#6f9921"/>
<circle cx="365.00" cy="135.00" r="3.40" fill="#508b28"/>
<circle cx="375.00" cy="135.00" r="3.40" fill="#619225"/>
<circle cx="385.00" cy="135.00" r="3.40" fill="#6d9822"/>
<circle cx="395.00" cy="135.00" r="3.40" fill="#588e27"/>
<circle cx="405.00" cy="135.00" r="3.40" fill="#578e27"/>
<circle cx="415.00" cy="135.00" r="3.40" fill="#6e9822"/>
<circle cx="425.00" cy="135.00" r="3.40" fill="#588e27"/>
<circle cx="435.00" cy="135.00" r="3.40" fill="#4d8a29"/>
<circle cx="375.00" cy="145.00" r="3.40" fill="#869e21"/>
<circle cx="385.00" cy="145.00" r="3.40" fill="#769b21"/>
<circle cx="395.00" cy="145.00" r="3.40" fill="#709921"/>
<circle cx="405.00" cy="145.00" r="3.40" fill="#709921"/>
<circle cx="415.00" cy="145.00" r="3.40" fill="#739a21"/>
<circle cx="425.00" cy="145.00" r="3.40" fill="#8ba021"/>
<circle cx="375.00" cy="155.00" r="3.40" fill="#ffbe1f"/>
<circle cx="385.00" cy="155.00" r="3.40" fill="#f4ba20"/>
<circle cx="395.00" cy="155.00" r="3.40" fill="#d1b220"/>
<circle cx="405.00" cy="155.00" r="3.40" fill="#ceb120"/>
<circle cx="415.00" cy="155.00" r="3.40" fill="#eeb91f"/>
<circle cx="425.00" cy="155.00" r="3.40" fill="#ffbe1f"/>
<circle cx="365.00" cy="165.00" r="3.40" fill="#ffbe1f"/>
<circle cx="375.00" cy="165.00" r="3.40" fill="#feb721"/>
<circle cx="385.00" cy="165.00" r="3.40" fill="#faa525"/>
<circle cx="395.00" cy="165.00" r="3.40" fill="#fdb521"/>
<circle cx="405.00" cy="165.00" r="3.40" fill="#fdb422"/>
<circle cx="415.00" cy="165.00" r="3.40" fill="#faa525"/>
<circle cx="425.00" cy="165.00" r="3.40" fill="#feb920"/>
<circle cx="435.00" cy="165.00" r="3.40" fill="#ffbe1e"/>
<circle cx="365.00" cy="175.00" r="3.40" fill="#feb820"/>
<circle cx="375.00" cy="175.00" r="3.40" fill="#fcac23"/>
<circle cx="385.00" cy="175.00" r="3.40" fill="#ffbe1f"/>
<circle cx="395.00" cy="175.00" r="3.40" fill="#fdb321"/>
<circle cx="405.00" cy="175.00" r="3.40" fill="#fdb422"/>
<circle cx="415.00" cy="175.00" r="3.40" fill="#ffbd1f"/>
<circle cx="425.00" cy="175.00" r="3.40" fill="#fbab24"/>
<circle cx="435.00" cy="175.00" r="3.40" fill="#feb920"/>
<circle cx="365.00" cy="185.00" r="3.40" fill="#feb920"/>
<circle cx="375.00" cy="185.00" r="3.40" fill="#feb820"/>
<circle cx="385.00" cy="185.00" r="3.40" fill="#feb920"/>
<circle cx="395.00" cy="185.00" r="3.40" fill="#fcb022"/>
<circle cx="405.00" cy="185.00" r="3.40" fill="#fcb022"/>
<circle cx="415.00" cy="185.00" r="3.40" fill="#feb820"/>
<circle cx="425.00" cy="185.00" r="3.40" fill="#feb920"/>
<circle cx="435.00" cy="185.00" r="3.40" fill="#feb920"/>
<circle cx="365.00" cy="195.00" r="3.40" fill="#ffbe1e"/>
<circle cx="375.00" cy="195.00" r="3.40" fill="#feba20"/>
<circle cx="385.00" cy="195.00" r="3.40" fill="#faa425"/>
<circle cx="395.00" cy="195.00" r="3.40" fill="#fdb521"/>
<circle cx="405.00" cy="195.00" r="3.40" fill="#fdb521"/>
<circle cx="415.00" cy="195.00" r="3.40" fill="#faa425"/>
<circle cx="425.00" cy="195.00" r="3.40" fill="#feba20"/>
<circle cx="435.00" cy="195.00" r="3.40" fill="#ffbd1e"/>
<circle cx="375.00" cy="205.00" r="3.40" fill="#ffbd1f"/>
<circle cx="385.00" cy="205.00" r="3.40" fill="#ffbe1f"/>
<circle cx="395.00" cy="205.00" r="3.40" fill="#ffbc1f"/>
<circle cx="405.00" cy="205.00" r="3.40" fill="#ffbc20"/>
<circle cx="415.00" cy="205.00" r="3.40" fill="#ffbe1f"/>
<circle cx="425.00" cy="205.00" r="3.40" fill="#ffbc1f"/>
<circle cx="385.00" cy="215.00" r="3.40" fill="#ffbe1f"/>
<circle cx="395.00" cy="215.00" r="3.40" fill="#ffbe1f"/>
<circle cx="405.00" cy="215.00" r="3.40" fill="#ffbe1f"/>
<circle cx="415.00" cy="215.00" r="3.40" fill="#ffbe1f"/>
<defs>
  <pattern id="dotgrid" width="24" height="24" patternUnits="userSpaceOnUse">
    <circle cx="4" cy="4" r="0.85" fill="#58A6FF" opacity="0.22"/>
  </pattern>
</defs>
</svg>
