<svg width="800" height="280" viewBox="0 0 800 280" fill="none" xmlns="http://www.w3.org/2000/svg" role="img" aria-labelledby="title desc">
<title id="title">Daily pixel drop</title>
<desc id="desc">2026 / 05 / 23. EPIC drop Rocket.</desc>
<rect width="800" height="280" rx="8" fill="#0D1117"/>
<rect x="1" y="1" width="798" height="278" rx="7" stroke="#243246"/>
<rect x="18" y="18" width="764" height="244" rx="5" fill="url(#dotgrid)" opacity="0.58"/>
<path d="M52 46H32V66M748 46H768V66M52 234H32V214M748 234H768V214" stroke="#a371f7" stroke-width="1.5" stroke-linecap="square" opacity="0.76"/>
<rect x="304" y="56" width="192" height="188" rx="5" stroke="#a371f7" opacity="0.54"/>
<circle cx="445.00" cy="85.00" r="3.40" fill="#d74023"/>
<circle cx="455.00" cy="85.00" r="3.40" fill="#d83f22"/>
<circle cx="465.00" cy="85.00" r="3.40" fill="#c93722"/>
<circle cx="395.00" cy="95.00" r="3.40" fill="#ffffff"/>
<circle cx="425.00" cy="95.00" r="3.40" fill="#d4503b"/>
<circle cx="435.00" cy="95.00" r="3.40" fill="#e45748"/>
<circle cx="445.00" cy="95.00" r="3.40" fill="#e1513e"/>
<circle cx="455.00" cy="95.00" r="3.40" fill="#d73e22"/>
<circle cx="465.00" cy="95.00" r="3.40" fill="#a82822"/>
<circle cx="415.00" cy="105.00" r="3.40" fill="#98bdcc"/>
<circle cx="425.00" cy="105.00" r="3.40" fill="#cc8e8c"/>
<circle cx="435.00" cy="105.00" r="3.40" fill="#db452c"/>
<circle cx="445.00" cy="105.00" r="3.40" fill="#d83f22"/>
<circle cx="455.00" cy="105.00" r="3.40" fill="#c23422"/>
<circle cx="465.00" cy="105.00" r="3.40" fill="#a02422"/>
<circle cx="395.00" cy="115.00" r="3.40" fill="#8dafbf"/>
<circle cx="405.00" cy="115.00" r="3.40" fill="#9bc2d0"/>
<circle cx="415.00" cy="115.00" r="3.40" fill="#a6cedc"/>
<circle cx="425.00" cy="115.00" r="3.40" fill="#96a7b3"/>
<circle cx="435.00" cy="115.00" r="3.40" fill="#cf4d35"/>
<circle cx="445.00" cy="115.00" r="3.40" fill="#d53d22"/>
<circle cx="455.00" cy="115.00" r="3.40" fill="#a52622"/>
<circle cx="355.00" cy="125.00" r="3.40" fill="#ffffff"/>
<circle cx="385.00" cy="125.00" r="3.40" fill="#8dafbf"/>
<circle cx="395.00" cy="125.00" r="3.40" fill="#9cc2d1"/>
<circle cx="405.00" cy="125.00" r="3.40" fill="#afd2de"/>
<circle cx="415.00" cy="125.00" r="3.40" fill="#86939a"/>
<circle cx="425.00" cy="125.00" r="3.40" fill="#95a3a9"/>
<circle cx="435.00" cy="125.00" r="3.40" fill="#98a8b3"/>
<circle cx="445.00" cy="125.00" r="3.40" fill="#955250"/>
<circle cx="455.00" cy="125.00" r="3.40" fill="#972c2b"/>
<circle cx="365.00" cy="135.00" r="3.40" fill="#ca2c31"/>
<circle cx="375.00" cy="135.00" r="3.40" fill="#bc4951"/>
<circle cx="385.00" cy="135.00" r="3.40" fill="#7aa2b2"/>
<circle cx="395.00" cy="135.00" r="3.40" fill="#9cc2d1"/>
<circle cx="405.00" cy="135.00" r="3.40" fill="#a6bec9"/>
<circle cx="415.00" cy="135.00" r="3.40" fill="#4c606a"/>
<circle cx="425.00" cy="135.00" r="3.40" fill="#6b7a83"/>
<circle cx="435.00" cy="135.00" r="3.40" fill="#7fa2b1"/>
<circle cx="445.00" cy="135.00" r="3.40" fill="#437687"/>
<circle cx="345.00" cy="145.00" r="3.40" fill="#c92c31"/>
<circle cx="355.00" cy="145.00" r="3.40" fill="#ba292b"/>
<circle cx="365.00" cy="145.00" r="3.40" fill="#b02728"/>
<circle cx="375.00" cy="145.00" r="3.40" fill="#9f838d"/>
<circle cx="385.00" cy="145.00" r="3.40" fill="#77a0b0"/>
<circle cx="395.00" cy="145.00" r="3.40" fill="#8aadbd"/>
<circle cx="405.00" cy="145.00" r="3.40" fill="#8eafbf"/>
<circle cx="415.00" cy="145.00" r="3.40" fill="#a3b9c4"/>
<circle cx="425.00" cy="145.00" r="3.40" fill="#93afba"/>
<circle cx="435.00" cy="145.00" r="3.40" fill="#47798a"/>
<circle cx="445.00" cy="145.00" r="3.40" fill="#437686"/>
<circle cx="335.00" cy="155.00" r="3.40" fill="#c92c31"/>
<circle cx="345.00" cy="155.00" r="3.40" fill="#b22729"/>
<circle cx="355.00" cy="155.00" r="3.40" fill="#a02422"/>
<circle cx="365.00" cy="155.00" r="3.40" fill="#a02624"/>
<circle cx="375.00" cy="155.00" r="3.40" fill="#99bac9"/>
<circle cx="385.00" cy="155.00" r="3.40" fill="#8da0af"/>
<circle cx="395.00" cy="155.00" r="3.40" fill="#7697a6"/>
<circle cx="405.00" cy="155.00" r="3.40" fill="#8baebd"/>
<circle cx="415.00" cy="155.00" r="3.40" fill="#81a6b6"/>
<circle cx="425.00" cy="155.00" r="3.40" fill="#4a7c8c"/>
<circle cx="435.00" cy="155.00" r="3.40" fill="#437687"/>
<circle cx="455.00" cy="155.00" r="3.40" fill="#ffffff"/>
<circle cx="335.00" cy="165.00" r="3.40" fill="#b12728"/>
<circle cx="345.00" cy="165.00" r="3.40" fill="#a02422"/>
<circle cx="355.00" cy="165.00" r="3.40" fill="#a02522"/>
<circle cx="365.00" cy="165.00" r="3.40" fill="#99695c"/>
<circle cx="375.00" cy="165.00" r="3.40" fill="#9d8692"/>
<circle cx="385.00" cy="165.00" r="3.40" fill="#b2383c"/>
<circle cx="395.00" cy="165.00" r="3.40" fill="#889caa"/>
<circle cx="405.00" cy="165.00" r="3.40" fill="#69909f"/>
<circle cx="415.00" cy="165.00" r="3.40" fill="#476e7d"/>
<circle cx="425.00" cy="165.00" r="3.40" fill="#437687"/>
<circle cx="355.00" cy="175.00" r="3.40" fill="#f7da5b"/>
<circle cx="365.00" cy="175.00" r="3.40" fill="#d59768"/>
<circle cx="375.00" cy="175.00" r="3.40" fill="#b62b2d"/>
<circle cx="385.00" cy="175.00" r="3.40" fill="#8f7880"/>
<circle cx="395.00" cy="175.00" r="3.40" fill="#6590a0"/>
<circle cx="405.00" cy="175.00" r="3.40" fill="#576572"/>
<circle cx="415.00" cy="175.00" r="3.40" fill="#784044"/>
<circle cx="345.00" cy="185.00" r="3.40" fill="#f7d74d"/>
<circle cx="355.00" cy="185.00" r="3.40" fill="#eeb978"/>
<circle cx="365.00" cy="185.00" r="3.40" fill="#b92e2f"/>
<circle cx="375.00" cy="185.00" r="3.40" fill="#c08463"/>
<circle cx="385.00" cy="185.00" r="3.40" fill="#978670"/>
<circle cx="395.00" cy="185.00" r="3.40" fill="#992e2f"/>
<circle cx="405.00" cy="185.00" r="3.40" fill="#b02728"/>
<circle cx="415.00" cy="185.00" r="3.40" fill="#a02422"/>
<circle cx="435.00" cy="185.00" r="3.40" fill="#ffffff"/>
<circle cx="345.00" cy="195.00" r="3.40" fill="#f8de68"/>
<circle cx="355.00" cy="195.00" r="3.40" fill="#e1a47e"/>
<circle cx="365.00" cy="195.00" r="3.40" fill="#dba980"/>
<circle cx="375.00" cy="195.00" r="3.40" fill="#f8e071"/>
<circle cx="385.00" cy="195.00" r="3.40" fill="#b5412b"/>
<circle cx="395.00" cy="195.00" r="3.40" fill="#c92c30"/>
<circle cx="405.00" cy="195.00" r="3.40" fill="#bf2a2d"/>
<circle cx="415.00" cy="195.00" r="3.40" fill="#9f2421"/>
<circle cx="345.00" cy="205.00" r="3.40" fill="#f7d955"/>
<circle cx="355.00" cy="205.00" r="3.40" fill="#f7d851"/>
<circle cx="365.00" cy="205.00" r="3.40" fill="#f7db5d"/>
<circle cx="375.00" cy="205.00" r="3.40" fill="#f6d74d"/>
<circle cx="385.00" cy="205.00" r="3.40" fill="#c32b2f"/>
<circle cx="395.00" cy="205.00" r="3.40" fill="#c72c30"/>
<circle cx="405.00" cy="205.00" r="3.40" fill="#ab2626"/>
<circle cx="395.00" cy="215.00" r="3.40" fill="#b12728"/>
<defs>
  <pattern id="dotgrid" width="24" height="24" patternUnits="userSpaceOnUse">
    <circle cx="4" cy="4" r="0.85" fill="#58A6FF" opacity="0.22"/>
  </pattern>
</defs>
</svg>
