<svg width="800" height="280" viewBox="0 0 800 280" fill="none" xmlns="http://www.w3.org/2000/svg" role="img" aria-labelledby="title desc">
<title id="title">Daily pixel drop</title>
<desc id="desc">2026 / 07 / 24. RARE drop Video Camera.</desc>
<rect width="800" height="280" rx="8" fill="#0D1117"/>
<rect x="1" y="1" width="798" height="278" rx="7" stroke="#243246"/>
<rect x="18" y="18" width="764" height="244" rx="5" fill="url(#dotgrid)" opacity="0.58"/>
<path d="M52 46H32V66M748 46H768V66M52 234H32V214M748 234H768V214" stroke="#58a6ff" stroke-width="1.5" stroke-linecap="square" opacity="0.76"/>
<rect x="304" y="56" width="192" height="188" rx="5" stroke="#58a6ff" opacity="0.54"/>
<circle cx="445.00" cy="95.00" r="3.40" fill="#37474f"/>
<circle cx="425.00" cy="105.00" r="3.40" fill="#445964"/>
<circle cx="435.00" cy="105.00" r="3.40" fill="#455963"/>
<circle cx="445.00" cy="105.00" r="3.40" fill="#3a4c54"/>
<circle cx="455.00" cy="105.00" r="3.40" fill="#37474f"/>
<circle cx="415.00" cy="115.00" r="3.40" fill="#455a64"/>
<circle cx="425.00" cy="115.00" r="3.40" fill="#465b66"/>
<circle cx="435.00" cy="115.00" r="3.40" fill="#455a64"/>
<circle cx="445.00" cy="115.00" r="3.40" fill="#455a64"/>
<circle cx="345.00" cy="125.00" r="3.40" fill="#465a65"/>
<circle cx="355.00" cy="125.00" r="3.40" fill="#465a63"/>
<circle cx="365.00" cy="125.00" r="3.40" fill="#546e7a"/>
<circle cx="375.00" cy="125.00" r="3.40" fill="#546e7a"/>
<circle cx="385.00" cy="125.00" r="3.40" fill="#546e7a"/>
<circle cx="395.00" cy="125.00" r="3.40" fill="#546e7a"/>
<circle cx="405.00" cy="125.00" r="3.40" fill="#536c79"/>
<circle cx="415.00" cy="125.00" r="3.40" fill="#506874"/>
<circle cx="425.00" cy="125.00" r="3.40" fill="#5a7683"/>
<circle cx="435.00" cy="125.00" r="3.40" fill="#57727e"/>
<circle cx="445.00" cy="125.00" r="3.40" fill="#607e8c"/>
<circle cx="455.00" cy="125.00" r="3.40" fill="#546e7a"/>
<circle cx="335.00" cy="135.00" r="3.40" fill="#485e69"/>
<circle cx="345.00" cy="135.00" r="3.40" fill="#70909c"/>
<circle cx="355.00" cy="135.00" r="3.40" fill="#4b626c"/>
<circle cx="365.00" cy="135.00" r="3.40" fill="#8d5f62"/>
<circle cx="375.00" cy="135.00" r="3.40" fill="#5d727e"/>
<circle cx="385.00" cy="135.00" r="3.40" fill="#5e7c89"/>
<circle cx="395.00" cy="135.00" r="3.40" fill="#5e7c89"/>
<circle cx="405.00" cy="135.00" r="3.40" fill="#5e7c89"/>
<circle cx="415.00" cy="135.00" r="3.40" fill="#5e7c89"/>
<circle cx="425.00" cy="135.00" r="3.40" fill="#5e7c89"/>
<circle cx="435.00" cy="135.00" r="3.40" fill="#5e7c89"/>
<circle cx="445.00" cy="135.00" r="3.40" fill="#5d7b88"/>
<circle cx="455.00" cy="135.00" r="3.40" fill="#546e7a"/>
<circle cx="465.00" cy="135.00" r="3.40" fill="#546e7a"/>
<circle cx="335.00" cy="145.00" r="3.40" fill="#4b626c"/>
<circle cx="345.00" cy="145.00" r="3.40" fill="#6e8e99"/>
<circle cx="355.00" cy="145.00" r="3.40" fill="#4b626d"/>
<circle cx="365.00" cy="145.00" r="3.40" fill="#546e7a"/>
<circle cx="375.00" cy="145.00" r="3.40" fill="#58737f"/>
<circle cx="385.00" cy="145.00" r="3.40" fill="#668795"/>
<circle cx="395.00" cy="145.00" r="3.40" fill="#668795"/>
<circle cx="405.00" cy="145.00" r="3.40" fill="#668795"/>
<circle cx="415.00" cy="145.00" r="3.40" fill="#668795"/>
<circle cx="425.00" cy="145.00" r="3.40" fill="#668795"/>
<circle cx="435.00" cy="145.00" r="3.40" fill="#668795"/>
<circle cx="445.00" cy="145.00" r="3.40" fill="#7297a7"/>
<circle cx="455.00" cy="145.00" r="3.40" fill="#5c7986"/>
<circle cx="465.00" cy="145.00" r="3.40" fill="#546e7a"/>
<circle cx="335.00" cy="155.00" r="3.40" fill="#384851"/>
<circle cx="345.00" cy="155.00" r="3.40" fill="#475c66"/>
<circle cx="355.00" cy="155.00" r="3.40" fill="#475d67"/>
<circle cx="365.00" cy="155.00" r="3.40" fill="#587480"/>
<circle cx="375.00" cy="155.00" r="3.40" fill="#668796"/>
<circle cx="385.00" cy="155.00" r="3.40" fill="#546e7a"/>
<circle cx="395.00" cy="155.00" r="3.40" fill="#546e7a"/>
<circle cx="405.00" cy="155.00" r="3.40" fill="#546e7a"/>
<circle cx="415.00" cy="155.00" r="3.40" fill="#546e7a"/>
<circle cx="425.00" cy="155.00" r="3.40" fill="#546e7a"/>
<circle cx="435.00" cy="155.00" r="3.40" fill="#546e7a"/>
<circle cx="445.00" cy="155.00" r="3.40" fill="#617f8d"/>
<circle cx="455.00" cy="155.00" r="3.40" fill="#638391"/>
<circle cx="465.00" cy="155.00" r="3.40" fill="#546e7a"/>
<circle cx="335.00" cy="165.00" r="3.40" fill="#37474f"/>
<circle cx="345.00" cy="165.00" r="3.40" fill="#475d67"/>
<circle cx="355.00" cy="165.00" r="3.40" fill="#485e68"/>
<circle cx="365.00" cy="165.00" r="3.40" fill="#546e7a"/>
<circle cx="375.00" cy="165.00" r="3.40" fill="#546e7a"/>
<circle cx="385.00" cy="165.00" r="3.40" fill="#546e7a"/>
<circle cx="395.00" cy="165.00" r="3.40" fill="#546e7a"/>
<circle cx="405.00" cy="165.00" r="3.40" fill="#546e7a"/>
<circle cx="415.00" cy="165.00" r="3.40" fill="#546e7a"/>
<circle cx="425.00" cy="165.00" r="3.40" fill="#546e7a"/>
<circle cx="435.00" cy="165.00" r="3.40" fill="#546e7a"/>
<circle cx="445.00" cy="165.00" r="3.40" fill="#5e7c89"/>
<circle cx="455.00" cy="165.00" r="3.40" fill="#668795"/>
<circle cx="465.00" cy="165.00" r="3.40" fill="#546e7a"/>
<circle cx="335.00" cy="175.00" r="3.40" fill="#37474f"/>
<circle cx="345.00" cy="175.00" r="3.40" fill="#475d67"/>
<circle cx="355.00" cy="175.00" r="3.40" fill="#495f6a"/>
<circle cx="365.00" cy="175.00" r="3.40" fill="#4e6671"/>
<circle cx="375.00" cy="175.00" r="3.40" fill="#384951"/>
<circle cx="385.00" cy="175.00" r="3.40" fill="#546e7a"/>
<circle cx="395.00" cy="175.00" r="3.40" fill="#546e7a"/>
<circle cx="405.00" cy="175.00" r="3.40" fill="#546e7a"/>
<circle cx="415.00" cy="175.00" r="3.40" fill="#546e7a"/>
<circle cx="425.00" cy="175.00" r="3.40" fill="#546e7a"/>
<circle cx="435.00" cy="175.00" r="3.40" fill="#546e7a"/>
<circle cx="445.00" cy="175.00" r="3.40" fill="#5f7d8a"/>
<circle cx="455.00" cy="175.00" r="3.40" fill="#658593"/>
<circle cx="465.00" cy="175.00" r="3.40" fill="#546e7a"/>
<circle cx="355.00" cy="185.00" r="3.40" fill="#546e7a"/>
<circle cx="365.00" cy="185.00" r="3.40" fill="#546e7a"/>
<circle cx="375.00" cy="185.00" r="3.40" fill="#384951"/>
<circle cx="385.00" cy="185.00" r="3.40" fill="#485e69"/>
<circle cx="395.00" cy="185.00" r="3.40" fill="#485e69"/>
<circle cx="405.00" cy="185.00" r="3.40" fill="#485e69"/>
<circle cx="415.00" cy="185.00" r="3.40" fill="#485e69"/>
<circle cx="425.00" cy="185.00" r="3.40" fill="#485e69"/>
<circle cx="435.00" cy="185.00" r="3.40" fill="#485e69"/>
<circle cx="445.00" cy="185.00" r="3.40" fill="#57727f"/>
<circle cx="455.00" cy="185.00" r="3.40" fill="#607f8d"/>
<circle cx="465.00" cy="185.00" r="3.40" fill="#546e7a"/>
<circle cx="355.00" cy="195.00" r="3.40" fill="#546e7a"/>
<circle cx="365.00" cy="195.00" r="3.40" fill="#546e7a"/>
<circle cx="375.00" cy="195.00" r="3.40" fill="#4c646f"/>
<circle cx="385.00" cy="195.00" r="3.40" fill="#455a64"/>
<circle cx="395.00" cy="195.00" r="3.40" fill="#455a64"/>
<circle cx="405.00" cy="195.00" r="3.40" fill="#455a64"/>
<circle cx="415.00" cy="195.00" r="3.40" fill="#455a64"/>
<circle cx="425.00" cy="195.00" r="3.40" fill="#455a64"/>
<circle cx="435.00" cy="195.00" r="3.40" fill="#455a64"/>
<circle cx="445.00" cy="195.00" r="3.40" fill="#465c66"/>
<circle cx="455.00" cy="195.00" r="3.40" fill="#56707c"/>
<circle cx="465.00" cy="195.00" r="3.40" fill="#546e7a"/>
<circle cx="365.00" cy="205.00" r="3.40" fill="#546e7a"/>
<circle cx="375.00" cy="205.00" r="3.40" fill="#546e7a"/>
<circle cx="385.00" cy="205.00" r="3.40" fill="#546e7a"/>
<circle cx="395.00" cy="205.00" r="3.40" fill="#546e7a"/>
<circle cx="405.00" cy="205.00" r="3.40" fill="#546e7a"/>
<circle cx="415.00" cy="205.00" r="3.40" fill="#546e7a"/>
<circle cx="425.00" cy="205.00" r="3.40" fill="#546e7a"/>
<circle cx="435.00" cy="205.00" r="3.40" fill="#546e7a"/>
<circle cx="445.00" cy="205.00" r="3.40" fill="#546e7a"/>
<circle cx="455.00" cy="205.00" r="3.40" fill="#546e7a"/>
<circle cx="465.00" cy="205.00" r="3.40" fill="#546e7a"/>
<defs>
  <pattern id="dotgrid" width="24" height="24" patternUnits="userSpaceOnUse">
    <circle cx="4" cy="4" r="0.85" fill="#58A6FF" opacity="0.22"/>
  </pattern>
</defs>
</svg>
