<svg width="800" height="280" viewBox="0 0 800 280" fill="none" xmlns="http://www.w3.org/2000/svg" role="img" aria-labelledby="title desc">
<title id="title">Daily pixel drop</title>
<desc id="desc">2026 / 06 / 09. COMMON drop Candy.</desc>
<rect width="800" height="280" rx="8" fill="#0D1117"/>
<rect x="1" y="1" width="798" height="278" rx="7" stroke="#243246"/>
<rect x="18" y="18" width="764" height="244" rx="5" fill="url(#dotgrid)" opacity="0.58"/>
<path d="M52 46H32V66M748 46H768V66M52 234H32V214M748 234H768V214" stroke="#8b949e" stroke-width="1.5" stroke-linecap="square" opacity="0.76"/>
<rect x="304" y="56" width="192" height="188" rx="5" stroke="#8b949e" opacity="0.54"/>
<circle cx="355.00" cy="95.00" r="3.40" fill="#f7302e"/>
<circle cx="375.00" cy="95.00" r="3.40" fill="#f8312f"/>
<circle cx="385.00" cy="95.00" r="3.40" fill="#f8312f"/>
<circle cx="345.00" cy="105.00" r="3.40" fill="#f7312e"/>
<circle cx="355.00" cy="105.00" r="3.40" fill="#f8312f"/>
<circle cx="365.00" cy="105.00" r="3.40" fill="#f8312f"/>
<circle cx="375.00" cy="105.00" r="3.40" fill="#f8312f"/>
<circle cx="385.00" cy="105.00" r="3.40" fill="#f8312f"/>
<circle cx="355.00" cy="115.00" r="3.40" fill="#f8312f"/>
<circle cx="365.00" cy="115.00" r="3.40" fill="#f8312f"/>
<circle cx="375.00" cy="115.00" r="3.40" fill="#f84131"/>
<circle cx="385.00" cy="115.00" r="3.40" fill="#fb9d3a"/>
<circle cx="395.00" cy="115.00" r="3.40" fill="#fbb43c"/>
<circle cx="405.00" cy="115.00" r="3.40" fill="#f97736"/>
<circle cx="415.00" cy="115.00" r="3.40" fill="#f83e30"/>
<circle cx="345.00" cy="125.00" r="3.40" fill="#f8312f"/>
<circle cx="355.00" cy="125.00" r="3.40" fill="#f8312f"/>
<circle cx="365.00" cy="125.00" r="3.40" fill="#f84231"/>
<circle cx="375.00" cy="125.00" r="3.40" fill="#fbc03d"/>
<circle cx="385.00" cy="125.00" r="3.40" fill="#f97135"/>
<circle cx="395.00" cy="125.00" r="3.40" fill="#f8342f"/>
<circle cx="405.00" cy="125.00" r="3.40" fill="#f96234"/>
<circle cx="415.00" cy="125.00" r="3.40" fill="#fa7e37"/>
<circle cx="425.00" cy="125.00" r="3.40" fill="#f97135"/>
<circle cx="345.00" cy="135.00" r="3.40" fill="#f8312f"/>
<circle cx="355.00" cy="135.00" r="3.40" fill="#f8312f"/>
<circle cx="365.00" cy="135.00" r="3.40" fill="#fb9e39"/>
<circle cx="375.00" cy="135.00" r="3.40" fill="#f97135"/>
<circle cx="385.00" cy="135.00" r="3.40" fill="#f84931"/>
<circle cx="395.00" cy="135.00" r="3.40" fill="#fbbd3c"/>
<circle cx="405.00" cy="135.00" r="3.40" fill="#fcd53f"/>
<circle cx="415.00" cy="135.00" r="3.40" fill="#fbc73e"/>
<circle cx="425.00" cy="135.00" r="3.40" fill="#fbac3b"/>
<circle cx="435.00" cy="135.00" r="3.40" fill="#fbb03b"/>
<circle cx="365.00" cy="145.00" r="3.40" fill="#fbb43c"/>
<circle cx="375.00" cy="145.00" r="3.40" fill="#f8342f"/>
<circle cx="385.00" cy="145.00" r="3.40" fill="#fbbc3c"/>
<circle cx="395.00" cy="145.00" r="3.40" fill="#fcd13f"/>
<circle cx="405.00" cy="145.00" r="3.40" fill="#f97135"/>
<circle cx="415.00" cy="145.00" r="3.40" fill="#f8322f"/>
<circle cx="425.00" cy="145.00" r="3.40" fill="#f83930"/>
<circle cx="435.00" cy="145.00" r="3.40" fill="#f8332f"/>
<circle cx="365.00" cy="155.00" r="3.40" fill="#f97936"/>
<circle cx="375.00" cy="155.00" r="3.40" fill="#f96134"/>
<circle cx="385.00" cy="155.00" r="3.40" fill="#fcd53f"/>
<circle cx="395.00" cy="155.00" r="3.40" fill="#f97135"/>
<circle cx="405.00" cy="155.00" r="3.40" fill="#f84b31"/>
<circle cx="415.00" cy="155.00" r="3.40" fill="#fbbb3c"/>
<circle cx="425.00" cy="155.00" r="3.40" fill="#fcd53f"/>
<circle cx="435.00" cy="155.00" r="3.40" fill="#fcd03e"/>
<circle cx="365.00" cy="165.00" r="3.40" fill="#f84030"/>
<circle cx="375.00" cy="165.00" r="3.40" fill="#fa7d36"/>
<circle cx="385.00" cy="165.00" r="3.40" fill="#fcc73e"/>
<circle cx="395.00" cy="165.00" r="3.40" fill="#f8322f"/>
<circle cx="405.00" cy="165.00" r="3.40" fill="#fbbb3c"/>
<circle cx="415.00" cy="165.00" r="3.40" fill="#fbc43d"/>
<circle cx="425.00" cy="165.00" r="3.40" fill="#f96e35"/>
<circle cx="435.00" cy="165.00" r="3.40" fill="#f95833"/>
<circle cx="445.00" cy="165.00" r="3.40" fill="#f8312f"/>
<circle cx="455.00" cy="165.00" r="3.40" fill="#f8312f"/>
<circle cx="375.00" cy="175.00" r="3.40" fill="#f97035"/>
<circle cx="385.00" cy="175.00" r="3.40" fill="#fbab3b"/>
<circle cx="395.00" cy="175.00" r="3.40" fill="#f83b30"/>
<circle cx="405.00" cy="175.00" r="3.40" fill="#fcd53f"/>
<circle cx="415.00" cy="175.00" r="3.40" fill="#f96e35"/>
<circle cx="425.00" cy="175.00" r="3.40" fill="#f8312f"/>
<circle cx="435.00" cy="175.00" r="3.40" fill="#f8312f"/>
<circle cx="445.00" cy="175.00" r="3.40" fill="#f8312f"/>
<circle cx="455.00" cy="175.00" r="3.40" fill="#f8312f"/>
<circle cx="385.00" cy="185.00" r="3.40" fill="#fbaf3b"/>
<circle cx="395.00" cy="185.00" r="3.40" fill="#f8342f"/>
<circle cx="405.00" cy="185.00" r="3.40" fill="#fccf3e"/>
<circle cx="415.00" cy="185.00" r="3.40" fill="#f95833"/>
<circle cx="425.00" cy="185.00" r="3.40" fill="#f8312f"/>
<circle cx="435.00" cy="185.00" r="3.40" fill="#f8312f"/>
<circle cx="445.00" cy="185.00" r="3.40" fill="#f8312f"/>
<circle cx="415.00" cy="195.00" r="3.40" fill="#f8312f"/>
<circle cx="425.00" cy="195.00" r="3.40" fill="#f8312f"/>
<circle cx="435.00" cy="195.00" r="3.40" fill="#f8312f"/>
<circle cx="445.00" cy="195.00" r="3.40" fill="#f8312f"/>
<circle cx="455.00" cy="195.00" r="3.40" fill="#f7312f"/>
<circle cx="415.00" cy="205.00" r="3.40" fill="#f8312f"/>
<circle cx="425.00" cy="205.00" r="3.40" fill="#f8312f"/>
<circle cx="445.00" cy="205.00" r="3.40" fill="#f8302f"/>
<defs>
  <pattern id="dotgrid" width="24" height="24" patternUnits="userSpaceOnUse">
    <circle cx="4" cy="4" r="0.85" fill="#58A6FF" opacity="0.22"/>
  </pattern>
</defs>
</svg>
