<svg width="800" height="280" viewBox="0 0 800 280" fill="none" xmlns="http://www.w3.org/2000/svg" role="img" aria-labelledby="title desc">
<title id="title">Daily pixel drop</title>
<desc id="desc">2026 / 07 / 17. COMMON drop Bookmark Tabs.</desc>
<rect width="800" height="280" rx="8" fill="#0D1117"/>
<rect x="1" y="1" width="798" height="278" rx="7" stroke="#243246"/>
<rect x="18" y="18" width="764" height="244" rx="5" fill="url(#dotgrid)" opacity="0.58"/>
<path d="M52 46H32V66M748 46H768V66M52 234H32V214M748 234H768V214" stroke="#8b949e" stroke-width="1.5" stroke-linecap="square" opacity="0.76"/>
<rect x="304" y="56" width="192" height="188" rx="5" stroke="#8b949e" opacity="0.54"/>
<circle cx="345.00" cy="85.00" r="3.40" fill="#99d1f4"/>
<circle cx="355.00" cy="85.00" r="3.40" fill="#b5def7"/>
<circle cx="365.00" cy="85.00" r="3.40" fill="#b5def7"/>
<circle cx="375.00" cy="85.00" r="3.40" fill="#b5def7"/>
<circle cx="385.00" cy="85.00" r="3.40" fill="#b5def7"/>
<circle cx="395.00" cy="85.00" r="3.40" fill="#b5def7"/>
<circle cx="405.00" cy="85.00" r="3.40" fill="#b5def7"/>
<circle cx="415.00" cy="85.00" r="3.40" fill="#b5def7"/>
<circle cx="425.00" cy="85.00" r="3.40" fill="#b5def7"/>
<circle cx="435.00" cy="85.00" r="3.40" fill="#a9d9f6"/>
<circle cx="345.00" cy="95.00" r="3.40" fill="#a0d5f5"/>
<circle cx="355.00" cy="95.00" r="3.40" fill="#ffffff"/>
<circle cx="365.00" cy="95.00" r="3.40" fill="#ffffff"/>
<circle cx="375.00" cy="95.00" r="3.40" fill="#ffffff"/>
<circle cx="385.00" cy="95.00" r="3.40" fill="#ffffff"/>
<circle cx="395.00" cy="95.00" r="3.40" fill="#ffffff"/>
<circle cx="405.00" cy="95.00" r="3.40" fill="#ffffff"/>
<circle cx="415.00" cy="95.00" r="3.40" fill="#ffffff"/>
<circle cx="425.00" cy="95.00" r="3.40" fill="#ffffff"/>
<circle cx="435.00" cy="95.00" r="3.40" fill="#cee9f9"/>
<circle cx="445.00" cy="95.00" r="3.40" fill="#aed3ea"/>
<circle cx="345.00" cy="105.00" r="3.40" fill="#a0d5f5"/>
<circle cx="355.00" cy="105.00" r="3.40" fill="#ffffff"/>
<circle cx="365.00" cy="105.00" r="3.40" fill="#ffffff"/>
<circle cx="375.00" cy="105.00" r="3.40" fill="#ffffff"/>
<circle cx="385.00" cy="105.00" r="3.40" fill="#ffffff"/>
<circle cx="395.00" cy="105.00" r="3.40" fill="#ffffff"/>
<circle cx="405.00" cy="105.00" r="3.40" fill="#ffffff"/>
<circle cx="415.00" cy="105.00" r="3.40" fill="#ffffff"/>
<circle cx="425.00" cy="105.00" r="3.40" fill="#fffdfd"/>
<circle cx="435.00" cy="105.00" r="3.40" fill="#e0a8ab"/>
<circle cx="445.00" cy="105.00" r="3.40" fill="#e19b9b"/>
<circle cx="455.00" cy="105.00" r="3.40" fill="#dc605f"/>
<circle cx="345.00" cy="115.00" r="3.40" fill="#a0d5f5"/>
<circle cx="355.00" cy="115.00" r="3.40" fill="#f8fafa"/>
<circle cx="365.00" cy="115.00" r="3.40" fill="#dde3e6"/>
<circle cx="375.00" cy="115.00" r="3.40" fill="#dde3e6"/>
<circle cx="385.00" cy="115.00" r="3.40" fill="#dde3e6"/>
<circle cx="395.00" cy="115.00" r="3.40" fill="#dde3e6"/>
<circle cx="405.00" cy="115.00" r="3.40" fill="#dde3e6"/>
<circle cx="415.00" cy="115.00" r="3.40" fill="#dde3e6"/>
<circle cx="425.00" cy="115.00" r="3.40" fill="#efdad9"/>
<circle cx="435.00" cy="115.00" r="3.40" fill="#ed5047"/>
<circle cx="445.00" cy="115.00" r="3.40" fill="#ed473d"/>
<circle cx="455.00" cy="115.00" r="3.40" fill="#e83f36"/>
<circle cx="345.00" cy="125.00" r="3.40" fill="#a0d5f5"/>
<circle cx="355.00" cy="125.00" r="3.40" fill="#f9fafb"/>
<circle cx="365.00" cy="125.00" r="3.40" fill="#e2e7ea"/>
<circle cx="375.00" cy="125.00" r="3.40" fill="#e2e7ea"/>
<circle cx="385.00" cy="125.00" r="3.40" fill="#e2e7ea"/>
<circle cx="395.00" cy="125.00" r="3.40" fill="#e2e7ea"/>
<circle cx="405.00" cy="125.00" r="3.40" fill="#e2e7ea"/>
<circle cx="415.00" cy="125.00" r="3.40" fill="#e2e7ea"/>
<circle cx="425.00" cy="125.00" r="3.40" fill="#f4f6f7"/>
<circle cx="435.00" cy="125.00" r="3.40" fill="#cee8f8"/>
<circle cx="445.00" cy="125.00" r="3.40" fill="#dcdab5"/>
<circle cx="455.00" cy="125.00" r="3.40" fill="#e7d277"/>
<circle cx="345.00" cy="135.00" r="3.40" fill="#a0d5f5"/>
<circle cx="355.00" cy="135.00" r="3.40" fill="#ffffff"/>
<circle cx="365.00" cy="135.00" r="3.40" fill="#fbfcfc"/>
<circle cx="375.00" cy="135.00" r="3.40" fill="#fbfcfc"/>
<circle cx="385.00" cy="135.00" r="3.40" fill="#fbfcfc"/>
<circle cx="395.00" cy="135.00" r="3.40" fill="#fbfcfc"/>
<circle cx="405.00" cy="135.00" r="3.40" fill="#fbfcfc"/>
<circle cx="415.00" cy="135.00" r="3.40" fill="#fbfcfc"/>
<circle cx="425.00" cy="135.00" r="3.40" fill="#fefefe"/>
<circle cx="435.00" cy="135.00" r="3.40" fill="#cee8f6"/>
<circle cx="445.00" cy="135.00" r="3.40" fill="#efc54b"/>
<circle cx="455.00" cy="135.00" r="3.40" fill="#fccc4d"/>
<circle cx="345.00" cy="145.00" r="3.40" fill="#a0d5f5"/>
<circle cx="355.00" cy="145.00" r="3.40" fill="#f8fafa"/>
<circle cx="365.00" cy="145.00" r="3.40" fill="#dee4e7"/>
<circle cx="375.00" cy="145.00" r="3.40" fill="#dee4e7"/>
<circle cx="385.00" cy="145.00" r="3.40" fill="#dee4e7"/>
<circle cx="395.00" cy="145.00" r="3.40" fill="#dee4e7"/>
<circle cx="405.00" cy="145.00" r="3.40" fill="#dee4e7"/>
<circle cx="415.00" cy="145.00" r="3.40" fill="#dee4e7"/>
<circle cx="425.00" cy="145.00" r="3.40" fill="#f3f5f6"/>
<circle cx="435.00" cy="145.00" r="3.40" fill="#cee9f9"/>
<circle cx="445.00" cy="145.00" r="3.40" fill="#d2e3ed"/>
<circle cx="455.00" cy="145.00" r="3.40" fill="#a1d5f5"/>
<circle cx="345.00" cy="155.00" r="3.40" fill="#a0d5f5"/>
<circle cx="355.00" cy="155.00" r="3.40" fill="#f9fafb"/>
<circle cx="365.00" cy="155.00" r="3.40" fill="#e3e8eb"/>
<circle cx="375.00" cy="155.00" r="3.40" fill="#e3e8eb"/>
<circle cx="385.00" cy="155.00" r="3.40" fill="#e3e8eb"/>
<circle cx="395.00" cy="155.00" r="3.40" fill="#e3e8eb"/>
<circle cx="405.00" cy="155.00" r="3.40" fill="#e3e8eb"/>
<circle cx="415.00" cy="155.00" r="3.40" fill="#e3e8eb"/>
<circle cx="425.00" cy="155.00" r="3.40" fill="#eaf1e7"/>
<circle cx="435.00" cy="155.00" r="3.40" fill="#abd48c"/>
<circle cx="445.00" cy="155.00" r="3.40" fill="#a8d182"/>
<circle cx="455.00" cy="155.00" r="3.40" fill="#98c968"/>
<circle cx="345.00" cy="165.00" r="3.40" fill="#a0d5f5"/>
<circle cx="355.00" cy="165.00" r="3.40" fill="#fefeff"/>
<circle cx="365.00" cy="165.00" r="3.40" fill="#fafbfb"/>
<circle cx="375.00" cy="165.00" r="3.40" fill="#fafbfb"/>
<circle cx="385.00" cy="165.00" r="3.40" fill="#fafbfb"/>
<circle cx="395.00" cy="165.00" r="3.40" fill="#fafbfb"/>
<circle cx="405.00" cy="165.00" r="3.40" fill="#fafbfb"/>
<circle cx="415.00" cy="165.00" r="3.40" fill="#fafbfb"/>
<circle cx="425.00" cy="165.00" r="3.40" fill="#f8fbf5"/>
<circle cx="435.00" cy="165.00" r="3.40" fill="#b0d6a1"/>
<circle cx="445.00" cy="165.00" r="3.40" fill="#add296"/>
<circle cx="455.00" cy="165.00" r="3.40" fill="#95c875"/>
<circle cx="345.00" cy="175.00" r="3.40" fill="#a0d5f5"/>
<circle cx="355.00" cy="175.00" r="3.40" fill="#f9fafa"/>
<circle cx="365.00" cy="175.00" r="3.40" fill="#dee4e7"/>
<circle cx="375.00" cy="175.00" r="3.40" fill="#dee4e7"/>
<circle cx="385.00" cy="175.00" r="3.40" fill="#e5e9ec"/>
<circle cx="395.00" cy="175.00" r="3.40" fill="#ffffff"/>
<circle cx="405.00" cy="175.00" r="3.40" fill="#ffffff"/>
<circle cx="415.00" cy="175.00" r="3.40" fill="#ffffff"/>
<circle cx="425.00" cy="175.00" r="3.40" fill="#ffffff"/>
<circle cx="435.00" cy="175.00" r="3.40" fill="#cbe7f9"/>
<circle cx="445.00" cy="175.00" r="3.40" fill="#40a4e2"/>
<circle cx="455.00" cy="175.00" r="3.40" fill="#0c90e2"/>
<circle cx="345.00" cy="185.00" r="3.40" fill="#a0d5f5"/>
<circle cx="355.00" cy="185.00" r="3.40" fill="#ffffff"/>
<circle cx="365.00" cy="185.00" r="3.40" fill="#ffffff"/>
<circle cx="375.00" cy="185.00" r="3.40" fill="#ffffff"/>
<circle cx="385.00" cy="185.00" r="3.40" fill="#ffffff"/>
<circle cx="395.00" cy="185.00" r="3.40" fill="#ffffff"/>
<circle cx="405.00" cy="185.00" r="3.40" fill="#ffffff"/>
<circle cx="415.00" cy="185.00" r="3.40" fill="#ffffff"/>
<circle cx="425.00" cy="185.00" r="3.40" fill="#ffffff"/>
<circle cx="435.00" cy="185.00" r="3.40" fill="#cbe7f8"/>
<circle cx="445.00" cy="185.00" r="3.40" fill="#409fda"/>
<circle cx="455.00" cy="185.00" r="3.40" fill="#0d8ada"/>
<circle cx="345.00" cy="195.00" r="3.40" fill="#a0d5f5"/>
<circle cx="355.00" cy="195.00" r="3.40" fill="#ffffff"/>
<circle cx="365.00" cy="195.00" r="3.40" fill="#ffffff"/>
<circle cx="375.00" cy="195.00" r="3.40" fill="#ffffff"/>
<circle cx="385.00" cy="195.00" r="3.40" fill="#ffffff"/>
<circle cx="395.00" cy="195.00" r="3.40" fill="#ffffff"/>
<circle cx="405.00" cy="195.00" r="3.40" fill="#ffffff"/>
<circle cx="415.00" cy="195.00" r="3.40" fill="#ffffff"/>
<circle cx="425.00" cy="195.00" r="3.40" fill="#ffffff"/>
<circle cx="435.00" cy="195.00" r="3.40" fill="#cee9f9"/>
<circle cx="445.00" cy="195.00" r="3.40" fill="#d2e3ed"/>
<circle cx="455.00" cy="195.00" r="3.40" fill="#a1d5f5"/>
<circle cx="345.00" cy="205.00" r="3.40" fill="#96d0f3"/>
<circle cx="355.00" cy="205.00" r="3.40" fill="#9fd4f5"/>
<circle cx="365.00" cy="205.00" r="3.40" fill="#a7cfe8"/>
<circle cx="375.00" cy="205.00" r="3.40" fill="#bdd8e8"/>
<circle cx="385.00" cy="205.00" r="3.40" fill="#bdd8e8"/>
<circle cx="395.00" cy="205.00" r="3.40" fill="#bdd8e8"/>
<circle cx="405.00" cy="205.00" r="3.40" fill="#bdd8e8"/>
<circle cx="415.00" cy="205.00" r="3.40" fill="#bdd8e8"/>
<circle cx="425.00" cy="205.00" r="3.40" fill="#bdd8e8"/>
<circle cx="435.00" cy="205.00" r="3.40" fill="#bdd6e5"/>
<circle cx="445.00" cy="205.00" r="3.40" fill="#d7e8f2"/>
<circle cx="455.00" cy="205.00" r="3.40" fill="#a1d5f5"/>
<circle cx="365.00" cy="215.00" r="3.40" fill="#9fd4f5"/>
<circle cx="375.00" cy="215.00" r="3.40" fill="#aedaf6"/>
<circle cx="385.00" cy="215.00" r="3.40" fill="#aedaf6"/>
<circle cx="395.00" cy="215.00" r="3.40" fill="#aedaf6"/>
<circle cx="405.00" cy="215.00" r="3.40" fill="#aedaf6"/>
<circle cx="415.00" cy="215.00" r="3.40" fill="#aedaf6"/>
<circle cx="425.00" cy="215.00" r="3.40" fill="#aedaf6"/>
<circle cx="435.00" cy="215.00" r="3.40" fill="#aedaf6"/>
<circle cx="445.00" cy="215.00" r="3.40" fill="#a2d6f5"/>
<defs>
  <pattern id="dotgrid" width="24" height="24" patternUnits="userSpaceOnUse">
    <circle cx="4" cy="4" r="0.85" fill="#58A6FF" opacity="0.22"/>
  </pattern>
</defs>
</svg>
