<svg width="800" height="280" viewBox="0 0 800 280" fill="none" xmlns="http://www.w3.org/2000/svg" role="img" aria-labelledby="title desc">
<title id="title">Daily pixel drop</title>
<desc id="desc">2026 / 05 / 31. COMMON drop Toolbox.</desc>
<rect width="800" height="280" rx="8" fill="#0D1117"/>
<rect x="1" y="1" width="798" height="278" rx="7" stroke="#243246"/>
<rect x="18" y="18" width="764" height="244" rx="5" fill="url(#dotgrid)" opacity="0.58"/>
<path d="M52 46H32V66M748 46H768V66M52 234H32V214M748 234H768V214" stroke="#8b949e" stroke-width="1.5" stroke-linecap="square" opacity="0.76"/>
<rect x="304" y="56" width="192" height="188" rx="5" stroke="#8b949e" opacity="0.54"/>
<circle cx="385.00" cy="105.00" r="3.40" fill="#321b41"/>
<circle cx="395.00" cy="105.00" r="3.40" fill="#321b41"/>
<circle cx="405.00" cy="105.00" r="3.40" fill="#321b41"/>
<circle cx="415.00" cy="105.00" r="3.40" fill="#321b41"/>
<circle cx="375.00" cy="115.00" r="3.40" fill="#321b41"/>
<circle cx="385.00" cy="115.00" r="3.40" fill="#321b41"/>
<circle cx="395.00" cy="115.00" r="3.40" fill="#321b41"/>
<circle cx="405.00" cy="115.00" r="3.40" fill="#321b41"/>
<circle cx="415.00" cy="115.00" r="3.40" fill="#321b41"/>
<circle cx="425.00" cy="115.00" r="3.40" fill="#321b41"/>
<circle cx="345.00" cy="125.00" r="3.40" fill="#f8312e"/>
<circle cx="355.00" cy="125.00" r="3.40" fill="#f8312f"/>
<circle cx="365.00" cy="125.00" r="3.40" fill="#f8312f"/>
<circle cx="375.00" cy="125.00" r="3.40" fill="#c12b34"/>
<circle cx="385.00" cy="125.00" r="3.40" fill="#d42d32"/>
<circle cx="395.00" cy="125.00" r="3.40" fill="#f8312f"/>
<circle cx="405.00" cy="125.00" r="3.40" fill="#f8312f"/>
<circle cx="415.00" cy="125.00" r="3.40" fill="#d42d32"/>
<circle cx="425.00" cy="125.00" r="3.40" fill="#c12b34"/>
<circle cx="435.00" cy="125.00" r="3.40" fill="#f8312f"/>
<circle cx="445.00" cy="125.00" r="3.40" fill="#f8312f"/>
<circle cx="455.00" cy="125.00" r="3.40" fill="#f8312f"/>
<circle cx="345.00" cy="135.00" r="3.40" fill="#f8312f"/>
<circle cx="355.00" cy="135.00" r="3.40" fill="#f8312f"/>
<circle cx="365.00" cy="135.00" r="3.40" fill="#f8312f"/>
<circle cx="375.00" cy="135.00" r="3.40" fill="#f8312f"/>
<circle cx="385.00" cy="135.00" r="3.40" fill="#f8312f"/>
<circle cx="395.00" cy="135.00" r="3.40" fill="#f8312f"/>
<circle cx="405.00" cy="135.00" r="3.40" fill="#f8312f"/>
<circle cx="415.00" cy="135.00" r="3.40" fill="#f8312f"/>
<circle cx="425.00" cy="135.00" r="3.40" fill="#f8312f"/>
<circle cx="435.00" cy="135.00" r="3.40" fill="#f8312f"/>
<circle cx="445.00" cy="135.00" r="3.40" fill="#f8312f"/>
<circle cx="455.00" cy="135.00" r="3.40" fill="#f8312f"/>
<circle cx="335.00" cy="145.00" r="3.40" fill="#f7312f"/>
<circle cx="345.00" cy="145.00" r="3.40" fill="#f8312f"/>
<circle cx="355.00" cy="145.00" r="3.40" fill="#f8312f"/>
<circle cx="365.00" cy="145.00" r="3.40" fill="#f8312f"/>
<circle cx="375.00" cy="145.00" r="3.40" fill="#f8312f"/>
<circle cx="385.00" cy="145.00" r="3.40" fill="#f8312f"/>
<circle cx="395.00" cy="145.00" r="3.40" fill="#f8312f"/>
<circle cx="405.00" cy="145.00" r="3.40" fill="#f8312f"/>
<circle cx="415.00" cy="145.00" r="3.40" fill="#f8312f"/>
<circle cx="425.00" cy="145.00" r="3.40" fill="#f8312f"/>
<circle cx="435.00" cy="145.00" r="3.40" fill="#f8312f"/>
<circle cx="445.00" cy="145.00" r="3.40" fill="#f8312f"/>
<circle cx="455.00" cy="145.00" r="3.40" fill="#f8312f"/>
<circle cx="345.00" cy="155.00" r="3.40" fill="#e4203b"/>
<circle cx="355.00" cy="155.00" r="3.40" fill="#e4213b"/>
<circle cx="365.00" cy="155.00" r="3.40" fill="#d6c0c2"/>
<circle cx="375.00" cy="155.00" r="3.40" fill="#d8aaaf"/>
<circle cx="385.00" cy="155.00" r="3.40" fill="#e4213b"/>
<circle cx="395.00" cy="155.00" r="3.40" fill="#e4213b"/>
<circle cx="405.00" cy="155.00" r="3.40" fill="#e4213b"/>
<circle cx="415.00" cy="155.00" r="3.40" fill="#e4213b"/>
<circle cx="425.00" cy="155.00" r="3.40" fill="#d8abaf"/>
<circle cx="435.00" cy="155.00" r="3.40" fill="#d6c0c1"/>
<circle cx="445.00" cy="155.00" r="3.40" fill="#e4213b"/>
<circle cx="455.00" cy="155.00" r="3.40" fill="#e4213b"/>
<circle cx="335.00" cy="165.00" r="3.40" fill="#f7312f"/>
<circle cx="345.00" cy="165.00" r="3.40" fill="#f8312f"/>
<circle cx="355.00" cy="165.00" r="3.40" fill="#f8312f"/>
<circle cx="365.00" cy="165.00" r="3.40" fill="#e48887"/>
<circle cx="375.00" cy="165.00" r="3.40" fill="#e87877"/>
<circle cx="385.00" cy="165.00" r="3.40" fill="#f8312f"/>
<circle cx="395.00" cy="165.00" r="3.40" fill="#f8312f"/>
<circle cx="405.00" cy="165.00" r="3.40" fill="#f8312f"/>
<circle cx="415.00" cy="165.00" r="3.40" fill="#f8312f"/>
<circle cx="425.00" cy="165.00" r="3.40" fill="#e87977"/>
<circle cx="435.00" cy="165.00" r="3.40" fill="#e48786"/>
<circle cx="445.00" cy="165.00" r="3.40" fill="#f8312f"/>
<circle cx="455.00" cy="165.00" r="3.40" fill="#f8312f"/>
<circle cx="335.00" cy="175.00" r="3.40" fill="#f7312f"/>
<circle cx="345.00" cy="175.00" r="3.40" fill="#f8312f"/>
<circle cx="355.00" cy="175.00" r="3.40" fill="#f8312f"/>
<circle cx="365.00" cy="175.00" r="3.40" fill="#f8312f"/>
<circle cx="375.00" cy="175.00" r="3.40" fill="#f8312f"/>
<circle cx="385.00" cy="175.00" r="3.40" fill="#f8312f"/>
<circle cx="395.00" cy="175.00" r="3.40" fill="#f8312f"/>
<circle cx="405.00" cy="175.00" r="3.40" fill="#f8312f"/>
<circle cx="415.00" cy="175.00" r="3.40" fill="#f8312f"/>
<circle cx="425.00" cy="175.00" r="3.40" fill="#f8312f"/>
<circle cx="435.00" cy="175.00" r="3.40" fill="#f8312f"/>
<circle cx="445.00" cy="175.00" r="3.40" fill="#f8312f"/>
<circle cx="455.00" cy="175.00" r="3.40" fill="#f8312f"/>
<circle cx="335.00" cy="185.00" r="3.40" fill="#f7312f"/>
<circle cx="345.00" cy="185.00" r="3.40" fill="#f8312f"/>
<circle cx="355.00" cy="185.00" r="3.40" fill="#f34745"/>
<circle cx="365.00" cy="185.00" r="3.40" fill="#e87776"/>
<circle cx="375.00" cy="185.00" r="3.40" fill="#e87776"/>
<circle cx="385.00" cy="185.00" r="3.40" fill="#e87776"/>
<circle cx="395.00" cy="185.00" r="3.40" fill="#e87776"/>
<circle cx="405.00" cy="185.00" r="3.40" fill="#e87776"/>
<circle cx="415.00" cy="185.00" r="3.40" fill="#e87776"/>
<circle cx="425.00" cy="185.00" r="3.40" fill="#e87776"/>
<circle cx="435.00" cy="185.00" r="3.40" fill="#e87776"/>
<circle cx="445.00" cy="185.00" r="3.40" fill="#f34745"/>
<circle cx="455.00" cy="185.00" r="3.40" fill="#f8312f"/>
<circle cx="335.00" cy="195.00" r="3.40" fill="#f7312f"/>
<circle cx="345.00" cy="195.00" r="3.40" fill="#f8312f"/>
<circle cx="355.00" cy="195.00" r="3.40" fill="#f34745"/>
<circle cx="365.00" cy="195.00" r="3.40" fill="#e87776"/>
<circle cx="375.00" cy="195.00" r="3.40" fill="#e87776"/>
<circle cx="385.00" cy="195.00" r="3.40" fill="#e87776"/>
<circle cx="395.00" cy="195.00" r="3.40" fill="#e87776"/>
<circle cx="405.00" cy="195.00" r="3.40" fill="#e87776"/>
<circle cx="415.00" cy="195.00" r="3.40" fill="#e87776"/>
<circle cx="425.00" cy="195.00" r="3.40" fill="#e87776"/>
<circle cx="435.00" cy="195.00" r="3.40" fill="#e87776"/>
<circle cx="445.00" cy="195.00" r="3.40" fill="#f34745"/>
<circle cx="455.00" cy="195.00" r="3.40" fill="#f8312f"/>
<circle cx="345.00" cy="205.00" r="3.40" fill="#f8312f"/>
<circle cx="355.00" cy="205.00" r="3.40" fill="#f8312f"/>
<circle cx="365.00" cy="205.00" r="3.40" fill="#f8312f"/>
<circle cx="375.00" cy="205.00" r="3.40" fill="#f8312f"/>
<circle cx="385.00" cy="205.00" r="3.40" fill="#f8312f"/>
<circle cx="395.00" cy="205.00" r="3.40" fill="#f8312f"/>
<circle cx="405.00" cy="205.00" r="3.40" fill="#f8312f"/>
<circle cx="415.00" cy="205.00" r="3.40" fill="#f8312f"/>
<circle cx="425.00" cy="205.00" r="3.40" fill="#f8312f"/>
<circle cx="435.00" cy="205.00" r="3.40" fill="#f8312f"/>
<circle cx="445.00" cy="205.00" r="3.40" fill="#f8312f"/>
<circle cx="455.00" cy="205.00" r="3.40" fill="#f8312f"/>
<defs>
  <pattern id="dotgrid" width="24" height="24" patternUnits="userSpaceOnUse">
    <circle cx="4" cy="4" r="0.85" fill="#58A6FF" opacity="0.22"/>
  </pattern>
</defs>
</svg>
