<svg width="800" height="280" viewBox="0 0 800 280" fill="none" xmlns="http://www.w3.org/2000/svg" role="img" aria-labelledby="title desc">
<title id="title">Daily pixel drop</title>
<desc id="desc">2026 / 07 / 14. COMMON drop Hear No Evil Monkey.</desc>
<rect width="800" height="280" rx="8" fill="#0D1117"/>
<rect x="1" y="1" width="798" height="278" rx="7" stroke="#243246"/>
<rect x="18" y="18" width="764" height="244" rx="5" fill="url(#dotgrid)" opacity="0.58"/>
<path d="M52 46H32V66M748 46H768V66M52 234H32V214M748 234H768V214" stroke="#8b949e" stroke-width="1.5" stroke-linecap="square" opacity="0.76"/>
<rect x="304" y="56" width="192" height="188" rx="5" stroke="#8b949e" opacity="0.54"/>
<circle cx="375.00" cy="95.00" r="3.40" fill="#7d4532"/>
<circle cx="385.00" cy="95.00" r="3.40" fill="#7d4533"/>
<circle cx="395.00" cy="95.00" r="3.40" fill="#7d4533"/>
<circle cx="405.00" cy="95.00" r="3.40" fill="#7d4533"/>
<circle cx="415.00" cy="95.00" r="3.40" fill="#7d4533"/>
<circle cx="425.00" cy="95.00" r="3.40" fill="#7c4532"/>
<circle cx="365.00" cy="105.00" r="3.40" fill="#7d4533"/>
<circle cx="375.00" cy="105.00" r="3.40" fill="#854c3a"/>
<circle cx="385.00" cy="105.00" r="3.40" fill="#8e5441"/>
<circle cx="395.00" cy="105.00" r="3.40" fill="#8e5441"/>
<circle cx="405.00" cy="105.00" r="3.40" fill="#8e5441"/>
<circle cx="415.00" cy="105.00" r="3.40" fill="#8e5441"/>
<circle cx="425.00" cy="105.00" r="3.40" fill="#854c3a"/>
<circle cx="435.00" cy="105.00" r="3.40" fill="#7d4533"/>
<circle cx="355.00" cy="115.00" r="3.40" fill="#7d4533"/>
<circle cx="365.00" cy="115.00" r="3.40" fill="#a66956"/>
<circle cx="375.00" cy="115.00" r="3.40" fill="#e29c88"/>
<circle cx="385.00" cy="115.00" r="3.40" fill="#e39d89"/>
<circle cx="395.00" cy="115.00" r="3.40" fill="#e39d89"/>
<circle cx="405.00" cy="115.00" r="3.40" fill="#e39d89"/>
<circle cx="415.00" cy="115.00" r="3.40" fill="#e39d89"/>
<circle cx="425.00" cy="115.00" r="3.40" fill="#e29c88"/>
<circle cx="435.00" cy="115.00" r="3.40" fill="#a66856"/>
<circle cx="445.00" cy="115.00" r="3.40" fill="#7d4533"/>
<circle cx="335.00" cy="125.00" r="3.40" fill="#e39d89"/>
<circle cx="345.00" cy="125.00" r="3.40" fill="#de9985"/>
<circle cx="355.00" cy="125.00" r="3.40" fill="#824937"/>
<circle cx="365.00" cy="125.00" r="3.40" fill="#d8937f"/>
<circle cx="375.00" cy="125.00" r="3.40" fill="#e39d89"/>
<circle cx="385.00" cy="125.00" r="3.40" fill="#d39381"/>
<circle cx="395.00" cy="125.00" r="3.40" fill="#e39d89"/>
<circle cx="405.00" cy="125.00" r="3.40" fill="#e39d89"/>
<circle cx="415.00" cy="125.00" r="3.40" fill="#d39380"/>
<circle cx="425.00" cy="125.00" r="3.40" fill="#e39d89"/>
<circle cx="435.00" cy="125.00" r="3.40" fill="#d8937f"/>
<circle cx="445.00" cy="125.00" r="3.40" fill="#824a37"/>
<circle cx="455.00" cy="125.00" r="3.40" fill="#de9985"/>
<circle cx="465.00" cy="125.00" r="3.40" fill="#e39d89"/>
<circle cx="335.00" cy="135.00" r="3.40" fill="#e39d89"/>
<circle cx="345.00" cy="135.00" r="3.40" fill="#e39d89"/>
<circle cx="355.00" cy="135.00" r="3.40" fill="#a56754"/>
<circle cx="365.00" cy="135.00" r="3.40" fill="#ce8b77"/>
<circle cx="375.00" cy="135.00" r="3.40" fill="#e39d89"/>
<circle cx="385.00" cy="135.00" r="3.40" fill="#634a43"/>
<circle cx="395.00" cy="135.00" r="3.40" fill="#e39d89"/>
<circle cx="405.00" cy="135.00" r="3.40" fill="#e39d89"/>
<circle cx="415.00" cy="135.00" r="3.40" fill="#634a43"/>
<circle cx="425.00" cy="135.00" r="3.40" fill="#e39d89"/>
<circle cx="435.00" cy="135.00" r="3.40" fill="#ce8b77"/>
<circle cx="445.00" cy="135.00" r="3.40" fill="#a56754"/>
<circle cx="455.00" cy="135.00" r="3.40" fill="#e39d89"/>
<circle cx="465.00" cy="135.00" r="3.40" fill="#e39d89"/>
<circle cx="335.00" cy="145.00" r="3.40" fill="#d08d79"/>
<circle cx="345.00" cy="145.00" r="3.40" fill="#dc9783"/>
<circle cx="355.00" cy="145.00" r="3.40" fill="#a76956"/>
<circle cx="365.00" cy="145.00" r="3.40" fill="#905543"/>
<circle cx="375.00" cy="145.00" r="3.40" fill="#e39d89"/>
<circle cx="385.00" cy="145.00" r="3.40" fill="#db9784"/>
<circle cx="395.00" cy="145.00" r="3.40" fill="#e58881"/>
<circle cx="405.00" cy="145.00" r="3.40" fill="#e58881"/>
<circle cx="415.00" cy="145.00" r="3.40" fill="#db9784"/>
<circle cx="425.00" cy="145.00" r="3.40" fill="#e39d89"/>
<circle cx="435.00" cy="145.00" r="3.40" fill="#905543"/>
<circle cx="445.00" cy="145.00" r="3.40" fill="#a76956"/>
<circle cx="455.00" cy="145.00" r="3.40" fill="#dc9783"/>
<circle cx="465.00" cy="145.00" r="3.40" fill="#d08d79"/>
<circle cx="335.00" cy="155.00" r="3.40" fill="#8c5543"/>
<circle cx="345.00" cy="155.00" r="3.40" fill="#8c5543"/>
<circle cx="355.00" cy="155.00" r="3.40" fill="#8d5543"/>
<circle cx="365.00" cy="155.00" r="3.40" fill="#824a38"/>
<circle cx="375.00" cy="155.00" r="3.40" fill="#e19b87"/>
<circle cx="385.00" cy="155.00" r="3.40" fill="#e29889"/>
<circle cx="395.00" cy="155.00" r="3.40" fill="#da7e80"/>
<circle cx="405.00" cy="155.00" r="3.40" fill="#da7e80"/>
<circle cx="415.00" cy="155.00" r="3.40" fill="#e29889"/>
<circle cx="425.00" cy="155.00" r="3.40" fill="#e19b87"/>
<circle cx="435.00" cy="155.00" r="3.40" fill="#824938"/>
<circle cx="445.00" cy="155.00" r="3.40" fill="#8d5543"/>
<circle cx="455.00" cy="155.00" r="3.40" fill="#8c5543"/>
<circle cx="465.00" cy="155.00" r="3.40" fill="#8c5543"/>
<circle cx="335.00" cy="165.00" r="3.40" fill="#8c5543"/>
<circle cx="345.00" cy="165.00" r="3.40" fill="#8c5543"/>
<circle cx="355.00" cy="165.00" r="3.40" fill="#8c5543"/>
<circle cx="365.00" cy="165.00" r="3.40" fill="#8a5341"/>
<circle cx="375.00" cy="165.00" r="3.40" fill="#be7e6a"/>
<circle cx="385.00" cy="165.00" r="3.40" fill="#dc8788"/>
<circle cx="395.00" cy="165.00" r="3.40" fill="#bb1e80"/>
<circle cx="405.00" cy="165.00" r="3.40" fill="#bb1e80"/>
<circle cx="415.00" cy="165.00" r="3.40" fill="#dc8888"/>
<circle cx="425.00" cy="165.00" r="3.40" fill="#be7d6a"/>
<circle cx="435.00" cy="165.00" r="3.40" fill="#8a5341"/>
<circle cx="445.00" cy="165.00" r="3.40" fill="#8c5543"/>
<circle cx="455.00" cy="165.00" r="3.40" fill="#8c5543"/>
<circle cx="465.00" cy="165.00" r="3.40" fill="#8c5543"/>
<circle cx="335.00" cy="175.00" r="3.40" fill="#8c5543"/>
<circle cx="345.00" cy="175.00" r="3.40" fill="#8c5543"/>
<circle cx="355.00" cy="175.00" r="3.40" fill="#8c5543"/>
<circle cx="365.00" cy="175.00" r="3.40" fill="#8b5442"/>
<circle cx="375.00" cy="175.00" r="3.40" fill="#824937"/>
<circle cx="385.00" cy="175.00" r="3.40" fill="#be7d6a"/>
<circle cx="395.00" cy="175.00" r="3.40" fill="#d77c85"/>
<circle cx="405.00" cy="175.00" r="3.40" fill="#d77c85"/>
<circle cx="415.00" cy="175.00" r="3.40" fill="#be7d6a"/>
<circle cx="425.00" cy="175.00" r="3.40" fill="#824a37"/>
<circle cx="435.00" cy="175.00" r="3.40" fill="#8b5442"/>
<circle cx="445.00" cy="175.00" r="3.40" fill="#8c5543"/>
<circle cx="455.00" cy="175.00" r="3.40" fill="#8c5543"/>
<circle cx="465.00" cy="175.00" r="3.40" fill="#8c5543"/>
<circle cx="335.00" cy="185.00" r="3.40" fill="#8c5543"/>
<circle cx="345.00" cy="185.00" r="3.40" fill="#8c5543"/>
<circle cx="355.00" cy="185.00" r="3.40" fill="#8c5543"/>
<circle cx="365.00" cy="185.00" r="3.40" fill="#8b5442"/>
<circle cx="375.00" cy="185.00" r="3.40" fill="#7d4533"/>
<circle cx="385.00" cy="185.00" r="3.40" fill="#7d4533"/>
<circle cx="395.00" cy="185.00" r="3.40" fill="#7f4735"/>
<circle cx="405.00" cy="185.00" r="3.40" fill="#7f4735"/>
<circle cx="415.00" cy="185.00" r="3.40" fill="#7d4533"/>
<circle cx="425.00" cy="185.00" r="3.40" fill="#7d4533"/>
<circle cx="435.00" cy="185.00" r="3.40" fill="#8b5442"/>
<circle cx="445.00" cy="185.00" r="3.40" fill="#8c5543"/>
<circle cx="455.00" cy="185.00" r="3.40" fill="#8c5543"/>
<circle cx="465.00" cy="185.00" r="3.40" fill="#8c5543"/>
<circle cx="335.00" cy="195.00" r="3.40" fill="#8c5543"/>
<circle cx="345.00" cy="195.00" r="3.40" fill="#8c5543"/>
<circle cx="355.00" cy="195.00" r="3.40" fill="#8c5543"/>
<circle cx="365.00" cy="195.00" r="3.40" fill="#8c5543"/>
<circle cx="375.00" cy="195.00" r="3.40" fill="#7d4533"/>
<circle cx="385.00" cy="195.00" r="3.40" fill="#7d4533"/>
<circle cx="395.00" cy="195.00" r="3.40" fill="#7d4533"/>
<circle cx="405.00" cy="195.00" r="3.40" fill="#7d4533"/>
<circle cx="415.00" cy="195.00" r="3.40" fill="#7d4533"/>
<circle cx="425.00" cy="195.00" r="3.40" fill="#7d4533"/>
<circle cx="435.00" cy="195.00" r="3.40" fill="#8c5543"/>
<circle cx="445.00" cy="195.00" r="3.40" fill="#8c5543"/>
<circle cx="455.00" cy="195.00" r="3.40" fill="#8c5543"/>
<circle cx="465.00" cy="195.00" r="3.40" fill="#8c5543"/>
<circle cx="335.00" cy="205.00" r="3.40" fill="#8c5543"/>
<circle cx="345.00" cy="205.00" r="3.40" fill="#8c5543"/>
<circle cx="355.00" cy="205.00" r="3.40" fill="#8c5543"/>
<circle cx="365.00" cy="205.00" r="3.40" fill="#8c5543"/>
<circle cx="435.00" cy="205.00" r="3.40" fill="#8c5543"/>
<circle cx="445.00" cy="205.00" r="3.40" fill="#8c5543"/>
<circle cx="455.00" cy="205.00" r="3.40" fill="#8c5543"/>
<circle cx="465.00" cy="205.00" r="3.40" fill="#8c5543"/>
<defs>
  <pattern id="dotgrid" width="24" height="24" patternUnits="userSpaceOnUse">
    <circle cx="4" cy="4" r="0.85" fill="#58A6FF" opacity="0.22"/>
  </pattern>
</defs>
</svg>
