<svg width="800" height="280" viewBox="0 0 800 280" fill="none" xmlns="http://www.w3.org/2000/svg" role="img" aria-labelledby="title desc">
<title id="title">Daily pixel drop</title>
<desc id="desc">2026 / 06 / 22. RARE drop Full Moon.</desc>
<rect width="800" height="280" rx="8" fill="#0D1117"/>
<rect x="1" y="1" width="798" height="278" rx="7" stroke="#243246"/>
<rect x="18" y="18" width="764" height="244" rx="5" fill="url(#dotgrid)" opacity="0.58"/>
<path d="M52 46H32V66M748 46H768V66M52 234H32V214M748 234H768V214" stroke="#58a6ff" stroke-width="1.5" stroke-linecap="square" opacity="0.76"/>
<rect x="304" y="56" width="192" height="188" rx="5" stroke="#58a6ff" opacity="0.54"/>
<circle cx="385.00" cy="85.00" r="3.40" fill="#f7d79b"/>
<circle cx="395.00" cy="85.00" r="3.40" fill="#f7d89d"/>
<circle cx="405.00" cy="85.00" r="3.40" fill="#fce5ac"/>
<circle cx="415.00" cy="85.00" r="3.40" fill="#fbe2a9"/>
<circle cx="365.00" cy="95.00" r="3.40" fill="#f7d89c"/>
<circle cx="375.00" cy="95.00" r="3.40" fill="#fadfa5"/>
<circle cx="385.00" cy="95.00" r="3.40" fill="#f7d79c"/>
<circle cx="395.00" cy="95.00" r="3.40" fill="#f9dca1"/>
<circle cx="405.00" cy="95.00" r="3.40" fill="#fce4ab"/>
<circle cx="415.00" cy="95.00" r="3.40" fill="#f7d89d"/>
<circle cx="425.00" cy="95.00" r="3.40" fill="#fadfa6"/>
<circle cx="435.00" cy="95.00" r="3.40" fill="#fce5ac"/>
<circle cx="355.00" cy="105.00" r="3.40" fill="#f6d498"/>
<circle cx="365.00" cy="105.00" r="3.40" fill="#f6d398"/>
<circle cx="375.00" cy="105.00" r="3.40" fill="#f3cc8e"/>
<circle cx="385.00" cy="105.00" r="3.40" fill="#f1c688"/>
<circle cx="395.00" cy="105.00" r="3.40" fill="#f4cf93"/>
<circle cx="405.00" cy="105.00" r="3.40" fill="#f8d99f"/>
<circle cx="415.00" cy="105.00" r="3.40" fill="#f1c688"/>
<circle cx="425.00" cy="105.00" r="3.40" fill="#f5d195"/>
<circle cx="435.00" cy="105.00" r="3.40" fill="#fadfa5"/>
<circle cx="445.00" cy="105.00" r="3.40" fill="#fbe1a8"/>
<circle cx="345.00" cy="115.00" r="3.40" fill="#f4cf93"/>
<circle cx="355.00" cy="115.00" r="3.40" fill="#f4cf92"/>
<circle cx="365.00" cy="115.00" r="3.40" fill="#f2ca8c"/>
<circle cx="375.00" cy="115.00" r="3.40" fill="#f1c688"/>
<circle cx="385.00" cy="115.00" r="3.40" fill="#f5d195"/>
<circle cx="395.00" cy="115.00" r="3.40" fill="#fce4aa"/>
<circle cx="405.00" cy="115.00" r="3.40" fill="#fce4ab"/>
<circle cx="415.00" cy="115.00" r="3.40" fill="#f9dda2"/>
<circle cx="425.00" cy="115.00" r="3.40" fill="#f2c88a"/>
<circle cx="435.00" cy="115.00" r="3.40" fill="#f1c688"/>
<circle cx="445.00" cy="115.00" r="3.40" fill="#f3cb8e"/>
<circle cx="455.00" cy="115.00" r="3.40" fill="#fce5ac"/>
<circle cx="345.00" cy="125.00" r="3.40" fill="#f3cb8d"/>
<circle cx="355.00" cy="125.00" r="3.40" fill="#f2c78a"/>
<circle cx="365.00" cy="125.00" r="3.40" fill="#f1c688"/>
<circle cx="375.00" cy="125.00" r="3.40" fill="#f1c688"/>
<circle cx="385.00" cy="125.00" r="3.40" fill="#f9dca2"/>
<circle cx="395.00" cy="125.00" r="3.40" fill="#fce5ac"/>
<circle cx="405.00" cy="125.00" r="3.40" fill="#fce5ac"/>
<circle cx="415.00" cy="125.00" r="3.40" fill="#fbe1a7"/>
<circle cx="425.00" cy="125.00" r="3.40" fill="#f1c688"/>
<circle cx="435.00" cy="125.00" r="3.40" fill="#f1c688"/>
<circle cx="445.00" cy="125.00" r="3.40" fill="#f3cd90"/>
<circle cx="455.00" cy="125.00" r="3.40" fill="#f6d599"/>
<circle cx="335.00" cy="135.00" r="3.40" fill="#fce4ab"/>
<circle cx="345.00" cy="135.00" r="3.40" fill="#f1c789"/>
<circle cx="355.00" cy="135.00" r="3.40" fill="#f3cc8f"/>
<circle cx="365.00" cy="135.00" r="3.40" fill="#f4cf92"/>
<circle cx="375.00" cy="135.00" r="3.40" fill="#f5d194"/>
<circle cx="385.00" cy="135.00" r="3.40" fill="#f8d99e"/>
<circle cx="395.00" cy="135.00" r="3.40" fill="#fce5ac"/>
<circle cx="405.00" cy="135.00" r="3.40" fill="#fce5ac"/>
<circle cx="415.00" cy="135.00" r="3.40" fill="#fce5ac"/>
<circle cx="425.00" cy="135.00" r="3.40" fill="#f8daa0"/>
<circle cx="435.00" cy="135.00" r="3.40" fill="#f6d398"/>
<circle cx="445.00" cy="135.00" r="3.40" fill="#fbe2a8"/>
<circle cx="455.00" cy="135.00" r="3.40" fill="#f1c688"/>
<circle cx="465.00" cy="135.00" r="3.40" fill="#f9dca1"/>
<circle cx="335.00" cy="145.00" r="3.40" fill="#fce5ac"/>
<circle cx="345.00" cy="145.00" r="3.40" fill="#f8d99e"/>
<circle cx="355.00" cy="145.00" r="3.40" fill="#f1c688"/>
<circle cx="365.00" cy="145.00" r="3.40" fill="#f3cb8d"/>
<circle cx="375.00" cy="145.00" r="3.40" fill="#f5d195"/>
<circle cx="385.00" cy="145.00" r="3.40" fill="#fce5ac"/>
<circle cx="395.00" cy="145.00" r="3.40" fill="#fce5ac"/>
<circle cx="405.00" cy="145.00" r="3.40" fill="#fce5ac"/>
<circle cx="415.00" cy="145.00" r="3.40" fill="#fce5ac"/>
<circle cx="425.00" cy="145.00" r="3.40" fill="#fce5ac"/>
<circle cx="435.00" cy="145.00" r="3.40" fill="#f6d499"/>
<circle cx="445.00" cy="145.00" r="3.40" fill="#fae1a7"/>
<circle cx="455.00" cy="145.00" r="3.40" fill="#f7d79c"/>
<circle cx="465.00" cy="145.00" r="3.40" fill="#fae0a6"/>
<circle cx="335.00" cy="155.00" r="3.40" fill="#fce5ac"/>
<circle cx="345.00" cy="155.00" r="3.40" fill="#f9dea3"/>
<circle cx="355.00" cy="155.00" r="3.40" fill="#f1c688"/>
<circle cx="365.00" cy="155.00" r="3.40" fill="#f1c688"/>
<circle cx="375.00" cy="155.00" r="3.40" fill="#f1c688"/>
<circle cx="385.00" cy="155.00" r="3.40" fill="#f4cf93"/>
<circle cx="395.00" cy="155.00" r="3.40" fill="#fbe3aa"/>
<circle cx="405.00" cy="155.00" r="3.40" fill="#fce5ac"/>
<circle cx="415.00" cy="155.00" r="3.40" fill="#fce5ac"/>
<circle cx="425.00" cy="155.00" r="3.40" fill="#fce5ac"/>
<circle cx="435.00" cy="155.00" r="3.40" fill="#fce5ac"/>
<circle cx="445.00" cy="155.00" r="3.40" fill="#fce5ac"/>
<circle cx="455.00" cy="155.00" r="3.40" fill="#fbe2a8"/>
<circle cx="465.00" cy="155.00" r="3.40" fill="#fbe2a8"/>
<circle cx="335.00" cy="165.00" r="3.40" fill="#fce5ac"/>
<circle cx="345.00" cy="165.00" r="3.40" fill="#fbe2a8"/>
<circle cx="355.00" cy="165.00" r="3.40" fill="#f3cb8d"/>
<circle cx="365.00" cy="165.00" r="3.40" fill="#f5d094"/>
<circle cx="375.00" cy="165.00" r="3.40" fill="#f1c688"/>
<circle cx="385.00" cy="165.00" r="3.40" fill="#f1c688"/>
<circle cx="395.00" cy="165.00" r="3.40" fill="#f7d89d"/>
<circle cx="405.00" cy="165.00" r="3.40" fill="#fce5ac"/>
<circle cx="415.00" cy="165.00" r="3.40" fill="#fce5ac"/>
<circle cx="425.00" cy="165.00" r="3.40" fill="#fce5ac"/>
<circle cx="435.00" cy="165.00" r="3.40" fill="#fce5ac"/>
<circle cx="445.00" cy="165.00" r="3.40" fill="#fce5ac"/>
<circle cx="455.00" cy="165.00" r="3.40" fill="#fce5ac"/>
<circle cx="465.00" cy="165.00" r="3.40" fill="#fce5ac"/>
<circle cx="345.00" cy="175.00" r="3.40" fill="#fce5ac"/>
<circle cx="355.00" cy="175.00" r="3.40" fill="#fce5ac"/>
<circle cx="365.00" cy="175.00" r="3.40" fill="#fce5ac"/>
<circle cx="375.00" cy="175.00" r="3.40" fill="#f3cc8f"/>
<circle cx="385.00" cy="175.00" r="3.40" fill="#f2c88a"/>
<circle cx="395.00" cy="175.00" r="3.40" fill="#fadfa5"/>
<circle cx="405.00" cy="175.00" r="3.40" fill="#fce5ac"/>
<circle cx="415.00" cy="175.00" r="3.40" fill="#fce5ac"/>
<circle cx="425.00" cy="175.00" r="3.40" fill="#fce5ac"/>
<circle cx="435.00" cy="175.00" r="3.40" fill="#fce5ac"/>
<circle cx="445.00" cy="175.00" r="3.40" fill="#fce5ac"/>
<circle cx="455.00" cy="175.00" r="3.40" fill="#f9dda2"/>
<circle cx="345.00" cy="185.00" r="3.40" fill="#fce5ac"/>
<circle cx="355.00" cy="185.00" r="3.40" fill="#fce5ac"/>
<circle cx="365.00" cy="185.00" r="3.40" fill="#fce5ac"/>
<circle cx="375.00" cy="185.00" r="3.40" fill="#fce5ac"/>
<circle cx="385.00" cy="185.00" r="3.40" fill="#fce4ab"/>
<circle cx="395.00" cy="185.00" r="3.40" fill="#fce5ac"/>
<circle cx="405.00" cy="185.00" r="3.40" fill="#fce5ac"/>
<circle cx="415.00" cy="185.00" r="3.40" fill="#fce5ac"/>
<circle cx="425.00" cy="185.00" r="3.40" fill="#fce5ac"/>
<circle cx="435.00" cy="185.00" r="3.40" fill="#fce5ac"/>
<circle cx="445.00" cy="185.00" r="3.40" fill="#f9dea4"/>
<circle cx="455.00" cy="185.00" r="3.40" fill="#fae1a8"/>
<circle cx="355.00" cy="195.00" r="3.40" fill="#f9dea4"/>
<circle cx="365.00" cy="195.00" r="3.40" fill="#fae0a6"/>
<circle cx="375.00" cy="195.00" r="3.40" fill="#f9dda3"/>
<circle cx="385.00" cy="195.00" r="3.40" fill="#fce5ac"/>
<circle cx="395.00" cy="195.00" r="3.40" fill="#fce5ac"/>
<circle cx="405.00" cy="195.00" r="3.40" fill="#fce5ac"/>
<circle cx="415.00" cy="195.00" r="3.40" fill="#fce5ac"/>
<circle cx="425.00" cy="195.00" r="3.40" fill="#fce5ac"/>
<circle cx="435.00" cy="195.00" r="3.40" fill="#fbe1a7"/>
<circle cx="445.00" cy="195.00" r="3.40" fill="#f9dca2"/>
<circle cx="365.00" cy="205.00" r="3.40" fill="#fce5ac"/>
<circle cx="375.00" cy="205.00" r="3.40" fill="#f8da9f"/>
<circle cx="385.00" cy="205.00" r="3.40" fill="#f9dba1"/>
<circle cx="395.00" cy="205.00" r="3.40" fill="#fce5ac"/>
<circle cx="405.00" cy="205.00" r="3.40" fill="#fce5ac"/>
<circle cx="415.00" cy="205.00" r="3.40" fill="#fce5ac"/>
<circle cx="425.00" cy="205.00" r="3.40" fill="#fce5ac"/>
<circle cx="435.00" cy="205.00" r="3.40" fill="#fce5ac"/>
<circle cx="385.00" cy="215.00" r="3.40" fill="#fce4ab"/>
<circle cx="395.00" cy="215.00" r="3.40" fill="#fce5ac"/>
<circle cx="405.00" cy="215.00" r="3.40" fill="#fce5ac"/>
<circle cx="415.00" cy="215.00" r="3.40" fill="#fce5ac"/>
<defs>
  <pattern id="dotgrid" width="24" height="24" patternUnits="userSpaceOnUse">
    <circle cx="4" cy="4" r="0.85" fill="#58A6FF" opacity="0.22"/>
  </pattern>
</defs>
</svg>
