<svg width="800" height="280" viewBox="0 0 800 280" fill="none" xmlns="http://www.w3.org/2000/svg" role="img" aria-labelledby="title desc">
<title id="title">Daily pixel drop</title>
<desc id="desc">2026 / 07 / 01. RARE drop Nine Oclock.</desc>
<rect width="800" height="280" rx="8" fill="#0D1117"/>
<rect x="1" y="1" width="798" height="278" rx="7" stroke="#243246"/>
<rect x="18" y="18" width="764" height="244" rx="5" fill="url(#dotgrid)" opacity="0.58"/>
<path d="M52 46H32V66M748 46H768V66M52 234H32V214M748 234H768V214" stroke="#58a6ff" stroke-width="1.5" stroke-linecap="square" opacity="0.76"/>
<rect x="304" y="56" width="192" height="188" rx="5" stroke="#58a6ff" opacity="0.54"/>
<circle cx="385.00" cy="85.00" r="3.40" fill="#a1c7d7"/>
<circle cx="395.00" cy="85.00" r="3.40" fill="#99c1d1"/>
<circle cx="405.00" cy="85.00" r="3.40" fill="#98c0d0"/>
<circle cx="415.00" cy="85.00" r="3.40" fill="#98c0d0"/>
<circle cx="365.00" cy="95.00" r="3.40" fill="#a5cbda"/>
<circle cx="375.00" cy="95.00" r="3.40" fill="#b4d7e5"/>
<circle cx="385.00" cy="95.00" r="3.40" fill="#b5d6e2"/>
<circle cx="395.00" cy="95.00" r="3.40" fill="#afcacf"/>
<circle cx="405.00" cy="95.00" r="3.40" fill="#afcacf"/>
<circle cx="415.00" cy="95.00" r="3.40" fill="#9ec3d0"/>
<circle cx="425.00" cy="95.00" r="3.40" fill="#98c0d0"/>
<circle cx="435.00" cy="95.00" r="3.40" fill="#98c0d0"/>
<circle cx="355.00" cy="105.00" r="3.40" fill="#acd0df"/>
<circle cx="365.00" cy="105.00" r="3.40" fill="#badae5"/>
<circle cx="375.00" cy="105.00" r="3.40" fill="#dae4e0"/>
<circle cx="385.00" cy="105.00" r="3.40" fill="#fcf9f2"/>
<circle cx="395.00" cy="105.00" r="3.40" fill="#ebf0f0"/>
<circle cx="405.00" cy="105.00" r="3.40" fill="#ebf0f0"/>
<circle cx="415.00" cy="105.00" r="3.40" fill="#fcf9f2"/>
<circle cx="425.00" cy="105.00" r="3.40" fill="#d7e1dd"/>
<circle cx="435.00" cy="105.00" r="3.40" fill="#9fc3d0"/>
<circle cx="445.00" cy="105.00" r="3.40" fill="#98c0d0"/>
<circle cx="345.00" cy="115.00" r="3.40" fill="#a8cddc"/>
<circle cx="355.00" cy="115.00" r="3.40" fill="#bcdbe6"/>
<circle cx="365.00" cy="115.00" r="3.40" fill="#eeefe8"/>
<circle cx="375.00" cy="115.00" r="3.40" fill="#f4f6f7"/>
<circle cx="385.00" cy="115.00" r="3.40" fill="#fcfdfd"/>
<circle cx="395.00" cy="115.00" r="3.40" fill="#f0eeee"/>
<circle cx="405.00" cy="115.00" r="3.40" fill="#f0eeee"/>
<circle cx="415.00" cy="115.00" r="3.40" fill="#fcfdfd"/>
<circle cx="425.00" cy="115.00" r="3.40" fill="#f4f6f7"/>
<circle cx="435.00" cy="115.00" r="3.40" fill="#eeefe8"/>
<circle cx="445.00" cy="115.00" r="3.40" fill="#9fc3d0"/>
<circle cx="455.00" cy="115.00" r="3.40" fill="#98c0d0"/>
<circle cx="345.00" cy="125.00" r="3.40" fill="#b5d8e6"/>
<circle cx="355.00" cy="125.00" r="3.40" fill="#dbe4e1"/>
<circle cx="365.00" cy="125.00" r="3.40" fill="#f4f6f7"/>
<circle cx="375.00" cy="125.00" r="3.40" fill="#ffffff"/>
<circle cx="385.00" cy="125.00" r="3.40" fill="#ffffff"/>
<circle cx="395.00" cy="125.00" r="3.40" fill="#dad3d0"/>
<circle cx="405.00" cy="125.00" r="3.40" fill="#dad3d0"/>
<circle cx="415.00" cy="125.00" r="3.40" fill="#ffffff"/>
<circle cx="425.00" cy="125.00" r="3.40" fill="#ffffff"/>
<circle cx="435.00" cy="125.00" r="3.40" fill="#f4f6f7"/>
<circle cx="445.00" cy="125.00" r="3.40" fill="#d7e1dd"/>
<circle cx="455.00" cy="125.00" r="3.40" fill="#98c0d0"/>
<circle cx="335.00" cy="135.00" r="3.40" fill="#9dc4d4"/>
<circle cx="345.00" cy="135.00" r="3.40" fill="#bbdbe6"/>
<circle cx="355.00" cy="135.00" r="3.40" fill="#fcf9f2"/>
<circle cx="365.00" cy="135.00" r="3.40" fill="#fcfdfd"/>
<circle cx="375.00" cy="135.00" r="3.40" fill="#ffffff"/>
<circle cx="385.00" cy="135.00" r="3.40" fill="#ffffff"/>
<circle cx="395.00" cy="135.00" r="3.40" fill="#dad3d0"/>
<circle cx="405.00" cy="135.00" r="3.40" fill="#dad3d0"/>
<circle cx="415.00" cy="135.00" r="3.40" fill="#ffffff"/>
<circle cx="425.00" cy="135.00" r="3.40" fill="#ffffff"/>
<circle cx="435.00" cy="135.00" r="3.40" fill="#fcfdfd"/>
<circle cx="445.00" cy="135.00" r="3.40" fill="#fcf9f2"/>
<circle cx="455.00" cy="135.00" r="3.40" fill="#9ec3d0"/>
<circle cx="465.00" cy="135.00" r="3.40" fill="#98c0d0"/>
<circle cx="335.00" cy="145.00" r="3.40" fill="#a7cddc"/>
<circle cx="345.00" cy="145.00" r="3.40" fill="#c5dce0"/>
<circle cx="355.00" cy="145.00" r="3.40" fill="#ebf0f0"/>
<circle cx="365.00" cy="145.00" r="3.40" fill="#fcfdfd"/>
<circle cx="375.00" cy="145.00" r="3.40" fill="#e1dbd9"/>
<circle cx="385.00" cy="145.00" r="3.40" fill="#cabfbb"/>
<circle cx="395.00" cy="145.00" r="3.40" fill="#ab9a94"/>
<circle cx="405.00" cy="145.00" r="3.40" fill="#c6bab6"/>
<circle cx="415.00" cy="145.00" r="3.40" fill="#ffffff"/>
<circle cx="425.00" cy="145.00" r="3.40" fill="#ffffff"/>
<circle cx="435.00" cy="145.00" r="3.40" fill="#fcfdfd"/>
<circle cx="445.00" cy="145.00" r="3.40" fill="#ebf0f0"/>
<circle cx="455.00" cy="145.00" r="3.40" fill="#afcacf"/>
<circle cx="465.00" cy="145.00" r="3.40" fill="#98c0d0"/>
<circle cx="335.00" cy="155.00" r="3.40" fill="#a4cad9"/>
<circle cx="345.00" cy="155.00" r="3.40" fill="#b6cfd4"/>
<circle cx="355.00" cy="155.00" r="3.40" fill="#ebf0f0"/>
<circle cx="365.00" cy="155.00" r="3.40" fill="#fcfdfd"/>
<circle cx="375.00" cy="155.00" r="3.40" fill="#ddd6d4"/>
<circle cx="385.00" cy="155.00" r="3.40" fill="#c6bbb7"/>
<circle cx="395.00" cy="155.00" r="3.40" fill="#bbada8"/>
<circle cx="405.00" cy="155.00" r="3.40" fill="#d8d0cd"/>
<circle cx="415.00" cy="155.00" r="3.40" fill="#ffffff"/>
<circle cx="425.00" cy="155.00" r="3.40" fill="#ffffff"/>
<circle cx="435.00" cy="155.00" r="3.40" fill="#fcfdfd"/>
<circle cx="445.00" cy="155.00" r="3.40" fill="#ebf0f0"/>
<circle cx="455.00" cy="155.00" r="3.40" fill="#afcacf"/>
<circle cx="465.00" cy="155.00" r="3.40" fill="#98c0d0"/>
<circle cx="335.00" cy="165.00" r="3.40" fill="#98c0d0"/>
<circle cx="345.00" cy="165.00" r="3.40" fill="#9ec3d0"/>
<circle cx="355.00" cy="165.00" r="3.40" fill="#fcf9f2"/>
<circle cx="365.00" cy="165.00" r="3.40" fill="#fcfdfd"/>
<circle cx="375.00" cy="165.00" r="3.40" fill="#ffffff"/>
<circle cx="385.00" cy="165.00" r="3.40" fill="#ffffff"/>
<circle cx="395.00" cy="165.00" r="3.40" fill="#ffffff"/>
<circle cx="405.00" cy="165.00" r="3.40" fill="#ffffff"/>
<circle cx="415.00" cy="165.00" r="3.40" fill="#ffffff"/>
<circle cx="425.00" cy="165.00" r="3.40" fill="#ffffff"/>
<circle cx="435.00" cy="165.00" r="3.40" fill="#fcfdfd"/>
<circle cx="445.00" cy="165.00" r="3.40" fill="#fcf9f2"/>
<circle cx="455.00" cy="165.00" r="3.40" fill="#9ec2d0"/>
<circle cx="465.00" cy="165.00" r="3.40" fill="#98c0d0"/>
<circle cx="345.00" cy="175.00" r="3.40" fill="#98c0d0"/>
<circle cx="355.00" cy="175.00" r="3.40" fill="#d7e1dd"/>
<circle cx="365.00" cy="175.00" r="3.40" fill="#f4f6f7"/>
<circle cx="375.00" cy="175.00" r="3.40" fill="#ffffff"/>
<circle cx="385.00" cy="175.00" r="3.40" fill="#ffffff"/>
<circle cx="395.00" cy="175.00" r="3.40" fill="#ffffff"/>
<circle cx="405.00" cy="175.00" r="3.40" fill="#ffffff"/>
<circle cx="415.00" cy="175.00" r="3.40" fill="#ffffff"/>
<circle cx="425.00" cy="175.00" r="3.40" fill="#ffffff"/>
<circle cx="435.00" cy="175.00" r="3.40" fill="#f4f6f7"/>
<circle cx="445.00" cy="175.00" r="3.40" fill="#d7e1dd"/>
<circle cx="455.00" cy="175.00" r="3.40" fill="#98c0d0"/>
<circle cx="345.00" cy="185.00" r="3.40" fill="#98c0d0"/>
<circle cx="355.00" cy="185.00" r="3.40" fill="#9fc3d0"/>
<circle cx="365.00" cy="185.00" r="3.40" fill="#edefe7"/>
<circle cx="375.00" cy="185.00" r="3.40" fill="#f4f6f7"/>
<circle cx="385.00" cy="185.00" r="3.40" fill="#fcfdfd"/>
<circle cx="395.00" cy="185.00" r="3.40" fill="#fcfdfd"/>
<circle cx="405.00" cy="185.00" r="3.40" fill="#fcfdfd"/>
<circle cx="415.00" cy="185.00" r="3.40" fill="#fcfdfd"/>
<circle cx="425.00" cy="185.00" r="3.40" fill="#f4f6f7"/>
<circle cx="435.00" cy="185.00" r="3.40" fill="#eeefe8"/>
<circle cx="445.00" cy="185.00" r="3.40" fill="#9fc3d0"/>
<circle cx="455.00" cy="185.00" r="3.40" fill="#98c0d0"/>
<circle cx="355.00" cy="195.00" r="3.40" fill="#98c0d0"/>
<circle cx="365.00" cy="195.00" r="3.40" fill="#9fc3d0"/>
<circle cx="375.00" cy="195.00" r="3.40" fill="#d7e1dd"/>
<circle cx="385.00" cy="195.00" r="3.40" fill="#fcf9f2"/>
<circle cx="395.00" cy="195.00" r="3.40" fill="#ebf0f0"/>
<circle cx="405.00" cy="195.00" r="3.40" fill="#ebf0f0"/>
<circle cx="415.00" cy="195.00" r="3.40" fill="#fcf9f2"/>
<circle cx="425.00" cy="195.00" r="3.40" fill="#d7e1dd"/>
<circle cx="435.00" cy="195.00" r="3.40" fill="#9fc3d0"/>
<circle cx="445.00" cy="195.00" r="3.40" fill="#98c0d0"/>
<circle cx="365.00" cy="205.00" r="3.40" fill="#98c0d0"/>
<circle cx="375.00" cy="205.00" r="3.40" fill="#98c0d0"/>
<circle cx="385.00" cy="205.00" r="3.40" fill="#9ec3d0"/>
<circle cx="395.00" cy="205.00" r="3.40" fill="#afcacf"/>
<circle cx="405.00" cy="205.00" r="3.40" fill="#afcacf"/>
<circle cx="415.00" cy="205.00" r="3.40" fill="#9ec3d0"/>
<circle cx="425.00" cy="205.00" r="3.40" fill="#98c0d0"/>
<circle cx="435.00" cy="205.00" r="3.40" fill="#98c0d0"/>
<circle cx="385.00" cy="215.00" r="3.40" fill="#98c0d0"/>
<circle cx="395.00" cy="215.00" r="3.40" fill="#98c0d0"/>
<circle cx="405.00" cy="215.00" r="3.40" fill="#98c0d0"/>
<circle cx="415.00" cy="215.00" r="3.40" fill="#98c0d0"/>
<defs>
  <pattern id="dotgrid" width="24" height="24" patternUnits="userSpaceOnUse">
    <circle cx="4" cy="4" r="0.85" fill="#58A6FF" opacity="0.22"/>
  </pattern>
</defs>
</svg>
