<svg width="800" height="280" viewBox="0 0 800 280" fill="none" xmlns="http://www.w3.org/2000/svg" role="img" aria-labelledby="title desc">
<title id="title">Daily pixel drop</title>
<desc id="desc">2026 / 06 / 11. COMMON drop Wrapped Gift.</desc>
<rect width="800" height="280" rx="8" fill="#0D1117"/>
<rect x="1" y="1" width="798" height="278" rx="7" stroke="#243246"/>
<rect x="18" y="18" width="764" height="244" rx="5" fill="url(#dotgrid)" opacity="0.58"/>
<path d="M52 46H32V66M748 46H768V66M52 234H32V214M748 234H768V214" stroke="#8b949e" stroke-width="1.5" stroke-linecap="square" opacity="0.76"/>
<rect x="304" y="56" width="192" height="188" rx="5" stroke="#8b949e" opacity="0.54"/>
<circle cx="355.00" cy="85.00" r="3.40" fill="#ff2a23"/>
<circle cx="365.00" cy="85.00" r="3.40" fill="#fe514f"/>
<circle cx="375.00" cy="85.00" r="3.40" fill="#ff2c25"/>
<circle cx="425.00" cy="85.00" r="3.40" fill="#ff3029"/>
<circle cx="435.00" cy="85.00" r="3.40" fill="#ff2a23"/>
<circle cx="445.00" cy="85.00" r="3.40" fill="#ff2a23"/>
<circle cx="355.00" cy="95.00" r="3.40" fill="#ff2c25"/>
<circle cx="365.00" cy="95.00" r="3.40" fill="#fcbfc7"/>
<circle cx="375.00" cy="95.00" r="3.40" fill="#ff302a"/>
<circle cx="385.00" cy="95.00" r="3.40" fill="#ff2b23"/>
<circle cx="395.00" cy="95.00" r="3.40" fill="#fa8528"/>
<circle cx="405.00" cy="95.00" r="3.40" fill="#fc8a2c"/>
<circle cx="415.00" cy="95.00" r="3.40" fill="#fd3222"/>
<circle cx="425.00" cy="95.00" r="3.40" fill="#fd8e91"/>
<circle cx="435.00" cy="95.00" r="3.40" fill="#ff2a23"/>
<circle cx="445.00" cy="95.00" r="3.40" fill="#ff2a23"/>
<circle cx="355.00" cy="105.00" r="3.40" fill="#ff2c25"/>
<circle cx="365.00" cy="105.00" r="3.40" fill="#fd9ea2"/>
<circle cx="375.00" cy="105.00" r="3.40" fill="#ff2a23"/>
<circle cx="385.00" cy="105.00" r="3.40" fill="#f82822"/>
<circle cx="395.00" cy="105.00" r="3.40" fill="#f27578"/>
<circle cx="405.00" cy="105.00" r="3.40" fill="#ff3b36"/>
<circle cx="415.00" cy="105.00" r="3.40" fill="#e92221"/>
<circle cx="425.00" cy="105.00" r="3.40" fill="#ff3d38"/>
<circle cx="435.00" cy="105.00" r="3.40" fill="#ff2a23"/>
<circle cx="445.00" cy="105.00" r="3.40" fill="#ff2a23"/>
<circle cx="345.00" cy="115.00" r="3.40" fill="#fbce20"/>
<circle cx="355.00" cy="115.00" r="3.40" fill="#fe5a20"/>
<circle cx="365.00" cy="115.00" r="3.40" fill="#ff413d"/>
<circle cx="375.00" cy="115.00" r="3.40" fill="#fa2822"/>
<circle cx="385.00" cy="115.00" r="3.40" fill="#f02521"/>
<circle cx="395.00" cy="115.00" r="3.40" fill="#f2302d"/>
<circle cx="405.00" cy="115.00" r="3.40" fill="#fe2a23"/>
<circle cx="415.00" cy="115.00" r="3.40" fill="#dc1e1f"/>
<circle cx="425.00" cy="115.00" r="3.40" fill="#f72722"/>
<circle cx="435.00" cy="115.00" r="3.40" fill="#fc2923"/>
<circle cx="445.00" cy="115.00" r="3.40" fill="#ff4121"/>
<circle cx="455.00" cy="115.00" r="3.40" fill="#f9c920"/>
<circle cx="345.00" cy="125.00" r="3.40" fill="#f5b13d"/>
<circle cx="355.00" cy="125.00" r="3.40" fill="#fa7d2f"/>
<circle cx="365.00" cy="125.00" r="3.40" fill="#d21b1f"/>
<circle cx="375.00" cy="125.00" r="3.40" fill="#b7121c"/>
<circle cx="385.00" cy="125.00" r="3.40" fill="#b0111b"/>
<circle cx="395.00" cy="125.00" r="3.40" fill="#cb471b"/>
<circle cx="405.00" cy="125.00" r="3.40" fill="#d65b1b"/>
<circle cx="415.00" cy="125.00" r="3.40" fill="#b41b1b"/>
<circle cx="425.00" cy="125.00" r="3.40" fill="#b00f1b"/>
<circle cx="435.00" cy="125.00" r="3.40" fill="#c3161d"/>
<circle cx="445.00" cy="125.00" r="3.40" fill="#ed4c20"/>
<circle cx="455.00" cy="125.00" r="3.40" fill="#e3881a"/>
<circle cx="345.00" cy="135.00" r="3.40" fill="#ef9e2f"/>
<circle cx="355.00" cy="135.00" r="3.40" fill="#f4ae3d"/>
<circle cx="365.00" cy="135.00" r="3.40" fill="#fd3b27"/>
<circle cx="375.00" cy="135.00" r="3.40" fill="#da2921"/>
<circle cx="385.00" cy="135.00" r="3.40" fill="#f2b820"/>
<circle cx="395.00" cy="135.00" r="3.40" fill="#fdd717"/>
<circle cx="405.00" cy="135.00" r="3.40" fill="#fdd717"/>
<circle cx="415.00" cy="135.00" r="3.40" fill="#f9c91c"/>
<circle cx="425.00" cy="135.00" r="3.40" fill="#d05b1e"/>
<circle cx="435.00" cy="135.00" r="3.40" fill="#d90f26"/>
<circle cx="445.00" cy="135.00" r="3.40" fill="#df521c"/>
<circle cx="455.00" cy="135.00" r="3.40" fill="#d57512"/>
<circle cx="345.00" cy="145.00" r="3.40" fill="#f4ae3c"/>
<circle cx="355.00" cy="145.00" r="3.40" fill="#ef9e2f"/>
<circle cx="365.00" cy="145.00" r="3.40" fill="#fd3925"/>
<circle cx="375.00" cy="145.00" r="3.40" fill="#e23324"/>
<circle cx="385.00" cy="145.00" r="3.40" fill="#f5b03e"/>
<circle cx="395.00" cy="145.00" r="3.40" fill="#f7b737"/>
<circle cx="405.00" cy="145.00" r="3.40" fill="#eda222"/>
<circle cx="415.00" cy="145.00" r="3.40" fill="#e28317"/>
<circle cx="425.00" cy="145.00" r="3.40" fill="#d45e17"/>
<circle cx="435.00" cy="145.00" r="3.40" fill="#dc0d28"/>
<circle cx="445.00" cy="145.00" r="3.40" fill="#d54c1a"/>
<circle cx="455.00" cy="145.00" r="3.40" fill="#dc7b13"/>
<circle cx="345.00" cy="155.00" r="3.40" fill="#f5b03e"/>
<circle cx="355.00" cy="155.00" r="3.40" fill="#f5b03e"/>
<circle cx="365.00" cy="155.00" r="3.40" fill="#fe3a26"/>
<circle cx="375.00" cy="155.00" r="3.40" fill="#e23222"/>
<circle cx="385.00" cy="155.00" r="3.40" fill="#ef9f30"/>
<circle cx="395.00" cy="155.00" r="3.40" fill="#f4ae3d"/>
<circle cx="405.00" cy="155.00" r="3.40" fill="#e3861a"/>
<circle cx="415.00" cy="155.00" r="3.40" fill="#d67612"/>
<circle cx="425.00" cy="155.00" r="3.40" fill="#c85415"/>
<circle cx="435.00" cy="155.00" r="3.40" fill="#dc0d28"/>
<circle cx="445.00" cy="155.00" r="3.40" fill="#df551b"/>
<circle cx="455.00" cy="155.00" r="3.40" fill="#e07f14"/>
<circle cx="345.00" cy="165.00" r="3.40" fill="#f5b03e"/>
<circle cx="355.00" cy="165.00" r="3.40" fill="#f5b03e"/>
<circle cx="365.00" cy="165.00" r="3.40" fill="#fe3826"/>
<circle cx="375.00" cy="165.00" r="3.40" fill="#e33624"/>
<circle cx="385.00" cy="165.00" r="3.40" fill="#f4ad3c"/>
<circle cx="395.00" cy="165.00" r="3.40" fill="#ee9c2d"/>
<circle cx="405.00" cy="165.00" r="3.40" fill="#d47615"/>
<circle cx="415.00" cy="165.00" r="3.40" fill="#da7a13"/>
<circle cx="425.00" cy="165.00" r="3.40" fill="#d45d17"/>
<circle cx="435.00" cy="165.00" r="3.40" fill="#dc0d28"/>
<circle cx="445.00" cy="165.00" r="3.40" fill="#df561b"/>
<circle cx="455.00" cy="165.00" r="3.40" fill="#e07f14"/>
<circle cx="345.00" cy="175.00" r="3.40" fill="#f5b03e"/>
<circle cx="355.00" cy="175.00" r="3.40" fill="#f5b03e"/>
<circle cx="365.00" cy="175.00" r="3.40" fill="#fe3525"/>
<circle cx="375.00" cy="175.00" r="3.40" fill="#e33725"/>
<circle cx="385.00" cy="175.00" r="3.40" fill="#f5b03e"/>
<circle cx="395.00" cy="175.00" r="3.40" fill="#f5b03e"/>
<circle cx="405.00" cy="175.00" r="3.40" fill="#e3861a"/>
<circle cx="415.00" cy="175.00" r="3.40" fill="#e07f14"/>
<circle cx="425.00" cy="175.00" r="3.40" fill="#d35d17"/>
<circle cx="435.00" cy="175.00" r="3.40" fill="#dc0d28"/>
<circle cx="445.00" cy="175.00" r="3.40" fill="#df571b"/>
<circle cx="455.00" cy="175.00" r="3.40" fill="#e07f14"/>
<circle cx="345.00" cy="185.00" r="3.40" fill="#f5b03e"/>
<circle cx="355.00" cy="185.00" r="3.40" fill="#f5b03e"/>
<circle cx="365.00" cy="185.00" r="3.40" fill="#fe3225"/>
<circle cx="375.00" cy="185.00" r="3.40" fill="#e33925"/>
<circle cx="385.00" cy="185.00" r="3.40" fill="#f5b03e"/>
<circle cx="395.00" cy="185.00" r="3.40" fill="#f5b03e"/>
<circle cx="405.00" cy="185.00" r="3.40" fill="#e3861a"/>
<circle cx="415.00" cy="185.00" r="3.40" fill="#e07f14"/>
<circle cx="425.00" cy="185.00" r="3.40" fill="#d35c17"/>
<circle cx="435.00" cy="185.00" r="3.40" fill="#dc0d28"/>
<circle cx="445.00" cy="185.00" r="3.40" fill="#df581b"/>
<circle cx="455.00" cy="185.00" r="3.40" fill="#e07f14"/>
<circle cx="355.00" cy="195.00" r="3.40" fill="#f5b03e"/>
<circle cx="365.00" cy="195.00" r="3.40" fill="#ff3024"/>
<circle cx="375.00" cy="195.00" r="3.40" fill="#e23b26"/>
<circle cx="385.00" cy="195.00" r="3.40" fill="#f5b03e"/>
<circle cx="395.00" cy="195.00" r="3.40" fill="#f5b03e"/>
<circle cx="405.00" cy="195.00" r="3.40" fill="#e3861a"/>
<circle cx="415.00" cy="195.00" r="3.40" fill="#e07f14"/>
<circle cx="425.00" cy="195.00" r="3.40" fill="#d35c17"/>
<circle cx="435.00" cy="195.00" r="3.40" fill="#dc0e28"/>
<circle cx="445.00" cy="195.00" r="3.40" fill="#de4a1d"/>
<circle cx="375.00" cy="205.00" r="3.40" fill="#dc4527"/>
<circle cx="385.00" cy="205.00" r="3.40" fill="#f5b03e"/>
<circle cx="395.00" cy="205.00" r="3.40" fill="#f5b03e"/>
<circle cx="405.00" cy="205.00" r="3.40" fill="#e3861a"/>
<circle cx="415.00" cy="205.00" r="3.40" fill="#e07f14"/>
<circle cx="425.00" cy="205.00" r="3.40" fill="#d66516"/>
<circle cx="395.00" cy="215.00" r="3.40" fill="#f5b03e"/>
<circle cx="405.00" cy="215.00" r="3.40" fill="#e4881c"/>
<defs>
  <pattern id="dotgrid" width="24" height="24" patternUnits="userSpaceOnUse">
    <circle cx="4" cy="4" r="0.85" fill="#58A6FF" opacity="0.22"/>
  </pattern>
</defs>
</svg>
