<svg width="800" height="280" viewBox="0 0 800 280" fill="none" xmlns="http://www.w3.org/2000/svg" role="img" aria-labelledby="title desc">
<title id="title">Daily pixel drop</title>
<desc id="desc">2026 / 05 / 29. COMMON drop Military Medal.</desc>
<rect width="800" height="280" rx="8" fill="#0D1117"/>
<rect x="1" y="1" width="798" height="278" rx="7" stroke="#243246"/>
<rect x="18" y="18" width="764" height="244" rx="5" fill="url(#dotgrid)" opacity="0.58"/>
<path d="M52 46H32V66M748 46H768V66M52 234H32V214M748 234H768V214" stroke="#8b949e" stroke-width="1.5" stroke-linecap="square" opacity="0.76"/>
<rect x="304" y="56" width="192" height="188" rx="5" stroke="#8b949e" opacity="0.54"/>
<circle cx="375.00" cy="85.00" r="3.40" fill="#4a95c2"/>
<circle cx="385.00" cy="85.00" r="3.40" fill="#9190a8"/>
<circle cx="395.00" cy="85.00" r="3.40" fill="#a9465b"/>
<circle cx="405.00" cy="85.00" r="3.40" fill="#a9465b"/>
<circle cx="415.00" cy="85.00" r="3.40" fill="#918ca4"/>
<circle cx="425.00" cy="85.00" r="3.40" fill="#4f97c3"/>
<circle cx="355.00" cy="95.00" r="3.40" fill="#0074b9"/>
<circle cx="365.00" cy="95.00" r="3.40" fill="#0074ba"/>
<circle cx="375.00" cy="95.00" r="3.40" fill="#5b9dc5"/>
<circle cx="385.00" cy="95.00" r="3.40" fill="#d6a0a2"/>
<circle cx="395.00" cy="95.00" r="3.40" fill="#f8312f"/>
<circle cx="405.00" cy="95.00" r="3.40" fill="#f8312f"/>
<circle cx="415.00" cy="95.00" r="3.40" fill="#d4989c"/>
<circle cx="425.00" cy="95.00" r="3.40" fill="#64a1c6"/>
<circle cx="435.00" cy="95.00" r="3.40" fill="#0074ba"/>
<circle cx="445.00" cy="95.00" r="3.40" fill="#0074ba"/>
<circle cx="355.00" cy="105.00" r="3.40" fill="#0074ba"/>
<circle cx="365.00" cy="105.00" r="3.40" fill="#0074ba"/>
<circle cx="375.00" cy="105.00" r="3.40" fill="#5b9dc5"/>
<circle cx="385.00" cy="105.00" r="3.40" fill="#d7a0a2"/>
<circle cx="395.00" cy="105.00" r="3.40" fill="#f8312f"/>
<circle cx="405.00" cy="105.00" r="3.40" fill="#f8312f"/>
<circle cx="415.00" cy="105.00" r="3.40" fill="#d4989c"/>
<circle cx="425.00" cy="105.00" r="3.40" fill="#64a1c6"/>
<circle cx="435.00" cy="105.00" r="3.40" fill="#0074ba"/>
<circle cx="445.00" cy="105.00" r="3.40" fill="#0074ba"/>
<circle cx="355.00" cy="115.00" r="3.40" fill="#0074ba"/>
<circle cx="365.00" cy="115.00" r="3.40" fill="#0074ba"/>
<circle cx="375.00" cy="115.00" r="3.40" fill="#5b9dc5"/>
<circle cx="385.00" cy="115.00" r="3.40" fill="#d7a0a2"/>
<circle cx="395.00" cy="115.00" r="3.40" fill="#f8312f"/>
<circle cx="405.00" cy="115.00" r="3.40" fill="#f8312f"/>
<circle cx="415.00" cy="115.00" r="3.40" fill="#d4989c"/>
<circle cx="425.00" cy="115.00" r="3.40" fill="#64a1c6"/>
<circle cx="435.00" cy="115.00" r="3.40" fill="#0074ba"/>
<circle cx="445.00" cy="115.00" r="3.40" fill="#0074ba"/>
<circle cx="365.00" cy="125.00" r="3.40" fill="#0074ba"/>
<circle cx="375.00" cy="125.00" r="3.40" fill="#639ab2"/>
<circle cx="385.00" cy="125.00" r="3.40" fill="#edb165"/>
<circle cx="395.00" cy="125.00" r="3.40" fill="#fda633"/>
<circle cx="405.00" cy="125.00" r="3.40" fill="#fda633"/>
<circle cx="415.00" cy="125.00" r="3.40" fill="#edaf61"/>
<circle cx="425.00" cy="125.00" r="3.40" fill="#6b9db1"/>
<circle cx="435.00" cy="125.00" r="3.40" fill="#0074ba"/>
<circle cx="365.00" cy="135.00" r="3.40" fill="#ffb02e"/>
<circle cx="375.00" cy="135.00" r="3.40" fill="#f7bc38"/>
<circle cx="385.00" cy="135.00" r="3.40" fill="#fdc437"/>
<circle cx="395.00" cy="135.00" r="3.40" fill="#feba33"/>
<circle cx="405.00" cy="135.00" r="3.40" fill="#feba32"/>
<circle cx="415.00" cy="135.00" r="3.40" fill="#fdc437"/>
<circle cx="425.00" cy="135.00" r="3.40" fill="#f6bd39"/>
<circle cx="435.00" cy="135.00" r="3.40" fill="#feaf2e"/>
<circle cx="365.00" cy="145.00" r="3.40" fill="#feba33"/>
<circle cx="375.00" cy="145.00" r="3.40" fill="#fec035"/>
<circle cx="385.00" cy="145.00" r="3.40" fill="#ffb02e"/>
<circle cx="395.00" cy="145.00" r="3.40" fill="#f5a82e"/>
<circle cx="405.00" cy="145.00" r="3.40" fill="#f3a72f"/>
<circle cx="415.00" cy="145.00" r="3.40" fill="#ffb02e"/>
<circle cx="425.00" cy="145.00" r="3.40" fill="#febf35"/>
<circle cx="435.00" cy="145.00" r="3.40" fill="#febb33"/>
<circle cx="355.00" cy="155.00" r="3.40" fill="#ffb02e"/>
<circle cx="365.00" cy="155.00" r="3.40" fill="#fdc437"/>
<circle cx="375.00" cy="155.00" r="3.40" fill="#ffb02e"/>
<circle cx="385.00" cy="155.00" r="3.40" fill="#eea42f"/>
<circle cx="395.00" cy="155.00" r="3.40" fill="#a36c32"/>
<circle cx="405.00" cy="155.00" r="3.40" fill="#a06a32"/>
<circle cx="415.00" cy="155.00" r="3.40" fill="#eea32f"/>
<circle cx="425.00" cy="155.00" r="3.40" fill="#ffb02e"/>
<circle cx="435.00" cy="155.00" r="3.40" fill="#fdc538"/>
<circle cx="445.00" cy="155.00" r="3.40" fill="#ffb02e"/>
<circle cx="355.00" cy="165.00" r="3.40" fill="#ffb02e"/>
<circle cx="365.00" cy="165.00" r="3.40" fill="#fdc437"/>
<circle cx="375.00" cy="165.00" r="3.40" fill="#ffb02e"/>
<circle cx="385.00" cy="165.00" r="3.40" fill="#9e6932"/>
<circle cx="395.00" cy="165.00" r="3.40" fill="#6d4534"/>
<circle cx="405.00" cy="165.00" r="3.40" fill="#6d4534"/>
<circle cx="415.00" cy="165.00" r="3.40" fill="#9a6632"/>
<circle cx="425.00" cy="165.00" r="3.40" fill="#ffb02e"/>
<circle cx="435.00" cy="165.00" r="3.40" fill="#fdc437"/>
<circle cx="445.00" cy="165.00" r="3.40" fill="#ffb02e"/>
<circle cx="355.00" cy="175.00" r="3.40" fill="#ffb02e"/>
<circle cx="365.00" cy="175.00" r="3.40" fill="#fdc537"/>
<circle cx="375.00" cy="175.00" r="3.40" fill="#ffb02e"/>
<circle cx="385.00" cy="175.00" r="3.40" fill="#d79330"/>
<circle cx="395.00" cy="175.00" r="3.40" fill="#6d4534"/>
<circle cx="405.00" cy="175.00" r="3.40" fill="#6d4534"/>
<circle cx="415.00" cy="175.00" r="3.40" fill="#d49030"/>
<circle cx="425.00" cy="175.00" r="3.40" fill="#ffb02e"/>
<circle cx="435.00" cy="175.00" r="3.40" fill="#fdc438"/>
<circle cx="445.00" cy="175.00" r="3.40" fill="#ffb02e"/>
<circle cx="365.00" cy="185.00" r="3.40" fill="#febe35"/>
<circle cx="375.00" cy="185.00" r="3.40" fill="#feba33"/>
<circle cx="385.00" cy="185.00" r="3.40" fill="#e69e2f"/>
<circle cx="395.00" cy="185.00" r="3.40" fill="#e59d2f"/>
<circle cx="405.00" cy="185.00" r="3.40" fill="#e79e2f"/>
<circle cx="415.00" cy="185.00" r="3.40" fill="#e49d2f"/>
<circle cx="425.00" cy="185.00" r="3.40" fill="#feb932"/>
<circle cx="435.00" cy="185.00" r="3.40" fill="#fec035"/>
<circle cx="365.00" cy="195.00" r="3.40" fill="#ffb02e"/>
<circle cx="375.00" cy="195.00" r="3.40" fill="#fdc437"/>
<circle cx="385.00" cy="195.00" r="3.40" fill="#febd34"/>
<circle cx="395.00" cy="195.00" r="3.40" fill="#ffb12f"/>
<circle cx="405.00" cy="195.00" r="3.40" fill="#ffb12e"/>
<circle cx="415.00" cy="195.00" r="3.40" fill="#febd34"/>
<circle cx="425.00" cy="195.00" r="3.40" fill="#fdc537"/>
<circle cx="435.00" cy="195.00" r="3.40" fill="#ffb12e"/>
<circle cx="375.00" cy="205.00" r="3.40" fill="#ffb02e"/>
<circle cx="385.00" cy="205.00" r="3.40" fill="#febb33"/>
<circle cx="395.00" cy="205.00" r="3.40" fill="#fdc337"/>
<circle cx="405.00" cy="205.00" r="3.40" fill="#fdc337"/>
<circle cx="415.00" cy="205.00" r="3.40" fill="#febb33"/>
<circle cx="425.00" cy="205.00" r="3.40" fill="#ffb02e"/>
<defs>
  <pattern id="dotgrid" width="24" height="24" patternUnits="userSpaceOnUse">
    <circle cx="4" cy="4" r="0.85" fill="#58A6FF" opacity="0.22"/>
  </pattern>
</defs>
</svg>
