<svg width="800" height="280" viewBox="0 0 800 280" fill="none" xmlns="http://www.w3.org/2000/svg" role="img" aria-labelledby="title desc">
<title id="title">Daily pixel drop</title>
<desc id="desc">2026 / 07 / 21. EPIC drop Rose.</desc>
<rect width="800" height="280" rx="8" fill="#0D1117"/>
<rect x="1" y="1" width="798" height="278" rx="7" stroke="#243246"/>
<rect x="18" y="18" width="764" height="244" rx="5" fill="url(#dotgrid)" opacity="0.58"/>
<path d="M52 46H32V66M748 46H768V66M52 234H32V214M748 234H768V214" stroke="#a371f7" stroke-width="1.5" stroke-linecap="square" opacity="0.76"/>
<rect x="304" y="56" width="192" height="188" rx="5" stroke="#a371f7" opacity="0.54"/>
<circle cx="375.00" cy="85.00" r="3.40" fill="#96010c"/>
<circle cx="385.00" cy="85.00" r="3.40" fill="#9e0310"/>
<circle cx="395.00" cy="85.00" r="3.40" fill="#f71538"/>
<circle cx="405.00" cy="85.00" r="3.40" fill="#f71538"/>
<circle cx="415.00" cy="85.00" r="3.40" fill="#e61331"/>
<circle cx="425.00" cy="85.00" r="3.40" fill="#db132c"/>
<circle cx="365.00" cy="95.00" r="3.40" fill="#96010c"/>
<circle cx="375.00" cy="95.00" r="3.40" fill="#a00311"/>
<circle cx="385.00" cy="95.00" r="3.40" fill="#e3112f"/>
<circle cx="395.00" cy="95.00" r="3.40" fill="#f11435"/>
<circle cx="405.00" cy="95.00" r="3.40" fill="#dd102c"/>
<circle cx="415.00" cy="95.00" r="3.40" fill="#d00f28"/>
<circle cx="425.00" cy="95.00" r="3.40" fill="#d9132b"/>
<circle cx="435.00" cy="95.00" r="3.40" fill="#db132c"/>
<circle cx="355.00" cy="105.00" r="3.40" fill="#e2122d"/>
<circle cx="365.00" cy="105.00" r="3.40" fill="#a10311"/>
<circle cx="375.00" cy="105.00" r="3.40" fill="#a70715"/>
<circle cx="385.00" cy="105.00" r="3.40" fill="#c50f24"/>
<circle cx="395.00" cy="105.00" r="3.40" fill="#a30513"/>
<circle cx="405.00" cy="105.00" r="3.40" fill="#bd0c1e"/>
<circle cx="415.00" cy="105.00" r="3.40" fill="#d21129"/>
<circle cx="425.00" cy="105.00" r="3.40" fill="#db132c"/>
<circle cx="435.00" cy="105.00" r="3.40" fill="#ce0f26"/>
<circle cx="445.00" cy="105.00" r="3.40" fill="#a60411"/>
<circle cx="355.00" cy="115.00" r="3.40" fill="#e2122d"/>
<circle cx="365.00" cy="115.00" r="3.40" fill="#d30f26"/>
<circle cx="375.00" cy="115.00" r="3.40" fill="#9e0410"/>
<circle cx="385.00" cy="115.00" r="3.40" fill="#aa0a18"/>
<circle cx="395.00" cy="115.00" r="3.40" fill="#af0c1b"/>
<circle cx="405.00" cy="115.00" r="3.40" fill="#ba0e1f"/>
<circle cx="415.00" cy="115.00" r="3.40" fill="#bb0c1e"/>
<circle cx="425.00" cy="115.00" r="3.40" fill="#b70a1a"/>
<circle cx="435.00" cy="115.00" r="3.40" fill="#ba0a19"/>
<circle cx="445.00" cy="115.00" r="3.40" fill="#cb0d1e"/>
<circle cx="365.00" cy="125.00" r="3.40" fill="#e2122d"/>
<circle cx="375.00" cy="125.00" r="3.40" fill="#da102a"/>
<circle cx="385.00" cy="125.00" r="3.40" fill="#b30819"/>
<circle cx="395.00" cy="125.00" r="3.40" fill="#a30613"/>
<circle cx="405.00" cy="125.00" r="3.40" fill="#a20612"/>
<circle cx="415.00" cy="125.00" r="3.40" fill="#bf0b1a"/>
<circle cx="425.00" cy="125.00" r="3.40" fill="#cd0e1f"/>
<circle cx="435.00" cy="125.00" r="3.40" fill="#cd0e1f"/>
<circle cx="365.00" cy="135.00" r="3.40" fill="#e2122d"/>
<circle cx="375.00" cy="135.00" r="3.40" fill="#e2122d"/>
<circle cx="385.00" cy="135.00" r="3.40" fill="#e2122d"/>
<circle cx="395.00" cy="135.00" r="3.40" fill="#d10e26"/>
<circle cx="405.00" cy="135.00" r="3.40" fill="#a80513"/>
<circle cx="415.00" cy="135.00" r="3.40" fill="#cc0e1f"/>
<circle cx="425.00" cy="135.00" r="3.40" fill="#cd0e1f"/>
<circle cx="435.00" cy="135.00" r="3.40" fill="#cd0e1f"/>
<circle cx="365.00" cy="145.00" r="3.40" fill="#e2122d"/>
<circle cx="375.00" cy="145.00" r="3.40" fill="#e2122d"/>
<circle cx="385.00" cy="145.00" r="3.40" fill="#e2122d"/>
<circle cx="395.00" cy="145.00" r="3.40" fill="#e2122d"/>
<circle cx="405.00" cy="145.00" r="3.40" fill="#d70f28"/>
<circle cx="415.00" cy="145.00" r="3.40" fill="#b60817"/>
<circle cx="425.00" cy="145.00" r="3.40" fill="#cd0e1f"/>
<circle cx="435.00" cy="145.00" r="3.40" fill="#cd0e1f"/>
<circle cx="365.00" cy="155.00" r="3.40" fill="#e2122d"/>
<circle cx="375.00" cy="155.00" r="3.40" fill="#e2122d"/>
<circle cx="385.00" cy="155.00" r="3.40" fill="#e2122d"/>
<circle cx="395.00" cy="155.00" r="3.40" fill="#e2122d"/>
<circle cx="405.00" cy="155.00" r="3.40" fill="#e2122d"/>
<circle cx="415.00" cy="155.00" r="3.40" fill="#ba091b"/>
<circle cx="425.00" cy="155.00" r="3.40" fill="#cd0e1f"/>
<circle cx="435.00" cy="155.00" r="3.40" fill="#cd0e1f"/>
<circle cx="375.00" cy="165.00" r="3.40" fill="#e2122d"/>
<circle cx="385.00" cy="165.00" r="3.40" fill="#e2122d"/>
<circle cx="395.00" cy="165.00" r="3.40" fill="#e2122d"/>
<circle cx="405.00" cy="165.00" r="3.40" fill="#e2122d"/>
<circle cx="415.00" cy="165.00" r="3.40" fill="#bd0a1c"/>
<circle cx="425.00" cy="165.00" r="3.40" fill="#cd0e1f"/>
<circle cx="435.00" cy="165.00" r="3.40" fill="#cd0e1e"/>
<circle cx="375.00" cy="175.00" r="3.40" fill="#738024"/>
<circle cx="385.00" cy="175.00" r="3.40" fill="#9b5928"/>
<circle cx="395.00" cy="175.00" r="3.40" fill="#b4402a"/>
<circle cx="405.00" cy="175.00" r="3.40" fill="#ac432a"/>
<circle cx="415.00" cy="175.00" r="3.40" fill="#88551f"/>
<circle cx="425.00" cy="175.00" r="3.40" fill="#816a22"/>
<circle cx="375.00" cy="185.00" r="3.40" fill="#5c9823"/>
<circle cx="385.00" cy="185.00" r="3.40" fill="#5c9823"/>
<circle cx="395.00" cy="185.00" r="3.40" fill="#5a9724"/>
<circle cx="405.00" cy="185.00" r="3.40" fill="#337f30"/>
<circle cx="415.00" cy="185.00" r="3.40" fill="#5a9723"/>
<circle cx="425.00" cy="185.00" r="3.40" fill="#5c9823"/>
<circle cx="375.00" cy="195.00" r="3.40" fill="#5c9823"/>
<circle cx="385.00" cy="195.00" r="3.40" fill="#5b9722"/>
<circle cx="395.00" cy="195.00" r="3.40" fill="#4e8f27"/>
<circle cx="405.00" cy="195.00" r="3.40" fill="#307d31"/>
<circle cx="425.00" cy="195.00" r="3.40" fill="#5c9823"/>
<circle cx="395.00" cy="205.00" r="3.40" fill="#337f30"/>
<circle cx="405.00" cy="205.00" r="3.40" fill="#307d31"/>
<circle cx="395.00" cy="215.00" r="3.40" fill="#307d31"/>
<circle cx="405.00" cy="215.00" r="3.40" fill="#307d31"/>
<defs>
  <pattern id="dotgrid" width="24" height="24" patternUnits="userSpaceOnUse">
    <circle cx="4" cy="4" r="0.85" fill="#58A6FF" opacity="0.22"/>
  </pattern>
</defs>
</svg>
