<svg width="800" height="280" viewBox="0 0 800 280" fill="none" xmlns="http://www.w3.org/2000/svg" role="img" aria-labelledby="title desc">
<title id="title">Daily pixel drop</title>
<desc id="desc">2026 / 06 / 06. RARE drop Sun.</desc>
<rect width="800" height="280" rx="8" fill="#0D1117"/>
<rect x="1" y="1" width="798" height="278" rx="7" stroke="#243246"/>
<rect x="18" y="18" width="764" height="244" rx="5" fill="url(#dotgrid)" opacity="0.58"/>
<path d="M52 46H32V66M748 46H768V66M52 234H32V214M748 234H768V214" stroke="#58a6ff" stroke-width="1.5" stroke-linecap="square" opacity="0.76"/>
<rect x="304" y="56" width="192" height="188" rx="5" stroke="#58a6ff" opacity="0.54"/>
<circle cx="375.00" cy="95.00" r="3.40" fill="#ff822d"/>
<circle cx="385.00" cy="95.00" r="3.40" fill="#ff822d"/>
<circle cx="395.00" cy="95.00" r="3.40" fill="#ff822d"/>
<circle cx="405.00" cy="95.00" r="3.40" fill="#ff822d"/>
<circle cx="415.00" cy="95.00" r="3.40" fill="#ff822c"/>
<circle cx="425.00" cy="95.00" r="3.40" fill="#ff822d"/>
<circle cx="365.00" cy="105.00" r="3.40" fill="#ff822d"/>
<circle cx="375.00" cy="105.00" r="3.40" fill="#ff832d"/>
<circle cx="385.00" cy="105.00" r="3.40" fill="#fe9c33"/>
<circle cx="395.00" cy="105.00" r="3.40" fill="#fdaf37"/>
<circle cx="405.00" cy="105.00" r="3.40" fill="#fdaf37"/>
<circle cx="415.00" cy="105.00" r="3.40" fill="#fe9c33"/>
<circle cx="425.00" cy="105.00" r="3.40" fill="#ff832d"/>
<circle cx="435.00" cy="105.00" r="3.40" fill="#ff822d"/>
<circle cx="355.00" cy="115.00" r="3.40" fill="#ff822d"/>
<circle cx="365.00" cy="115.00" r="3.40" fill="#ff8b2f"/>
<circle cx="375.00" cy="115.00" r="3.40" fill="#fdc53c"/>
<circle cx="385.00" cy="115.00" r="3.40" fill="#fcd53f"/>
<circle cx="395.00" cy="115.00" r="3.40" fill="#fcd53f"/>
<circle cx="405.00" cy="115.00" r="3.40" fill="#fcd53f"/>
<circle cx="415.00" cy="115.00" r="3.40" fill="#fcd53f"/>
<circle cx="425.00" cy="115.00" r="3.40" fill="#fdc53b"/>
<circle cx="435.00" cy="115.00" r="3.40" fill="#ff8b2f"/>
<circle cx="445.00" cy="115.00" r="3.40" fill="#ff822d"/>
<circle cx="345.00" cy="125.00" r="3.40" fill="#ff822d"/>
<circle cx="355.00" cy="125.00" r="3.40" fill="#ff832d"/>
<circle cx="365.00" cy="125.00" r="3.40" fill="#fdc53c"/>
<circle cx="375.00" cy="125.00" r="3.40" fill="#fcd53f"/>
<circle cx="385.00" cy="125.00" r="3.40" fill="#fcd53f"/>
<circle cx="395.00" cy="125.00" r="3.40" fill="#fcd53f"/>
<circle cx="405.00" cy="125.00" r="3.40" fill="#fcd53f"/>
<circle cx="415.00" cy="125.00" r="3.40" fill="#fcd53f"/>
<circle cx="425.00" cy="125.00" r="3.40" fill="#fcd53f"/>
<circle cx="435.00" cy="125.00" r="3.40" fill="#fdc53b"/>
<circle cx="445.00" cy="125.00" r="3.40" fill="#ff832d"/>
<circle cx="455.00" cy="125.00" r="3.40" fill="#ff822d"/>
<circle cx="345.00" cy="135.00" r="3.40" fill="#ff822d"/>
<circle cx="355.00" cy="135.00" r="3.40" fill="#fe9c33"/>
<circle cx="365.00" cy="135.00" r="3.40" fill="#fcd53f"/>
<circle cx="375.00" cy="135.00" r="3.40" fill="#fcd53f"/>
<circle cx="385.00" cy="135.00" r="3.40" fill="#fcd53f"/>
<circle cx="395.00" cy="135.00" r="3.40" fill="#fcd53f"/>
<circle cx="405.00" cy="135.00" r="3.40" fill="#fcd53f"/>
<circle cx="415.00" cy="135.00" r="3.40" fill="#fcd53f"/>
<circle cx="425.00" cy="135.00" r="3.40" fill="#fcd53f"/>
<circle cx="435.00" cy="135.00" r="3.40" fill="#fcd53f"/>
<circle cx="445.00" cy="135.00" r="3.40" fill="#fe9c33"/>
<circle cx="455.00" cy="135.00" r="3.40" fill="#ff822d"/>
<circle cx="345.00" cy="145.00" r="3.40" fill="#ff822d"/>
<circle cx="355.00" cy="145.00" r="3.40" fill="#fdaf37"/>
<circle cx="365.00" cy="145.00" r="3.40" fill="#fcd53f"/>
<circle cx="375.00" cy="145.00" r="3.40" fill="#fcd53f"/>
<circle cx="385.00" cy="145.00" r="3.40" fill="#fcd53f"/>
<circle cx="395.00" cy="145.00" r="3.40" fill="#fcd53f"/>
<circle cx="405.00" cy="145.00" r="3.40" fill="#fcd53f"/>
<circle cx="415.00" cy="145.00" r="3.40" fill="#fcd53f"/>
<circle cx="425.00" cy="145.00" r="3.40" fill="#fcd53f"/>
<circle cx="435.00" cy="145.00" r="3.40" fill="#fcd53f"/>
<circle cx="445.00" cy="145.00" r="3.40" fill="#fdaf37"/>
<circle cx="455.00" cy="145.00" r="3.40" fill="#ff822d"/>
<circle cx="345.00" cy="155.00" r="3.40" fill="#ff822d"/>
<circle cx="355.00" cy="155.00" r="3.40" fill="#fdaf37"/>
<circle cx="365.00" cy="155.00" r="3.40" fill="#fcd53f"/>
<circle cx="375.00" cy="155.00" r="3.40" fill="#fcd53f"/>
<circle cx="385.00" cy="155.00" r="3.40" fill="#fcd53f"/>
<circle cx="395.00" cy="155.00" r="3.40" fill="#fcd53f"/>
<circle cx="405.00" cy="155.00" r="3.40" fill="#fcd53f"/>
<circle cx="415.00" cy="155.00" r="3.40" fill="#fcd53f"/>
<circle cx="425.00" cy="155.00" r="3.40" fill="#fcd53f"/>
<circle cx="435.00" cy="155.00" r="3.40" fill="#fcd53f"/>
<circle cx="445.00" cy="155.00" r="3.40" fill="#fdaf37"/>
<circle cx="455.00" cy="155.00" r="3.40" fill="#ff822d"/>
<circle cx="345.00" cy="165.00" r="3.40" fill="#ff822d"/>
<circle cx="355.00" cy="165.00" r="3.40" fill="#fe9c33"/>
<circle cx="365.00" cy="165.00" r="3.40" fill="#fcd53f"/>
<circle cx="375.00" cy="165.00" r="3.40" fill="#fcd53f"/>
<circle cx="385.00" cy="165.00" r="3.40" fill="#fcd53f"/>
<circle cx="395.00" cy="165.00" r="3.40" fill="#fcd53f"/>
<circle cx="405.00" cy="165.00" r="3.40" fill="#fcd53f"/>
<circle cx="415.00" cy="165.00" r="3.40" fill="#fcd53f"/>
<circle cx="425.00" cy="165.00" r="3.40" fill="#fcd53f"/>
<circle cx="435.00" cy="165.00" r="3.40" fill="#fcd53f"/>
<circle cx="445.00" cy="165.00" r="3.40" fill="#fe9c33"/>
<circle cx="455.00" cy="165.00" r="3.40" fill="#ff822d"/>
<circle cx="345.00" cy="175.00" r="3.40" fill="#ff822d"/>
<circle cx="355.00" cy="175.00" r="3.40" fill="#ff832d"/>
<circle cx="365.00" cy="175.00" r="3.40" fill="#fdc53c"/>
<circle cx="375.00" cy="175.00" r="3.40" fill="#fcd53f"/>
<circle cx="385.00" cy="175.00" r="3.40" fill="#fcd53f"/>
<circle cx="395.00" cy="175.00" r="3.40" fill="#fcd53f"/>
<circle cx="405.00" cy="175.00" r="3.40" fill="#fcd53f"/>
<circle cx="415.00" cy="175.00" r="3.40" fill="#fcd53f"/>
<circle cx="425.00" cy="175.00" r="3.40" fill="#fcd53f"/>
<circle cx="435.00" cy="175.00" r="3.40" fill="#fdc53b"/>
<circle cx="445.00" cy="175.00" r="3.40" fill="#ff832d"/>
<circle cx="455.00" cy="175.00" r="3.40" fill="#ff822c"/>
<circle cx="355.00" cy="185.00" r="3.40" fill="#ff812d"/>
<circle cx="365.00" cy="185.00" r="3.40" fill="#ff8b2f"/>
<circle cx="375.00" cy="185.00" r="3.40" fill="#fdc53b"/>
<circle cx="385.00" cy="185.00" r="3.40" fill="#fcd53f"/>
<circle cx="395.00" cy="185.00" r="3.40" fill="#fcd53f"/>
<circle cx="405.00" cy="185.00" r="3.40" fill="#fcd53f"/>
<circle cx="415.00" cy="185.00" r="3.40" fill="#fcd53f"/>
<circle cx="425.00" cy="185.00" r="3.40" fill="#fdc43b"/>
<circle cx="435.00" cy="185.00" r="3.40" fill="#ff8b2f"/>
<circle cx="445.00" cy="185.00" r="3.40" fill="#ff822d"/>
<circle cx="365.00" cy="195.00" r="3.40" fill="#ff822d"/>
<circle cx="375.00" cy="195.00" r="3.40" fill="#ff832d"/>
<circle cx="385.00" cy="195.00" r="3.40" fill="#fe9c33"/>
<circle cx="395.00" cy="195.00" r="3.40" fill="#fdae37"/>
<circle cx="405.00" cy="195.00" r="3.40" fill="#fdae37"/>
<circle cx="415.00" cy="195.00" r="3.40" fill="#fe9c33"/>
<circle cx="425.00" cy="195.00" r="3.40" fill="#ff832d"/>
<circle cx="435.00" cy="195.00" r="3.40" fill="#ff822d"/>
<circle cx="375.00" cy="205.00" r="3.40" fill="#ff822d"/>
<circle cx="385.00" cy="205.00" r="3.40" fill="#ff822d"/>
<circle cx="395.00" cy="205.00" r="3.40" fill="#ff822d"/>
<circle cx="405.00" cy="205.00" r="3.40" fill="#ff822d"/>
<circle cx="415.00" cy="205.00" r="3.40" fill="#ff822d"/>
<circle cx="425.00" cy="205.00" r="3.40" fill="#ff822d"/>
<defs>
  <pattern id="dotgrid" width="24" height="24" patternUnits="userSpaceOnUse">
    <circle cx="4" cy="4" r="0.85" fill="#58A6FF" opacity="0.22"/>
  </pattern>
</defs>
</svg>
