<svg width="800" height="280" viewBox="0 0 800 280" fill="none" xmlns="http://www.w3.org/2000/svg" role="img" aria-labelledby="title desc">
<title id="title">Daily pixel drop</title>
<desc id="desc">2026 / 07 / 11. EPIC drop Monkey Face.</desc>
<rect width="800" height="280" rx="8" fill="#0D1117"/>
<rect x="1" y="1" width="798" height="278" rx="7" stroke="#243246"/>
<rect x="18" y="18" width="764" height="244" rx="5" fill="url(#dotgrid)" opacity="0.58"/>
<path d="M52 46H32V66M748 46H768V66M52 234H32V214M748 234H768V214" stroke="#a371f7" stroke-width="1.5" stroke-linecap="square" opacity="0.76"/>
<rect x="304" y="56" width="192" height="188" rx="5" stroke="#a371f7" opacity="0.54"/>
<circle cx="395.00" cy="95.00" r="3.40" fill="#b5875a"/>
<circle cx="405.00" cy="95.00" r="3.40" fill="#b58859"/>
<circle cx="375.00" cy="105.00" r="3.40" fill="#b6885a"/>
<circle cx="385.00" cy="105.00" r="3.40" fill="#b6885a"/>
<circle cx="395.00" cy="105.00" r="3.40" fill="#b6885a"/>
<circle cx="405.00" cy="105.00" r="3.40" fill="#b6885a"/>
<circle cx="415.00" cy="105.00" r="3.40" fill="#b6885a"/>
<circle cx="425.00" cy="105.00" r="3.40" fill="#b6885a"/>
<circle cx="365.00" cy="115.00" r="3.40" fill="#b6885a"/>
<circle cx="375.00" cy="115.00" r="3.40" fill="#b6885a"/>
<circle cx="385.00" cy="115.00" r="3.40" fill="#b6885a"/>
<circle cx="395.00" cy="115.00" r="3.40" fill="#b6885a"/>
<circle cx="405.00" cy="115.00" r="3.40" fill="#b6885a"/>
<circle cx="415.00" cy="115.00" r="3.40" fill="#b6885a"/>
<circle cx="425.00" cy="115.00" r="3.40" fill="#b6885a"/>
<circle cx="435.00" cy="115.00" r="3.40" fill="#b6885a"/>
<circle cx="355.00" cy="125.00" r="3.40" fill="#b6885a"/>
<circle cx="365.00" cy="125.00" r="3.40" fill="#b98b5c"/>
<circle cx="375.00" cy="125.00" r="3.40" fill="#e3b276"/>
<circle cx="385.00" cy="125.00" r="3.40" fill="#e5b578"/>
<circle cx="395.00" cy="125.00" r="3.40" fill="#c49563"/>
<circle cx="405.00" cy="125.00" r="3.40" fill="#c59764"/>
<circle cx="415.00" cy="125.00" r="3.40" fill="#e3b376"/>
<circle cx="425.00" cy="125.00" r="3.40" fill="#dfaf74"/>
<circle cx="435.00" cy="125.00" r="3.40" fill="#b7895b"/>
<circle cx="445.00" cy="125.00" r="3.40" fill="#b6885a"/>
<circle cx="355.00" cy="135.00" r="3.40" fill="#b6885a"/>
<circle cx="365.00" cy="135.00" r="3.40" fill="#d3a36c"/>
<circle cx="375.00" cy="135.00" r="3.40" fill="#ffcd88"/>
<circle cx="385.00" cy="135.00" r="3.40" fill="#ecbf80"/>
<circle cx="395.00" cy="135.00" r="3.40" fill="#ffcd88"/>
<circle cx="405.00" cy="135.00" r="3.40" fill="#ffcd88"/>
<circle cx="415.00" cy="135.00" r="3.40" fill="#e7bb7d"/>
<circle cx="425.00" cy="135.00" r="3.40" fill="#ffcd88"/>
<circle cx="435.00" cy="135.00" r="3.40" fill="#cf9f6a"/>
<circle cx="445.00" cy="135.00" r="3.40" fill="#b6885a"/>
<circle cx="335.00" cy="145.00" r="3.40" fill="#b6885a"/>
<circle cx="345.00" cy="145.00" r="3.40" fill="#d1a16b"/>
<circle cx="355.00" cy="145.00" r="3.40" fill="#b6885a"/>
<circle cx="365.00" cy="145.00" r="3.40" fill="#c99a66"/>
<circle cx="375.00" cy="145.00" r="3.40" fill="#cda672"/>
<circle cx="385.00" cy="145.00" r="3.40" fill="#3c3732"/>
<circle cx="395.00" cy="145.00" r="3.40" fill="#fecc87"/>
<circle cx="405.00" cy="145.00" r="3.40" fill="#f6c684"/>
<circle cx="415.00" cy="145.00" r="3.40" fill="#3a3631"/>
<circle cx="425.00" cy="145.00" r="3.40" fill="#e3b87c"/>
<circle cx="435.00" cy="145.00" r="3.40" fill="#c89965"/>
<circle cx="445.00" cy="145.00" r="3.40" fill="#b7895b"/>
<circle cx="455.00" cy="145.00" r="3.40" fill="#ce9f69"/>
<circle cx="465.00" cy="145.00" r="3.40" fill="#b6885a"/>
<circle cx="335.00" cy="155.00" r="3.40" fill="#b6885a"/>
<circle cx="345.00" cy="155.00" r="3.40" fill="#fecc87"/>
<circle cx="355.00" cy="155.00" r="3.40" fill="#b6885a"/>
<circle cx="365.00" cy="155.00" r="3.40" fill="#c49563"/>
<circle cx="375.00" cy="155.00" r="3.40" fill="#f7c785"/>
<circle cx="385.00" cy="155.00" r="3.40" fill="#bb996a"/>
<circle cx="395.00" cy="155.00" r="3.40" fill="#be9b6b"/>
<circle cx="405.00" cy="155.00" r="3.40" fill="#b99769"/>
<circle cx="415.00" cy="155.00" r="3.40" fill="#c7a270"/>
<circle cx="425.00" cy="155.00" r="3.40" fill="#fecc88"/>
<circle cx="435.00" cy="155.00" r="3.40" fill="#c39563"/>
<circle cx="445.00" cy="155.00" r="3.40" fill="#b7895b"/>
<circle cx="455.00" cy="155.00" r="3.40" fill="#fecc87"/>
<circle cx="465.00" cy="155.00" r="3.40" fill="#b6885a"/>
<circle cx="335.00" cy="165.00" r="3.40" fill="#b68759"/>
<circle cx="345.00" cy="165.00" r="3.40" fill="#cf9f6a"/>
<circle cx="355.00" cy="165.00" r="3.40" fill="#b7895b"/>
<circle cx="365.00" cy="165.00" r="3.40" fill="#d9a970"/>
<circle cx="375.00" cy="165.00" r="3.40" fill="#ffc781"/>
<circle cx="385.00" cy="165.00" r="3.40" fill="#ff9b4e"/>
<circle cx="395.00" cy="165.00" r="3.40" fill="#ff8b3c"/>
<circle cx="405.00" cy="165.00" r="3.40" fill="#ff8c3d"/>
<circle cx="415.00" cy="165.00" r="3.40" fill="#ff994c"/>
<circle cx="425.00" cy="165.00" r="3.40" fill="#ffc781"/>
<circle cx="435.00" cy="165.00" r="3.40" fill="#d7a76f"/>
<circle cx="445.00" cy="165.00" r="3.40" fill="#b88a5b"/>
<circle cx="455.00" cy="165.00" r="3.40" fill="#cf9f6a"/>
<circle cx="465.00" cy="165.00" r="3.40" fill="#b6875a"/>
<circle cx="355.00" cy="175.00" r="3.40" fill="#b6885a"/>
<circle cx="365.00" cy="175.00" r="3.40" fill="#d1a26b"/>
<circle cx="375.00" cy="175.00" r="3.40" fill="#ffc47e"/>
<circle cx="385.00" cy="175.00" r="3.40" fill="#ff8131"/>
<circle cx="395.00" cy="175.00" r="3.40" fill="#ff6c18"/>
<circle cx="405.00" cy="175.00" r="3.40" fill="#ff6c18"/>
<circle cx="415.00" cy="175.00" r="3.40" fill="#ff8332"/>
<circle cx="425.00" cy="175.00" r="3.40" fill="#ffc680"/>
<circle cx="435.00" cy="175.00" r="3.40" fill="#c99966"/>
<circle cx="445.00" cy="175.00" r="3.40" fill="#b6885a"/>
<circle cx="455.00" cy="175.00" r="3.40" fill="#b68859"/>
<circle cx="355.00" cy="185.00" r="3.40" fill="#b6885a"/>
<circle cx="365.00" cy="185.00" r="3.40" fill="#b6885a"/>
<circle cx="375.00" cy="185.00" r="3.40" fill="#d4a46d"/>
<circle cx="385.00" cy="185.00" r="3.40" fill="#f0bf7f"/>
<circle cx="395.00" cy="185.00" r="3.40" fill="#fdcb87"/>
<circle cx="405.00" cy="185.00" r="3.40" fill="#fdcb87"/>
<circle cx="415.00" cy="185.00" r="3.40" fill="#efbe7e"/>
<circle cx="425.00" cy="185.00" r="3.40" fill="#cc9d68"/>
<circle cx="435.00" cy="185.00" r="3.40" fill="#b6885a"/>
<circle cx="445.00" cy="185.00" r="3.40" fill="#b6885a"/>
<circle cx="365.00" cy="195.00" r="3.40" fill="#b6885a"/>
<circle cx="375.00" cy="195.00" r="3.40" fill="#b6885a"/>
<circle cx="385.00" cy="195.00" r="3.40" fill="#b6885a"/>
<circle cx="395.00" cy="195.00" r="3.40" fill="#b6885a"/>
<circle cx="405.00" cy="195.00" r="3.40" fill="#b6885a"/>
<circle cx="415.00" cy="195.00" r="3.40" fill="#b6885a"/>
<circle cx="425.00" cy="195.00" r="3.40" fill="#b6885a"/>
<circle cx="435.00" cy="195.00" r="3.40" fill="#b6885a"/>
<circle cx="395.00" cy="205.00" r="3.40" fill="#b5885a"/>
<circle cx="405.00" cy="205.00" r="3.40" fill="#b58859"/>
<defs>
  <pattern id="dotgrid" width="24" height="24" patternUnits="userSpaceOnUse">
    <circle cx="4" cy="4" r="0.85" fill="#58A6FF" opacity="0.22"/>
  </pattern>
</defs>
</svg>
