<svg width="800" height="280" viewBox="0 0 800 280" fill="none" xmlns="http://www.w3.org/2000/svg" role="img" aria-labelledby="title desc">
<title id="title">Daily pixel drop</title>
<desc id="desc">2026 / 07 / 04. COMMON drop Couch And Lamp.</desc>
<rect width="800" height="280" rx="8" fill="#0D1117"/>
<rect x="1" y="1" width="798" height="278" rx="7" stroke="#243246"/>
<rect x="18" y="18" width="764" height="244" rx="5" fill="url(#dotgrid)" opacity="0.58"/>
<path d="M52 46H32V66M748 46H768V66M52 234H32V214M748 234H768V214" stroke="#8b949e" stroke-width="1.5" stroke-linecap="square" opacity="0.76"/>
<rect x="304" y="56" width="192" height="188" rx="5" stroke="#8b949e" opacity="0.54"/>
<circle cx="435.00" cy="85.00" r="3.40" fill="#9b9b9b"/>
<circle cx="445.00" cy="85.00" r="3.40" fill="#9b9b9b"/>
<circle cx="425.00" cy="95.00" r="3.40" fill="#9b9b9b"/>
<circle cx="435.00" cy="95.00" r="3.40" fill="#9a9a9a"/>
<circle cx="445.00" cy="95.00" r="3.40" fill="#9b9b9b"/>
<circle cx="455.00" cy="95.00" r="3.40" fill="#9a9a9a"/>
<circle cx="425.00" cy="105.00" r="3.40" fill="#d2a65f"/>
<circle cx="445.00" cy="105.00" r="3.40" fill="#9a9a9a"/>
<circle cx="455.00" cy="105.00" r="3.40" fill="#9b9b9b"/>
<circle cx="415.00" cy="115.00" r="3.40" fill="#ffb02e"/>
<circle cx="425.00" cy="115.00" r="3.40" fill="#ffb02e"/>
<circle cx="435.00" cy="115.00" r="3.40" fill="#ffb02e"/>
<circle cx="445.00" cy="115.00" r="3.40" fill="#9a9a9a"/>
<circle cx="455.00" cy="115.00" r="3.40" fill="#9b9b9b"/>
<circle cx="415.00" cy="125.00" r="3.40" fill="#ffb02e"/>
<circle cx="425.00" cy="125.00" r="3.40" fill="#ffb02e"/>
<circle cx="435.00" cy="125.00" r="3.40" fill="#ffb02e"/>
<circle cx="445.00" cy="125.00" r="3.40" fill="#9a9a9a"/>
<circle cx="455.00" cy="125.00" r="3.40" fill="#9b9b9b"/>
<circle cx="415.00" cy="135.00" r="3.40" fill="#ffb02e"/>
<circle cx="425.00" cy="135.00" r="3.40" fill="#ffb02e"/>
<circle cx="435.00" cy="135.00" r="3.40" fill="#ffb02e"/>
<circle cx="445.00" cy="135.00" r="3.40" fill="#9a9a9a"/>
<circle cx="455.00" cy="135.00" r="3.40" fill="#9b9b9b"/>
<circle cx="445.00" cy="145.00" r="3.40" fill="#9a9a9a"/>
<circle cx="455.00" cy="145.00" r="3.40" fill="#9b9b9b"/>
<circle cx="355.00" cy="155.00" r="3.40" fill="#1345b7"/>
<circle cx="365.00" cy="155.00" r="3.40" fill="#1345b7"/>
<circle cx="375.00" cy="155.00" r="3.40" fill="#1345b7"/>
<circle cx="385.00" cy="155.00" r="3.40" fill="#1345b7"/>
<circle cx="395.00" cy="155.00" r="3.40" fill="#1345b7"/>
<circle cx="405.00" cy="155.00" r="3.40" fill="#1345b7"/>
<circle cx="415.00" cy="155.00" r="3.40" fill="#1345b7"/>
<circle cx="425.00" cy="155.00" r="3.40" fill="#1345b7"/>
<circle cx="445.00" cy="155.00" r="3.40" fill="#9a9a9a"/>
<circle cx="455.00" cy="155.00" r="3.40" fill="#9b9b9b"/>
<circle cx="345.00" cy="165.00" r="3.40" fill="#2f68d8"/>
<circle cx="355.00" cy="165.00" r="3.40" fill="#1446b8"/>
<circle cx="365.00" cy="165.00" r="3.40" fill="#1345b7"/>
<circle cx="375.00" cy="165.00" r="3.40" fill="#1345b7"/>
<circle cx="385.00" cy="165.00" r="3.40" fill="#1345b7"/>
<circle cx="395.00" cy="165.00" r="3.40" fill="#1345b7"/>
<circle cx="405.00" cy="165.00" r="3.40" fill="#1345b7"/>
<circle cx="415.00" cy="165.00" r="3.40" fill="#1345b7"/>
<circle cx="425.00" cy="165.00" r="3.40" fill="#1649bb"/>
<circle cx="435.00" cy="165.00" r="3.40" fill="#3f7dec"/>
<circle cx="445.00" cy="165.00" r="3.40" fill="#9a9a9a"/>
<circle cx="455.00" cy="165.00" r="3.40" fill="#9b9b9b"/>
<circle cx="345.00" cy="175.00" r="3.40" fill="#5092ff"/>
<circle cx="355.00" cy="175.00" r="3.40" fill="#2961d2"/>
<circle cx="365.00" cy="175.00" r="3.40" fill="#1345b7"/>
<circle cx="375.00" cy="175.00" r="3.40" fill="#1345b7"/>
<circle cx="385.00" cy="175.00" r="3.40" fill="#1345b7"/>
<circle cx="395.00" cy="175.00" r="3.40" fill="#1345b7"/>
<circle cx="405.00" cy="175.00" r="3.40" fill="#1345b7"/>
<circle cx="415.00" cy="175.00" r="3.40" fill="#1345b7"/>
<circle cx="425.00" cy="175.00" r="3.40" fill="#3570df"/>
<circle cx="435.00" cy="175.00" r="3.40" fill="#5092ff"/>
<circle cx="445.00" cy="175.00" r="3.40" fill="#9a9a9a"/>
<circle cx="455.00" cy="175.00" r="3.40" fill="#9b9b9b"/>
<circle cx="335.00" cy="185.00" r="3.40" fill="#4f91ff"/>
<circle cx="345.00" cy="185.00" r="3.40" fill="#5092ff"/>
<circle cx="355.00" cy="185.00" r="3.40" fill="#3369e0"/>
<circle cx="365.00" cy="185.00" r="3.40" fill="#1f4dcc"/>
<circle cx="375.00" cy="185.00" r="3.40" fill="#1f4dcc"/>
<circle cx="385.00" cy="185.00" r="3.40" fill="#1f4dcc"/>
<circle cx="395.00" cy="185.00" r="3.40" fill="#1f4dcc"/>
<circle cx="405.00" cy="185.00" r="3.40" fill="#1f4dcc"/>
<circle cx="415.00" cy="185.00" r="3.40" fill="#1f4dcc"/>
<circle cx="425.00" cy="185.00" r="3.40" fill="#3c76ea"/>
<circle cx="435.00" cy="185.00" r="3.40" fill="#5092ff"/>
<circle cx="445.00" cy="185.00" r="3.40" fill="#9a9a9a"/>
<circle cx="455.00" cy="185.00" r="3.40" fill="#9b9b9b"/>
<circle cx="335.00" cy="195.00" r="3.40" fill="#4f91ff"/>
<circle cx="345.00" cy="195.00" r="3.40" fill="#5092ff"/>
<circle cx="355.00" cy="195.00" r="3.40" fill="#4674ff"/>
<circle cx="365.00" cy="195.00" r="3.40" fill="#3f5fff"/>
<circle cx="375.00" cy="195.00" r="3.40" fill="#3f5fff"/>
<circle cx="385.00" cy="195.00" r="3.40" fill="#3f5fff"/>
<circle cx="395.00" cy="195.00" r="3.40" fill="#3f5fff"/>
<circle cx="405.00" cy="195.00" r="3.40" fill="#3f5fff"/>
<circle cx="415.00" cy="195.00" r="3.40" fill="#3f5fff"/>
<circle cx="425.00" cy="195.00" r="3.40" fill="#497dff"/>
<circle cx="435.00" cy="195.00" r="3.40" fill="#5092ff"/>
<circle cx="445.00" cy="195.00" r="3.40" fill="#9a9a9a"/>
<circle cx="455.00" cy="195.00" r="3.40" fill="#9b9b9b"/>
<circle cx="345.00" cy="205.00" r="3.40" fill="#417fee"/>
<circle cx="355.00" cy="205.00" r="3.40" fill="#416df9"/>
<circle cx="365.00" cy="205.00" r="3.40" fill="#3f5fff"/>
<circle cx="375.00" cy="205.00" r="3.40" fill="#3f5fff"/>
<circle cx="385.00" cy="205.00" r="3.40" fill="#3f5fff"/>
<circle cx="395.00" cy="205.00" r="3.40" fill="#3f5fff"/>
<circle cx="405.00" cy="205.00" r="3.40" fill="#3f5fff"/>
<circle cx="415.00" cy="205.00" r="3.40" fill="#3f5fff"/>
<circle cx="425.00" cy="205.00" r="3.40" fill="#4072f4"/>
<circle cx="435.00" cy="205.00" r="3.40" fill="#4482f0"/>
<circle cx="445.00" cy="205.00" r="3.40" fill="#fdb030"/>
<circle cx="455.00" cy="205.00" r="3.40" fill="#fdaf30"/>
<circle cx="455.00" cy="215.00" r="3.40" fill="#ffb02e"/>
<defs>
  <pattern id="dotgrid" width="24" height="24" patternUnits="userSpaceOnUse">
    <circle cx="4" cy="4" r="0.85" fill="#58A6FF" opacity="0.22"/>
  </pattern>
</defs>
</svg>
