<svg width="800" height="280" viewBox="0 0 800 280" fill="none" xmlns="http://www.w3.org/2000/svg" role="img" aria-labelledby="title desc">
<title id="title">Daily pixel drop</title>
<desc id="desc">2026 / 05 / 17. COMMON drop Shooting Star.</desc>
<rect width="800" height="280" rx="8" fill="#0D1117"/>
<rect x="1" y="1" width="798" height="278" rx="7" stroke="#243246"/>
<rect x="18" y="18" width="764" height="244" rx="5" fill="url(#dotgrid)" opacity="0.58"/>
<path d="M52 46H32V66M748 46H768V66M52 234H32V214M748 234H768V214" stroke="#8b949e" stroke-width="1.5" stroke-linecap="square" opacity="0.76"/>
<rect x="304" y="56" width="192" height="188" rx="5" stroke="#8b949e" opacity="0.54"/>
<circle cx="415.00" cy="85.00" r="3.40" fill="#80614d"/>
<circle cx="345.00" cy="95.00" r="3.40" fill="#533566"/>
<circle cx="355.00" cy="95.00" r="3.40" fill="#533566"/>
<circle cx="365.00" cy="95.00" r="3.40" fill="#533566"/>
<circle cx="375.00" cy="95.00" r="3.40" fill="#533566"/>
<circle cx="385.00" cy="95.00" r="3.40" fill="#533566"/>
<circle cx="395.00" cy="95.00" r="3.40" fill="#533566"/>
<circle cx="405.00" cy="95.00" r="3.40" fill="#68495a"/>
<circle cx="415.00" cy="95.00" r="3.40" fill="#9f803b"/>
<circle cx="425.00" cy="95.00" r="3.40" fill="#a38439"/>
<circle cx="435.00" cy="95.00" r="3.40" fill="#a38439"/>
<circle cx="445.00" cy="95.00" r="3.40" fill="#a38439"/>
<circle cx="455.00" cy="95.00" r="3.40" fill="#a38439"/>
<circle cx="345.00" cy="105.00" r="3.40" fill="#533566"/>
<circle cx="355.00" cy="105.00" r="3.40" fill="#533566"/>
<circle cx="365.00" cy="105.00" r="3.40" fill="#664b78"/>
<circle cx="375.00" cy="105.00" r="3.40" fill="#533566"/>
<circle cx="385.00" cy="105.00" r="3.40" fill="#533566"/>
<circle cx="395.00" cy="105.00" r="3.40" fill="#6a4c59"/>
<circle cx="405.00" cy="105.00" r="3.40" fill="#a0813b"/>
<circle cx="415.00" cy="105.00" r="3.40" fill="#a38439"/>
<circle cx="425.00" cy="105.00" r="3.40" fill="#a38439"/>
<circle cx="435.00" cy="105.00" r="3.40" fill="#a38439"/>
<circle cx="445.00" cy="105.00" r="3.40" fill="#a38439"/>
<circle cx="455.00" cy="105.00" r="3.40" fill="#a38439"/>
<circle cx="335.00" cy="115.00" r="3.40" fill="#533565"/>
<circle cx="345.00" cy="115.00" r="3.40" fill="#533566"/>
<circle cx="355.00" cy="115.00" r="3.40" fill="#533566"/>
<circle cx="365.00" cy="115.00" r="3.40" fill="#533566"/>
<circle cx="375.00" cy="115.00" r="3.40" fill="#533566"/>
<circle cx="385.00" cy="115.00" r="3.40" fill="#6d4f57"/>
<circle cx="395.00" cy="115.00" r="3.40" fill="#a1823a"/>
<circle cx="405.00" cy="115.00" r="3.40" fill="#a38439"/>
<circle cx="415.00" cy="115.00" r="3.40" fill="#a38439"/>
<circle cx="425.00" cy="115.00" r="3.40" fill="#a38439"/>
<circle cx="435.00" cy="115.00" r="3.40" fill="#a38439"/>
<circle cx="445.00" cy="115.00" r="3.40" fill="#a38439"/>
<circle cx="455.00" cy="115.00" r="3.40" fill="#a38439"/>
<circle cx="465.00" cy="115.00" r="3.40" fill="#a38339"/>
<circle cx="335.00" cy="125.00" r="3.40" fill="#533565"/>
<circle cx="345.00" cy="125.00" r="3.40" fill="#533566"/>
<circle cx="355.00" cy="125.00" r="3.40" fill="#664b78"/>
<circle cx="365.00" cy="125.00" r="3.40" fill="#533566"/>
<circle cx="375.00" cy="125.00" r="3.40" fill="#705256"/>
<circle cx="385.00" cy="125.00" r="3.40" fill="#a2833a"/>
<circle cx="395.00" cy="125.00" r="3.40" fill="#a38439"/>
<circle cx="405.00" cy="125.00" r="3.40" fill="#a38439"/>
<circle cx="415.00" cy="125.00" r="3.40" fill="#a38439"/>
<circle cx="425.00" cy="125.00" r="3.40" fill="#a38439"/>
<circle cx="435.00" cy="125.00" r="3.40" fill="#a38439"/>
<circle cx="445.00" cy="125.00" r="3.40" fill="#a38439"/>
<circle cx="455.00" cy="125.00" r="3.40" fill="#a38439"/>
<circle cx="465.00" cy="125.00" r="3.40" fill="#a38339"/>
<circle cx="335.00" cy="135.00" r="3.40" fill="#533565"/>
<circle cx="345.00" cy="135.00" r="3.40" fill="#533566"/>
<circle cx="355.00" cy="135.00" r="3.40" fill="#533566"/>
<circle cx="365.00" cy="135.00" r="3.40" fill="#78585d"/>
<circle cx="375.00" cy="135.00" r="3.40" fill="#f4ce3f"/>
<circle cx="385.00" cy="135.00" r="3.40" fill="#b9983b"/>
<circle cx="395.00" cy="135.00" r="3.40" fill="#a38439"/>
<circle cx="405.00" cy="135.00" r="3.40" fill="#ae8e3a"/>
<circle cx="415.00" cy="135.00" r="3.40" fill="#a48539"/>
<circle cx="425.00" cy="135.00" r="3.40" fill="#a38439"/>
<circle cx="435.00" cy="135.00" r="3.40" fill="#a38439"/>
<circle cx="445.00" cy="135.00" r="3.40" fill="#a38439"/>
<circle cx="455.00" cy="135.00" r="3.40" fill="#a38439"/>
<circle cx="465.00" cy="135.00" r="3.40" fill="#99793e"/>
<circle cx="335.00" cy="145.00" r="3.40" fill="#533565"/>
<circle cx="345.00" cy="145.00" r="3.40" fill="#533566"/>
<circle cx="355.00" cy="145.00" r="3.40" fill="#533566"/>
<circle cx="365.00" cy="145.00" r="3.40" fill="#8c6a59"/>
<circle cx="375.00" cy="145.00" r="3.40" fill="#fcd53f"/>
<circle cx="385.00" cy="145.00" r="3.40" fill="#fad33f"/>
<circle cx="395.00" cy="145.00" r="3.40" fill="#f4cd3e"/>
<circle cx="405.00" cy="145.00" r="3.40" fill="#fcd53f"/>
<circle cx="415.00" cy="145.00" r="3.40" fill="#c1a03b"/>
<circle cx="425.00" cy="145.00" r="3.40" fill="#a38439"/>
<circle cx="435.00" cy="145.00" r="3.40" fill="#a38439"/>
<circle cx="445.00" cy="145.00" r="3.40" fill="#a38439"/>
<circle cx="455.00" cy="145.00" r="3.40" fill="#82644b"/>
<circle cx="465.00" cy="145.00" r="3.40" fill="#563863"/>
<circle cx="335.00" cy="155.00" r="3.40" fill="#533565"/>
<circle cx="345.00" cy="155.00" r="3.40" fill="#533566"/>
<circle cx="355.00" cy="155.00" r="3.40" fill="#654662"/>
<circle cx="365.00" cy="155.00" r="3.40" fill="#d1ac49"/>
<circle cx="375.00" cy="155.00" r="3.40" fill="#fcd53f"/>
<circle cx="385.00" cy="155.00" r="3.40" fill="#fcd53f"/>
<circle cx="395.00" cy="155.00" r="3.40" fill="#fcd53f"/>
<circle cx="405.00" cy="155.00" r="3.40" fill="#fad33f"/>
<circle cx="415.00" cy="155.00" r="3.40" fill="#ab8b3a"/>
<circle cx="425.00" cy="155.00" r="3.40" fill="#a38439"/>
<circle cx="435.00" cy="155.00" r="3.40" fill="#a38439"/>
<circle cx="445.00" cy="155.00" r="3.40" fill="#82644b"/>
<circle cx="455.00" cy="155.00" r="3.40" fill="#533566"/>
<circle cx="465.00" cy="155.00" r="3.40" fill="#533565"/>
<circle cx="335.00" cy="165.00" r="3.40" fill="#533565"/>
<circle cx="345.00" cy="165.00" r="3.40" fill="#553766"/>
<circle cx="355.00" cy="165.00" r="3.40" fill="#f0ca42"/>
<circle cx="365.00" cy="165.00" r="3.40" fill="#fcd53f"/>
<circle cx="375.00" cy="165.00" r="3.40" fill="#fcd53f"/>
<circle cx="385.00" cy="165.00" r="3.40" fill="#fcd53f"/>
<circle cx="395.00" cy="165.00" r="3.40" fill="#fcd53f"/>
<circle cx="405.00" cy="165.00" r="3.40" fill="#f5ce3e"/>
<circle cx="415.00" cy="165.00" r="3.40" fill="#a68639"/>
<circle cx="425.00" cy="165.00" r="3.40" fill="#a38439"/>
<circle cx="435.00" cy="165.00" r="3.40" fill="#82644b"/>
<circle cx="445.00" cy="165.00" r="3.40" fill="#533566"/>
<circle cx="455.00" cy="165.00" r="3.40" fill="#533566"/>
<circle cx="465.00" cy="165.00" r="3.40" fill="#533565"/>
<circle cx="335.00" cy="175.00" r="3.40" fill="#533565"/>
<circle cx="345.00" cy="175.00" r="3.40" fill="#533566"/>
<circle cx="355.00" cy="175.00" r="3.40" fill="#88675a"/>
<circle cx="365.00" cy="175.00" r="3.40" fill="#d6b148"/>
<circle cx="375.00" cy="175.00" r="3.40" fill="#fcd53f"/>
<circle cx="385.00" cy="175.00" r="3.40" fill="#fcd53f"/>
<circle cx="395.00" cy="175.00" r="3.40" fill="#fcd53f"/>
<circle cx="405.00" cy="175.00" r="3.40" fill="#fcd53f"/>
<circle cx="415.00" cy="175.00" r="3.40" fill="#d0ad3c"/>
<circle cx="425.00" cy="175.00" r="3.40" fill="#82644b"/>
<circle cx="435.00" cy="175.00" r="3.40" fill="#654a77"/>
<circle cx="445.00" cy="175.00" r="3.40" fill="#533566"/>
<circle cx="455.00" cy="175.00" r="3.40" fill="#533566"/>
<circle cx="465.00" cy="175.00" r="3.40" fill="#533565"/>
<circle cx="335.00" cy="185.00" r="3.40" fill="#533565"/>
<circle cx="345.00" cy="185.00" r="3.40" fill="#5f4371"/>
<circle cx="355.00" cy="185.00" r="3.40" fill="#5b3e6d"/>
<circle cx="365.00" cy="185.00" r="3.40" fill="#563865"/>
<circle cx="375.00" cy="185.00" r="3.40" fill="#f1cb42"/>
<circle cx="385.00" cy="185.00" r="3.40" fill="#fcd53f"/>
<circle cx="395.00" cy="185.00" r="3.40" fill="#d3ae49"/>
<circle cx="405.00" cy="185.00" r="3.40" fill="#c9a54b"/>
<circle cx="415.00" cy="185.00" r="3.40" fill="#a78551"/>
<circle cx="425.00" cy="185.00" r="3.40" fill="#533566"/>
<circle cx="435.00" cy="185.00" r="3.40" fill="#543767"/>
<circle cx="445.00" cy="185.00" r="3.40" fill="#533566"/>
<circle cx="455.00" cy="185.00" r="3.40" fill="#533566"/>
<circle cx="465.00" cy="185.00" r="3.40" fill="#533565"/>
<circle cx="345.00" cy="195.00" r="3.40" fill="#533566"/>
<circle cx="355.00" cy="195.00" r="3.40" fill="#533566"/>
<circle cx="365.00" cy="195.00" r="3.40" fill="#533566"/>
<circle cx="375.00" cy="195.00" r="3.40" fill="#c3a04c"/>
<circle cx="385.00" cy="195.00" r="3.40" fill="#cfab49"/>
<circle cx="395.00" cy="195.00" r="3.40" fill="#553765"/>
<circle cx="405.00" cy="195.00" r="3.40" fill="#533566"/>
<circle cx="415.00" cy="195.00" r="3.40" fill="#533566"/>
<circle cx="425.00" cy="195.00" r="3.40" fill="#533566"/>
<circle cx="435.00" cy="195.00" r="3.40" fill="#664b78"/>
<circle cx="445.00" cy="195.00" r="3.40" fill="#5b3e6e"/>
<circle cx="455.00" cy="195.00" r="3.40" fill="#5e4270"/>
<circle cx="345.00" cy="205.00" r="3.40" fill="#533566"/>
<circle cx="355.00" cy="205.00" r="3.40" fill="#533566"/>
<circle cx="365.00" cy="205.00" r="3.40" fill="#533566"/>
<circle cx="375.00" cy="205.00" r="3.40" fill="#553765"/>
<circle cx="385.00" cy="205.00" r="3.40" fill="#553766"/>
<circle cx="395.00" cy="205.00" r="3.40" fill="#533566"/>
<circle cx="405.00" cy="205.00" r="3.40" fill="#533566"/>
<circle cx="415.00" cy="205.00" r="3.40" fill="#533566"/>
<circle cx="425.00" cy="205.00" r="3.40" fill="#533566"/>
<circle cx="435.00" cy="205.00" r="3.40" fill="#533566"/>
<circle cx="445.00" cy="205.00" r="3.40" fill="#533566"/>
<circle cx="455.00" cy="205.00" r="3.40" fill="#533566"/>
<circle cx="365.00" cy="215.00" r="3.40" fill="#523465"/>
<circle cx="375.00" cy="215.00" r="3.40" fill="#523465"/>
<circle cx="385.00" cy="215.00" r="3.40" fill="#523465"/>
<circle cx="395.00" cy="215.00" r="3.40" fill="#523465"/>
<circle cx="405.00" cy="215.00" r="3.40" fill="#523465"/>
<circle cx="415.00" cy="215.00" r="3.40" fill="#523465"/>
<circle cx="425.00" cy="215.00" r="3.40" fill="#523465"/>
<circle cx="435.00" cy="215.00" r="3.40" fill="#523465"/>
<defs>
  <pattern id="dotgrid" width="24" height="24" patternUnits="userSpaceOnUse">
    <circle cx="4" cy="4" r="0.85" fill="#58A6FF" opacity="0.22"/>
  </pattern>
</defs>
</svg>
