<svg width="800" height="280" viewBox="0 0 800 280" fill="none" xmlns="http://www.w3.org/2000/svg" role="img" aria-labelledby="title desc">
<title id="title">Daily pixel drop</title>
<desc id="desc">2026 / 05 / 21. RARE drop Avocado.</desc>
<rect width="800" height="280" rx="8" fill="#0D1117"/>
<rect x="1" y="1" width="798" height="278" rx="7" stroke="#243246"/>
<rect x="18" y="18" width="764" height="244" rx="5" fill="url(#dotgrid)" opacity="0.58"/>
<path d="M52 46H32V66M748 46H768V66M52 234H32V214M748 234H768V214" stroke="#58a6ff" stroke-width="1.5" stroke-linecap="square" opacity="0.76"/>
<rect x="304" y="56" width="192" height="188" rx="5" stroke="#58a6ff" opacity="0.54"/>
<circle cx="405.00" cy="95.00" r="3.40" fill="#0e8b60"/>
<circle cx="415.00" cy="95.00" r="3.40" fill="#4dae53"/>
<circle cx="425.00" cy="95.00" r="3.40" fill="#51b053"/>
<circle cx="435.00" cy="95.00" r="3.40" fill="#138e5f"/>
<circle cx="375.00" cy="105.00" r="3.40" fill="#008463"/>
<circle cx="385.00" cy="105.00" r="3.40" fill="#008463"/>
<circle cx="395.00" cy="105.00" r="3.40" fill="#26995b"/>
<circle cx="405.00" cy="105.00" r="3.40" fill="#a3dd43"/>
<circle cx="415.00" cy="105.00" r="3.40" fill="#c3ef3c"/>
<circle cx="425.00" cy="105.00" r="3.40" fill="#c3ef3c"/>
<circle cx="435.00" cy="105.00" r="3.40" fill="#a9e141"/>
<circle cx="445.00" cy="105.00" r="3.40" fill="#198d54"/>
<circle cx="355.00" cy="115.00" r="3.40" fill="#008463"/>
<circle cx="365.00" cy="115.00" r="3.40" fill="#2a9b5a"/>
<circle cx="375.00" cy="115.00" r="3.40" fill="#79c64b"/>
<circle cx="385.00" cy="115.00" r="3.40" fill="#a1dc43"/>
<circle cx="395.00" cy="115.00" r="3.40" fill="#c2ee3c"/>
<circle cx="405.00" cy="115.00" r="3.40" fill="#c3ef3c"/>
<circle cx="415.00" cy="115.00" r="3.40" fill="#c3ef3c"/>
<circle cx="425.00" cy="115.00" r="3.40" fill="#c3ef3c"/>
<circle cx="435.00" cy="115.00" r="3.40" fill="#c3ef3c"/>
<circle cx="445.00" cy="115.00" r="3.40" fill="#47ab54"/>
<circle cx="455.00" cy="115.00" r="3.40" fill="#41901f"/>
<circle cx="345.00" cy="125.00" r="3.40" fill="#008463"/>
<circle cx="355.00" cy="125.00" r="3.40" fill="#45aa55"/>
<circle cx="365.00" cy="125.00" r="3.40" fill="#bfed3d"/>
<circle cx="375.00" cy="125.00" r="3.40" fill="#c3ef3c"/>
<circle cx="385.00" cy="125.00" r="3.40" fill="#c3ef3c"/>
<circle cx="395.00" cy="125.00" r="3.40" fill="#c3ef3c"/>
<circle cx="405.00" cy="125.00" r="3.40" fill="#c3ef3c"/>
<circle cx="415.00" cy="125.00" r="3.40" fill="#c3ef3c"/>
<circle cx="425.00" cy="125.00" r="3.40" fill="#c3ef3c"/>
<circle cx="435.00" cy="125.00" r="3.40" fill="#c3ef3c"/>
<circle cx="445.00" cy="125.00" r="3.40" fill="#3fa654"/>
<circle cx="455.00" cy="125.00" r="3.40" fill="#42911c"/>
<circle cx="345.00" cy="135.00" r="3.40" fill="#16905e"/>
<circle cx="355.00" cy="135.00" r="3.40" fill="#baea3e"/>
<circle cx="365.00" cy="135.00" r="3.40" fill="#c3ef3c"/>
<circle cx="375.00" cy="135.00" r="3.40" fill="#afc73a"/>
<circle cx="385.00" cy="135.00" r="3.40" fill="#867736"/>
<circle cx="395.00" cy="135.00" r="3.40" fill="#8f8937"/>
<circle cx="405.00" cy="135.00" r="3.40" fill="#bee43b"/>
<circle cx="415.00" cy="135.00" r="3.40" fill="#c3ef3c"/>
<circle cx="425.00" cy="135.00" r="3.40" fill="#c3ef3c"/>
<circle cx="435.00" cy="135.00" r="3.40" fill="#93d446"/>
<circle cx="445.00" cy="135.00" r="3.40" fill="#208b43"/>
<circle cx="455.00" cy="135.00" r="3.40" fill="#44911b"/>
<circle cx="345.00" cy="145.00" r="3.40" fill="#4cae54"/>
<circle cx="355.00" cy="145.00" r="3.40" fill="#c3ef3c"/>
<circle cx="365.00" cy="145.00" r="3.40" fill="#c1eb3c"/>
<circle cx="375.00" cy="145.00" r="3.40" fill="#735135"/>
<circle cx="385.00" cy="145.00" r="3.40" fill="#6d4534"/>
<circle cx="395.00" cy="145.00" r="3.40" fill="#6d4534"/>
<circle cx="405.00" cy="145.00" r="3.40" fill="#928d37"/>
<circle cx="415.00" cy="145.00" r="3.40" fill="#c3ef3c"/>
<circle cx="425.00" cy="145.00" r="3.40" fill="#bdec3d"/>
<circle cx="435.00" cy="145.00" r="3.40" fill="#219150"/>
<circle cx="445.00" cy="145.00" r="3.40" fill="#42911d"/>
<circle cx="345.00" cy="155.00" r="3.40" fill="#5ab651"/>
<circle cx="355.00" cy="155.00" r="3.40" fill="#c3ef3c"/>
<circle cx="365.00" cy="155.00" r="3.40" fill="#bfe73c"/>
<circle cx="375.00" cy="155.00" r="3.40" fill="#6e4834"/>
<circle cx="385.00" cy="155.00" r="3.40" fill="#6d4534"/>
<circle cx="395.00" cy="155.00" r="3.40" fill="#6d4534"/>
<circle cx="405.00" cy="155.00" r="3.40" fill="#8a7f37"/>
<circle cx="415.00" cy="155.00" r="3.40" fill="#c3ef3c"/>
<circle cx="425.00" cy="155.00" r="3.40" fill="#91d446"/>
<circle cx="435.00" cy="155.00" r="3.40" fill="#288c39"/>
<circle cx="445.00" cy="155.00" r="3.40" fill="#44901b"/>
<circle cx="345.00" cy="165.00" r="3.40" fill="#3ca557"/>
<circle cx="355.00" cy="165.00" r="3.40" fill="#c3ef3c"/>
<circle cx="365.00" cy="165.00" r="3.40" fill="#c3ef3c"/>
<circle cx="375.00" cy="165.00" r="3.40" fill="#9ba038"/>
<circle cx="385.00" cy="165.00" r="3.40" fill="#6f4934"/>
<circle cx="395.00" cy="165.00" r="3.40" fill="#775935"/>
<circle cx="405.00" cy="165.00" r="3.40" fill="#b3cf3b"/>
<circle cx="415.00" cy="165.00" r="3.40" fill="#c3ef3c"/>
<circle cx="425.00" cy="165.00" r="3.40" fill="#67bd4e"/>
<circle cx="435.00" cy="165.00" r="3.40" fill="#368e2a"/>
<circle cx="445.00" cy="165.00" r="3.40" fill="#44911a"/>
<circle cx="345.00" cy="175.00" r="3.40" fill="#058662"/>
<circle cx="355.00" cy="175.00" r="3.40" fill="#9fdb43"/>
<circle cx="365.00" cy="175.00" r="3.40" fill="#c3ef3c"/>
<circle cx="375.00" cy="175.00" r="3.40" fill="#c3ef3c"/>
<circle cx="385.00" cy="175.00" r="3.40" fill="#c1ec3c"/>
<circle cx="395.00" cy="175.00" r="3.40" fill="#c3ee3c"/>
<circle cx="405.00" cy="175.00" r="3.40" fill="#c3ef3c"/>
<circle cx="415.00" cy="175.00" r="3.40" fill="#b8e93e"/>
<circle cx="425.00" cy="175.00" r="3.40" fill="#239351"/>
<circle cx="435.00" cy="175.00" r="3.40" fill="#44911b"/>
<circle cx="355.00" cy="185.00" r="3.40" fill="#1c935c"/>
<circle cx="365.00" cy="185.00" r="3.40" fill="#9bd944"/>
<circle cx="375.00" cy="185.00" r="3.40" fill="#c3ef3c"/>
<circle cx="385.00" cy="185.00" r="3.40" fill="#c3ef3c"/>
<circle cx="395.00" cy="185.00" r="3.40" fill="#c3ef3c"/>
<circle cx="405.00" cy="185.00" r="3.40" fill="#b0e440"/>
<circle cx="415.00" cy="185.00" r="3.40" fill="#349f55"/>
<circle cx="425.00" cy="185.00" r="3.40" fill="#388f28"/>
<circle cx="435.00" cy="185.00" r="3.40" fill="#44911b"/>
<circle cx="365.00" cy="195.00" r="3.40" fill="#18894b"/>
<circle cx="375.00" cy="195.00" r="3.40" fill="#359f53"/>
<circle cx="385.00" cy="195.00" r="3.40" fill="#4daf54"/>
<circle cx="395.00" cy="195.00" r="3.40" fill="#3ea554"/>
<circle cx="405.00" cy="195.00" r="3.40" fill="#1e8c49"/>
<circle cx="415.00" cy="195.00" r="3.40" fill="#3b8f25"/>
<circle cx="425.00" cy="195.00" r="3.40" fill="#44911b"/>
<circle cx="435.00" cy="195.00" r="3.40" fill="#44901b"/>
<circle cx="375.00" cy="205.00" r="3.40" fill="#44911b"/>
<circle cx="385.00" cy="205.00" r="3.40" fill="#40901f"/>
<circle cx="395.00" cy="205.00" r="3.40" fill="#43911c"/>
<circle cx="405.00" cy="205.00" r="3.40" fill="#44911b"/>
<circle cx="415.00" cy="205.00" r="3.40" fill="#44911b"/>
<circle cx="425.00" cy="205.00" r="3.40" fill="#44911a"/>
<defs>
  <pattern id="dotgrid" width="24" height="24" patternUnits="userSpaceOnUse">
    <circle cx="4" cy="4" r="0.85" fill="#58A6FF" opacity="0.22"/>
  </pattern>
</defs>
</svg>
