<svg width="800" height="280" viewBox="0 0 800 280" fill="none" xmlns="http://www.w3.org/2000/svg" role="img" aria-labelledby="title desc">
<title id="title">Daily pixel drop</title>
<desc id="desc">2026 / 07 / 16. COMMON drop Ticket.</desc>
<rect width="800" height="280" rx="8" fill="#0D1117"/>
<rect x="1" y="1" width="798" height="278" rx="7" stroke="#243246"/>
<rect x="18" y="18" width="764" height="244" rx="5" fill="url(#dotgrid)" opacity="0.58"/>
<path d="M52 46H32V66M748 46H768V66M52 234H32V214M748 234H768V214" stroke="#8b949e" stroke-width="1.5" stroke-linecap="square" opacity="0.76"/>
<rect x="304" y="56" width="192" height="188" rx="5" stroke="#8b949e" opacity="0.54"/>
<circle cx="335.00" cy="115.00" r="3.40" fill="#e4ab19"/>
<circle cx="345.00" cy="115.00" r="3.40" fill="#e4a914"/>
<circle cx="355.00" cy="115.00" r="3.40" fill="#e4a914"/>
<circle cx="365.00" cy="115.00" r="3.40" fill="#e4a914"/>
<circle cx="375.00" cy="115.00" r="3.40" fill="#e4a914"/>
<circle cx="385.00" cy="115.00" r="3.40" fill="#e4a914"/>
<circle cx="395.00" cy="115.00" r="3.40" fill="#e4a914"/>
<circle cx="405.00" cy="115.00" r="3.40" fill="#e4a914"/>
<circle cx="415.00" cy="115.00" r="3.40" fill="#dba01e"/>
<circle cx="425.00" cy="115.00" r="3.40" fill="#da9e1f"/>
<circle cx="435.00" cy="115.00" r="3.40" fill="#e4a914"/>
<circle cx="445.00" cy="115.00" r="3.40" fill="#e4a914"/>
<circle cx="455.00" cy="115.00" r="3.40" fill="#e4a914"/>
<circle cx="465.00" cy="115.00" r="3.40" fill="#e5aa16"/>
<circle cx="335.00" cy="125.00" r="3.40" fill="#f1bf3c"/>
<circle cx="345.00" cy="125.00" r="3.40" fill="#f6c63b"/>
<circle cx="355.00" cy="125.00" r="3.40" fill="#f6c63b"/>
<circle cx="365.00" cy="125.00" r="3.40" fill="#f6c63b"/>
<circle cx="375.00" cy="125.00" r="3.40" fill="#f6c63b"/>
<circle cx="385.00" cy="125.00" r="3.40" fill="#f6c63b"/>
<circle cx="395.00" cy="125.00" r="3.40" fill="#f6c63b"/>
<circle cx="405.00" cy="125.00" r="3.40" fill="#f6c63b"/>
<circle cx="415.00" cy="125.00" r="3.40" fill="#f8ca42"/>
<circle cx="425.00" cy="125.00" r="3.40" fill="#f7c943"/>
<circle cx="435.00" cy="125.00" r="3.40" fill="#f6c63b"/>
<circle cx="445.00" cy="125.00" r="3.40" fill="#f6c63b"/>
<circle cx="455.00" cy="125.00" r="3.40" fill="#f6c63b"/>
<circle cx="465.00" cy="125.00" r="3.40" fill="#f3c23b"/>
<circle cx="335.00" cy="135.00" r="3.40" fill="#f8cb4e"/>
<circle cx="345.00" cy="135.00" r="3.40" fill="#ab893f"/>
<circle cx="355.00" cy="135.00" r="3.40" fill="#866839"/>
<circle cx="365.00" cy="135.00" r="3.40" fill="#866839"/>
<circle cx="375.00" cy="135.00" r="3.40" fill="#866839"/>
<circle cx="385.00" cy="135.00" r="3.40" fill="#bc9943"/>
<circle cx="395.00" cy="135.00" r="3.40" fill="#ffd54f"/>
<circle cx="405.00" cy="135.00" r="3.40" fill="#ffd54f"/>
<circle cx="415.00" cy="135.00" r="3.40" fill="#edbd4b"/>
<circle cx="425.00" cy="135.00" r="3.40" fill="#e9b84b"/>
<circle cx="435.00" cy="135.00" r="3.40" fill="#f0c74e"/>
<circle cx="445.00" cy="135.00" r="3.40" fill="#cea74a"/>
<circle cx="455.00" cy="135.00" r="3.40" fill="#ddb54c"/>
<circle cx="465.00" cy="135.00" r="3.40" fill="#facf4e"/>
<circle cx="335.00" cy="145.00" r="3.40" fill="#f8cb4e"/>
<circle cx="345.00" cy="145.00" r="3.40" fill="#f0c84c"/>
<circle cx="355.00" cy="145.00" r="3.40" fill="#e5bd4a"/>
<circle cx="365.00" cy="145.00" r="3.40" fill="#e5bd4a"/>
<circle cx="375.00" cy="145.00" r="3.40" fill="#f3ca4d"/>
<circle cx="385.00" cy="145.00" r="3.40" fill="#f7ce4e"/>
<circle cx="395.00" cy="145.00" r="3.40" fill="#efc74c"/>
<circle cx="405.00" cy="145.00" r="3.40" fill="#ffd54f"/>
<circle cx="415.00" cy="145.00" r="3.40" fill="#fed44f"/>
<circle cx="425.00" cy="145.00" r="3.40" fill="#fdd34f"/>
<circle cx="435.00" cy="145.00" r="3.40" fill="#e9c04d"/>
<circle cx="445.00" cy="145.00" r="3.40" fill="#b69048"/>
<circle cx="455.00" cy="145.00" r="3.40" fill="#cda54a"/>
<circle cx="465.00" cy="145.00" r="3.40" fill="#facf4e"/>
<circle cx="335.00" cy="155.00" r="3.40" fill="#f8cb4e"/>
<circle cx="345.00" cy="155.00" r="3.40" fill="#b79342"/>
<circle cx="355.00" cy="155.00" r="3.40" fill="#99793c"/>
<circle cx="365.00" cy="155.00" r="3.40" fill="#99793c"/>
<circle cx="375.00" cy="155.00" r="3.40" fill="#c9a445"/>
<circle cx="385.00" cy="155.00" r="3.40" fill="#d2ac47"/>
<circle cx="395.00" cy="155.00" r="3.40" fill="#ad8b40"/>
<circle cx="405.00" cy="155.00" r="3.40" fill="#ffd54f"/>
<circle cx="415.00" cy="155.00" r="3.40" fill="#ecbc4b"/>
<circle cx="425.00" cy="155.00" r="3.40" fill="#e8b74b"/>
<circle cx="435.00" cy="155.00" r="3.40" fill="#fad04e"/>
<circle cx="445.00" cy="155.00" r="3.40" fill="#eec54d"/>
<circle cx="455.00" cy="155.00" r="3.40" fill="#f7ce4e"/>
<circle cx="465.00" cy="155.00" r="3.40" fill="#facf4e"/>
<circle cx="335.00" cy="165.00" r="3.40" fill="#f8cb4e"/>
<circle cx="345.00" cy="165.00" r="3.40" fill="#fad14f"/>
<circle cx="355.00" cy="165.00" r="3.40" fill="#f5cc4e"/>
<circle cx="365.00" cy="165.00" r="3.40" fill="#f2c94e"/>
<circle cx="375.00" cy="165.00" r="3.40" fill="#f8ce4e"/>
<circle cx="385.00" cy="165.00" r="3.40" fill="#f5cb4e"/>
<circle cx="395.00" cy="165.00" r="3.40" fill="#fcd24f"/>
<circle cx="405.00" cy="165.00" r="3.40" fill="#ffd54f"/>
<circle cx="415.00" cy="165.00" r="3.40" fill="#ffd54f"/>
<circle cx="425.00" cy="165.00" r="3.40" fill="#fed34f"/>
<circle cx="435.00" cy="165.00" r="3.40" fill="#e5be4a"/>
<circle cx="445.00" cy="165.00" r="3.40" fill="#ac8940"/>
<circle cx="455.00" cy="165.00" r="3.40" fill="#e7bf4b"/>
<circle cx="465.00" cy="165.00" r="3.40" fill="#facf4e"/>
<circle cx="335.00" cy="175.00" r="3.40" fill="#f8cb4e"/>
<circle cx="345.00" cy="175.00" r="3.40" fill="#ebc34d"/>
<circle cx="355.00" cy="175.00" r="3.40" fill="#d8b04b"/>
<circle cx="365.00" cy="175.00" r="3.40" fill="#cba44a"/>
<circle cx="375.00" cy="175.00" r="3.40" fill="#e1b94c"/>
<circle cx="385.00" cy="175.00" r="3.40" fill="#d4ac4b"/>
<circle cx="395.00" cy="175.00" r="3.40" fill="#f3ca4e"/>
<circle cx="405.00" cy="175.00" r="3.40" fill="#ffd54f"/>
<circle cx="415.00" cy="175.00" r="3.40" fill="#eab94b"/>
<circle cx="425.00" cy="175.00" r="3.40" fill="#e4b24a"/>
<circle cx="435.00" cy="175.00" r="3.40" fill="#ffd54f"/>
<circle cx="445.00" cy="175.00" r="3.40" fill="#ffd54f"/>
<circle cx="455.00" cy="175.00" r="3.40" fill="#ffd54f"/>
<circle cx="465.00" cy="175.00" r="3.40" fill="#facf4e"/>
<circle cx="335.00" cy="185.00" r="3.40" fill="#e0ab49"/>
<circle cx="345.00" cy="185.00" r="3.40" fill="#e4b24a"/>
<circle cx="355.00" cy="185.00" r="3.40" fill="#e4b24a"/>
<circle cx="365.00" cy="185.00" r="3.40" fill="#e4b24a"/>
<circle cx="375.00" cy="185.00" r="3.40" fill="#e4b24a"/>
<circle cx="385.00" cy="185.00" r="3.40" fill="#e4b24a"/>
<circle cx="395.00" cy="185.00" r="3.40" fill="#e4b24a"/>
<circle cx="405.00" cy="185.00" r="3.40" fill="#e4b24a"/>
<circle cx="415.00" cy="185.00" r="3.40" fill="#e2ae49"/>
<circle cx="425.00" cy="185.00" r="3.40" fill="#e1ac49"/>
<circle cx="435.00" cy="185.00" r="3.40" fill="#e4b24a"/>
<circle cx="445.00" cy="185.00" r="3.40" fill="#e4b24a"/>
<circle cx="455.00" cy="185.00" r="3.40" fill="#e4b24a"/>
<circle cx="465.00" cy="185.00" r="3.40" fill="#e0ac49"/>
<defs>
  <pattern id="dotgrid" width="24" height="24" patternUnits="userSpaceOnUse">
    <circle cx="4" cy="4" r="0.85" fill="#58A6FF" opacity="0.22"/>
  </pattern>
</defs>
</svg>
