<svg width="800" height="280" viewBox="0 0 800 280" fill="none" xmlns="http://www.w3.org/2000/svg" role="img" aria-labelledby="title desc">
<title id="title">Daily pixel drop</title>
<desc id="desc">2026 / 05 / 25. COMMON drop Artist Palette.</desc>
<rect width="800" height="280" rx="8" fill="#0D1117"/>
<rect x="1" y="1" width="798" height="278" rx="7" stroke="#243246"/>
<rect x="18" y="18" width="764" height="244" rx="5" fill="url(#dotgrid)" opacity="0.58"/>
<path d="M52 46H32V66M748 46H768V66M52 234H32V214M748 234H768V214" stroke="#8b949e" stroke-width="1.5" stroke-linecap="square" opacity="0.76"/>
<rect x="304" y="56" width="192" height="188" rx="5" stroke="#8b949e" opacity="0.54"/>
<circle cx="385.00" cy="95.00" r="3.40" fill="#fab8ab"/>
<circle cx="395.00" cy="95.00" r="3.40" fill="#fab8ab"/>
<circle cx="405.00" cy="95.00" r="3.40" fill="#fab7aa"/>
<circle cx="365.00" cy="105.00" r="3.40" fill="#fbb8ab"/>
<circle cx="375.00" cy="105.00" r="3.40" fill="#fbb8ab"/>
<circle cx="385.00" cy="105.00" r="3.40" fill="#f9b6ac"/>
<circle cx="395.00" cy="105.00" r="3.40" fill="#f1b1ad"/>
<circle cx="405.00" cy="105.00" r="3.40" fill="#fbb8ab"/>
<circle cx="415.00" cy="105.00" r="3.40" fill="#fbb8ab"/>
<circle cx="425.00" cy="105.00" r="3.40" fill="#fbb8ab"/>
<circle cx="355.00" cy="115.00" r="3.40" fill="#fbb8ab"/>
<circle cx="365.00" cy="115.00" r="3.40" fill="#fbb8ab"/>
<circle cx="375.00" cy="115.00" r="3.40" fill="#fbb8ab"/>
<circle cx="385.00" cy="115.00" r="3.40" fill="#b684bb"/>
<circle cx="395.00" cy="115.00" r="3.40" fill="#9067c4"/>
<circle cx="405.00" cy="115.00" r="3.40" fill="#edaeae"/>
<circle cx="415.00" cy="115.00" r="3.40" fill="#fbb8ab"/>
<circle cx="425.00" cy="115.00" r="3.40" fill="#fbb8ab"/>
<circle cx="435.00" cy="115.00" r="3.40" fill="#fbb8ab"/>
<circle cx="445.00" cy="115.00" r="3.40" fill="#fbb7ab"/>
<circle cx="345.00" cy="125.00" r="3.40" fill="#fbb8ab"/>
<circle cx="355.00" cy="125.00" r="3.40" fill="#fbb5aa"/>
<circle cx="365.00" cy="125.00" r="3.40" fill="#fa7ba0"/>
<circle cx="375.00" cy="125.00" r="3.40" fill="#fbaba9"/>
<circle cx="385.00" cy="125.00" r="3.40" fill="#d097b5"/>
<circle cx="395.00" cy="125.00" r="3.40" fill="#ac7dbe"/>
<circle cx="405.00" cy="125.00" r="3.40" fill="#f5b4ac"/>
<circle cx="415.00" cy="125.00" r="3.40" fill="#fbb8ab"/>
<circle cx="425.00" cy="125.00" r="3.40" fill="#fbb8ab"/>
<circle cx="435.00" cy="125.00" r="3.40" fill="#fbb8ab"/>
<circle cx="445.00" cy="125.00" r="3.40" fill="#fbb8ab"/>
<circle cx="345.00" cy="135.00" r="3.40" fill="#fbb8ab"/>
<circle cx="355.00" cy="135.00" r="3.40" fill="#fa80a1"/>
<circle cx="365.00" cy="135.00" r="3.40" fill="#f70a8d"/>
<circle cx="375.00" cy="135.00" r="3.40" fill="#f95a9b"/>
<circle cx="385.00" cy="135.00" r="3.40" fill="#fbb8ab"/>
<circle cx="395.00" cy="135.00" r="3.40" fill="#fbb8ab"/>
<circle cx="405.00" cy="135.00" r="3.40" fill="#fbb8ab"/>
<circle cx="415.00" cy="135.00" r="3.40" fill="#fbb8ab"/>
<circle cx="425.00" cy="135.00" r="3.40" fill="#fbb8ab"/>
<circle cx="435.00" cy="135.00" r="3.40" fill="#fbb8ab"/>
<circle cx="445.00" cy="135.00" r="3.40" fill="#fbb8ab"/>
<circle cx="455.00" cy="135.00" r="3.40" fill="#fbb8ab"/>
<circle cx="345.00" cy="145.00" r="3.40" fill="#fbb8ab"/>
<circle cx="355.00" cy="145.00" r="3.40" fill="#fbafaa"/>
<circle cx="365.00" cy="145.00" r="3.40" fill="#f9609c"/>
<circle cx="375.00" cy="145.00" r="3.40" fill="#faa0a7"/>
<circle cx="385.00" cy="145.00" r="3.40" fill="#fbb8ab"/>
<circle cx="395.00" cy="145.00" r="3.40" fill="#fbb8ab"/>
<circle cx="405.00" cy="145.00" r="3.40" fill="#fbb8ab"/>
<circle cx="415.00" cy="145.00" r="3.40" fill="#fbb8ab"/>
<circle cx="425.00" cy="145.00" r="3.40" fill="#fbb8ab"/>
<circle cx="445.00" cy="145.00" r="3.40" fill="#fbb8ab"/>
<circle cx="455.00" cy="145.00" r="3.40" fill="#fbb8ab"/>
<circle cx="345.00" cy="155.00" r="3.40" fill="#fbb8ab"/>
<circle cx="355.00" cy="155.00" r="3.40" fill="#f9b8ab"/>
<circle cx="365.00" cy="155.00" r="3.40" fill="#b3bf98"/>
<circle cx="375.00" cy="155.00" r="3.40" fill="#efb9a8"/>
<circle cx="385.00" cy="155.00" r="3.40" fill="#fbb8ab"/>
<circle cx="395.00" cy="155.00" r="3.40" fill="#fbb8ab"/>
<circle cx="405.00" cy="155.00" r="3.40" fill="#fbb8ab"/>
<circle cx="415.00" cy="155.00" r="3.40" fill="#fbb8ab"/>
<circle cx="425.00" cy="155.00" r="3.40" fill="#fbb8ab"/>
<circle cx="445.00" cy="155.00" r="3.40" fill="#fbb8aa"/>
<circle cx="455.00" cy="155.00" r="3.40" fill="#fbb8ab"/>
<circle cx="345.00" cy="165.00" r="3.40" fill="#fbb8ab"/>
<circle cx="355.00" cy="165.00" r="3.40" fill="#acc097"/>
<circle cx="365.00" cy="165.00" r="3.40" fill="#00d26a"/>
<circle cx="375.00" cy="165.00" r="3.40" fill="#75c688"/>
<circle cx="385.00" cy="165.00" r="3.40" fill="#fbb8ab"/>
<circle cx="395.00" cy="165.00" r="3.40" fill="#fbb8ab"/>
<circle cx="405.00" cy="165.00" r="3.40" fill="#fbb8ab"/>
<circle cx="415.00" cy="165.00" r="3.40" fill="#fbb8ab"/>
<circle cx="425.00" cy="165.00" r="3.40" fill="#fbb8ab"/>
<circle cx="435.00" cy="165.00" r="3.40" fill="#fbb8ab"/>
<circle cx="445.00" cy="165.00" r="3.40" fill="#fbb8ab"/>
<circle cx="455.00" cy="165.00" r="3.40" fill="#fbb8ab"/>
<circle cx="345.00" cy="175.00" r="3.40" fill="#fbb8ab"/>
<circle cx="355.00" cy="175.00" r="3.40" fill="#e9baa6"/>
<circle cx="365.00" cy="175.00" r="3.40" fill="#6dc786"/>
<circle cx="375.00" cy="175.00" r="3.40" fill="#d0bca0"/>
<circle cx="385.00" cy="175.00" r="3.40" fill="#d7a7bb"/>
<circle cx="395.00" cy="175.00" r="3.40" fill="#d5a6bc"/>
<circle cx="405.00" cy="175.00" r="3.40" fill="#fbb8ab"/>
<circle cx="415.00" cy="175.00" r="3.40" fill="#fbb8ab"/>
<circle cx="425.00" cy="175.00" r="3.40" fill="#fbb8ab"/>
<circle cx="435.00" cy="175.00" r="3.40" fill="#fbb8ab"/>
<circle cx="445.00" cy="175.00" r="3.40" fill="#fbb8ab"/>
<circle cx="355.00" cy="185.00" r="3.40" fill="#fbb8ab"/>
<circle cx="365.00" cy="185.00" r="3.40" fill="#fbb8ab"/>
<circle cx="375.00" cy="185.00" r="3.40" fill="#fbb8ab"/>
<circle cx="385.00" cy="185.00" r="3.40" fill="#4f67f8"/>
<circle cx="395.00" cy="185.00" r="3.40" fill="#4a64fa"/>
<circle cx="405.00" cy="185.00" r="3.40" fill="#fbb8ab"/>
<circle cx="415.00" cy="185.00" r="3.40" fill="#fbb8ab"/>
<circle cx="365.00" cy="195.00" r="3.40" fill="#fbb8ab"/>
<circle cx="375.00" cy="195.00" r="3.40" fill="#fbb8ab"/>
<circle cx="385.00" cy="195.00" r="3.40" fill="#b697ca"/>
<circle cx="395.00" cy="195.00" r="3.40" fill="#b396cb"/>
<circle cx="405.00" cy="195.00" r="3.40" fill="#fbb8ab"/>
<circle cx="415.00" cy="195.00" r="3.40" fill="#fbb8ab"/>
<circle cx="375.00" cy="205.00" r="3.40" fill="#fbb8ab"/>
<circle cx="385.00" cy="205.00" r="3.40" fill="#fbb8ab"/>
<circle cx="395.00" cy="205.00" r="3.40" fill="#fbb8ab"/>
<circle cx="405.00" cy="205.00" r="3.40" fill="#fbb8ab"/>
<circle cx="415.00" cy="205.00" r="3.40" fill="#fbb8ab"/>
<defs>
  <pattern id="dotgrid" width="24" height="24" patternUnits="userSpaceOnUse">
    <circle cx="4" cy="4" r="0.85" fill="#58A6FF" opacity="0.22"/>
  </pattern>
</defs>
</svg>
