<svg width="800" height="280" viewBox="0 0 800 280" fill="none" xmlns="http://www.w3.org/2000/svg" role="img" aria-labelledby="title desc">
<title id="title">Daily pixel drop</title>
<desc id="desc">2026 / 06 / 28. COMMON drop Avocado.</desc>
<rect width="800" height="280" rx="8" fill="#0D1117"/>
<rect x="1" y="1" width="798" height="278" rx="7" stroke="#243246"/>
<rect x="18" y="18" width="764" height="244" rx="5" fill="url(#dotgrid)" opacity="0.58"/>
<path d="M52 46H32V66M748 46H768V66M52 234H32V214M748 234H768V214" stroke="#8b949e" stroke-width="1.5" stroke-linecap="square" opacity="0.76"/>
<rect x="304" y="56" width="192" height="188" rx="5" stroke="#8b949e" opacity="0.54"/>
<circle cx="425.00" cy="85.00" r="3.40" fill="#afb429"/>
<circle cx="435.00" cy="85.00" r="3.40" fill="#afb42a"/>
<circle cx="445.00" cy="85.00" r="3.40" fill="#adb22b"/>
<circle cx="405.00" cy="95.00" r="3.40" fill="#afb42a"/>
<circle cx="415.00" cy="95.00" r="3.40" fill="#c7c84d"/>
<circle cx="425.00" cy="95.00" r="3.40" fill="#e4df76"/>
<circle cx="435.00" cy="95.00" r="3.40" fill="#f7f092"/>
<circle cx="445.00" cy="95.00" r="3.40" fill="#efe886"/>
<circle cx="455.00" cy="95.00" r="3.40" fill="#b5b83a"/>
<circle cx="385.00" cy="105.00" r="3.40" fill="#b1b62e"/>
<circle cx="395.00" cy="105.00" r="3.40" fill="#cdcd55"/>
<circle cx="405.00" cy="105.00" r="3.40" fill="#ebe580"/>
<circle cx="415.00" cy="105.00" r="3.40" fill="#fff69d"/>
<circle cx="425.00" cy="105.00" r="3.40" fill="#fff69d"/>
<circle cx="435.00" cy="105.00" r="3.40" fill="#fff69d"/>
<circle cx="445.00" cy="105.00" r="3.40" fill="#fff69d"/>
<circle cx="455.00" cy="105.00" r="3.40" fill="#c9ca51"/>
<circle cx="465.00" cy="105.00" r="3.40" fill="#78813f"/>
<circle cx="365.00" cy="115.00" r="3.40" fill="#b3b730"/>
<circle cx="375.00" cy="115.00" r="3.40" fill="#d4d360"/>
<circle cx="385.00" cy="115.00" r="3.40" fill="#f6ef90"/>
<circle cx="395.00" cy="115.00" r="3.40" fill="#fff69d"/>
<circle cx="405.00" cy="115.00" r="3.40" fill="#fff69d"/>
<circle cx="415.00" cy="115.00" r="3.40" fill="#fff69d"/>
<circle cx="425.00" cy="115.00" r="3.40" fill="#fff69d"/>
<circle cx="435.00" cy="115.00" r="3.40" fill="#fff69d"/>
<circle cx="445.00" cy="115.00" r="3.40" fill="#fcf398"/>
<circle cx="455.00" cy="115.00" r="3.40" fill="#a8ad39"/>
<circle cx="465.00" cy="115.00" r="3.40" fill="#757e40"/>
<circle cx="355.00" cy="125.00" r="3.40" fill="#c1c344"/>
<circle cx="365.00" cy="125.00" r="3.40" fill="#f2eb8b"/>
<circle cx="375.00" cy="125.00" r="3.40" fill="#fff69d"/>
<circle cx="385.00" cy="125.00" r="3.40" fill="#f4e896"/>
<circle cx="395.00" cy="125.00" r="3.40" fill="#e7d78e"/>
<circle cx="405.00" cy="125.00" r="3.40" fill="#f9ef9a"/>
<circle cx="415.00" cy="125.00" r="3.40" fill="#fff69d"/>
<circle cx="425.00" cy="125.00" r="3.40" fill="#fff69d"/>
<circle cx="435.00" cy="125.00" r="3.40" fill="#fff69d"/>
<circle cx="445.00" cy="125.00" r="3.40" fill="#d9d767"/>
<circle cx="455.00" cy="125.00" r="3.40" fill="#899138"/>
<circle cx="345.00" cy="135.00" r="3.40" fill="#b6b93d"/>
<circle cx="355.00" cy="135.00" r="3.40" fill="#f9f195"/>
<circle cx="365.00" cy="135.00" r="3.40" fill="#faef9a"/>
<circle cx="375.00" cy="135.00" r="3.40" fill="#c4956c"/>
<circle cx="385.00" cy="135.00" r="3.40" fill="#aa6855"/>
<circle cx="395.00" cy="135.00" r="3.40" fill="#855c52"/>
<circle cx="405.00" cy="135.00" r="3.40" fill="#926c5a"/>
<circle cx="415.00" cy="135.00" r="3.40" fill="#fbf19a"/>
<circle cx="425.00" cy="135.00" r="3.40" fill="#fff69d"/>
<circle cx="435.00" cy="135.00" r="3.40" fill="#fef59b"/>
<circle cx="445.00" cy="135.00" r="3.40" fill="#aeb237"/>
<circle cx="455.00" cy="135.00" r="3.40" fill="#767f3f"/>
<circle cx="345.00" cy="145.00" r="3.40" fill="#d2d15e"/>
<circle cx="355.00" cy="145.00" r="3.40" fill="#fff69d"/>
<circle cx="365.00" cy="145.00" r="3.40" fill="#c9aa78"/>
<circle cx="375.00" cy="145.00" r="3.40" fill="#d47559"/>
<circle cx="385.00" cy="145.00" r="3.40" fill="#9e6454"/>
<circle cx="395.00" cy="145.00" r="3.40" fill="#855c52"/>
<circle cx="405.00" cy="145.00" r="3.40" fill="#855c52"/>
<circle cx="415.00" cy="145.00" r="3.40" fill="#ecde92"/>
<circle cx="425.00" cy="145.00" r="3.40" fill="#fff69d"/>
<circle cx="435.00" cy="145.00" r="3.40" fill="#ede783"/>
<circle cx="445.00" cy="145.00" r="3.40" fill="#929935"/>
<circle cx="455.00" cy="145.00" r="3.40" fill="#757e40"/>
<circle cx="335.00" cy="155.00" r="3.40" fill="#979e33"/>
<circle cx="345.00" cy="155.00" r="3.40" fill="#dcd96b"/>
<circle cx="355.00" cy="155.00" r="3.40" fill="#fff69d"/>
<circle cx="365.00" cy="155.00" r="3.40" fill="#b08b68"/>
<circle cx="375.00" cy="155.00" r="3.40" fill="#c27057"/>
<circle cx="385.00" cy="155.00" r="3.40" fill="#855c52"/>
<circle cx="395.00" cy="155.00" r="3.40" fill="#855c52"/>
<circle cx="405.00" cy="155.00" r="3.40" fill="#8b6456"/>
<circle cx="415.00" cy="155.00" r="3.40" fill="#fbf19b"/>
<circle cx="425.00" cy="155.00" r="3.40" fill="#fff69d"/>
<circle cx="435.00" cy="155.00" r="3.40" fill="#d4d25f"/>
<circle cx="445.00" cy="155.00" r="3.40" fill="#7f873c"/>
<circle cx="335.00" cy="165.00" r="3.40" fill="#81893b"/>
<circle cx="345.00" cy="165.00" r="3.40" fill="#d1d05b"/>
<circle cx="355.00" cy="165.00" r="3.40" fill="#fff69d"/>
<circle cx="365.00" cy="165.00" r="3.40" fill="#d0ba80"/>
<circle cx="375.00" cy="165.00" r="3.40" fill="#855c52"/>
<circle cx="385.00" cy="165.00" r="3.40" fill="#855c52"/>
<circle cx="395.00" cy="165.00" r="3.40" fill="#855c52"/>
<circle cx="405.00" cy="165.00" r="3.40" fill="#cab37c"/>
<circle cx="415.00" cy="165.00" r="3.40" fill="#fff69d"/>
<circle cx="425.00" cy="165.00" r="3.40" fill="#fbf397"/>
<circle cx="435.00" cy="165.00" r="3.40" fill="#a8ad38"/>
<circle cx="445.00" cy="165.00" r="3.40" fill="#757e40"/>
<circle cx="335.00" cy="175.00" r="3.40" fill="#757e40"/>
<circle cx="345.00" cy="175.00" r="3.40" fill="#a4a939"/>
<circle cx="355.00" cy="175.00" r="3.40" fill="#f9f194"/>
<circle cx="365.00" cy="175.00" r="3.40" fill="#fff69d"/>
<circle cx="375.00" cy="175.00" r="3.40" fill="#dfce89"/>
<circle cx="385.00" cy="175.00" r="3.40" fill="#c4ab79"/>
<circle cx="395.00" cy="175.00" r="3.40" fill="#dfce8a"/>
<circle cx="405.00" cy="175.00" r="3.40" fill="#fff69d"/>
<circle cx="415.00" cy="175.00" r="3.40" fill="#fff69d"/>
<circle cx="425.00" cy="175.00" r="3.40" fill="#d2d05d"/>
<circle cx="435.00" cy="175.00" r="3.40" fill="#838b3b"/>
<circle cx="445.00" cy="175.00" r="3.40" fill="#757e40"/>
<circle cx="345.00" cy="185.00" r="3.40" fill="#7e873c"/>
<circle cx="355.00" cy="185.00" r="3.40" fill="#bdbf46"/>
<circle cx="365.00" cy="185.00" r="3.40" fill="#f7ef91"/>
<circle cx="375.00" cy="185.00" r="3.40" fill="#fff69d"/>
<circle cx="385.00" cy="185.00" r="3.40" fill="#fff69d"/>
<circle cx="395.00" cy="185.00" r="3.40" fill="#fff69d"/>
<circle cx="405.00" cy="185.00" r="3.40" fill="#fcf398"/>
<circle cx="415.00" cy="185.00" r="3.40" fill="#d5d361"/>
<circle cx="425.00" cy="185.00" r="3.40" fill="#8e9537"/>
<circle cx="435.00" cy="185.00" r="3.40" fill="#757e40"/>
<circle cx="345.00" cy="195.00" r="3.40" fill="#757e40"/>
<circle cx="355.00" cy="195.00" r="3.40" fill="#7d863d"/>
<circle cx="365.00" cy="195.00" r="3.40" fill="#9ea434"/>
<circle cx="375.00" cy="195.00" r="3.40" fill="#c1c347"/>
<circle cx="385.00" cy="195.00" r="3.40" fill="#cbcb52"/>
<circle cx="395.00" cy="195.00" r="3.40" fill="#c4c649"/>
<circle cx="405.00" cy="195.00" r="3.40" fill="#a6ab35"/>
<circle cx="415.00" cy="195.00" r="3.40" fill="#848c3a"/>
<circle cx="425.00" cy="195.00" r="3.40" fill="#757e40"/>
<circle cx="435.00" cy="195.00" r="3.40" fill="#757e40"/>
<circle cx="355.00" cy="205.00" r="3.40" fill="#757e40"/>
<circle cx="365.00" cy="205.00" r="3.40" fill="#757e40"/>
<circle cx="375.00" cy="205.00" r="3.40" fill="#777f3f"/>
<circle cx="385.00" cy="205.00" r="3.40" fill="#7c843d"/>
<circle cx="395.00" cy="205.00" r="3.40" fill="#78813f"/>
<circle cx="405.00" cy="205.00" r="3.40" fill="#757e40"/>
<circle cx="415.00" cy="205.00" r="3.40" fill="#757e40"/>
<circle cx="425.00" cy="205.00" r="3.40" fill="#757e40"/>
<circle cx="375.00" cy="215.00" r="3.40" fill="#757e40"/>
<circle cx="385.00" cy="215.00" r="3.40" fill="#757e40"/>
<circle cx="395.00" cy="215.00" r="3.40" fill="#757e40"/>
<circle cx="405.00" cy="215.00" r="3.40" fill="#757e40"/>
<defs>
  <pattern id="dotgrid" width="24" height="24" patternUnits="userSpaceOnUse">
    <circle cx="4" cy="4" r="0.85" fill="#58A6FF" opacity="0.22"/>
  </pattern>
</defs>
</svg>
