<svg width="800" height="280" viewBox="0 0 800 280" fill="none" xmlns="http://www.w3.org/2000/svg" role="img" aria-labelledby="title desc">
<title id="title">Daily pixel drop</title>
<desc id="desc">2026 / 07 / 09. RARE drop Sunrise.</desc>
<rect width="800" height="280" rx="8" fill="#0D1117"/>
<rect x="1" y="1" width="798" height="278" rx="7" stroke="#243246"/>
<rect x="18" y="18" width="764" height="244" rx="5" fill="url(#dotgrid)" opacity="0.58"/>
<path d="M52 46H32V66M748 46H768V66M52 234H32V214M748 234H768V214" stroke="#58a6ff" stroke-width="1.5" stroke-linecap="square" opacity="0.76"/>
<rect x="304" y="56" width="192" height="188" rx="5" stroke="#58a6ff" opacity="0.54"/>
<circle cx="345.00" cy="95.00" r="3.40" fill="#ff5e59"/>
<circle cx="355.00" cy="95.00" r="3.40" fill="#ff5e59"/>
<circle cx="365.00" cy="95.00" r="3.40" fill="#ff5e59"/>
<circle cx="375.00" cy="95.00" r="3.40" fill="#ff5e59"/>
<circle cx="385.00" cy="95.00" r="3.40" fill="#ff5e59"/>
<circle cx="395.00" cy="95.00" r="3.40" fill="#ff5e59"/>
<circle cx="405.00" cy="95.00" r="3.40" fill="#ff5e59"/>
<circle cx="415.00" cy="95.00" r="3.40" fill="#ff5e59"/>
<circle cx="425.00" cy="95.00" r="3.40" fill="#ff5e59"/>
<circle cx="435.00" cy="95.00" r="3.40" fill="#ff5e59"/>
<circle cx="445.00" cy="95.00" r="3.40" fill="#ff5e59"/>
<circle cx="455.00" cy="95.00" r="3.40" fill="#ff5e59"/>
<circle cx="345.00" cy="105.00" r="3.40" fill="#ff5e59"/>
<circle cx="355.00" cy="105.00" r="3.40" fill="#ff5e59"/>
<circle cx="365.00" cy="105.00" r="3.40" fill="#ff5e59"/>
<circle cx="375.00" cy="105.00" r="3.40" fill="#ff5e59"/>
<circle cx="385.00" cy="105.00" r="3.40" fill="#ff5e59"/>
<circle cx="395.00" cy="105.00" r="3.40" fill="#ff6f4e"/>
<circle cx="405.00" cy="105.00" r="3.40" fill="#ff6f4e"/>
<circle cx="415.00" cy="105.00" r="3.40" fill="#ff5e59"/>
<circle cx="425.00" cy="105.00" r="3.40" fill="#ff5e59"/>
<circle cx="435.00" cy="105.00" r="3.40" fill="#ff5e59"/>
<circle cx="445.00" cy="105.00" r="3.40" fill="#ff5e59"/>
<circle cx="455.00" cy="105.00" r="3.40" fill="#ff5e59"/>
<circle cx="335.00" cy="115.00" r="3.40" fill="#ff5d59"/>
<circle cx="345.00" cy="115.00" r="3.40" fill="#ff5e59"/>
<circle cx="355.00" cy="115.00" r="3.40" fill="#ff5e59"/>
<circle cx="365.00" cy="115.00" r="3.40" fill="#ff5e59"/>
<circle cx="375.00" cy="115.00" r="3.40" fill="#ff8142"/>
<circle cx="385.00" cy="115.00" r="3.40" fill="#ff983a"/>
<circle cx="395.00" cy="115.00" r="3.40" fill="#feb636"/>
<circle cx="405.00" cy="115.00" r="3.40" fill="#feb636"/>
<circle cx="415.00" cy="115.00" r="3.40" fill="#ff983a"/>
<circle cx="425.00" cy="115.00" r="3.40" fill="#ff8142"/>
<circle cx="435.00" cy="115.00" r="3.40" fill="#ff5e59"/>
<circle cx="445.00" cy="115.00" r="3.40" fill="#ff5e59"/>
<circle cx="455.00" cy="115.00" r="3.40" fill="#ff5e59"/>
<circle cx="465.00" cy="115.00" r="3.40" fill="#ff5d59"/>
<circle cx="335.00" cy="125.00" r="3.40" fill="#ff5d59"/>
<circle cx="345.00" cy="125.00" r="3.40" fill="#ff5e59"/>
<circle cx="355.00" cy="125.00" r="3.40" fill="#ff5e59"/>
<circle cx="365.00" cy="125.00" r="3.40" fill="#ff6654"/>
<circle cx="375.00" cy="125.00" r="3.40" fill="#feae36"/>
<circle cx="385.00" cy="125.00" r="3.40" fill="#fcd43f"/>
<circle cx="395.00" cy="125.00" r="3.40" fill="#fcd53f"/>
<circle cx="405.00" cy="125.00" r="3.40" fill="#fcd53f"/>
<circle cx="415.00" cy="125.00" r="3.40" fill="#fcd43f"/>
<circle cx="425.00" cy="125.00" r="3.40" fill="#feae36"/>
<circle cx="435.00" cy="125.00" r="3.40" fill="#ff6654"/>
<circle cx="445.00" cy="125.00" r="3.40" fill="#ff5e59"/>
<circle cx="455.00" cy="125.00" r="3.40" fill="#ff5e59"/>
<circle cx="465.00" cy="125.00" r="3.40" fill="#ff5d59"/>
<circle cx="335.00" cy="135.00" r="3.40" fill="#ff5d59"/>
<circle cx="345.00" cy="135.00" r="3.40" fill="#ff5e59"/>
<circle cx="355.00" cy="135.00" r="3.40" fill="#ff6057"/>
<circle cx="365.00" cy="135.00" r="3.40" fill="#ff9e31"/>
<circle cx="375.00" cy="135.00" r="3.40" fill="#fcd23e"/>
<circle cx="385.00" cy="135.00" r="3.40" fill="#fcd53f"/>
<circle cx="395.00" cy="135.00" r="3.40" fill="#fcd53f"/>
<circle cx="405.00" cy="135.00" r="3.40" fill="#fcd53f"/>
<circle cx="415.00" cy="135.00" r="3.40" fill="#fcd53f"/>
<circle cx="425.00" cy="135.00" r="3.40" fill="#fcd23e"/>
<circle cx="435.00" cy="135.00" r="3.40" fill="#ff9e31"/>
<circle cx="445.00" cy="135.00" r="3.40" fill="#ff6157"/>
<circle cx="455.00" cy="135.00" r="3.40" fill="#ff5e59"/>
<circle cx="465.00" cy="135.00" r="3.40" fill="#ff5d59"/>
<circle cx="335.00" cy="145.00" r="3.40" fill="#ff5d59"/>
<circle cx="345.00" cy="145.00" r="3.40" fill="#ff5e59"/>
<circle cx="355.00" cy="145.00" r="3.40" fill="#ff5e59"/>
<circle cx="365.00" cy="145.00" r="3.40" fill="#fea239"/>
<circle cx="375.00" cy="145.00" r="3.40" fill="#fcd53f"/>
<circle cx="385.00" cy="145.00" r="3.40" fill="#fcd53f"/>
<circle cx="395.00" cy="145.00" r="3.40" fill="#fcd53f"/>
<circle cx="405.00" cy="145.00" r="3.40" fill="#fcd53f"/>
<circle cx="415.00" cy="145.00" r="3.40" fill="#fcd53f"/>
<circle cx="425.00" cy="145.00" r="3.40" fill="#fcd53f"/>
<circle cx="435.00" cy="145.00" r="3.40" fill="#fea239"/>
<circle cx="445.00" cy="145.00" r="3.40" fill="#ff5e59"/>
<circle cx="455.00" cy="145.00" r="3.40" fill="#ff5e59"/>
<circle cx="465.00" cy="145.00" r="3.40" fill="#ff5d59"/>
<circle cx="335.00" cy="155.00" r="3.40" fill="#ff5d59"/>
<circle cx="345.00" cy="155.00" r="3.40" fill="#ff5e59"/>
<circle cx="355.00" cy="155.00" r="3.40" fill="#ff6058"/>
<circle cx="365.00" cy="155.00" r="3.40" fill="#fea533"/>
<circle cx="375.00" cy="155.00" r="3.40" fill="#fcd53f"/>
<circle cx="385.00" cy="155.00" r="3.40" fill="#fcd53f"/>
<circle cx="395.00" cy="155.00" r="3.40" fill="#fcd53f"/>
<circle cx="405.00" cy="155.00" r="3.40" fill="#fcd53f"/>
<circle cx="415.00" cy="155.00" r="3.40" fill="#fcd53f"/>
<circle cx="425.00" cy="155.00" r="3.40" fill="#fcd53f"/>
<circle cx="435.00" cy="155.00" r="3.40" fill="#fea533"/>
<circle cx="445.00" cy="155.00" r="3.40" fill="#ff6058"/>
<circle cx="455.00" cy="155.00" r="3.40" fill="#ff5e59"/>
<circle cx="465.00" cy="155.00" r="3.40" fill="#ff5d59"/>
<circle cx="335.00" cy="165.00" r="3.40" fill="#f36263"/>
<circle cx="345.00" cy="165.00" r="3.40" fill="#d86d7b"/>
<circle cx="355.00" cy="165.00" r="3.40" fill="#fc605b"/>
<circle cx="365.00" cy="165.00" r="3.40" fill="#f08c4b"/>
<circle cx="375.00" cy="165.00" r="3.40" fill="#ddc65d"/>
<circle cx="385.00" cy="165.00" r="3.40" fill="#fcd53f"/>
<circle cx="395.00" cy="165.00" r="3.40" fill="#e7cf55"/>
<circle cx="405.00" cy="165.00" r="3.40" fill="#e7cf55"/>
<circle cx="415.00" cy="165.00" r="3.40" fill="#fcd53f"/>
<circle cx="425.00" cy="165.00" r="3.40" fill="#ddc65d"/>
<circle cx="435.00" cy="165.00" r="3.40" fill="#f08c4b"/>
<circle cx="445.00" cy="165.00" r="3.40" fill="#fc605b"/>
<circle cx="455.00" cy="165.00" r="3.40" fill="#d86d7b"/>
<circle cx="465.00" cy="165.00" r="3.40" fill="#f36263"/>
<circle cx="335.00" cy="175.00" r="3.40" fill="#6497e0"/>
<circle cx="345.00" cy="175.00" r="3.40" fill="#46a4fb"/>
<circle cx="355.00" cy="175.00" r="3.40" fill="#599dea"/>
<circle cx="365.00" cy="175.00" r="3.40" fill="#4fa1f3"/>
<circle cx="375.00" cy="175.00" r="3.40" fill="#46a4fb"/>
<circle cx="385.00" cy="175.00" r="3.40" fill="#5fabe1"/>
<circle cx="395.00" cy="175.00" r="3.40" fill="#4aa5f7"/>
<circle cx="405.00" cy="175.00" r="3.40" fill="#4aa5f7"/>
<circle cx="415.00" cy="175.00" r="3.40" fill="#5fabe1"/>
<circle cx="425.00" cy="175.00" r="3.40" fill="#46a4fb"/>
<circle cx="435.00" cy="175.00" r="3.40" fill="#4fa1f3"/>
<circle cx="445.00" cy="175.00" r="3.40" fill="#599dea"/>
<circle cx="455.00" cy="175.00" r="3.40" fill="#46a4fb"/>
<circle cx="465.00" cy="175.00" r="3.40" fill="#6497e0"/>
<circle cx="335.00" cy="185.00" r="3.40" fill="#45a3fb"/>
<circle cx="345.00" cy="185.00" r="3.40" fill="#46a4fb"/>
<circle cx="355.00" cy="185.00" r="3.40" fill="#46a4fb"/>
<circle cx="365.00" cy="185.00" r="3.40" fill="#69b5fc"/>
<circle cx="375.00" cy="185.00" r="3.40" fill="#96ccfd"/>
<circle cx="385.00" cy="185.00" r="3.40" fill="#96ccfd"/>
<circle cx="395.00" cy="185.00" r="3.40" fill="#96ccfd"/>
<circle cx="405.00" cy="185.00" r="3.40" fill="#96ccfd"/>
<circle cx="415.00" cy="185.00" r="3.40" fill="#96ccfd"/>
<circle cx="425.00" cy="185.00" r="3.40" fill="#96ccfd"/>
<circle cx="435.00" cy="185.00" r="3.40" fill="#69b5fc"/>
<circle cx="445.00" cy="185.00" r="3.40" fill="#46a4fb"/>
<circle cx="455.00" cy="185.00" r="3.40" fill="#46a4fb"/>
<circle cx="465.00" cy="185.00" r="3.40" fill="#45a3fb"/>
<circle cx="345.00" cy="195.00" r="3.40" fill="#46a4fb"/>
<circle cx="355.00" cy="195.00" r="3.40" fill="#46a4fb"/>
<circle cx="365.00" cy="195.00" r="3.40" fill="#46a4fb"/>
<circle cx="375.00" cy="195.00" r="3.40" fill="#46a4fb"/>
<circle cx="385.00" cy="195.00" r="3.40" fill="#7dbffc"/>
<circle cx="395.00" cy="195.00" r="3.40" fill="#96cbfd"/>
<circle cx="405.00" cy="195.00" r="3.40" fill="#96cbfd"/>
<circle cx="415.00" cy="195.00" r="3.40" fill="#7dbffc"/>
<circle cx="425.00" cy="195.00" r="3.40" fill="#46a4fb"/>
<circle cx="435.00" cy="195.00" r="3.40" fill="#46a4fb"/>
<circle cx="445.00" cy="195.00" r="3.40" fill="#46a4fb"/>
<circle cx="455.00" cy="195.00" r="3.40" fill="#46a4fb"/>
<circle cx="345.00" cy="205.00" r="3.40" fill="#46a4fb"/>
<circle cx="355.00" cy="205.00" r="3.40" fill="#46a4fb"/>
<circle cx="365.00" cy="205.00" r="3.40" fill="#46a4fb"/>
<circle cx="375.00" cy="205.00" r="3.40" fill="#46a4fb"/>
<circle cx="385.00" cy="205.00" r="3.40" fill="#46a4fb"/>
<circle cx="395.00" cy="205.00" r="3.40" fill="#46a4fb"/>
<circle cx="405.00" cy="205.00" r="3.40" fill="#46a4fb"/>
<circle cx="415.00" cy="205.00" r="3.40" fill="#46a4fb"/>
<circle cx="425.00" cy="205.00" r="3.40" fill="#46a4fb"/>
<circle cx="435.00" cy="205.00" r="3.40" fill="#46a4fb"/>
<circle cx="445.00" cy="205.00" r="3.40" fill="#46a4fb"/>
<circle cx="455.00" cy="205.00" r="3.40" fill="#46a4fb"/>
<circle cx="365.00" cy="215.00" r="3.40" fill="#45a3fb"/>
<circle cx="375.00" cy="215.00" r="3.40" fill="#45a3fb"/>
<circle cx="385.00" cy="215.00" r="3.40" fill="#45a3fb"/>
<circle cx="395.00" cy="215.00" r="3.40" fill="#45a3fb"/>
<circle cx="405.00" cy="215.00" r="3.40" fill="#45a3fb"/>
<circle cx="415.00" cy="215.00" r="3.40" fill="#45a3fb"/>
<circle cx="425.00" cy="215.00" r="3.40" fill="#45a3fb"/>
<circle cx="435.00" cy="215.00" r="3.40" fill="#45a3fb"/>
<defs>
  <pattern id="dotgrid" width="24" height="24" patternUnits="userSpaceOnUse">
    <circle cx="4" cy="4" r="0.85" fill="#58A6FF" opacity="0.22"/>
  </pattern>
</defs>
</svg>
