<svg width="800" height="280" viewBox="0 0 800 280" fill="none" xmlns="http://www.w3.org/2000/svg" role="img" aria-labelledby="title desc">
<title id="title">Daily pixel drop</title>
<desc id="desc">2026 / 05 / 22. RARE drop Red Apple.</desc>
<rect width="800" height="280" rx="8" fill="#0D1117"/>
<rect x="1" y="1" width="798" height="278" rx="7" stroke="#243246"/>
<rect x="18" y="18" width="764" height="244" rx="5" fill="url(#dotgrid)" opacity="0.58"/>
<path d="M52 46H32V66M748 46H768V66M52 234H32V214M748 234H768V214" stroke="#58a6ff" stroke-width="1.5" stroke-linecap="square" opacity="0.76"/>
<rect x="304" y="56" width="192" height="188" rx="5" stroke="#58a6ff" opacity="0.54"/>
<circle cx="415.00" cy="85.00" r="3.40" fill="#2e7b31"/>
<circle cx="425.00" cy="85.00" r="3.40" fill="#2f7c31"/>
<circle cx="435.00" cy="85.00" r="3.40" fill="#337e2f"/>
<circle cx="445.00" cy="85.00" r="3.40" fill="#579122"/>
<circle cx="385.00" cy="95.00" r="3.40" fill="#513630"/>
<circle cx="395.00" cy="95.00" r="3.40" fill="#513630"/>
<circle cx="405.00" cy="95.00" r="3.40" fill="#2f7c31"/>
<circle cx="415.00" cy="95.00" r="3.40" fill="#2f7c31"/>
<circle cx="425.00" cy="95.00" r="3.40" fill="#448729"/>
<circle cx="435.00" cy="95.00" r="3.40" fill="#689b1c"/>
<circle cx="445.00" cy="95.00" r="3.40" fill="#709e18"/>
<circle cx="395.00" cy="105.00" r="3.40" fill="#503730"/>
<circle cx="405.00" cy="105.00" r="3.40" fill="#357f2e"/>
<circle cx="415.00" cy="105.00" r="3.40" fill="#5b9421"/>
<circle cx="425.00" cy="105.00" r="3.40" fill="#76971a"/>
<circle cx="435.00" cy="105.00" r="3.40" fill="#82861b"/>
<circle cx="355.00" cy="115.00" r="3.40" fill="#ff5117"/>
<circle cx="365.00" cy="115.00" r="3.40" fill="#ff5117"/>
<circle cx="375.00" cy="115.00" r="3.40" fill="#fb4d17"/>
<circle cx="385.00" cy="115.00" r="3.40" fill="#e7391a"/>
<circle cx="395.00" cy="115.00" r="3.40" fill="#913c28"/>
<circle cx="405.00" cy="115.00" r="3.40" fill="#8b641e"/>
<circle cx="415.00" cy="115.00" r="3.40" fill="#965318"/>
<circle cx="425.00" cy="115.00" r="3.40" fill="#d71c26"/>
<circle cx="435.00" cy="115.00" r="3.40" fill="#e51e24"/>
<circle cx="445.00" cy="115.00" r="3.40" fill="#e11726"/>
<circle cx="345.00" cy="125.00" r="3.40" fill="#ff5117"/>
<circle cx="355.00" cy="125.00" r="3.40" fill="#ff6e3a"/>
<circle cx="365.00" cy="125.00" r="3.40" fill="#ffb892"/>
<circle cx="375.00" cy="125.00" r="3.40" fill="#fa5d28"/>
<circle cx="385.00" cy="125.00" r="3.40" fill="#ba320f"/>
<circle cx="395.00" cy="125.00" r="3.40" fill="#972d15"/>
<circle cx="405.00" cy="125.00" r="3.40" fill="#af2d0f"/>
<circle cx="415.00" cy="125.00" r="3.40" fill="#e54514"/>
<circle cx="425.00" cy="125.00" r="3.40" fill="#ff5117"/>
<circle cx="435.00" cy="125.00" r="3.40" fill="#ff5117"/>
<circle cx="445.00" cy="125.00" r="3.40" fill="#f6401b"/>
<circle cx="455.00" cy="125.00" r="3.40" fill="#dc0d28"/>
<circle cx="345.00" cy="135.00" r="3.40" fill="#ff5319"/>
<circle cx="355.00" cy="135.00" r="3.40" fill="#ffc19c"/>
<circle cx="365.00" cy="135.00" r="3.40" fill="#ffa075"/>
<circle cx="375.00" cy="135.00" r="3.40" fill="#ff5218"/>
<circle cx="385.00" cy="135.00" r="3.40" fill="#ff5117"/>
<circle cx="395.00" cy="135.00" r="3.40" fill="#ff5117"/>
<circle cx="405.00" cy="135.00" r="3.40" fill="#ff5117"/>
<circle cx="415.00" cy="135.00" r="3.40" fill="#ff5117"/>
<circle cx="425.00" cy="135.00" r="3.40" fill="#ff5117"/>
<circle cx="435.00" cy="135.00" r="3.40" fill="#ff5117"/>
<circle cx="445.00" cy="135.00" r="3.40" fill="#ff5117"/>
<circle cx="455.00" cy="135.00" r="3.40" fill="#e11726"/>
<circle cx="345.00" cy="145.00" r="3.40" fill="#ff6630"/>
<circle cx="355.00" cy="145.00" r="3.40" fill="#ffbe99"/>
<circle cx="365.00" cy="145.00" r="3.40" fill="#ff531a"/>
<circle cx="375.00" cy="145.00" r="3.40" fill="#ff5117"/>
<circle cx="385.00" cy="145.00" r="3.40" fill="#ff5117"/>
<circle cx="395.00" cy="145.00" r="3.40" fill="#ff5117"/>
<circle cx="405.00" cy="145.00" r="3.40" fill="#ff5117"/>
<circle cx="415.00" cy="145.00" r="3.40" fill="#ff5117"/>
<circle cx="425.00" cy="145.00" r="3.40" fill="#ff5117"/>
<circle cx="435.00" cy="145.00" r="3.40" fill="#ff5117"/>
<circle cx="445.00" cy="145.00" r="3.40" fill="#ff5117"/>
<circle cx="455.00" cy="145.00" r="3.40" fill="#e62023"/>
<circle cx="465.00" cy="145.00" r="3.40" fill="#db0c27"/>
<circle cx="335.00" cy="155.00" r="3.40" fill="#ff5117"/>
<circle cx="345.00" cy="155.00" r="3.40" fill="#ff581f"/>
<circle cx="355.00" cy="155.00" r="3.40" fill="#ff7b4a"/>
<circle cx="365.00" cy="155.00" r="3.40" fill="#ff5117"/>
<circle cx="375.00" cy="155.00" r="3.40" fill="#ff5117"/>
<circle cx="385.00" cy="155.00" r="3.40" fill="#ff5117"/>
<circle cx="395.00" cy="155.00" r="3.40" fill="#ff5117"/>
<circle cx="405.00" cy="155.00" r="3.40" fill="#ff5117"/>
<circle cx="415.00" cy="155.00" r="3.40" fill="#ff5117"/>
<circle cx="425.00" cy="155.00" r="3.40" fill="#ff5117"/>
<circle cx="435.00" cy="155.00" r="3.40" fill="#ff5117"/>
<circle cx="445.00" cy="155.00" r="3.40" fill="#ff5117"/>
<circle cx="455.00" cy="155.00" r="3.40" fill="#e41c24"/>
<circle cx="465.00" cy="155.00" r="3.40" fill="#dc0d28"/>
<circle cx="345.00" cy="165.00" r="3.40" fill="#ff5117"/>
<circle cx="355.00" cy="165.00" r="3.40" fill="#ff5117"/>
<circle cx="365.00" cy="165.00" r="3.40" fill="#ff5117"/>
<circle cx="375.00" cy="165.00" r="3.40" fill="#ff5117"/>
<circle cx="385.00" cy="165.00" r="3.40" fill="#ff5117"/>
<circle cx="395.00" cy="165.00" r="3.40" fill="#ff5117"/>
<circle cx="405.00" cy="165.00" r="3.40" fill="#ff5117"/>
<circle cx="415.00" cy="165.00" r="3.40" fill="#ff5117"/>
<circle cx="425.00" cy="165.00" r="3.40" fill="#ff5117"/>
<circle cx="435.00" cy="165.00" r="3.40" fill="#ff5117"/>
<circle cx="445.00" cy="165.00" r="3.40" fill="#fc4b19"/>
<circle cx="455.00" cy="165.00" r="3.40" fill="#dd0f28"/>
<circle cx="345.00" cy="175.00" r="3.40" fill="#ff5117"/>
<circle cx="355.00" cy="175.00" r="3.40" fill="#ff5117"/>
<circle cx="365.00" cy="175.00" r="3.40" fill="#ff5117"/>
<circle cx="375.00" cy="175.00" r="3.40" fill="#ff5117"/>
<circle cx="385.00" cy="175.00" r="3.40" fill="#ff5117"/>
<circle cx="395.00" cy="175.00" r="3.40" fill="#ff5117"/>
<circle cx="405.00" cy="175.00" r="3.40" fill="#ff5117"/>
<circle cx="415.00" cy="175.00" r="3.40" fill="#ff5117"/>
<circle cx="425.00" cy="175.00" r="3.40" fill="#ff5117"/>
<circle cx="435.00" cy="175.00" r="3.40" fill="#ff5117"/>
<circle cx="445.00" cy="175.00" r="3.40" fill="#ea2721"/>
<circle cx="455.00" cy="175.00" r="3.40" fill="#dc0d28"/>
<circle cx="345.00" cy="185.00" r="3.40" fill="#ff5117"/>
<circle cx="355.00" cy="185.00" r="3.40" fill="#ff5117"/>
<circle cx="365.00" cy="185.00" r="3.40" fill="#ff5117"/>
<circle cx="375.00" cy="185.00" r="3.40" fill="#ff5117"/>
<circle cx="385.00" cy="185.00" r="3.40" fill="#ff5117"/>
<circle cx="395.00" cy="185.00" r="3.40" fill="#ff5117"/>
<circle cx="405.00" cy="185.00" r="3.40" fill="#ff5117"/>
<circle cx="415.00" cy="185.00" r="3.40" fill="#ff5117"/>
<circle cx="425.00" cy="185.00" r="3.40" fill="#ff5117"/>
<circle cx="435.00" cy="185.00" r="3.40" fill="#ef311f"/>
<circle cx="445.00" cy="185.00" r="3.40" fill="#dc0d28"/>
<circle cx="455.00" cy="185.00" r="3.40" fill="#dc0d28"/>
<circle cx="355.00" cy="195.00" r="3.40" fill="#ff5117"/>
<circle cx="365.00" cy="195.00" r="3.40" fill="#ff5117"/>
<circle cx="375.00" cy="195.00" r="3.40" fill="#ff5117"/>
<circle cx="385.00" cy="195.00" r="3.40" fill="#ff5117"/>
<circle cx="395.00" cy="195.00" r="3.40" fill="#ff5117"/>
<circle cx="405.00" cy="195.00" r="3.40" fill="#ff5117"/>
<circle cx="415.00" cy="195.00" r="3.40" fill="#fc4b18"/>
<circle cx="425.00" cy="195.00" r="3.40" fill="#e92522"/>
<circle cx="435.00" cy="195.00" r="3.40" fill="#dc0d28"/>
<circle cx="445.00" cy="195.00" r="3.40" fill="#dc0d28"/>
<circle cx="355.00" cy="205.00" r="3.40" fill="#ff5117"/>
<circle cx="365.00" cy="205.00" r="3.40" fill="#fe5017"/>
<circle cx="375.00" cy="205.00" r="3.40" fill="#ff5117"/>
<circle cx="385.00" cy="205.00" r="3.40" fill="#fd4c18"/>
<circle cx="395.00" cy="205.00" r="3.40" fill="#f53e1c"/>
<circle cx="405.00" cy="205.00" r="3.40" fill="#ea2821"/>
<circle cx="415.00" cy="205.00" r="3.40" fill="#de1027"/>
<circle cx="425.00" cy="205.00" r="3.40" fill="#dc0d28"/>
<circle cx="435.00" cy="205.00" r="3.40" fill="#dc0d28"/>
<circle cx="375.00" cy="215.00" r="3.40" fill="#e41d24"/>
<circle cx="385.00" cy="215.00" r="3.40" fill="#dc0d28"/>
<circle cx="395.00" cy="215.00" r="3.40" fill="#dc0d28"/>
<circle cx="405.00" cy="215.00" r="3.40" fill="#dc0d28"/>
<circle cx="415.00" cy="215.00" r="3.40" fill="#dc0d28"/>
<circle cx="425.00" cy="215.00" r="3.40" fill="#db0c28"/>
<defs>
  <pattern id="dotgrid" width="24" height="24" patternUnits="userSpaceOnUse">
    <circle cx="4" cy="4" r="0.85" fill="#58A6FF" opacity="0.22"/>
  </pattern>
</defs>
</svg>
