<svg width="800" height="280" viewBox="0 0 800 280" fill="none" xmlns="http://www.w3.org/2000/svg" role="img" aria-labelledby="title desc">
<title id="title">Daily pixel drop</title>
<desc id="desc">2026 / 05 / 30. COMMON drop Potted Plant.</desc>
<rect width="800" height="280" rx="8" fill="#0D1117"/>
<rect x="1" y="1" width="798" height="278" rx="7" stroke="#243246"/>
<rect x="18" y="18" width="764" height="244" rx="5" fill="url(#dotgrid)" opacity="0.58"/>
<path d="M52 46H32V66M748 46H768V66M52 234H32V214M748 234H768V214" stroke="#8b949e" stroke-width="1.5" stroke-linecap="square" opacity="0.76"/>
<rect x="304" y="56" width="192" height="188" rx="5" stroke="#8b949e" opacity="0.54"/>
<circle cx="405.00" cy="85.00" r="3.40" fill="#2d7d32"/>
<circle cx="395.00" cy="95.00" r="3.40" fill="#2e7d32"/>
<circle cx="405.00" cy="95.00" r="3.40" fill="#2e7d32"/>
<circle cx="445.00" cy="95.00" r="3.40" fill="#72b03e"/>
<circle cx="455.00" cy="95.00" r="3.40" fill="#73af3e"/>
<circle cx="355.00" cy="105.00" r="3.40" fill="#72b03d"/>
<circle cx="365.00" cy="105.00" r="3.40" fill="#73b03d"/>
<circle cx="395.00" cy="105.00" r="3.40" fill="#2e7c32"/>
<circle cx="405.00" cy="105.00" r="3.40" fill="#2e7d32"/>
<circle cx="415.00" cy="105.00" r="3.40" fill="#348233"/>
<circle cx="425.00" cy="105.00" r="3.40" fill="#73af3e"/>
<circle cx="435.00" cy="105.00" r="3.40" fill="#73b03e"/>
<circle cx="445.00" cy="105.00" r="3.40" fill="#73b03e"/>
<circle cx="355.00" cy="115.00" r="3.40" fill="#73b03e"/>
<circle cx="365.00" cy="115.00" r="3.40" fill="#73b03e"/>
<circle cx="375.00" cy="115.00" r="3.40" fill="#73b03e"/>
<circle cx="385.00" cy="115.00" r="3.40" fill="#5b9d39"/>
<circle cx="395.00" cy="115.00" r="3.40" fill="#2b772f"/>
<circle cx="405.00" cy="115.00" r="3.40" fill="#398232"/>
<circle cx="415.00" cy="115.00" r="3.40" fill="#63a33a"/>
<circle cx="425.00" cy="115.00" r="3.40" fill="#73b03e"/>
<circle cx="435.00" cy="115.00" r="3.40" fill="#73b03e"/>
<circle cx="365.00" cy="125.00" r="3.40" fill="#73b03e"/>
<circle cx="375.00" cy="125.00" r="3.40" fill="#73b03e"/>
<circle cx="385.00" cy="125.00" r="3.40" fill="#68a63a"/>
<circle cx="395.00" cy="125.00" r="3.40" fill="#4d8e32"/>
<circle cx="405.00" cy="125.00" r="3.40" fill="#529334"/>
<circle cx="415.00" cy="125.00" r="3.40" fill="#68a73b"/>
<circle cx="425.00" cy="125.00" r="3.40" fill="#6ead3d"/>
<circle cx="435.00" cy="125.00" r="3.40" fill="#489036"/>
<circle cx="445.00" cy="125.00" r="3.40" fill="#2d7d32"/>
<circle cx="455.00" cy="125.00" r="3.40" fill="#2e7d32"/>
<circle cx="465.00" cy="125.00" r="3.40" fill="#2e7c32"/>
<circle cx="345.00" cy="135.00" r="3.40" fill="#2e7c31"/>
<circle cx="355.00" cy="135.00" r="3.40" fill="#2e7c32"/>
<circle cx="365.00" cy="135.00" r="3.40" fill="#328033"/>
<circle cx="375.00" cy="135.00" r="3.40" fill="#5ea13a"/>
<circle cx="385.00" cy="135.00" r="3.40" fill="#68a73b"/>
<circle cx="395.00" cy="135.00" r="3.40" fill="#4a8d33"/>
<circle cx="405.00" cy="135.00" r="3.40" fill="#579735"/>
<circle cx="415.00" cy="135.00" r="3.40" fill="#66a43a"/>
<circle cx="425.00" cy="135.00" r="3.40" fill="#5b9d39"/>
<circle cx="435.00" cy="135.00" r="3.40" fill="#307f32"/>
<circle cx="445.00" cy="135.00" r="3.40" fill="#2e7d32"/>
<circle cx="455.00" cy="135.00" r="3.40" fill="#2e7d32"/>
<circle cx="335.00" cy="145.00" r="3.40" fill="#2e7d31"/>
<circle cx="345.00" cy="145.00" r="3.40" fill="#2e7d32"/>
<circle cx="355.00" cy="145.00" r="3.40" fill="#2e7d32"/>
<circle cx="365.00" cy="145.00" r="3.40" fill="#2e7d32"/>
<circle cx="375.00" cy="145.00" r="3.40" fill="#489137"/>
<circle cx="385.00" cy="145.00" r="3.40" fill="#589c39"/>
<circle cx="395.00" cy="145.00" r="3.40" fill="#367e2f"/>
<circle cx="405.00" cy="145.00" r="3.40" fill="#458b33"/>
<circle cx="415.00" cy="145.00" r="3.40" fill="#5c9d39"/>
<circle cx="425.00" cy="145.00" r="3.40" fill="#509236"/>
<circle cx="435.00" cy="145.00" r="3.40" fill="#2d782f"/>
<circle cx="445.00" cy="145.00" r="3.40" fill="#2e7c32"/>
<circle cx="355.00" cy="155.00" r="3.40" fill="#2e7d31"/>
<circle cx="365.00" cy="155.00" r="3.40" fill="#398536"/>
<circle cx="375.00" cy="155.00" r="3.40" fill="#73b24b"/>
<circle cx="385.00" cy="155.00" r="3.40" fill="#88c24f"/>
<circle cx="395.00" cy="155.00" r="3.40" fill="#4f9039"/>
<circle cx="405.00" cy="155.00" r="3.40" fill="#70ac47"/>
<circle cx="415.00" cy="155.00" r="3.40" fill="#73b14a"/>
<circle cx="425.00" cy="155.00" r="3.40" fill="#8fc654"/>
<circle cx="435.00" cy="155.00" r="3.40" fill="#7bb64c"/>
<circle cx="445.00" cy="155.00" r="3.40" fill="#89c253"/>
<circle cx="365.00" cy="165.00" r="3.40" fill="#97ca57"/>
<circle cx="375.00" cy="165.00" r="3.40" fill="#96c857"/>
<circle cx="385.00" cy="165.00" r="3.40" fill="#98cd58"/>
<circle cx="395.00" cy="165.00" r="3.40" fill="#72a747"/>
<circle cx="405.00" cy="165.00" r="3.40" fill="#5c883c"/>
<circle cx="415.00" cy="165.00" r="3.40" fill="#82b54f"/>
<circle cx="425.00" cy="165.00" r="3.40" fill="#80b54f"/>
<circle cx="435.00" cy="165.00" r="3.40" fill="#96cb58"/>
<circle cx="445.00" cy="165.00" r="3.40" fill="#a1d65c"/>
<circle cx="355.00" cy="175.00" r="3.40" fill="#a1d65c"/>
<circle cx="365.00" cy="175.00" r="3.40" fill="#a9b456"/>
<circle cx="375.00" cy="175.00" r="3.40" fill="#a5c65a"/>
<circle cx="385.00" cy="175.00" r="3.40" fill="#94a752"/>
<circle cx="395.00" cy="175.00" r="3.40" fill="#8e9c4f"/>
<circle cx="405.00" cy="175.00" r="3.40" fill="#817046"/>
<circle cx="415.00" cy="175.00" r="3.40" fill="#8c7248"/>
<circle cx="425.00" cy="175.00" r="3.40" fill="#9e9652"/>
<circle cx="435.00" cy="175.00" r="3.40" fill="#afb656"/>
<circle cx="445.00" cy="175.00" r="3.40" fill="#a1d65c"/>
<circle cx="455.00" cy="175.00" r="3.40" fill="#a0d55c"/>
<circle cx="355.00" cy="185.00" r="3.40" fill="#a1d65c"/>
<circle cx="365.00" cy="185.00" r="3.40" fill="#a9bc54"/>
<circle cx="375.00" cy="185.00" r="3.40" fill="#b2a04d"/>
<circle cx="385.00" cy="185.00" r="3.40" fill="#c08447"/>
<circle cx="395.00" cy="185.00" r="3.40" fill="#dc6d43"/>
<circle cx="405.00" cy="185.00" r="3.40" fill="#f16c47"/>
<circle cx="415.00" cy="185.00" r="3.40" fill="#f16944"/>
<circle cx="425.00" cy="185.00" r="3.40" fill="#e6613c"/>
<circle cx="435.00" cy="185.00" r="3.40" fill="#c8723e"/>
<circle cx="445.00" cy="185.00" r="3.40" fill="#a1d65c"/>
<circle cx="455.00" cy="185.00" r="3.40" fill="#a1d65c"/>
<circle cx="345.00" cy="195.00" r="3.40" fill="#a0d55b"/>
<circle cx="355.00" cy="195.00" r="3.40" fill="#a1d55c"/>
<circle cx="365.00" cy="195.00" r="3.40" fill="#a8bc54"/>
<circle cx="375.00" cy="195.00" r="3.40" fill="#db623a"/>
<circle cx="385.00" cy="195.00" r="3.40" fill="#eb5f3a"/>
<circle cx="395.00" cy="195.00" r="3.40" fill="#ed603a"/>
<circle cx="405.00" cy="195.00" r="3.40" fill="#ed603a"/>
<circle cx="415.00" cy="195.00" r="3.40" fill="#ed603a"/>
<circle cx="425.00" cy="195.00" r="3.40" fill="#ed603a"/>
<circle cx="455.00" cy="195.00" r="3.40" fill="#a1d55b"/>
<circle cx="355.00" cy="205.00" r="3.40" fill="#a1d65c"/>
<circle cx="375.00" cy="205.00" r="3.40" fill="#d94f2c"/>
<circle cx="385.00" cy="205.00" r="3.40" fill="#e15531"/>
<circle cx="395.00" cy="205.00" r="3.40" fill="#e85b36"/>
<circle cx="405.00" cy="205.00" r="3.40" fill="#e85b36"/>
<circle cx="415.00" cy="205.00" r="3.40" fill="#e15531"/>
<circle cx="425.00" cy="205.00" r="3.40" fill="#da4f2c"/>
<circle cx="385.00" cy="215.00" r="3.40" fill="#d44a27"/>
<circle cx="395.00" cy="215.00" r="3.40" fill="#d44a28"/>
<circle cx="405.00" cy="215.00" r="3.40" fill="#d44a28"/>
<circle cx="415.00" cy="215.00" r="3.40" fill="#d44a28"/>
<defs>
  <pattern id="dotgrid" width="24" height="24" patternUnits="userSpaceOnUse">
    <circle cx="4" cy="4" r="0.85" fill="#58A6FF" opacity="0.22"/>
  </pattern>
</defs>
</svg>
