<svg width="800" height="280" viewBox="0 0 800 280" fill="none" xmlns="http://www.w3.org/2000/svg" role="img" aria-labelledby="title desc">
<title id="title">Daily pixel drop</title>
<desc id="desc">2026 / 07 / 18. COMMON drop Dotted Six Pointed Star.</desc>
<rect width="800" height="280" rx="8" fill="#0D1117"/>
<rect x="1" y="1" width="798" height="278" rx="7" stroke="#243246"/>
<rect x="18" y="18" width="764" height="244" rx="5" fill="url(#dotgrid)" opacity="0.58"/>
<path d="M52 46H32V66M748 46H768V66M52 234H32V214M748 234H768V214" stroke="#8b949e" stroke-width="1.5" stroke-linecap="square" opacity="0.76"/>
<rect x="304" y="56" width="192" height="188" rx="5" stroke="#8b949e" opacity="0.54"/>
<circle cx="335.00" cy="85.00" r="3.40" fill="#a742b9"/>
<circle cx="345.00" cy="85.00" r="3.40" fill="#a945bb"/>
<circle cx="355.00" cy="85.00" r="3.40" fill="#a944ba"/>
<circle cx="365.00" cy="85.00" r="3.40" fill="#a944ba"/>
<circle cx="375.00" cy="85.00" r="3.40" fill="#a944ba"/>
<circle cx="385.00" cy="85.00" r="3.40" fill="#a944ba"/>
<circle cx="395.00" cy="85.00" r="3.40" fill="#a944ba"/>
<circle cx="405.00" cy="85.00" r="3.40" fill="#a944ba"/>
<circle cx="415.00" cy="85.00" r="3.40" fill="#a944ba"/>
<circle cx="425.00" cy="85.00" r="3.40" fill="#a944ba"/>
<circle cx="435.00" cy="85.00" r="3.40" fill="#a944ba"/>
<circle cx="445.00" cy="85.00" r="3.40" fill="#a944ba"/>
<circle cx="455.00" cy="85.00" r="3.40" fill="#9e37b4"/>
<circle cx="465.00" cy="85.00" r="3.40" fill="#8e24aa"/>
<circle cx="335.00" cy="95.00" r="3.40" fill="#a945bb"/>
<circle cx="345.00" cy="95.00" r="3.40" fill="#b155c1"/>
<circle cx="355.00" cy="95.00" r="3.40" fill="#bf73cb"/>
<circle cx="365.00" cy="95.00" r="3.40" fill="#be71cb"/>
<circle cx="375.00" cy="95.00" r="3.40" fill="#ae4ebf"/>
<circle cx="385.00" cy="95.00" r="3.40" fill="#ab47bc"/>
<circle cx="395.00" cy="95.00" r="3.40" fill="#ae4dbe"/>
<circle cx="405.00" cy="95.00" r="3.40" fill="#ad4dbe"/>
<circle cx="415.00" cy="95.00" r="3.40" fill="#ab47bc"/>
<circle cx="425.00" cy="95.00" r="3.40" fill="#ab47bc"/>
<circle cx="435.00" cy="95.00" r="3.40" fill="#ab47bc"/>
<circle cx="445.00" cy="95.00" r="3.40" fill="#ab47bc"/>
<circle cx="455.00" cy="95.00" r="3.40" fill="#a540b8"/>
<circle cx="465.00" cy="95.00" r="3.40" fill="#8e24aa"/>
<circle cx="335.00" cy="105.00" r="3.40" fill="#a944ba"/>
<circle cx="345.00" cy="105.00" r="3.40" fill="#ba69c8"/>
<circle cx="355.00" cy="105.00" r="3.40" fill="#ba69c8"/>
<circle cx="365.00" cy="105.00" r="3.40" fill="#ac49bd"/>
<circle cx="375.00" cy="105.00" r="3.40" fill="#ab47bc"/>
<circle cx="385.00" cy="105.00" r="3.40" fill="#ab47bc"/>
<circle cx="395.00" cy="105.00" r="3.40" fill="#d3a1db"/>
<circle cx="405.00" cy="105.00" r="3.40" fill="#d2a0db"/>
<circle cx="415.00" cy="105.00" r="3.40" fill="#ab47bc"/>
<circle cx="425.00" cy="105.00" r="3.40" fill="#ab47bc"/>
<circle cx="435.00" cy="105.00" r="3.40" fill="#ab47bc"/>
<circle cx="445.00" cy="105.00" r="3.40" fill="#ab47bc"/>
<circle cx="455.00" cy="105.00" r="3.40" fill="#a640b9"/>
<circle cx="465.00" cy="105.00" r="3.40" fill="#8e24aa"/>
<circle cx="335.00" cy="115.00" r="3.40" fill="#a944ba"/>
<circle cx="345.00" cy="115.00" r="3.40" fill="#ba6ac8"/>
<circle cx="355.00" cy="115.00" r="3.40" fill="#ad4abd"/>
<circle cx="365.00" cy="115.00" r="3.40" fill="#ab47bc"/>
<circle cx="375.00" cy="115.00" r="3.40" fill="#ab47bc"/>
<circle cx="385.00" cy="115.00" r="3.40" fill="#b55ec4"/>
<circle cx="395.00" cy="115.00" r="3.40" fill="#ddb8e3"/>
<circle cx="405.00" cy="115.00" r="3.40" fill="#ddb7e3"/>
<circle cx="415.00" cy="115.00" r="3.40" fill="#b55ec4"/>
<circle cx="425.00" cy="115.00" r="3.40" fill="#ab47bc"/>
<circle cx="435.00" cy="115.00" r="3.40" fill="#ab47bc"/>
<circle cx="445.00" cy="115.00" r="3.40" fill="#ab47bc"/>
<circle cx="455.00" cy="115.00" r="3.40" fill="#a640b9"/>
<circle cx="465.00" cy="115.00" r="3.40" fill="#8e24aa"/>
<circle cx="335.00" cy="125.00" r="3.40" fill="#a944ba"/>
<circle cx="345.00" cy="125.00" r="3.40" fill="#ad4bbd"/>
<circle cx="355.00" cy="125.00" r="3.40" fill="#c98ad3"/>
<circle cx="365.00" cy="125.00" r="3.40" fill="#dcb6e2"/>
<circle cx="375.00" cy="125.00" r="3.40" fill="#dcb6e2"/>
<circle cx="385.00" cy="125.00" r="3.40" fill="#ebd8ee"/>
<circle cx="395.00" cy="125.00" r="3.40" fill="#e4c8e9"/>
<circle cx="405.00" cy="125.00" r="3.40" fill="#e4c8e9"/>
<circle cx="415.00" cy="125.00" r="3.40" fill="#ebd8ee"/>
<circle cx="425.00" cy="125.00" r="3.40" fill="#dcb6e2"/>
<circle cx="435.00" cy="125.00" r="3.40" fill="#dcb6e2"/>
<circle cx="445.00" cy="125.00" r="3.40" fill="#c889d3"/>
<circle cx="455.00" cy="125.00" r="3.40" fill="#a640b9"/>
<circle cx="465.00" cy="125.00" r="3.40" fill="#8e24aa"/>
<circle cx="335.00" cy="135.00" r="3.40" fill="#a944ba"/>
<circle cx="345.00" cy="135.00" r="3.40" fill="#ab47bc"/>
<circle cx="355.00" cy="135.00" r="3.40" fill="#b762c5"/>
<circle cx="365.00" cy="135.00" r="3.40" fill="#debae4"/>
<circle cx="375.00" cy="135.00" r="3.40" fill="#c481d0"/>
<circle cx="385.00" cy="135.00" r="3.40" fill="#d19eda"/>
<circle cx="395.00" cy="135.00" r="3.40" fill="#ae4dbe"/>
<circle cx="405.00" cy="135.00" r="3.40" fill="#ae4dbe"/>
<circle cx="415.00" cy="135.00" r="3.40" fill="#d19eda"/>
<circle cx="425.00" cy="135.00" r="3.40" fill="#c581d0"/>
<circle cx="435.00" cy="135.00" r="3.40" fill="#ddb9e4"/>
<circle cx="445.00" cy="135.00" r="3.40" fill="#b762c5"/>
<circle cx="455.00" cy="135.00" r="3.40" fill="#a640b9"/>
<circle cx="465.00" cy="135.00" r="3.40" fill="#8e24aa"/>
<circle cx="335.00" cy="145.00" r="3.40" fill="#a944ba"/>
<circle cx="345.00" cy="145.00" r="3.40" fill="#ab47bc"/>
<circle cx="355.00" cy="145.00" r="3.40" fill="#ab47bc"/>
<circle cx="365.00" cy="145.00" r="3.40" fill="#d3a2dc"/>
<circle cx="375.00" cy="145.00" r="3.40" fill="#e7d0eb"/>
<circle cx="385.00" cy="145.00" r="3.40" fill="#ad4bbd"/>
<circle cx="395.00" cy="145.00" r="3.40" fill="#c582d0"/>
<circle cx="405.00" cy="145.00" r="3.40" fill="#c582d0"/>
<circle cx="415.00" cy="145.00" r="3.40" fill="#ad4bbe"/>
<circle cx="425.00" cy="145.00" r="3.40" fill="#e7cfeb"/>
<circle cx="435.00" cy="145.00" r="3.40" fill="#d3a2dc"/>
<circle cx="445.00" cy="145.00" r="3.40" fill="#ab47bc"/>
<circle cx="455.00" cy="145.00" r="3.40" fill="#a640b9"/>
<circle cx="465.00" cy="145.00" r="3.40" fill="#8e24aa"/>
<circle cx="335.00" cy="155.00" r="3.40" fill="#a944ba"/>
<circle cx="345.00" cy="155.00" r="3.40" fill="#ab47bc"/>
<circle cx="355.00" cy="155.00" r="3.40" fill="#ab47bc"/>
<circle cx="365.00" cy="155.00" r="3.40" fill="#d3a2dc"/>
<circle cx="375.00" cy="155.00" r="3.40" fill="#e7d0eb"/>
<circle cx="385.00" cy="155.00" r="3.40" fill="#ad4bbd"/>
<circle cx="395.00" cy="155.00" r="3.40" fill="#c582d0"/>
<circle cx="405.00" cy="155.00" r="3.40" fill="#c582d0"/>
<circle cx="415.00" cy="155.00" r="3.40" fill="#ad4bbe"/>
<circle cx="425.00" cy="155.00" r="3.40" fill="#e7cfeb"/>
<circle cx="435.00" cy="155.00" r="3.40" fill="#d3a3dc"/>
<circle cx="445.00" cy="155.00" r="3.40" fill="#ab47bc"/>
<circle cx="455.00" cy="155.00" r="3.40" fill="#a640b9"/>
<circle cx="465.00" cy="155.00" r="3.40" fill="#8e24aa"/>
<circle cx="335.00" cy="165.00" r="3.40" fill="#a944ba"/>
<circle cx="345.00" cy="165.00" r="3.40" fill="#ab47bc"/>
<circle cx="355.00" cy="165.00" r="3.40" fill="#b762c5"/>
<circle cx="365.00" cy="165.00" r="3.40" fill="#debae4"/>
<circle cx="375.00" cy="165.00" r="3.40" fill="#c481d0"/>
<circle cx="385.00" cy="165.00" r="3.40" fill="#d19eda"/>
<circle cx="395.00" cy="165.00" r="3.40" fill="#ae4dbe"/>
<circle cx="405.00" cy="165.00" r="3.40" fill="#ae4dbe"/>
<circle cx="415.00" cy="165.00" r="3.40" fill="#d19eda"/>
<circle cx="425.00" cy="165.00" r="3.40" fill="#c581d0"/>
<circle cx="435.00" cy="165.00" r="3.40" fill="#ddbae4"/>
<circle cx="445.00" cy="165.00" r="3.40" fill="#b762c6"/>
<circle cx="455.00" cy="165.00" r="3.40" fill="#a640b9"/>
<circle cx="465.00" cy="165.00" r="3.40" fill="#8e24aa"/>
<circle cx="335.00" cy="175.00" r="3.40" fill="#a944ba"/>
<circle cx="345.00" cy="175.00" r="3.40" fill="#ab47bc"/>
<circle cx="355.00" cy="175.00" r="3.40" fill="#c98cd4"/>
<circle cx="365.00" cy="175.00" r="3.40" fill="#ddb8e3"/>
<circle cx="375.00" cy="175.00" r="3.40" fill="#ddb8e3"/>
<circle cx="385.00" cy="175.00" r="3.40" fill="#ebd8ee"/>
<circle cx="395.00" cy="175.00" r="3.40" fill="#e5cbea"/>
<circle cx="405.00" cy="175.00" r="3.40" fill="#e5cae9"/>
<circle cx="415.00" cy="175.00" r="3.40" fill="#ecd9ef"/>
<circle cx="425.00" cy="175.00" r="3.40" fill="#ddb8e3"/>
<circle cx="435.00" cy="175.00" r="3.40" fill="#ddb8e3"/>
<circle cx="445.00" cy="175.00" r="3.40" fill="#ca8cd4"/>
<circle cx="455.00" cy="175.00" r="3.40" fill="#a640b9"/>
<circle cx="465.00" cy="175.00" r="3.40" fill="#8e24aa"/>
<circle cx="335.00" cy="185.00" r="3.40" fill="#a944ba"/>
<circle cx="345.00" cy="185.00" r="3.40" fill="#ab47bc"/>
<circle cx="355.00" cy="185.00" r="3.40" fill="#ab47bc"/>
<circle cx="365.00" cy="185.00" r="3.40" fill="#ab47bc"/>
<circle cx="375.00" cy="185.00" r="3.40" fill="#ab47bc"/>
<circle cx="385.00" cy="185.00" r="3.40" fill="#b55dc3"/>
<circle cx="395.00" cy="185.00" r="3.40" fill="#ddb7e3"/>
<circle cx="405.00" cy="185.00" r="3.40" fill="#ddb7e3"/>
<circle cx="415.00" cy="185.00" r="3.40" fill="#b55ec4"/>
<circle cx="425.00" cy="185.00" r="3.40" fill="#ab47bc"/>
<circle cx="435.00" cy="185.00" r="3.40" fill="#ab47bc"/>
<circle cx="445.00" cy="185.00" r="3.40" fill="#ab47bc"/>
<circle cx="455.00" cy="185.00" r="3.40" fill="#a640b9"/>
<circle cx="465.00" cy="185.00" r="3.40" fill="#8e24aa"/>
<circle cx="335.00" cy="195.00" r="3.40" fill="#a944ba"/>
<circle cx="345.00" cy="195.00" r="3.40" fill="#ab47bc"/>
<circle cx="355.00" cy="195.00" r="3.40" fill="#ab47bc"/>
<circle cx="365.00" cy="195.00" r="3.40" fill="#ab47bc"/>
<circle cx="375.00" cy="195.00" r="3.40" fill="#ab47bc"/>
<circle cx="385.00" cy="195.00" r="3.40" fill="#ab47bc"/>
<circle cx="395.00" cy="195.00" r="3.40" fill="#d29fdb"/>
<circle cx="405.00" cy="195.00" r="3.40" fill="#d3a1db"/>
<circle cx="415.00" cy="195.00" r="3.40" fill="#ab47bc"/>
<circle cx="425.00" cy="195.00" r="3.40" fill="#ab47bc"/>
<circle cx="435.00" cy="195.00" r="3.40" fill="#ab47bc"/>
<circle cx="445.00" cy="195.00" r="3.40" fill="#ab47bc"/>
<circle cx="455.00" cy="195.00" r="3.40" fill="#a640b9"/>
<circle cx="465.00" cy="195.00" r="3.40" fill="#8e24aa"/>
<circle cx="335.00" cy="205.00" r="3.40" fill="#9d36b4"/>
<circle cx="345.00" cy="205.00" r="3.40" fill="#a53fb8"/>
<circle cx="355.00" cy="205.00" r="3.40" fill="#a53fb8"/>
<circle cx="365.00" cy="205.00" r="3.40" fill="#a53fb8"/>
<circle cx="375.00" cy="205.00" r="3.40" fill="#a53fb8"/>
<circle cx="385.00" cy="205.00" r="3.40" fill="#a53fb8"/>
<circle cx="395.00" cy="205.00" r="3.40" fill="#a745ba"/>
<circle cx="405.00" cy="205.00" r="3.40" fill="#a745ba"/>
<circle cx="415.00" cy="205.00" r="3.40" fill="#a53fb8"/>
<circle cx="425.00" cy="205.00" r="3.40" fill="#a53fb8"/>
<circle cx="435.00" cy="205.00" r="3.40" fill="#a53fb8"/>
<circle cx="445.00" cy="205.00" r="3.40" fill="#a53fb8"/>
<circle cx="455.00" cy="205.00" r="3.40" fill="#9c35b3"/>
<circle cx="465.00" cy="205.00" r="3.40" fill="#8e24aa"/>
<circle cx="335.00" cy="215.00" r="3.40" fill="#8e24aa"/>
<circle cx="345.00" cy="215.00" r="3.40" fill="#8e24aa"/>
<circle cx="355.00" cy="215.00" r="3.40" fill="#8e24aa"/>
<circle cx="365.00" cy="215.00" r="3.40" fill="#8e24aa"/>
<circle cx="375.00" cy="215.00" r="3.40" fill="#8e24aa"/>
<circle cx="385.00" cy="215.00" r="3.40" fill="#8e24aa"/>
<circle cx="395.00" cy="215.00" r="3.40" fill="#8e24aa"/>
<circle cx="405.00" cy="215.00" r="3.40" fill="#8e24aa"/>
<circle cx="415.00" cy="215.00" r="3.40" fill="#8e24aa"/>
<circle cx="425.00" cy="215.00" r="3.40" fill="#8e24aa"/>
<circle cx="435.00" cy="215.00" r="3.40" fill="#8e24aa"/>
<circle cx="445.00" cy="215.00" r="3.40" fill="#8e24aa"/>
<circle cx="455.00" cy="215.00" r="3.40" fill="#8e24aa"/>
<circle cx="465.00" cy="215.00" r="3.40" fill="#8e23aa"/>
<defs>
  <pattern id="dotgrid" width="24" height="24" patternUnits="userSpaceOnUse">
    <circle cx="4" cy="4" r="0.85" fill="#58A6FF" opacity="0.22"/>
  </pattern>
</defs>
</svg>
