<svg width="800" height="280" viewBox="0 0 800 280" fill="none" xmlns="http://www.w3.org/2000/svg" role="img" aria-labelledby="title desc">
<title id="title">Daily pixel drop</title>
<desc id="desc">2026 / 08 / 01. COMMON drop Waning Crescent Moon.</desc>
<rect width="800" height="280" rx="8" fill="#0D1117"/>
<rect x="1" y="1" width="798" height="278" rx="7" stroke="#243246"/>
<rect x="18" y="18" width="764" height="244" rx="5" fill="url(#dotgrid)" opacity="0.58"/>
<path d="M52 46H32V66M748 46H768V66M52 234H32V214M748 234H768V214" stroke="#8b949e" stroke-width="1.5" stroke-linecap="square" opacity="0.76"/>
<rect x="304" y="56" width="192" height="188" rx="5" stroke="#8b949e" opacity="0.54"/>
<circle cx="385.00" cy="85.00" r="3.40" fill="#f8daa0"/>
<circle cx="395.00" cy="85.00" r="3.40" fill="#88866e"/>
<circle cx="405.00" cy="85.00" r="3.40" fill="#22404c"/>
<circle cx="415.00" cy="85.00" r="3.40" fill="#223e4a"/>
<circle cx="365.00" cy="95.00" r="3.40" fill="#f7d79c"/>
<circle cx="375.00" cy="95.00" r="3.40" fill="#fadfa5"/>
<circle cx="385.00" cy="95.00" r="3.40" fill="#8a8971"/>
<circle cx="395.00" cy="95.00" r="3.40" fill="#203a44"/>
<circle cx="405.00" cy="95.00" r="3.40" fill="#22404b"/>
<circle cx="415.00" cy="95.00" r="3.40" fill="#1f3942"/>
<circle cx="425.00" cy="95.00" r="3.40" fill="#213d48"/>
<circle cx="435.00" cy="95.00" r="3.40" fill="#22404c"/>
<circle cx="355.00" cy="105.00" r="3.40" fill="#f6d498"/>
<circle cx="365.00" cy="105.00" r="3.40" fill="#f6d498"/>
<circle cx="375.00" cy="105.00" r="3.40" fill="#a89773"/>
<circle cx="385.00" cy="105.00" r="3.40" fill="#1b2e35"/>
<circle cx="395.00" cy="105.00" r="3.40" fill="#1d333c"/>
<circle cx="405.00" cy="105.00" r="3.40" fill="#1f3943"/>
<circle cx="415.00" cy="105.00" r="3.40" fill="#1b2e35"/>
<circle cx="425.00" cy="105.00" r="3.40" fill="#1d343d"/>
<circle cx="435.00" cy="105.00" r="3.40" fill="#213c47"/>
<circle cx="445.00" cy="105.00" r="3.40" fill="#213e49"/>
<circle cx="345.00" cy="115.00" r="3.40" fill="#f4cf93"/>
<circle cx="355.00" cy="115.00" r="3.40" fill="#f4cf92"/>
<circle cx="365.00" cy="115.00" r="3.40" fill="#eec78b"/>
<circle cx="375.00" cy="115.00" r="3.40" fill="#313e3e"/>
<circle cx="385.00" cy="115.00" r="3.40" fill="#1e343d"/>
<circle cx="395.00" cy="115.00" r="3.40" fill="#223f4b"/>
<circle cx="405.00" cy="115.00" r="3.40" fill="#22404c"/>
<circle cx="415.00" cy="115.00" r="3.40" fill="#203b46"/>
<circle cx="425.00" cy="115.00" r="3.40" fill="#1b2f36"/>
<circle cx="435.00" cy="115.00" r="3.40" fill="#1b2e35"/>
<circle cx="445.00" cy="115.00" r="3.40" fill="#1c3139"/>
<circle cx="455.00" cy="115.00" r="3.40" fill="#22404c"/>
<circle cx="345.00" cy="125.00" r="3.40" fill="#f3cb8e"/>
<circle cx="355.00" cy="125.00" r="3.40" fill="#f2c78a"/>
<circle cx="365.00" cy="125.00" r="3.40" fill="#b39b71"/>
<circle cx="375.00" cy="125.00" r="3.40" fill="#1b2e35"/>
<circle cx="385.00" cy="125.00" r="3.40" fill="#203b46"/>
<circle cx="395.00" cy="125.00" r="3.40" fill="#22404c"/>
<circle cx="405.00" cy="125.00" r="3.40" fill="#22404c"/>
<circle cx="415.00" cy="125.00" r="3.40" fill="#213e49"/>
<circle cx="425.00" cy="125.00" r="3.40" fill="#1b2e35"/>
<circle cx="435.00" cy="125.00" r="3.40" fill="#1b2e35"/>
<circle cx="445.00" cy="125.00" r="3.40" fill="#1d323a"/>
<circle cx="455.00" cy="125.00" r="3.40" fill="#1e3640"/>
<circle cx="335.00" cy="135.00" r="3.40" fill="#fce4ab"/>
<circle cx="345.00" cy="135.00" r="3.40" fill="#f1c789"/>
<circle cx="355.00" cy="135.00" r="3.40" fill="#f3cc8f"/>
<circle cx="365.00" cy="135.00" r="3.40" fill="#857e65"/>
<circle cx="375.00" cy="135.00" r="3.40" fill="#1d343d"/>
<circle cx="385.00" cy="135.00" r="3.40" fill="#1f3943"/>
<circle cx="395.00" cy="135.00" r="3.40" fill="#22404c"/>
<circle cx="405.00" cy="135.00" r="3.40" fill="#22404c"/>
<circle cx="415.00" cy="135.00" r="3.40" fill="#22404c"/>
<circle cx="425.00" cy="135.00" r="3.40" fill="#203a44"/>
<circle cx="435.00" cy="135.00" r="3.40" fill="#1e363f"/>
<circle cx="445.00" cy="135.00" r="3.40" fill="#213e4a"/>
<circle cx="455.00" cy="135.00" r="3.40" fill="#1b2e35"/>
<circle cx="465.00" cy="135.00" r="3.40" fill="#203b45"/>
<circle cx="335.00" cy="145.00" r="3.40" fill="#fce5ac"/>
<circle cx="345.00" cy="145.00" r="3.40" fill="#f8d99e"/>
<circle cx="355.00" cy="145.00" r="3.40" fill="#f1c688"/>
<circle cx="365.00" cy="145.00" r="3.40" fill="#706d5a"/>
<circle cx="375.00" cy="145.00" r="3.40" fill="#1d343d"/>
<circle cx="385.00" cy="145.00" r="3.40" fill="#22404c"/>
<circle cx="395.00" cy="145.00" r="3.40" fill="#22404c"/>
<circle cx="405.00" cy="145.00" r="3.40" fill="#22404c"/>
<circle cx="415.00" cy="145.00" r="3.40" fill="#22404c"/>
<circle cx="425.00" cy="145.00" r="3.40" fill="#22404c"/>
<circle cx="435.00" cy="145.00" r="3.40" fill="#1e3640"/>
<circle cx="445.00" cy="145.00" r="3.40" fill="#213d49"/>
<circle cx="455.00" cy="145.00" r="3.40" fill="#1f3842"/>
<circle cx="465.00" cy="145.00" r="3.40" fill="#213d48"/>
<circle cx="335.00" cy="155.00" r="3.40" fill="#fce5ac"/>
<circle cx="345.00" cy="155.00" r="3.40" fill="#f9dea3"/>
<circle cx="355.00" cy="155.00" r="3.40" fill="#f1c688"/>
<circle cx="365.00" cy="155.00" r="3.40" fill="#6f6a57"/>
<circle cx="375.00" cy="155.00" r="3.40" fill="#1b2e35"/>
<circle cx="385.00" cy="155.00" r="3.40" fill="#1d333c"/>
<circle cx="395.00" cy="155.00" r="3.40" fill="#223f4b"/>
<circle cx="405.00" cy="155.00" r="3.40" fill="#22404c"/>
<circle cx="415.00" cy="155.00" r="3.40" fill="#22404c"/>
<circle cx="425.00" cy="155.00" r="3.40" fill="#22404c"/>
<circle cx="435.00" cy="155.00" r="3.40" fill="#22404c"/>
<circle cx="445.00" cy="155.00" r="3.40" fill="#22404c"/>
<circle cx="455.00" cy="155.00" r="3.40" fill="#213e4a"/>
<circle cx="465.00" cy="155.00" r="3.40" fill="#213e49"/>
<circle cx="335.00" cy="165.00" r="3.40" fill="#fce5ac"/>
<circle cx="345.00" cy="165.00" r="3.40" fill="#fbe2a8"/>
<circle cx="355.00" cy="165.00" r="3.40" fill="#f3cb8d"/>
<circle cx="365.00" cy="165.00" r="3.40" fill="#868067"/>
<circle cx="375.00" cy="165.00" r="3.40" fill="#1b2e35"/>
<circle cx="385.00" cy="165.00" r="3.40" fill="#1b2e35"/>
<circle cx="395.00" cy="165.00" r="3.40" fill="#1f3842"/>
<circle cx="405.00" cy="165.00" r="3.40" fill="#22404c"/>
<circle cx="415.00" cy="165.00" r="3.40" fill="#22404c"/>
<circle cx="425.00" cy="165.00" r="3.40" fill="#22404c"/>
<circle cx="435.00" cy="165.00" r="3.40" fill="#22404c"/>
<circle cx="445.00" cy="165.00" r="3.40" fill="#22404c"/>
<circle cx="455.00" cy="165.00" r="3.40" fill="#22404c"/>
<circle cx="465.00" cy="165.00" r="3.40" fill="#22404c"/>
<circle cx="345.00" cy="175.00" r="3.40" fill="#fce5ac"/>
<circle cx="355.00" cy="175.00" r="3.40" fill="#fce5ac"/>
<circle cx="365.00" cy="175.00" r="3.40" fill="#b7b18e"/>
<circle cx="375.00" cy="175.00" r="3.40" fill="#1c3139"/>
<circle cx="385.00" cy="175.00" r="3.40" fill="#1b2f36"/>
<circle cx="395.00" cy="175.00" r="3.40" fill="#213c47"/>
<circle cx="405.00" cy="175.00" r="3.40" fill="#22404c"/>
<circle cx="415.00" cy="175.00" r="3.40" fill="#22404c"/>
<circle cx="425.00" cy="175.00" r="3.40" fill="#22404c"/>
<circle cx="435.00" cy="175.00" r="3.40" fill="#22404c"/>
<circle cx="445.00" cy="175.00" r="3.40" fill="#22404c"/>
<circle cx="455.00" cy="175.00" r="3.40" fill="#203b46"/>
<circle cx="345.00" cy="185.00" r="3.40" fill="#fce5ac"/>
<circle cx="355.00" cy="185.00" r="3.40" fill="#fce5ac"/>
<circle cx="365.00" cy="185.00" r="3.40" fill="#f5e0a9"/>
<circle cx="375.00" cy="185.00" r="3.40" fill="#354e54"/>
<circle cx="385.00" cy="185.00" r="3.40" fill="#22404b"/>
<circle cx="395.00" cy="185.00" r="3.40" fill="#22404c"/>
<circle cx="405.00" cy="185.00" r="3.40" fill="#22404c"/>
<circle cx="415.00" cy="185.00" r="3.40" fill="#22404c"/>
<circle cx="425.00" cy="185.00" r="3.40" fill="#22404c"/>
<circle cx="435.00" cy="185.00" r="3.40" fill="#22404c"/>
<circle cx="445.00" cy="185.00" r="3.40" fill="#203c47"/>
<circle cx="455.00" cy="185.00" r="3.40" fill="#213e49"/>
<circle cx="355.00" cy="195.00" r="3.40" fill="#fadea4"/>
<circle cx="365.00" cy="195.00" r="3.40" fill="#fae0a6"/>
<circle cx="375.00" cy="195.00" r="3.40" fill="#aaa180"/>
<circle cx="385.00" cy="195.00" r="3.40" fill="#22404c"/>
<circle cx="395.00" cy="195.00" r="3.40" fill="#22404c"/>
<circle cx="405.00" cy="195.00" r="3.40" fill="#22404c"/>
<circle cx="415.00" cy="195.00" r="3.40" fill="#22404c"/>
<circle cx="425.00" cy="195.00" r="3.40" fill="#22404c"/>
<circle cx="435.00" cy="195.00" r="3.40" fill="#213e49"/>
<circle cx="445.00" cy="195.00" r="3.40" fill="#203b45"/>
<circle cx="365.00" cy="205.00" r="3.40" fill="#fce5ac"/>
<circle cx="375.00" cy="205.00" r="3.40" fill="#f8da9f"/>
<circle cx="385.00" cy="205.00" r="3.40" fill="#8d8a72"/>
<circle cx="395.00" cy="205.00" r="3.40" fill="#22404c"/>
<circle cx="405.00" cy="205.00" r="3.40" fill="#22404c"/>
<circle cx="415.00" cy="205.00" r="3.40" fill="#22404c"/>
<circle cx="425.00" cy="205.00" r="3.40" fill="#22404c"/>
<circle cx="435.00" cy="205.00" r="3.40" fill="#22404c"/>
<circle cx="385.00" cy="215.00" r="3.40" fill="#fce4ab"/>
<circle cx="395.00" cy="215.00" r="3.40" fill="#8d907b"/>
<circle cx="405.00" cy="215.00" r="3.40" fill="#22404c"/>
<circle cx="415.00" cy="215.00" r="3.40" fill="#22404c"/>
<defs>
  <pattern id="dotgrid" width="24" height="24" patternUnits="userSpaceOnUse">
    <circle cx="4" cy="4" r="0.85" fill="#58A6FF" opacity="0.22"/>
  </pattern>
</defs>
</svg>
