<svg width="800" height="280" viewBox="0 0 800 280" fill="none" xmlns="http://www.w3.org/2000/svg" role="img" aria-labelledby="title desc">
<title id="title">Daily pixel drop</title>
<desc id="desc">2026 / 05 / 24. RARE drop Leaf Fluttering In Wind.</desc>
<rect width="800" height="280" rx="8" fill="#0D1117"/>
<rect x="1" y="1" width="798" height="278" rx="7" stroke="#243246"/>
<rect x="18" y="18" width="764" height="244" rx="5" fill="url(#dotgrid)" opacity="0.58"/>
<path d="M52 46H32V66M748 46H768V66M52 234H32V214M748 234H768V214" stroke="#58a6ff" stroke-width="1.5" stroke-linecap="square" opacity="0.76"/>
<rect x="304" y="56" width="192" height="188" rx="5" stroke="#58a6ff" opacity="0.54"/>
<circle cx="355.00" cy="95.00" r="3.40" fill="#d3d3d3"/>
<circle cx="365.00" cy="95.00" r="3.40" fill="#d3d3d3"/>
<circle cx="375.00" cy="95.00" r="3.40" fill="#d3d3d3"/>
<circle cx="385.00" cy="95.00" r="3.40" fill="#d3d3d3"/>
<circle cx="395.00" cy="95.00" r="3.40" fill="#d2d2d2"/>
<circle cx="405.00" cy="95.00" r="3.40" fill="#d3d3d3"/>
<circle cx="445.00" cy="95.00" r="3.40" fill="#008463"/>
<circle cx="455.00" cy="95.00" r="3.40" fill="#008463"/>
<circle cx="355.00" cy="105.00" r="3.40" fill="#d3d3d3"/>
<circle cx="365.00" cy="105.00" r="3.40" fill="#d3d3d3"/>
<circle cx="375.00" cy="105.00" r="3.40" fill="#d3d3d3"/>
<circle cx="385.00" cy="105.00" r="3.40" fill="#d3d3d3"/>
<circle cx="415.00" cy="105.00" r="3.40" fill="#00d26a"/>
<circle cx="425.00" cy="105.00" r="3.40" fill="#00d26a"/>
<circle cx="435.00" cy="105.00" r="3.40" fill="#00d16a"/>
<circle cx="445.00" cy="105.00" r="3.40" fill="#00a966"/>
<circle cx="455.00" cy="105.00" r="3.40" fill="#00a566"/>
<circle cx="355.00" cy="115.00" r="3.40" fill="#d3d3d3"/>
<circle cx="365.00" cy="115.00" r="3.40" fill="#d3d3d3"/>
<circle cx="405.00" cy="115.00" r="3.40" fill="#00d26a"/>
<circle cx="415.00" cy="115.00" r="3.40" fill="#00d26a"/>
<circle cx="425.00" cy="115.00" r="3.40" fill="#00bd68"/>
<circle cx="435.00" cy="115.00" r="3.40" fill="#00ab67"/>
<circle cx="445.00" cy="115.00" r="3.40" fill="#00c569"/>
<circle cx="455.00" cy="115.00" r="3.40" fill="#00d26a"/>
<circle cx="345.00" cy="125.00" r="3.40" fill="#d3d3d3"/>
<circle cx="355.00" cy="125.00" r="3.40" fill="#d3d3d3"/>
<circle cx="395.00" cy="125.00" r="3.40" fill="#00d26a"/>
<circle cx="405.00" cy="125.00" r="3.40" fill="#00ce6a"/>
<circle cx="415.00" cy="125.00" r="3.40" fill="#00ab66"/>
<circle cx="425.00" cy="125.00" r="3.40" fill="#00bf68"/>
<circle cx="435.00" cy="125.00" r="3.40" fill="#00d26a"/>
<circle cx="445.00" cy="125.00" r="3.40" fill="#00d26a"/>
<circle cx="455.00" cy="125.00" r="3.40" fill="#d2d3d2"/>
<circle cx="345.00" cy="135.00" r="3.40" fill="#d3d3d3"/>
<circle cx="355.00" cy="135.00" r="3.40" fill="#008463"/>
<circle cx="395.00" cy="135.00" r="3.40" fill="#00d26a"/>
<circle cx="405.00" cy="135.00" r="3.40" fill="#00d26a"/>
<circle cx="415.00" cy="135.00" r="3.40" fill="#00d26a"/>
<circle cx="425.00" cy="135.00" r="3.40" fill="#00d26a"/>
<circle cx="435.00" cy="135.00" r="3.40" fill="#00d26a"/>
<circle cx="455.00" cy="135.00" r="3.40" fill="#d3d3d3"/>
<circle cx="345.00" cy="145.00" r="3.40" fill="#d3d3d3"/>
<circle cx="355.00" cy="145.00" r="3.40" fill="#008463"/>
<circle cx="445.00" cy="145.00" r="3.40" fill="#d3d3d3"/>
<circle cx="455.00" cy="145.00" r="3.40" fill="#d3d3d3"/>
<circle cx="355.00" cy="155.00" r="3.40" fill="#008e64"/>
<circle cx="365.00" cy="155.00" r="3.40" fill="#00cd69"/>
<circle cx="375.00" cy="155.00" r="3.40" fill="#00d26a"/>
<circle cx="385.00" cy="155.00" r="3.40" fill="#00d26a"/>
<circle cx="395.00" cy="155.00" r="3.40" fill="#00d26a"/>
<circle cx="405.00" cy="155.00" r="3.40" fill="#00d26a"/>
<circle cx="435.00" cy="155.00" r="3.40" fill="#d3d3d3"/>
<circle cx="355.00" cy="165.00" r="3.40" fill="#00be68"/>
<circle cx="365.00" cy="165.00" r="3.40" fill="#009b65"/>
<circle cx="375.00" cy="165.00" r="3.40" fill="#00b768"/>
<circle cx="385.00" cy="165.00" r="3.40" fill="#00d26a"/>
<circle cx="395.00" cy="165.00" r="3.40" fill="#00d26a"/>
<circle cx="405.00" cy="165.00" r="3.40" fill="#00d26a"/>
<circle cx="415.00" cy="165.00" r="3.40" fill="#00d26a"/>
<circle cx="425.00" cy="165.00" r="3.40" fill="#00d269"/>
<circle cx="355.00" cy="175.00" r="3.40" fill="#00d26a"/>
<circle cx="365.00" cy="175.00" r="3.40" fill="#00d16a"/>
<circle cx="375.00" cy="175.00" r="3.40" fill="#00b367"/>
<circle cx="385.00" cy="175.00" r="3.40" fill="#009b65"/>
<circle cx="395.00" cy="175.00" r="3.40" fill="#00be68"/>
<circle cx="405.00" cy="175.00" r="3.40" fill="#00d26a"/>
<circle cx="415.00" cy="175.00" r="3.40" fill="#00d26a"/>
<circle cx="425.00" cy="175.00" r="3.40" fill="#00d26a"/>
<circle cx="355.00" cy="185.00" r="3.40" fill="#00d26a"/>
<circle cx="365.00" cy="185.00" r="3.40" fill="#00d26a"/>
<circle cx="375.00" cy="185.00" r="3.40" fill="#00d26a"/>
<circle cx="385.00" cy="185.00" r="3.40" fill="#00cf6a"/>
<circle cx="395.00" cy="185.00" r="3.40" fill="#00ab67"/>
<circle cx="405.00" cy="185.00" r="3.40" fill="#009e65"/>
<circle cx="415.00" cy="185.00" r="3.40" fill="#00c569"/>
<circle cx="425.00" cy="185.00" r="3.40" fill="#00d26a"/>
<circle cx="435.00" cy="185.00" r="3.40" fill="#00d26a"/>
<circle cx="365.00" cy="195.00" r="3.40" fill="#00d26a"/>
<circle cx="375.00" cy="195.00" r="3.40" fill="#00d26a"/>
<circle cx="385.00" cy="195.00" r="3.40" fill="#00d26a"/>
<circle cx="395.00" cy="195.00" r="3.40" fill="#00d26a"/>
<circle cx="405.00" cy="195.00" r="3.40" fill="#00cb69"/>
<circle cx="415.00" cy="195.00" r="3.40" fill="#00bd68"/>
<circle cx="425.00" cy="195.00" r="3.40" fill="#00d26a"/>
<circle cx="435.00" cy="195.00" r="3.40" fill="#00d26a"/>
<circle cx="375.00" cy="205.00" r="3.40" fill="#00d26a"/>
<circle cx="385.00" cy="205.00" r="3.40" fill="#00d26a"/>
<circle cx="395.00" cy="205.00" r="3.40" fill="#00d26a"/>
<circle cx="405.00" cy="205.00" r="3.40" fill="#00d26a"/>
<circle cx="415.00" cy="205.00" r="3.40" fill="#00d26a"/>
<circle cx="425.00" cy="205.00" r="3.40" fill="#00d26a"/>
<circle cx="435.00" cy="205.00" r="3.40" fill="#00d26a"/>
<circle cx="405.00" cy="215.00" r="3.40" fill="#00d26a"/>
<circle cx="415.00" cy="215.00" r="3.40" fill="#00d26a"/>
<circle cx="425.00" cy="215.00" r="3.40" fill="#00d26a"/>
<defs>
  <pattern id="dotgrid" width="24" height="24" patternUnits="userSpaceOnUse">
    <circle cx="4" cy="4" r="0.85" fill="#58A6FF" opacity="0.22"/>
  </pattern>
</defs>
</svg>
