<svg width="800" height="280" viewBox="0 0 800 280" fill="none" xmlns="http://www.w3.org/2000/svg" role="img" aria-labelledby="title desc">
<title id="title">Daily pixel drop</title>
<desc id="desc">2026 / 05 / 18. RARE drop Watermelon.</desc>
<rect width="800" height="280" rx="8" fill="#0D1117"/>
<rect x="1" y="1" width="798" height="278" rx="7" stroke="#243246"/>
<rect x="18" y="18" width="764" height="244" rx="5" fill="url(#dotgrid)" opacity="0.58"/>
<path d="M52 46H32V66M748 46H768V66M52 234H32V214M748 234H768V214" stroke="#58a6ff" stroke-width="1.5" stroke-linecap="square" opacity="0.76"/>
<rect x="304" y="56" width="192" height="188" rx="5" stroke="#58a6ff" opacity="0.54"/>
<circle cx="355.00" cy="95.00" r="3.40" fill="#b2c169"/>
<circle cx="345.00" cy="105.00" r="3.40" fill="#8faa50"/>
<circle cx="355.00" cy="105.00" r="3.40" fill="#f9c38d"/>
<circle cx="365.00" cy="105.00" r="3.40" fill="#ff6c75"/>
<circle cx="375.00" cy="105.00" r="3.40" fill="#ff6c75"/>
<circle cx="335.00" cy="115.00" r="3.40" fill="#799b40"/>
<circle cx="345.00" cy="115.00" r="3.40" fill="#c3cd75"/>
<circle cx="355.00" cy="115.00" r="3.40" fill="#ff847d"/>
<circle cx="365.00" cy="115.00" r="3.40" fill="#ff6c75"/>
<circle cx="375.00" cy="115.00" r="3.40" fill="#ff6c75"/>
<circle cx="385.00" cy="115.00" r="3.40" fill="#ff6c75"/>
<circle cx="395.00" cy="115.00" r="3.40" fill="#ff6c75"/>
<circle cx="335.00" cy="125.00" r="3.40" fill="#7a9c41"/>
<circle cx="345.00" cy="125.00" r="3.40" fill="#ead28a"/>
<circle cx="355.00" cy="125.00" r="3.40" fill="#ff6c75"/>
<circle cx="365.00" cy="125.00" r="3.40" fill="#e8656d"/>
<circle cx="375.00" cy="125.00" r="3.40" fill="#c35a61"/>
<circle cx="385.00" cy="125.00" r="3.40" fill="#ff6c75"/>
<circle cx="395.00" cy="125.00" r="3.40" fill="#ff6c75"/>
<circle cx="405.00" cy="125.00" r="3.40" fill="#ff6c75"/>
<circle cx="415.00" cy="125.00" r="3.40" fill="#ff6c75"/>
<circle cx="425.00" cy="125.00" r="3.40" fill="#ff6c74"/>
<circle cx="335.00" cy="135.00" r="3.40" fill="#7c9e43"/>
<circle cx="345.00" cy="135.00" r="3.40" fill="#fec791"/>
<circle cx="355.00" cy="135.00" r="3.40" fill="#ff6c75"/>
<circle cx="365.00" cy="135.00" r="3.40" fill="#ee676f"/>
<circle cx="375.00" cy="135.00" r="3.40" fill="#eb666e"/>
<circle cx="385.00" cy="135.00" r="3.40" fill="#fb6b74"/>
<circle cx="395.00" cy="135.00" r="3.40" fill="#ff6c75"/>
<circle cx="405.00" cy="135.00" r="3.40" fill="#ff6c75"/>
<circle cx="415.00" cy="135.00" r="3.40" fill="#ff6c75"/>
<circle cx="425.00" cy="135.00" r="3.40" fill="#ff6c75"/>
<circle cx="435.00" cy="135.00" r="3.40" fill="#ff6c75"/>
<circle cx="445.00" cy="135.00" r="3.40" fill="#ff6c74"/>
<circle cx="335.00" cy="145.00" r="3.40" fill="#7e9f44"/>
<circle cx="345.00" cy="145.00" r="3.40" fill="#ffc691"/>
<circle cx="355.00" cy="145.00" r="3.40" fill="#ff6c75"/>
<circle cx="365.00" cy="145.00" r="3.40" fill="#ff6c75"/>
<circle cx="375.00" cy="145.00" r="3.40" fill="#cd5d64"/>
<circle cx="385.00" cy="145.00" r="3.40" fill="#b7575d"/>
<circle cx="395.00" cy="145.00" r="3.40" fill="#df636a"/>
<circle cx="405.00" cy="145.00" r="3.40" fill="#ee676f"/>
<circle cx="415.00" cy="145.00" r="3.40" fill="#a15155"/>
<circle cx="425.00" cy="145.00" r="3.40" fill="#ee676f"/>
<circle cx="435.00" cy="145.00" r="3.40" fill="#ff6c75"/>
<circle cx="445.00" cy="145.00" r="3.40" fill="#ff7578"/>
<circle cx="455.00" cy="145.00" r="3.40" fill="#ead98c"/>
<circle cx="465.00" cy="145.00" r="3.40" fill="#7a9c41"/>
<circle cx="335.00" cy="155.00" r="3.40" fill="#7a9c41"/>
<circle cx="345.00" cy="155.00" r="3.40" fill="#f2d78f"/>
<circle cx="355.00" cy="155.00" r="3.40" fill="#ff6c75"/>
<circle cx="365.00" cy="155.00" r="3.40" fill="#ff6c75"/>
<circle cx="375.00" cy="155.00" r="3.40" fill="#ff6c75"/>
<circle cx="385.00" cy="155.00" r="3.40" fill="#ff6c75"/>
<circle cx="395.00" cy="155.00" r="3.40" fill="#cd5d64"/>
<circle cx="405.00" cy="155.00" r="3.40" fill="#e5646c"/>
<circle cx="415.00" cy="155.00" r="3.40" fill="#f26871"/>
<circle cx="425.00" cy="155.00" r="3.40" fill="#fc6b74"/>
<circle cx="435.00" cy="155.00" r="3.40" fill="#ff6e76"/>
<circle cx="445.00" cy="155.00" r="3.40" fill="#fecd93"/>
<circle cx="455.00" cy="155.00" r="3.40" fill="#9fb558"/>
<circle cx="465.00" cy="155.00" r="3.40" fill="#7e9e40"/>
<circle cx="335.00" cy="165.00" r="3.40" fill="#799c40"/>
<circle cx="345.00" cy="165.00" r="3.40" fill="#cad27a"/>
<circle cx="355.00" cy="165.00" r="3.40" fill="#ff9481"/>
<circle cx="365.00" cy="165.00" r="3.40" fill="#ff6c75"/>
<circle cx="375.00" cy="165.00" r="3.40" fill="#ff6c75"/>
<circle cx="385.00" cy="165.00" r="3.40" fill="#ff6c75"/>
<circle cx="395.00" cy="165.00" r="3.40" fill="#ff6c75"/>
<circle cx="405.00" cy="165.00" r="3.40" fill="#ff6c75"/>
<circle cx="415.00" cy="165.00" r="3.40" fill="#ff6c75"/>
<circle cx="425.00" cy="165.00" r="3.40" fill="#ff6e76"/>
<circle cx="435.00" cy="165.00" r="3.40" fill="#ffc390"/>
<circle cx="445.00" cy="165.00" r="3.40" fill="#b4c36a"/>
<circle cx="455.00" cy="165.00" r="3.40" fill="#9fb439"/>
<circle cx="465.00" cy="165.00" r="3.40" fill="#7c9e40"/>
<circle cx="345.00" cy="175.00" r="3.40" fill="#8ea94f"/>
<circle cx="355.00" cy="175.00" r="3.40" fill="#f3e495"/>
<circle cx="365.00" cy="175.00" r="3.40" fill="#ff8e7f"/>
<circle cx="375.00" cy="175.00" r="3.40" fill="#ff6c75"/>
<circle cx="385.00" cy="175.00" r="3.40" fill="#ff6c75"/>
<circle cx="395.00" cy="175.00" r="3.40" fill="#ff6c75"/>
<circle cx="405.00" cy="175.00" r="3.40" fill="#ff6c75"/>
<circle cx="415.00" cy="175.00" r="3.40" fill="#ff887e"/>
<circle cx="425.00" cy="175.00" r="3.40" fill="#fcd494"/>
<circle cx="435.00" cy="175.00" r="3.40" fill="#b2c268"/>
<circle cx="445.00" cy="175.00" r="3.40" fill="#96ae3b"/>
<circle cx="455.00" cy="175.00" r="3.40" fill="#a7b938"/>
<circle cx="465.00" cy="175.00" r="3.40" fill="#7f9f40"/>
<circle cx="355.00" cy="185.00" r="3.40" fill="#92ac52"/>
<circle cx="365.00" cy="185.00" r="3.40" fill="#dcdd86"/>
<circle cx="375.00" cy="185.00" r="3.40" fill="#fed395"/>
<circle cx="385.00" cy="185.00" r="3.40" fill="#ffbb8e"/>
<circle cx="395.00" cy="185.00" r="3.40" fill="#ffc08f"/>
<circle cx="405.00" cy="185.00" r="3.40" fill="#fada95"/>
<circle cx="415.00" cy="185.00" r="3.40" fill="#d2d780"/>
<circle cx="425.00" cy="185.00" r="3.40" fill="#a4b84c"/>
<circle cx="435.00" cy="185.00" r="3.40" fill="#a7b938"/>
<circle cx="445.00" cy="185.00" r="3.40" fill="#9fb439"/>
<circle cx="455.00" cy="185.00" r="3.40" fill="#94ad3b"/>
<circle cx="365.00" cy="195.00" r="3.40" fill="#7a9c41"/>
<circle cx="375.00" cy="195.00" r="3.40" fill="#91ab47"/>
<circle cx="385.00" cy="195.00" r="3.40" fill="#a3b752"/>
<circle cx="395.00" cy="195.00" r="3.40" fill="#92ac51"/>
<circle cx="405.00" cy="195.00" r="3.40" fill="#8ba741"/>
<circle cx="415.00" cy="195.00" r="3.40" fill="#abbc37"/>
<circle cx="425.00" cy="195.00" r="3.40" fill="#a2b639"/>
<circle cx="435.00" cy="195.00" r="3.40" fill="#adbd36"/>
<circle cx="445.00" cy="195.00" r="3.40" fill="#a7b937"/>
<circle cx="385.00" cy="205.00" r="3.40" fill="#a7b937"/>
<circle cx="395.00" cy="205.00" r="3.40" fill="#a6b937"/>
<circle cx="405.00" cy="205.00" r="3.40" fill="#bdc733"/>
<circle cx="415.00" cy="205.00" r="3.40" fill="#96ae3b"/>
<circle cx="425.00" cy="205.00" r="3.40" fill="#7d9e40"/>
<circle cx="435.00" cy="205.00" r="3.40" fill="#b3c134"/>
<defs>
  <pattern id="dotgrid" width="24" height="24" patternUnits="userSpaceOnUse">
    <circle cx="4" cy="4" r="0.85" fill="#58A6FF" opacity="0.22"/>
  </pattern>
</defs>
</svg>
