<svg width="800" height="280" viewBox="0 0 800 280" fill="none" xmlns="http://www.w3.org/2000/svg" role="img" aria-labelledby="title desc">
<title id="title">Daily pixel drop</title>
<desc id="desc">2026 / 09 / 25. COMMON drop Open Book.</desc>
<rect width="800" height="280" rx="8" fill="#0D1117"/>
<rect x="1" y="1" width="798" height="278" rx="7" stroke="#243246"/>
<rect x="18" y="18" width="764" height="244" rx="5" fill="url(#dotgrid)" opacity="0.58"/>
<path d="M52 46H32V66M748 46H768V66M52 234H32V214M748 234H768V214" stroke="#8b949e" stroke-width="1.5" stroke-linecap="square" opacity="0.76"/>
<rect x="304" y="56" width="192" height="188" rx="5" stroke="#8b949e" opacity="0.54"/>
<circle cx="355.00" cy="105.00" r="3.40" fill="#f5f5f5"/>
<circle cx="365.00" cy="105.00" r="3.40" fill="#f5f5f5"/>
<circle cx="375.00" cy="105.00" r="3.40" fill="#f4f5f5"/>
<circle cx="385.00" cy="105.00" r="3.40" fill="#eef1f3"/>
<circle cx="395.00" cy="105.00" r="3.40" fill="#dde9ed"/>
<circle cx="405.00" cy="105.00" r="3.40" fill="#f5f5f5"/>
<circle cx="415.00" cy="105.00" r="3.40" fill="#eff1f2"/>
<circle cx="425.00" cy="105.00" r="3.40" fill="#f3f4f4"/>
<circle cx="435.00" cy="105.00" r="3.40" fill="#f5f5f5"/>
<circle cx="445.00" cy="105.00" r="3.40" fill="#f5f5f5"/>
<circle cx="335.00" cy="115.00" r="3.40" fill="#1799e7"/>
<circle cx="345.00" cy="115.00" r="3.40" fill="#d1e4ec"/>
<circle cx="355.00" cy="115.00" r="3.40" fill="#e2e8ec"/>
<circle cx="365.00" cy="115.00" r="3.40" fill="#dee5ea"/>
<circle cx="375.00" cy="115.00" r="3.40" fill="#c9d7e1"/>
<circle cx="385.00" cy="115.00" r="3.40" fill="#c8d7e1"/>
<circle cx="395.00" cy="115.00" r="3.40" fill="#cbdce5"/>
<circle cx="405.00" cy="115.00" r="3.40" fill="#e8ecef"/>
<circle cx="415.00" cy="115.00" r="3.40" fill="#c2d2de"/>
<circle cx="425.00" cy="115.00" r="3.40" fill="#d0dce4"/>
<circle cx="435.00" cy="115.00" r="3.40" fill="#d2dde5"/>
<circle cx="445.00" cy="115.00" r="3.40" fill="#d9e2e8"/>
<circle cx="455.00" cy="115.00" r="3.40" fill="#cfe3eb"/>
<circle cx="465.00" cy="115.00" r="3.40" fill="#1798e6"/>
<circle cx="335.00" cy="125.00" r="3.40" fill="#229de5"/>
<circle cx="345.00" cy="125.00" r="3.40" fill="#d6e6eb"/>
<circle cx="355.00" cy="125.00" r="3.40" fill="#d4dfe6"/>
<circle cx="365.00" cy="125.00" r="3.40" fill="#cfdbe4"/>
<circle cx="375.00" cy="125.00" r="3.40" fill="#d7e0e7"/>
<circle cx="385.00" cy="125.00" r="3.40" fill="#d3dfe6"/>
<circle cx="395.00" cy="125.00" r="3.40" fill="#cfdfe6"/>
<circle cx="405.00" cy="125.00" r="3.40" fill="#eaedf0"/>
<circle cx="415.00" cy="125.00" r="3.40" fill="#e1e7ec"/>
<circle cx="425.00" cy="125.00" r="3.40" fill="#dae3e9"/>
<circle cx="435.00" cy="125.00" r="3.40" fill="#dae2e9"/>
<circle cx="445.00" cy="125.00" r="3.40" fill="#d1dde5"/>
<circle cx="455.00" cy="125.00" r="3.40" fill="#d3e4ea"/>
<circle cx="465.00" cy="125.00" r="3.40" fill="#229de5"/>
<circle cx="335.00" cy="135.00" r="3.40" fill="#239de5"/>
<circle cx="345.00" cy="135.00" r="3.40" fill="#d7e7ec"/>
<circle cx="355.00" cy="135.00" r="3.40" fill="#cddae3"/>
<circle cx="365.00" cy="135.00" r="3.40" fill="#d9e2e8"/>
<circle cx="375.00" cy="135.00" r="3.40" fill="#e6ebee"/>
<circle cx="385.00" cy="135.00" r="3.40" fill="#d1dee6"/>
<circle cx="395.00" cy="135.00" r="3.40" fill="#d2e1e8"/>
<circle cx="405.00" cy="135.00" r="3.40" fill="#edf0f1"/>
<circle cx="415.00" cy="135.00" r="3.40" fill="#d9e2e8"/>
<circle cx="425.00" cy="135.00" r="3.40" fill="#e2e8ed"/>
<circle cx="435.00" cy="135.00" r="3.40" fill="#dde5ea"/>
<circle cx="445.00" cy="135.00" r="3.40" fill="#cad8e2"/>
<circle cx="455.00" cy="135.00" r="3.40" fill="#d3e4ea"/>
<circle cx="465.00" cy="135.00" r="3.40" fill="#229de5"/>
<circle cx="335.00" cy="145.00" r="3.40" fill="#239de5"/>
<circle cx="345.00" cy="145.00" r="3.40" fill="#d9e8ec"/>
<circle cx="355.00" cy="145.00" r="3.40" fill="#dce4ea"/>
<circle cx="365.00" cy="145.00" r="3.40" fill="#e7ebef"/>
<circle cx="375.00" cy="145.00" r="3.40" fill="#d5dfe7"/>
<circle cx="385.00" cy="145.00" r="3.40" fill="#c5d6e0"/>
<circle cx="395.00" cy="145.00" r="3.40" fill="#d1e1e8"/>
<circle cx="405.00" cy="145.00" r="3.40" fill="#edf0f1"/>
<circle cx="415.00" cy="145.00" r="3.40" fill="#cedbe3"/>
<circle cx="425.00" cy="145.00" r="3.40" fill="#d7e1e8"/>
<circle cx="435.00" cy="145.00" r="3.40" fill="#e6ebee"/>
<circle cx="445.00" cy="145.00" r="3.40" fill="#d9e2e8"/>
<circle cx="455.00" cy="145.00" r="3.40" fill="#d7e6eb"/>
<circle cx="465.00" cy="145.00" r="3.40" fill="#239de5"/>
<circle cx="335.00" cy="155.00" r="3.40" fill="#249ee5"/>
<circle cx="345.00" cy="155.00" r="3.40" fill="#dbe8ed"/>
<circle cx="355.00" cy="155.00" r="3.40" fill="#dce4ea"/>
<circle cx="365.00" cy="155.00" r="3.40" fill="#d1dce5"/>
<circle cx="375.00" cy="155.00" r="3.40" fill="#d9e2e8"/>
<circle cx="385.00" cy="155.00" r="3.40" fill="#c3d5e0"/>
<circle cx="395.00" cy="155.00" r="3.40" fill="#cadce4"/>
<circle cx="405.00" cy="155.00" r="3.40" fill="#e7ebef"/>
<circle cx="415.00" cy="155.00" r="3.40" fill="#c8d6e1"/>
<circle cx="425.00" cy="155.00" r="3.40" fill="#d3dee6"/>
<circle cx="435.00" cy="155.00" r="3.40" fill="#cfdbe4"/>
<circle cx="445.00" cy="155.00" r="3.40" fill="#e6ebee"/>
<circle cx="455.00" cy="155.00" r="3.40" fill="#d9e7ec"/>
<circle cx="465.00" cy="155.00" r="3.40" fill="#239de5"/>
<circle cx="335.00" cy="165.00" r="3.40" fill="#2a9ee1"/>
<circle cx="345.00" cy="165.00" r="3.40" fill="#dae6ea"/>
<circle cx="355.00" cy="165.00" r="3.40" fill="#cfdbe4"/>
<circle cx="365.00" cy="165.00" r="3.40" fill="#d1dde5"/>
<circle cx="375.00" cy="165.00" r="3.40" fill="#e5eaee"/>
<circle cx="385.00" cy="165.00" r="3.40" fill="#ccdbe4"/>
<circle cx="395.00" cy="165.00" r="3.40" fill="#d0e0e7"/>
<circle cx="405.00" cy="165.00" r="3.40" fill="#ebeef0"/>
<circle cx="415.00" cy="165.00" r="3.40" fill="#d8e1e8"/>
<circle cx="425.00" cy="165.00" r="3.40" fill="#d9e2e9"/>
<circle cx="435.00" cy="165.00" r="3.40" fill="#d8e1e8"/>
<circle cx="445.00" cy="165.00" r="3.40" fill="#c8d6e0"/>
<circle cx="455.00" cy="165.00" r="3.40" fill="#d7e4e9"/>
<circle cx="465.00" cy="165.00" r="3.40" fill="#2a9ee1"/>
<circle cx="335.00" cy="175.00" r="3.40" fill="#2f9ede"/>
<circle cx="345.00" cy="175.00" r="3.40" fill="#d5e0e4"/>
<circle cx="355.00" cy="175.00" r="3.40" fill="#cdd5db"/>
<circle cx="365.00" cy="175.00" r="3.40" fill="#c2cfd5"/>
<circle cx="375.00" cy="175.00" r="3.40" fill="#b4c8d0"/>
<circle cx="385.00" cy="175.00" r="3.40" fill="#acc8d2"/>
<circle cx="395.00" cy="175.00" r="3.40" fill="#c9dce2"/>
<circle cx="405.00" cy="175.00" r="3.40" fill="#dbe4e8"/>
<circle cx="415.00" cy="175.00" r="3.40" fill="#b3cad3"/>
<circle cx="425.00" cy="175.00" r="3.40" fill="#b4c8d0"/>
<circle cx="435.00" cy="175.00" r="3.40" fill="#c2cfd5"/>
<circle cx="445.00" cy="175.00" r="3.40" fill="#cfd7db"/>
<circle cx="455.00" cy="175.00" r="3.40" fill="#d3dfe4"/>
<circle cx="465.00" cy="175.00" r="3.40" fill="#2f9ede"/>
<circle cx="335.00" cy="185.00" r="3.40" fill="#2198e0"/>
<circle cx="345.00" cy="185.00" r="3.40" fill="#6eb4d5"/>
<circle cx="355.00" cy="185.00" r="3.40" fill="#74bada"/>
<circle cx="365.00" cy="185.00" r="3.40" fill="#6bb7db"/>
<circle cx="375.00" cy="185.00" r="3.40" fill="#55abd8"/>
<circle cx="385.00" cy="185.00" r="3.40" fill="#588399"/>
<circle cx="395.00" cy="185.00" r="3.40" fill="#7b9ba5"/>
<circle cx="405.00" cy="185.00" r="3.40" fill="#7b9ba6"/>
<circle cx="415.00" cy="185.00" r="3.40" fill="#588399"/>
<circle cx="425.00" cy="185.00" r="3.40" fill="#55abd8"/>
<circle cx="435.00" cy="185.00" r="3.40" fill="#6bb7db"/>
<circle cx="445.00" cy="185.00" r="3.40" fill="#75bbda"/>
<circle cx="455.00" cy="185.00" r="3.40" fill="#6fb4d5"/>
<circle cx="465.00" cy="185.00" r="3.40" fill="#2198e0"/>
<circle cx="335.00" cy="195.00" r="3.40" fill="#0072bf"/>
<circle cx="345.00" cy="195.00" r="3.40" fill="#0071be"/>
<circle cx="355.00" cy="195.00" r="3.40" fill="#0168b3"/>
<circle cx="365.00" cy="195.00" r="3.40" fill="#015ca1"/>
<circle cx="375.00" cy="195.00" r="3.40" fill="#01579a"/>
<circle cx="385.00" cy="195.00" r="3.40" fill="#2b5a80"/>
<circle cx="395.00" cy="195.00" r="3.40" fill="#585d5f"/>
<circle cx="405.00" cy="195.00" r="3.40" fill="#595e60"/>
<circle cx="415.00" cy="195.00" r="3.40" fill="#2b5a80"/>
<circle cx="425.00" cy="195.00" r="3.40" fill="#01579a"/>
<circle cx="435.00" cy="195.00" r="3.40" fill="#015ca1"/>
<circle cx="445.00" cy="195.00" r="3.40" fill="#0168b3"/>
<circle cx="455.00" cy="195.00" r="3.40" fill="#0071be"/>
<circle cx="465.00" cy="195.00" r="3.40" fill="#0072bf"/>
<defs>
  <pattern id="dotgrid" width="24" height="24" patternUnits="userSpaceOnUse">
    <circle cx="4" cy="4" r="0.85" fill="#58A6FF" opacity="0.22"/>
  </pattern>
</defs>
</svg>
