<svg width="800" height="280" viewBox="0 0 800 280" fill="none" xmlns="http://www.w3.org/2000/svg" role="img" aria-labelledby="title desc">
<title id="title">Daily pixel drop</title>
<desc id="desc">2026 / 05 / 26. COMMON drop First Quarter Moon Face.</desc>
<rect width="800" height="280" rx="8" fill="#0D1117"/>
<rect x="1" y="1" width="798" height="278" rx="7" stroke="#243246"/>
<rect x="18" y="18" width="764" height="244" rx="5" fill="url(#dotgrid)" opacity="0.58"/>
<path d="M52 46H32V66M748 46H768V66M52 234H32V214M748 234H768V214" stroke="#8b949e" stroke-width="1.5" stroke-linecap="square" opacity="0.76"/>
<rect x="304" y="56" width="192" height="188" rx="5" stroke="#8b949e" opacity="0.54"/>
<circle cx="385.00" cy="85.00" r="3.40" fill="#fac93c"/>
<circle cx="375.00" cy="95.00" r="3.40" fill="#fcd53f"/>
<circle cx="385.00" cy="95.00" r="3.40" fill="#fac93d"/>
<circle cx="395.00" cy="95.00" r="3.40" fill="#f9c23c"/>
<circle cx="405.00" cy="95.00" r="3.40" fill="#f9c63c"/>
<circle cx="415.00" cy="95.00" r="3.40" fill="#fcd53f"/>
<circle cx="385.00" cy="105.00" r="3.40" fill="#fcd53f"/>
<circle cx="395.00" cy="105.00" r="3.40" fill="#fcd13e"/>
<circle cx="405.00" cy="105.00" r="3.40" fill="#fcd43f"/>
<circle cx="415.00" cy="105.00" r="3.40" fill="#fac73d"/>
<circle cx="425.00" cy="105.00" r="3.40" fill="#fbd23e"/>
<circle cx="395.00" cy="115.00" r="3.40" fill="#fcd53f"/>
<circle cx="405.00" cy="115.00" r="3.40" fill="#fcd53f"/>
<circle cx="415.00" cy="115.00" r="3.40" fill="#fbcc3d"/>
<circle cx="425.00" cy="115.00" r="3.40" fill="#b79540"/>
<circle cx="435.00" cy="115.00" r="3.40" fill="#e4be3f"/>
<circle cx="395.00" cy="125.00" r="3.40" fill="#fcd43f"/>
<circle cx="405.00" cy="125.00" r="3.40" fill="#fcd53f"/>
<circle cx="415.00" cy="125.00" r="3.40" fill="#ebc53f"/>
<circle cx="425.00" cy="125.00" r="3.40" fill="#e9c43f"/>
<circle cx="435.00" cy="125.00" r="3.40" fill="#997a40"/>
<circle cx="445.00" cy="125.00" r="3.40" fill="#fcd53f"/>
<circle cx="395.00" cy="135.00" r="3.40" fill="#fcd53e"/>
<circle cx="405.00" cy="135.00" r="3.40" fill="#e0bc3f"/>
<circle cx="415.00" cy="135.00" r="3.40" fill="#6f5340"/>
<circle cx="425.00" cy="135.00" r="3.40" fill="#6b5041"/>
<circle cx="435.00" cy="135.00" r="3.40" fill="#e0bc3f"/>
<circle cx="445.00" cy="135.00" r="3.40" fill="#fcd53f"/>
<circle cx="395.00" cy="145.00" r="3.40" fill="#fbd53f"/>
<circle cx="405.00" cy="145.00" r="3.40" fill="#fad33f"/>
<circle cx="415.00" cy="145.00" r="3.40" fill="#f7d13f"/>
<circle cx="425.00" cy="145.00" r="3.40" fill="#f9d23f"/>
<circle cx="435.00" cy="145.00" r="3.40" fill="#fbcd3e"/>
<circle cx="445.00" cy="145.00" r="3.40" fill="#f9c43c"/>
<circle cx="395.00" cy="155.00" r="3.40" fill="#fcd53f"/>
<circle cx="405.00" cy="155.00" r="3.40" fill="#fcd53f"/>
<circle cx="415.00" cy="155.00" r="3.40" fill="#f5cf3f"/>
<circle cx="425.00" cy="155.00" r="3.40" fill="#fcd53f"/>
<circle cx="435.00" cy="155.00" r="3.40" fill="#f9c43c"/>
<circle cx="445.00" cy="155.00" r="3.40" fill="#f9c33c"/>
<circle cx="395.00" cy="165.00" r="3.40" fill="#fcd53f"/>
<circle cx="405.00" cy="165.00" r="3.40" fill="#b79540"/>
<circle cx="415.00" cy="165.00" r="3.40" fill="#917340"/>
<circle cx="425.00" cy="165.00" r="3.40" fill="#fcd53f"/>
<circle cx="435.00" cy="165.00" r="3.40" fill="#faca3d"/>
<circle cx="445.00" cy="165.00" r="3.40" fill="#f9c33c"/>
<circle cx="395.00" cy="175.00" r="3.40" fill="#fcd53f"/>
<circle cx="405.00" cy="175.00" r="3.40" fill="#e3be3f"/>
<circle cx="415.00" cy="175.00" r="3.40" fill="#f9d33f"/>
<circle cx="425.00" cy="175.00" r="3.40" fill="#fcd53f"/>
<circle cx="435.00" cy="175.00" r="3.40" fill="#fcd53f"/>
<circle cx="445.00" cy="175.00" r="3.40" fill="#fcd33e"/>
<circle cx="385.00" cy="185.00" r="3.40" fill="#fcd43f"/>
<circle cx="395.00" cy="185.00" r="3.40" fill="#fbcd3e"/>
<circle cx="405.00" cy="185.00" r="3.40" fill="#fbd13e"/>
<circle cx="415.00" cy="185.00" r="3.40" fill="#fcd53f"/>
<circle cx="425.00" cy="185.00" r="3.40" fill="#fcd53f"/>
<circle cx="435.00" cy="185.00" r="3.40" fill="#fcd53f"/>
<circle cx="375.00" cy="195.00" r="3.40" fill="#fcd53f"/>
<circle cx="385.00" cy="195.00" r="3.40" fill="#fbd03e"/>
<circle cx="395.00" cy="195.00" r="3.40" fill="#f9c23c"/>
<circle cx="405.00" cy="195.00" r="3.40" fill="#fac53c"/>
<circle cx="415.00" cy="195.00" r="3.40" fill="#fcd53f"/>
<circle cx="425.00" cy="195.00" r="3.40" fill="#fcd53f"/>
<circle cx="365.00" cy="205.00" r="3.40" fill="#fcd53f"/>
<circle cx="375.00" cy="205.00" r="3.40" fill="#fcd53f"/>
<circle cx="385.00" cy="205.00" r="3.40" fill="#fcd43f"/>
<circle cx="395.00" cy="205.00" r="3.40" fill="#fac93d"/>
<circle cx="405.00" cy="205.00" r="3.40" fill="#facc3d"/>
<circle cx="415.00" cy="205.00" r="3.40" fill="#fcd53f"/>
<defs>
  <pattern id="dotgrid" width="24" height="24" patternUnits="userSpaceOnUse">
    <circle cx="4" cy="4" r="0.85" fill="#58A6FF" opacity="0.22"/>
  </pattern>
</defs>
</svg>
