<svg width="800" height="280" viewBox="0 0 800 280" fill="none" xmlns="http://www.w3.org/2000/svg" role="img" aria-labelledby="title desc">
<title id="title">Daily pixel drop</title>
<desc id="desc">2026 / 06 / 04. COMMON drop Grapes.</desc>
<rect width="800" height="280" rx="8" fill="#0D1117"/>
<rect x="1" y="1" width="798" height="278" rx="7" stroke="#243246"/>
<rect x="18" y="18" width="764" height="244" rx="5" fill="url(#dotgrid)" opacity="0.58"/>
<path d="M52 46H32V66M748 46H768V66M52 234H32V214M748 234H768V214" stroke="#8b949e" stroke-width="1.5" stroke-linecap="square" opacity="0.76"/>
<rect x="304" y="56" width="192" height="188" rx="5" stroke="#8b949e" opacity="0.54"/>
<circle cx="405.00" cy="95.00" r="3.40" fill="#96c34a"/>
<circle cx="395.00" cy="105.00" r="3.40" fill="#96c349"/>
<circle cx="405.00" cy="105.00" r="3.40" fill="#96c34a"/>
<circle cx="365.00" cy="115.00" r="3.40" fill="#608842"/>
<circle cx="375.00" cy="115.00" r="3.40" fill="#608842"/>
<circle cx="385.00" cy="115.00" r="3.40" fill="#608842"/>
<circle cx="395.00" cy="115.00" r="3.40" fill="#8fbb49"/>
<circle cx="405.00" cy="115.00" r="3.40" fill="#96c34a"/>
<circle cx="345.00" cy="125.00" r="3.40" fill="#608842"/>
<circle cx="355.00" cy="125.00" r="3.40" fill="#608842"/>
<circle cx="365.00" cy="125.00" r="3.40" fill="#608842"/>
<circle cx="375.00" cy="125.00" r="3.40" fill="#608842"/>
<circle cx="385.00" cy="125.00" r="3.40" fill="#608842"/>
<circle cx="395.00" cy="125.00" r="3.40" fill="#6b9443"/>
<circle cx="405.00" cy="125.00" r="3.40" fill="#95c14b"/>
<circle cx="425.00" cy="125.00" r="3.40" fill="#433b6b"/>
<circle cx="435.00" cy="125.00" r="3.40" fill="#433b6b"/>
<circle cx="445.00" cy="125.00" r="3.40" fill="#433b6b"/>
<circle cx="355.00" cy="135.00" r="3.40" fill="#608842"/>
<circle cx="365.00" cy="135.00" r="3.40" fill="#608842"/>
<circle cx="375.00" cy="135.00" r="3.40" fill="#608842"/>
<circle cx="385.00" cy="135.00" r="3.40" fill="#608842"/>
<circle cx="395.00" cy="135.00" r="3.40" fill="#666568"/>
<circle cx="405.00" cy="135.00" r="3.40" fill="#6e4c87"/>
<circle cx="415.00" cy="135.00" r="3.40" fill="#6a438a"/>
<circle cx="425.00" cy="135.00" r="3.40" fill="#4f3d75"/>
<circle cx="435.00" cy="135.00" r="3.40" fill="#433b6b"/>
<circle cx="445.00" cy="135.00" r="3.40" fill="#433b6b"/>
<circle cx="455.00" cy="135.00" r="3.40" fill="#433b6b"/>
<circle cx="375.00" cy="145.00" r="3.40" fill="#533864"/>
<circle cx="385.00" cy="145.00" r="3.40" fill="#533566"/>
<circle cx="395.00" cy="145.00" r="3.40" fill="#674184"/>
<circle cx="405.00" cy="145.00" r="3.40" fill="#6b438b"/>
<circle cx="415.00" cy="145.00" r="3.40" fill="#6b438b"/>
<circle cx="425.00" cy="145.00" r="3.40" fill="#624184"/>
<circle cx="435.00" cy="145.00" r="3.40" fill="#433b6b"/>
<circle cx="445.00" cy="145.00" r="3.40" fill="#433b6b"/>
<circle cx="455.00" cy="145.00" r="3.40" fill="#433a6a"/>
<circle cx="375.00" cy="155.00" r="3.40" fill="#533566"/>
<circle cx="385.00" cy="155.00" r="3.40" fill="#533566"/>
<circle cx="395.00" cy="155.00" r="3.40" fill="#603d7b"/>
<circle cx="405.00" cy="155.00" r="3.40" fill="#6b438b"/>
<circle cx="415.00" cy="155.00" r="3.40" fill="#6b438b"/>
<circle cx="425.00" cy="155.00" r="3.40" fill="#603e7d"/>
<circle cx="435.00" cy="155.00" r="3.40" fill="#4a3869"/>
<circle cx="445.00" cy="155.00" r="3.40" fill="#4f3767"/>
<circle cx="365.00" cy="165.00" r="3.40" fill="#523566"/>
<circle cx="375.00" cy="165.00" r="3.40" fill="#533566"/>
<circle cx="385.00" cy="165.00" r="3.40" fill="#533566"/>
<circle cx="395.00" cy="165.00" r="3.40" fill="#543567"/>
<circle cx="405.00" cy="165.00" r="3.40" fill="#573d78"/>
<circle cx="415.00" cy="165.00" r="3.40" fill="#553e79"/>
<circle cx="425.00" cy="165.00" r="3.40" fill="#523668"/>
<circle cx="435.00" cy="165.00" r="3.40" fill="#533566"/>
<circle cx="445.00" cy="165.00" r="3.40" fill="#533566"/>
<circle cx="455.00" cy="165.00" r="3.40" fill="#533566"/>
<circle cx="375.00" cy="175.00" r="3.40" fill="#533566"/>
<circle cx="385.00" cy="175.00" r="3.40" fill="#533566"/>
<circle cx="395.00" cy="175.00" r="3.40" fill="#4c3868"/>
<circle cx="405.00" cy="175.00" r="3.40" fill="#433b6b"/>
<circle cx="415.00" cy="175.00" r="3.40" fill="#433b6b"/>
<circle cx="425.00" cy="175.00" r="3.40" fill="#493969"/>
<circle cx="435.00" cy="175.00" r="3.40" fill="#533566"/>
<circle cx="445.00" cy="175.00" r="3.40" fill="#533566"/>
<circle cx="395.00" cy="185.00" r="3.40" fill="#433b6b"/>
<circle cx="405.00" cy="185.00" r="3.40" fill="#433b6b"/>
<circle cx="415.00" cy="185.00" r="3.40" fill="#433b6b"/>
<circle cx="425.00" cy="185.00" r="3.40" fill="#3d2d58"/>
<circle cx="435.00" cy="185.00" r="3.40" fill="#3d234d"/>
<circle cx="445.00" cy="185.00" r="3.40" fill="#371f46"/>
<circle cx="405.00" cy="195.00" r="3.40" fill="#433b6b"/>
<circle cx="415.00" cy="195.00" r="3.40" fill="#3b2d58"/>
<circle cx="425.00" cy="195.00" r="3.40" fill="#321c42"/>
<circle cx="435.00" cy="195.00" r="3.40" fill="#321b41"/>
<circle cx="445.00" cy="195.00" r="3.40" fill="#321b41"/>
<circle cx="415.00" cy="205.00" r="3.40" fill="#321b41"/>
<circle cx="425.00" cy="205.00" r="3.40" fill="#321b41"/>
<circle cx="435.00" cy="205.00" r="3.40" fill="#321b41"/>
<circle cx="445.00" cy="205.00" r="3.40" fill="#321b41"/>
<defs>
  <pattern id="dotgrid" width="24" height="24" patternUnits="userSpaceOnUse">
    <circle cx="4" cy="4" r="0.85" fill="#58A6FF" opacity="0.22"/>
  </pattern>
</defs>
</svg>
