<svg width="800" height="280" viewBox="0 0 800 280" fill="none" xmlns="http://www.w3.org/2000/svg" role="img" aria-labelledby="title desc">
<title id="title">Daily pixel drop</title>
<desc id="desc">2026 / 07 / 15. COMMON drop Camera.</desc>
<rect width="800" height="280" rx="8" fill="#0D1117"/>
<rect x="1" y="1" width="798" height="278" rx="7" stroke="#243246"/>
<rect x="18" y="18" width="764" height="244" rx="5" fill="url(#dotgrid)" opacity="0.58"/>
<path d="M52 46H32V66M748 46H768V66M52 234H32V214M748 234H768V214" stroke="#8b949e" stroke-width="1.5" stroke-linecap="square" opacity="0.76"/>
<rect x="304" y="56" width="192" height="188" rx="5" stroke="#8b949e" opacity="0.54"/>
<circle cx="355.00" cy="125.00" r="3.40" fill="#d3d3d3"/>
<circle cx="365.00" cy="125.00" r="3.40" fill="#d3d3d3"/>
<circle cx="425.00" cy="125.00" r="3.40" fill="#d3d3d3"/>
<circle cx="435.00" cy="125.00" r="3.40" fill="#d3d3d3"/>
<circle cx="445.00" cy="125.00" r="3.40" fill="#d3d3d3"/>
<circle cx="345.00" cy="135.00" r="3.40" fill="#e6e6e6"/>
<circle cx="355.00" cy="135.00" r="3.40" fill="#e2e2e2"/>
<circle cx="365.00" cy="135.00" r="3.40" fill="#e1e1e1"/>
<circle cx="375.00" cy="135.00" r="3.40" fill="#e6e6e6"/>
<circle cx="385.00" cy="135.00" r="3.40" fill="#e6e6e6"/>
<circle cx="395.00" cy="135.00" r="3.40" fill="#e6e6e6"/>
<circle cx="405.00" cy="135.00" r="3.40" fill="#e6e6e6"/>
<circle cx="415.00" cy="135.00" r="3.40" fill="#e6e6e6"/>
<circle cx="425.00" cy="135.00" r="3.40" fill="#e2e2e2"/>
<circle cx="435.00" cy="135.00" r="3.40" fill="#e1e1e1"/>
<circle cx="445.00" cy="135.00" r="3.40" fill="#e2e2e2"/>
<circle cx="455.00" cy="135.00" r="3.40" fill="#e6e6e6"/>
<circle cx="345.00" cy="145.00" r="3.40" fill="#e6e6e6"/>
<circle cx="355.00" cy="145.00" r="3.40" fill="#e6e6e6"/>
<circle cx="365.00" cy="145.00" r="3.40" fill="#e6e6e6"/>
<circle cx="375.00" cy="145.00" r="3.40" fill="#e6e6e6"/>
<circle cx="385.00" cy="145.00" r="3.40" fill="#e0e0e0"/>
<circle cx="395.00" cy="145.00" r="3.40" fill="#cacaca"/>
<circle cx="405.00" cy="145.00" r="3.40" fill="#cacaca"/>
<circle cx="415.00" cy="145.00" r="3.40" fill="#e0e0e0"/>
<circle cx="425.00" cy="145.00" r="3.40" fill="#e6e6e6"/>
<circle cx="435.00" cy="145.00" r="3.40" fill="#e6e6e6"/>
<circle cx="445.00" cy="145.00" r="3.40" fill="#e6e6e6"/>
<circle cx="455.00" cy="145.00" r="3.40" fill="#e6e6e6"/>
<circle cx="335.00" cy="155.00" r="3.40" fill="#755e83"/>
<circle cx="345.00" cy="155.00" r="3.40" fill="#533566"/>
<circle cx="355.00" cy="155.00" r="3.40" fill="#533566"/>
<circle cx="365.00" cy="155.00" r="3.40" fill="#533566"/>
<circle cx="375.00" cy="155.00" r="3.40" fill="#634b72"/>
<circle cx="385.00" cy="155.00" r="3.40" fill="#8e8a90"/>
<circle cx="395.00" cy="155.00" r="3.40" fill="#695e70"/>
<circle cx="405.00" cy="155.00" r="3.40" fill="#695e70"/>
<circle cx="415.00" cy="155.00" r="3.40" fill="#8e8a91"/>
<circle cx="425.00" cy="155.00" r="3.40" fill="#634b72"/>
<circle cx="435.00" cy="155.00" r="3.40" fill="#533566"/>
<circle cx="445.00" cy="155.00" r="3.40" fill="#533566"/>
<circle cx="455.00" cy="155.00" r="3.40" fill="#533566"/>
<circle cx="465.00" cy="155.00" r="3.40" fill="#725b81"/>
<circle cx="335.00" cy="165.00" r="3.40" fill="#533565"/>
<circle cx="345.00" cy="165.00" r="3.40" fill="#533566"/>
<circle cx="355.00" cy="165.00" r="3.40" fill="#533566"/>
<circle cx="365.00" cy="165.00" r="3.40" fill="#533566"/>
<circle cx="375.00" cy="165.00" r="3.40" fill="#8d8791"/>
<circle cx="385.00" cy="165.00" r="3.40" fill="#443151"/>
<circle cx="395.00" cy="165.00" r="3.40" fill="#37244d"/>
<circle cx="405.00" cy="165.00" r="3.40" fill="#796d88"/>
<circle cx="415.00" cy="165.00" r="3.40" fill="#6c5d75"/>
<circle cx="425.00" cy="165.00" r="3.40" fill="#8d8790"/>
<circle cx="435.00" cy="165.00" r="3.40" fill="#533566"/>
<circle cx="445.00" cy="165.00" r="3.40" fill="#533566"/>
<circle cx="455.00" cy="165.00" r="3.40" fill="#533566"/>
<circle cx="465.00" cy="165.00" r="3.40" fill="#533565"/>
<circle cx="335.00" cy="175.00" r="3.40" fill="#533565"/>
<circle cx="345.00" cy="175.00" r="3.40" fill="#533566"/>
<circle cx="355.00" cy="175.00" r="3.40" fill="#533566"/>
<circle cx="365.00" cy="175.00" r="3.40" fill="#563968"/>
<circle cx="375.00" cy="175.00" r="3.40" fill="#8a878d"/>
<circle cx="385.00" cy="175.00" r="3.40" fill="#331d43"/>
<circle cx="395.00" cy="175.00" r="3.40" fill="#433b6b"/>
<circle cx="405.00" cy="175.00" r="3.40" fill="#5f5881"/>
<circle cx="415.00" cy="175.00" r="3.40" fill="#5e4c6b"/>
<circle cx="425.00" cy="175.00" r="3.40" fill="#8b878d"/>
<circle cx="435.00" cy="175.00" r="3.40" fill="#563968"/>
<circle cx="445.00" cy="175.00" r="3.40" fill="#533566"/>
<circle cx="455.00" cy="175.00" r="3.40" fill="#533566"/>
<circle cx="465.00" cy="175.00" r="3.40" fill="#533565"/>
<circle cx="335.00" cy="185.00" r="3.40" fill="#533565"/>
<circle cx="345.00" cy="185.00" r="3.40" fill="#533566"/>
<circle cx="355.00" cy="185.00" r="3.40" fill="#533566"/>
<circle cx="365.00" cy="185.00" r="3.40" fill="#533566"/>
<circle cx="375.00" cy="185.00" r="3.40" fill="#908c92"/>
<circle cx="385.00" cy="185.00" r="3.40" fill="#392447"/>
<circle cx="395.00" cy="185.00" r="3.40" fill="#3b2c57"/>
<circle cx="405.00" cy="185.00" r="3.40" fill="#3b2c57"/>
<circle cx="415.00" cy="185.00" r="3.40" fill="#392447"/>
<circle cx="425.00" cy="185.00" r="3.40" fill="#908c92"/>
<circle cx="435.00" cy="185.00" r="3.40" fill="#533566"/>
<circle cx="445.00" cy="185.00" r="3.40" fill="#533566"/>
<circle cx="455.00" cy="185.00" r="3.40" fill="#533566"/>
<circle cx="465.00" cy="185.00" r="3.40" fill="#533565"/>
<circle cx="335.00" cy="195.00" r="3.40" fill="#604570"/>
<circle cx="345.00" cy="195.00" r="3.40" fill="#533566"/>
<circle cx="355.00" cy="195.00" r="3.40" fill="#533566"/>
<circle cx="365.00" cy="195.00" r="3.40" fill="#533566"/>
<circle cx="375.00" cy="195.00" r="3.40" fill="#6f5c7a"/>
<circle cx="385.00" cy="195.00" r="3.40" fill="#837e87"/>
<circle cx="395.00" cy="195.00" r="3.40" fill="#4f3e5a"/>
<circle cx="405.00" cy="195.00" r="3.40" fill="#4f3e5a"/>
<circle cx="415.00" cy="195.00" r="3.40" fill="#837e87"/>
<circle cx="425.00" cy="195.00" r="3.40" fill="#6f5c7a"/>
<circle cx="435.00" cy="195.00" r="3.40" fill="#533566"/>
<circle cx="445.00" cy="195.00" r="3.40" fill="#533566"/>
<circle cx="455.00" cy="195.00" r="3.40" fill="#533566"/>
<circle cx="465.00" cy="195.00" r="3.40" fill="#5d416e"/>
<circle cx="345.00" cy="205.00" r="3.40" fill="#c0b8c5"/>
<circle cx="355.00" cy="205.00" r="3.40" fill="#c1bac6"/>
<circle cx="365.00" cy="205.00" r="3.40" fill="#c1bac6"/>
<circle cx="375.00" cy="205.00" r="3.40" fill="#c1bac6"/>
<circle cx="385.00" cy="205.00" r="3.40" fill="#c9c7ca"/>
<circle cx="395.00" cy="205.00" r="3.40" fill="#b7b7b7"/>
<circle cx="405.00" cy="205.00" r="3.40" fill="#b7b7b7"/>
<circle cx="415.00" cy="205.00" r="3.40" fill="#c9c7ca"/>
<circle cx="425.00" cy="205.00" r="3.40" fill="#c1bac6"/>
<circle cx="435.00" cy="205.00" r="3.40" fill="#c1bac6"/>
<circle cx="445.00" cy="205.00" r="3.40" fill="#c1bac6"/>
<circle cx="455.00" cy="205.00" r="3.40" fill="#c0b8c5"/>
<circle cx="355.00" cy="215.00" r="3.40" fill="#e6e6e6"/>
<circle cx="365.00" cy="215.00" r="3.40" fill="#e6e6e6"/>
<circle cx="375.00" cy="215.00" r="3.40" fill="#e6e6e6"/>
<circle cx="385.00" cy="215.00" r="3.40" fill="#e6e6e6"/>
<circle cx="395.00" cy="215.00" r="3.40" fill="#e6e6e6"/>
<circle cx="405.00" cy="215.00" r="3.40" fill="#e6e6e6"/>
<circle cx="415.00" cy="215.00" r="3.40" fill="#e6e6e6"/>
<circle cx="425.00" cy="215.00" r="3.40" fill="#e6e6e6"/>
<circle cx="435.00" cy="215.00" r="3.40" fill="#e6e6e6"/>
<circle cx="445.00" cy="215.00" r="3.40" fill="#e6e6e6"/>
<defs>
  <pattern id="dotgrid" width="24" height="24" patternUnits="userSpaceOnUse">
    <circle cx="4" cy="4" r="0.85" fill="#58A6FF" opacity="0.22"/>
  </pattern>
</defs>
</svg>
