<svg width="800" height="330" viewBox="0 0 800 330" fill="none" xmlns="http://www.w3.org/2000/svg" role="img" aria-labelledby="title desc">
<title id="title">Signal Cache terminal easter egg</title>
<desc id="desc">ATBASH puzzle. COMMON drop Pixel Heart.</desc>
<rect width="800" height="330" rx="8" fill="#0D1117"/>
<rect x="1" y="1" width="798" height="328" rx="7" stroke="#243246"/>
<rect x="18" y="18" width="764" height="294" rx="5" fill="url(#dotgrid)" opacity="0.58"/>
<path d="M52 46H32V66M748 46H768V66M52 284H32V264M748 284H768V264" stroke="#8b949e" stroke-width="1.5" stroke-linecap="square" opacity="0.76"/>
<circle cx="59.08" cy="43.08" r="1.08" fill="#8fa7bf" opacity="0.84"/>
<circle cx="62.33" cy="43.08" r="1.08" fill="#8fa7bf" opacity="0.84"/>
<circle cx="65.58" cy="43.08" r="1.08" fill="#8fa7bf" opacity="0.84"/>
<circle cx="68.83" cy="43.08" r="1.08" fill="#8fa7bf" opacity="0.84"/>
<circle cx="72.08" cy="43.08" r="1.08" fill="#8fa7bf" opacity="0.84"/>
<circle cx="65.58" cy="46.33" r="1.08" fill="#8fa7bf" opacity="0.84"/>
<circle cx="65.58" cy="49.58" r="1.08" fill="#8fa7bf" opacity="0.84"/>
<circle cx="65.58" cy="52.83" r="1.08" fill="#8fa7bf" opacity="0.84"/>
<circle cx="65.58" cy="56.08" r="1.08" fill="#8fa7bf" opacity="0.84"/>
<circle cx="65.58" cy="59.33" r="1.08" fill="#8fa7bf" opacity="0.84"/>
<circle cx="65.58" cy="62.58" r="1.08" fill="#8fa7bf" opacity="0.84"/>
<circle cx="78.58" cy="43.08" r="1.08" fill="#8fa7bf" opacity="0.84"/>
<circle cx="81.83" cy="43.08" r="1.08" fill="#8fa7bf" opacity="0.84"/>
<circle cx="85.08" cy="43.08" r="1.08" fill="#8fa7bf" opacity="0.84"/>
<circle cx="88.33" cy="43.08" r="1.08" fill="#8fa7bf" opacity="0.84"/>
<circle cx="91.58" cy="43.08" r="1.08" fill="#8fa7bf" opacity="0.84"/>
<circle cx="78.58" cy="46.33" r="1.08" fill="#8fa7bf" opacity="0.84"/>
<circle cx="78.58" cy="49.58" r="1.08" fill="#8fa7bf" opacity="0.84"/>
<circle cx="78.58" cy="52.83" r="1.08" fill="#8fa7bf" opacity="0.84"/>
<circle cx="81.83" cy="52.83" r="1.08" fill="#8fa7bf" opacity="0.84"/>
<circle cx="85.08" cy="52.83" r="1.08" fill="#8fa7bf" opacity="0.84"/>
<circle cx="88.33" cy="52.83" r="1.08" fill="#8fa7bf" opacity="0.84"/>
<circle cx="78.58" cy="56.08" r="1.08" fill="#8fa7bf" opacity="0.84"/>
<circle cx="78.58" cy="59.33" r="1.08" fill="#8fa7bf" opacity="0.84"/>
<circle cx="78.58" cy="62.58" r="1.08" fill="#8fa7bf" opacity="0.84"/>
<circle cx="81.83" cy="62.58" r="1.08" fill="#8fa7bf" opacity="0.84"/>
<circle cx="85.08" cy="62.58" r="1.08" fill="#8fa7bf" opacity="0.84"/>
<circle cx="88.33" cy="62.58" r="1.08" fill="#8fa7bf" opacity="0.84"/>
<circle cx="91.58" cy="62.58" r="1.08" fill="#8fa7bf" opacity="0.84"/>
<circle cx="98.08" cy="43.08" r="1.08" fill="#8fa7bf" opacity="0.84"/>
<circle cx="101.33" cy="43.08" r="1.08" fill="#8fa7bf" opacity="0.84"/>
<circle cx="104.58" cy="43.08" r="1.08" fill="#8fa7bf" opacity="0.84"/>
<circle cx="107.83" cy="43.08" r="1.08" fill="#8fa7bf" opacity="0.84"/>
<circle cx="98.08" cy="46.33" r="1.08" fill="#8fa7bf" opacity="0.84"/>
<circle cx="111.08" cy="46.33" r="1.08" fill="#8fa7bf" opacity="0.84"/>
<circle cx="98.08" cy="49.58" r="1.08" fill="#8fa7bf" opacity="0.84"/>
<circle cx="111.08" cy="49.58" r="1.08" fill="#8fa7bf" opacity="0.84"/>
<circle cx="98.08" cy="52.83" r="1.08" fill="#8fa7bf" opacity="0.84"/>
<circle cx="101.33" cy="52.83" r="1.08" fill="#8fa7bf" opacity="0.84"/>
<circle cx="104.58" cy="52.83" r="1.08" fill="#8fa7bf" opacity="0.84"/>
<circle cx="107.83" cy="52.83" r="1.08" fill="#8fa7bf" opacity="0.84"/>
<circle cx="98.08" cy="56.08" r="1.08" fill="#8fa7bf" opacity="0.84"/>
<circle cx="104.58" cy="56.08" r="1.08" fill="#8fa7bf" opacity="0.84"/>
<circle cx="98.08" cy="59.33" r="1.08" fill="#8fa7bf" opacity="0.84"/>
<circle cx="107.83" cy="59.33" r="1.08" fill="#8fa7bf" opacity="0.84"/>
<circle cx="98.08" cy="62.58" r="1.08" fill="#8fa7bf" opacity="0.84"/>
<circle cx="111.08" cy="62.58" r="1.08" fill="#8fa7bf" opacity="0.84"/>
<circle cx="117.58" cy="43.08" r="1.08" fill="#8fa7bf" opacity="0.84"/>
<circle cx="130.58" cy="43.08" r="1.08" fill="#8fa7bf" opacity="0.84"/>
<circle cx="117.58" cy="46.33" r="1.08" fill="#8fa7bf" opacity="0.84"/>
<circle cx="120.83" cy="46.33" r="1.08" fill="#8fa7bf" opacity="0.84"/>
<circle cx="127.33" cy="46.33" r="1.08" fill="#8fa7bf" opacity="0.84"/>
<circle cx="130.58" cy="46.33" r="1.08" fill="#8fa7bf" opacity="0.84"/>
<circle cx="117.58" cy="49.58" r="1.08" fill="#8fa7bf" opacity="0.84"/>
<circle cx="124.08" cy="49.58" r="1.08" fill="#8fa7bf" opacity="0.84"/>
<circle cx="130.58" cy="49.58" r="1.08" fill="#8fa7bf" opacity="0.84"/>
<circle cx="117.58" cy="52.83" r="1.08" fill="#8fa7bf" opacity="0.84"/>
<circle cx="124.08" cy="52.83" r="1.08" fill="#8fa7bf" opacity="0.84"/>
<circle cx="130.58" cy="52.83" r="1.08" fill="#8fa7bf" opacity="0.84"/>
<circle cx="117.58" cy="56.08" r="1.08" fill="#8fa7bf" opacity="0.84"/>
<circle cx="130.58" cy="56.08" r="1.08" fill="#8fa7bf" opacity="0.84"/>
<circle cx="117.58" cy="59.33" r="1.08" fill="#8fa7bf" opacity="0.84"/>
<circle cx="130.58" cy="59.33" r="1.08" fill="#8fa7bf" opacity="0.84"/>
<circle cx="117.58" cy="62.58" r="1.08" fill="#8fa7bf" opacity="0.84"/>
<circle cx="130.58" cy="62.58" r="1.08" fill="#8fa7bf" opacity="0.84"/>
<circle cx="137.08" cy="43.08" r="1.08" fill="#8fa7bf" opacity="0.84"/>
<circle cx="140.33" cy="43.08" r="1.08" fill="#8fa7bf" opacity="0.84"/>
<circle cx="143.58" cy="43.08" r="1.08" fill="#8fa7bf" opacity="0.84"/>
<circle cx="146.83" cy="43.08" r="1.08" fill="#8fa7bf" opacity="0.84"/>
<circle cx="150.08" cy="43.08" r="1.08" fill="#8fa7bf" opacity="0.84"/>
<circle cx="143.58" cy="46.33" r="1.08" fill="#8fa7bf" opacity="0.84"/>
<circle cx="143.58" cy="49.58" r="1.08" fill="#8fa7bf" opacity="0.84"/>
<circle cx="143.58" cy="52.83" r="1.08" fill="#8fa7bf" opacity="0.84"/>
<circle cx="143.58" cy="56.08" r="1.08" fill="#8fa7bf" opacity="0.84"/>
<circle cx="143.58" cy="59.33" r="1.08" fill="#8fa7bf" opacity="0.84"/>
<circle cx="137.08" cy="62.58" r="1.08" fill="#8fa7bf" opacity="0.84"/>
<circle cx="140.33" cy="62.58" r="1.08" fill="#8fa7bf" opacity="0.84"/>
<circle cx="143.58" cy="62.58" r="1.08" fill="#8fa7bf" opacity="0.84"/>
<circle cx="146.83" cy="62.58" r="1.08" fill="#8fa7bf" opacity="0.84"/>
<circle cx="150.08" cy="62.58" r="1.08" fill="#8fa7bf" opacity="0.84"/>
<circle cx="156.58" cy="43.08" r="1.08" fill="#8fa7bf" opacity="0.84"/>
<circle cx="169.58" cy="43.08" r="1.08" fill="#8fa7bf" opacity="0.84"/>
<circle cx="156.58" cy="46.33" r="1.08" fill="#8fa7bf" opacity="0.84"/>
<circle cx="159.83" cy="46.33" r="1.08" fill="#8fa7bf" opacity="0.84"/>
<circle cx="169.58" cy="46.33" r="1.08" fill="#8fa7bf" opacity="0.84"/>
<circle cx="156.58" cy="49.58" r="1.08" fill="#8fa7bf" opacity="0.84"/>
<circle cx="163.08" cy="49.58" r="1.08" fill="#8fa7bf" opacity="0.84"/>
<circle cx="169.58" cy="49.58" r="1.08" fill="#8fa7bf" opacity="0.84"/>
<circle cx="156.58" cy="52.83" r="1.08" fill="#8fa7bf" opacity="0.84"/>
<circle cx="166.33" cy="52.83" r="1.08" fill="#8fa7bf" opacity="0.84"/>
<circle cx="169.58" cy="52.83" r="1.08" fill="#8fa7bf" opacity="0.84"/>
<circle cx="156.58" cy="56.08" r="1.08" fill="#8fa7bf" opacity="0.84"/>
<circle cx="169.58" cy="56.08" r="1.08" fill="#8fa7bf" opacity="0.84"/>
<circle cx="156.58" cy="59.33" r="1.08" fill="#8fa7bf" opacity="0.84"/>
<circle cx="169.58" cy="59.33" r="1.08" fill="#8fa7bf" opacity="0.84"/>
<circle cx="156.58" cy="62.58" r="1.08" fill="#8fa7bf" opacity="0.84"/>
<circle cx="169.58" cy="62.58" r="1.08" fill="#8fa7bf" opacity="0.84"/>
<circle cx="179.33" cy="43.08" r="1.08" fill="#8fa7bf" opacity="0.84"/>
<circle cx="182.58" cy="43.08" r="1.08" fill="#8fa7bf" opacity="0.84"/>
<circle cx="185.83" cy="43.08" r="1.08" fill="#8fa7bf" opacity="0.84"/>
<circle cx="176.08" cy="46.33" r="1.08" fill="#8fa7bf" opacity="0.84"/>
<circle cx="189.08" cy="46.33" r="1.08" fill="#8fa7bf" opacity="0.84"/>
<circle cx="176.08" cy="49.58" r="1.08" fill="#8fa7bf" opacity="0.84"/>
<circle cx="189.08" cy="49.58" r="1.08" fill="#8fa7bf" opacity="0.84"/>
<circle cx="176.08" cy="52.83" r="1.08" fill="#8fa7bf" opacity="0.84"/>
<circle cx="179.33" cy="52.83" r="1.08" fill="#8fa7bf" opacity="0.84"/>
<circle cx="182.58" cy="52.83" r="1.08" fill="#8fa7bf" opacity="0.84"/>
<circle cx="185.83" cy="52.83" r="1.08" fill="#8fa7bf" opacity="0.84"/>
<circle cx="189.08" cy="52.83" r="1.08" fill="#8fa7bf" opacity="0.84"/>
<circle cx="176.08" cy="56.08" r="1.08" fill="#8fa7bf" opacity="0.84"/>
<circle cx="189.08" cy="56.08" r="1.08" fill="#8fa7bf" opacity="0.84"/>
<circle cx="176.08" cy="59.33" r="1.08" fill="#8fa7bf" opacity="0.84"/>
<circle cx="189.08" cy="59.33" r="1.08" fill="#8fa7bf" opacity="0.84"/>
<circle cx="176.08" cy="62.58" r="1.08" fill="#8fa7bf" opacity="0.84"/>
<circle cx="189.08" cy="62.58" r="1.08" fill="#8fa7bf" opacity="0.84"/>
<circle cx="195.58" cy="43.08" r="1.08" fill="#8fa7bf" opacity="0.84"/>
<circle cx="195.58" cy="46.33" r="1.08" fill="#8fa7bf" opacity="0.84"/>
<circle cx="195.58" cy="49.58" r="1.08" fill="#8fa7bf" opacity="0.84"/>
<circle cx="195.58" cy="52.83" r="1.08" fill="#8fa7bf" opacity="0.84"/>
<circle cx="195.58" cy="56.08" r="1.08" fill="#8fa7bf" opacity="0.84"/>
<circle cx="195.58" cy="59.33" r="1.08" fill="#8fa7bf" opacity="0.84"/>
<circle cx="195.58" cy="62.58" r="1.08" fill="#8fa7bf" opacity="0.84"/>
<circle cx="198.83" cy="62.58" r="1.08" fill="#8fa7bf" opacity="0.84"/>
<circle cx="202.08" cy="62.58" r="1.08" fill="#8fa7bf" opacity="0.84"/>
<circle cx="205.33" cy="62.58" r="1.08" fill="#8fa7bf" opacity="0.84"/>
<circle cx="208.58" cy="62.58" r="1.08" fill="#8fa7bf" opacity="0.84"/>
<circle cx="231.33" cy="43.08" r="1.08" fill="#8fa7bf" opacity="0.84"/>
<circle cx="234.58" cy="43.08" r="1.08" fill="#8fa7bf" opacity="0.84"/>
<circle cx="237.83" cy="43.08" r="1.08" fill="#8fa7bf" opacity="0.84"/>
<circle cx="241.08" cy="43.08" r="1.08" fill="#8fa7bf" opacity="0.84"/>
<circle cx="228.08" cy="46.33" r="1.08" fill="#8fa7bf" opacity="0.84"/>
<circle cx="228.08" cy="49.58" r="1.08" fill="#8fa7bf" opacity="0.84"/>
<circle cx="228.08" cy="52.83" r="1.08" fill="#8fa7bf" opacity="0.84"/>
<circle cx="228.08" cy="56.08" r="1.08" fill="#8fa7bf" opacity="0.84"/>
<circle cx="228.08" cy="59.33" r="1.08" fill="#8fa7bf" opacity="0.84"/>
<circle cx="231.33" cy="62.58" r="1.08" fill="#8fa7bf" opacity="0.84"/>
<circle cx="234.58" cy="62.58" r="1.08" fill="#8fa7bf" opacity="0.84"/>
<circle cx="237.83" cy="62.58" r="1.08" fill="#8fa7bf" opacity="0.84"/>
<circle cx="241.08" cy="62.58" r="1.08" fill="#8fa7bf" opacity="0.84"/>
<circle cx="250.83" cy="43.08" r="1.08" fill="#8fa7bf" opacity="0.84"/>
<circle cx="254.08" cy="43.08" r="1.08" fill="#8fa7bf" opacity="0.84"/>
<circle cx="257.33" cy="43.08" r="1.08" fill="#8fa7bf" opacity="0.84"/>
<circle cx="247.58" cy="46.33" r="1.08" fill="#8fa7bf" opacity="0.84"/>
<circle cx="260.58" cy="46.33" r="1.08" fill="#8fa7bf" opacity="0.84"/>
<circle cx="247.58" cy="49.58" r="1.08" fill="#8fa7bf" opacity="0.84"/>
<circle cx="260.58" cy="49.58" r="1.08" fill="#8fa7bf" opacity="0.84"/>
<circle cx="247.58" cy="52.83" r="1.08" fill="#8fa7bf" opacity="0.84"/>
<circle cx="250.83" cy="52.83" r="1.08" fill="#8fa7bf" opacity="0.84"/>
<circle cx="254.08" cy="52.83" r="1.08" fill="#8fa7bf" opacity="0.84"/>
<circle cx="257.33" cy="52.83" r="1.08" fill="#8fa7bf" opacity="0.84"/>
<circle cx="260.58" cy="52.83" r="1.08" fill="#8fa7bf" opacity="0.84"/>
<circle cx="247.58" cy="56.08" r="1.08" fill="#8fa7bf" opacity="0.84"/>
<circle cx="260.58" cy="56.08" r="1.08" fill="#8fa7bf" opacity="0.84"/>
<circle cx="247.58" cy="59.33" r="1.08" fill="#8fa7bf" opacity="0.84"/>
<circle cx="260.58" cy="59.33" r="1.08" fill="#8fa7bf" opacity="0.84"/>
<circle cx="247.58" cy="62.58" r="1.08" fill="#8fa7bf" opacity="0.84"/>
<circle cx="260.58" cy="62.58" r="1.08" fill="#8fa7bf" opacity="0.84"/>
<circle cx="270.33" cy="43.08" r="1.08" fill="#8fa7bf" opacity="0.84"/>
<circle cx="273.58" cy="43.08" r="1.08" fill="#8fa7bf" opacity="0.84"/>
<circle cx="276.83" cy="43.08" r="1.08" fill="#8fa7bf" opacity="0.84"/>
<circle cx="280.08" cy="43.08" r="1.08" fill="#8fa7bf" opacity="0.84"/>
<circle cx="267.08" cy="46.33" r="1.08" fill="#8fa7bf" opacity="0.84"/>
<circle cx="267.08" cy="49.58" r="1.08" fill="#8fa7bf" opacity="0.84"/>
<circle cx="267.08" cy="52.83" r="1.08" fill="#8fa7bf" opacity="0.84"/>
<circle cx="267.08" cy="56.08" r="1.08" fill="#8fa7bf" opacity="0.84"/>
<circle cx="267.08" cy="59.33" r="1.08" fill="#8fa7bf" opacity="0.84"/>
<circle cx="270.33" cy="62.58" r="1.08" fill="#8fa7bf" opacity="0.84"/>
<circle cx="273.58" cy="62.58" r="1.08" fill="#8fa7bf" opacity="0.84"/>
<circle cx="276.83" cy="62.58" r="1.08" fill="#8fa7bf" opacity="0.84"/>
<circle cx="280.08" cy="62.58" r="1.08" fill="#8fa7bf" opacity="0.84"/>
<circle cx="286.58" cy="43.08" r="1.08" fill="#8fa7bf" opacity="0.84"/>
<circle cx="299.58" cy="43.08" r="1.08" fill="#8fa7bf" opacity="0.84"/>
<circle cx="286.58" cy="46.33" r="1.08" fill="#8fa7bf" opacity="0.84"/>
<circle cx="299.58" cy="46.33" r="1.08" fill="#8fa7bf" opacity="0.84"/>
<circle cx="286.58" cy="49.58" r="1.08" fill="#8fa7bf" opacity="0.84"/>
<circle cx="299.58" cy="49.58" r="1.08" fill="#8fa7bf" opacity="0.84"/>
<circle cx="286.58" cy="52.83" r="1.08" fill="#8fa7bf" opacity="0.84"/>
<circle cx="289.83" cy="52.83" r="1.08" fill="#8fa7bf" opacity="0.84"/>
<circle cx="293.08" cy="52.83" r="1.08" fill="#8fa7bf" opacity="0.84"/>
<circle cx="296.33" cy="52.83" r="1.08" fill="#8fa7bf" opacity="0.84"/>
<circle cx="299.58" cy="52.83" r="1.08" fill="#8fa7bf" opacity="0.84"/>
<circle cx="286.58" cy="56.08" r="1.08" fill="#8fa7bf" opacity="0.84"/>
<circle cx="299.58" cy="56.08" r="1.08" fill="#8fa7bf" opacity="0.84"/>
<circle cx="286.58" cy="59.33" r="1.08" fill="#8fa7bf" opacity="0.84"/>
<circle cx="299.58" cy="59.33" r="1.08" fill="#8fa7bf" opacity="0.84"/>
<circle cx="286.58" cy="62.58" r="1.08" fill="#8fa7bf" opacity="0.84"/>
<circle cx="299.58" cy="62.58" r="1.08" fill="#8fa7bf" opacity="0.84"/>
<circle cx="306.08" cy="43.08" r="1.08" fill="#8fa7bf" opacity="0.84"/>
<circle cx="309.33" cy="43.08" r="1.08" fill="#8fa7bf" opacity="0.84"/>
<circle cx="312.58" cy="43.08" r="1.08" fill="#8fa7bf" opacity="0.84"/>
<circle cx="315.83" cy="43.08" r="1.08" fill="#8fa7bf" opacity="0.84"/>
<circle cx="319.08" cy="43.08" r="1.08" fill="#8fa7bf" opacity="0.84"/>
<circle cx="306.08" cy="46.33" r="1.08" fill="#8fa7bf" opacity="0.84"/>
<circle cx="306.08" cy="49.58" r="1.08" fill="#8fa7bf" opacity="0.84"/>
<circle cx="306.08" cy="52.83" r="1.08" fill="#8fa7bf" opacity="0.84"/>
<circle cx="309.33" cy="52.83" r="1.08" fill="#8fa7bf" opacity="0.84"/>
<circle cx="312.58" cy="52.83" r="1.08" fill="#8fa7bf" opacity="0.84"/>
<circle cx="315.83" cy="52.83" r="1.08" fill="#8fa7bf" opacity="0.84"/>
<circle cx="306.08" cy="56.08" r="1.08" fill="#8fa7bf" opacity="0.84"/>
<circle cx="306.08" cy="59.33" r="1.08" fill="#8fa7bf" opacity="0.84"/>
<circle cx="306.08" cy="62.58" r="1.08" fill="#8fa7bf" opacity="0.84"/>
<circle cx="309.33" cy="62.58" r="1.08" fill="#8fa7bf" opacity="0.84"/>
<circle cx="312.58" cy="62.58" r="1.08" fill="#8fa7bf" opacity="0.84"/>
<circle cx="315.83" cy="62.58" r="1.08" fill="#8fa7bf" opacity="0.84"/>
<circle cx="319.08" cy="62.58" r="1.08" fill="#8fa7bf" opacity="0.84"/>
<circle cx="518.83" cy="43.08" r="1.08" fill="#8fa7bf" opacity="0.84"/>
<circle cx="522.08" cy="43.08" r="1.08" fill="#8fa7bf" opacity="0.84"/>
<circle cx="525.33" cy="43.08" r="1.08" fill="#8fa7bf" opacity="0.84"/>
<circle cx="528.58" cy="43.08" r="1.08" fill="#8fa7bf" opacity="0.84"/>
<circle cx="518.83" cy="46.33" r="1.08" fill="#8fa7bf" opacity="0.84"/>
<circle cx="531.83" cy="46.33" r="1.08" fill="#8fa7bf" opacity="0.84"/>
<circle cx="518.83" cy="49.58" r="1.08" fill="#8fa7bf" opacity="0.84"/>
<circle cx="531.83" cy="49.58" r="1.08" fill="#8fa7bf" opacity="0.84"/>
<circle cx="518.83" cy="52.83" r="1.08" fill="#8fa7bf" opacity="0.84"/>
<circle cx="522.08" cy="52.83" r="1.08" fill="#8fa7bf" opacity="0.84"/>
<circle cx="525.33" cy="52.83" r="1.08" fill="#8fa7bf" opacity="0.84"/>
<circle cx="528.58" cy="52.83" r="1.08" fill="#8fa7bf" opacity="0.84"/>
<circle cx="518.83" cy="56.08" r="1.08" fill="#8fa7bf" opacity="0.84"/>
<circle cx="525.33" cy="56.08" r="1.08" fill="#8fa7bf" opacity="0.84"/>
<circle cx="518.83" cy="59.33" r="1.08" fill="#8fa7bf" opacity="0.84"/>
<circle cx="528.58" cy="59.33" r="1.08" fill="#8fa7bf" opacity="0.84"/>
<circle cx="518.83" cy="62.58" r="1.08" fill="#8fa7bf" opacity="0.84"/>
<circle cx="531.83" cy="62.58" r="1.08" fill="#8fa7bf" opacity="0.84"/>
<circle cx="538.33" cy="43.08" r="1.08" fill="#8fa7bf" opacity="0.84"/>
<circle cx="551.33" cy="43.08" r="1.08" fill="#8fa7bf" opacity="0.84"/>
<circle cx="538.33" cy="46.33" r="1.08" fill="#8fa7bf" opacity="0.84"/>
<circle cx="551.33" cy="46.33" r="1.08" fill="#8fa7bf" opacity="0.84"/>
<circle cx="538.33" cy="49.58" r="1.08" fill="#8fa7bf" opacity="0.84"/>
<circle cx="551.33" cy="49.58" r="1.08" fill="#8fa7bf" opacity="0.84"/>
<circle cx="538.33" cy="52.83" r="1.08" fill="#8fa7bf" opacity="0.84"/>
<circle cx="551.33" cy="52.83" r="1.08" fill="#8fa7bf" opacity="0.84"/>
<circle cx="538.33" cy="56.08" r="1.08" fill="#8fa7bf" opacity="0.84"/>
<circle cx="551.33" cy="56.08" r="1.08" fill="#8fa7bf" opacity="0.84"/>
<circle cx="538.33" cy="59.33" r="1.08" fill="#8fa7bf" opacity="0.84"/>
<circle cx="551.33" cy="59.33" r="1.08" fill="#8fa7bf" opacity="0.84"/>
<circle cx="541.58" cy="62.58" r="1.08" fill="#8fa7bf" opacity="0.84"/>
<circle cx="544.83" cy="62.58" r="1.08" fill="#8fa7bf" opacity="0.84"/>
<circle cx="548.08" cy="62.58" r="1.08" fill="#8fa7bf" opacity="0.84"/>
<circle cx="557.83" cy="43.08" r="1.08" fill="#8fa7bf" opacity="0.84"/>
<circle cx="570.83" cy="43.08" r="1.08" fill="#8fa7bf" opacity="0.84"/>
<circle cx="557.83" cy="46.33" r="1.08" fill="#8fa7bf" opacity="0.84"/>
<circle cx="561.08" cy="46.33" r="1.08" fill="#8fa7bf" opacity="0.84"/>
<circle cx="570.83" cy="46.33" r="1.08" fill="#8fa7bf" opacity="0.84"/>
<circle cx="557.83" cy="49.58" r="1.08" fill="#8fa7bf" opacity="0.84"/>
<circle cx="564.33" cy="49.58" r="1.08" fill="#8fa7bf" opacity="0.84"/>
<circle cx="570.83" cy="49.58" r="1.08" fill="#8fa7bf" opacity="0.84"/>
<circle cx="557.83" cy="52.83" r="1.08" fill="#8fa7bf" opacity="0.84"/>
<circle cx="567.58" cy="52.83" r="1.08" fill="#8fa7bf" opacity="0.84"/>
<circle cx="570.83" cy="52.83" r="1.08" fill="#8fa7bf" opacity="0.84"/>
<circle cx="557.83" cy="56.08" r="1.08" fill="#8fa7bf" opacity="0.84"/>
<circle cx="570.83" cy="56.08" r="1.08" fill="#8fa7bf" opacity="0.84"/>
<circle cx="557.83" cy="59.33" r="1.08" fill="#8fa7bf" opacity="0.84"/>
<circle cx="570.83" cy="59.33" r="1.08" fill="#8fa7bf" opacity="0.84"/>
<circle cx="557.83" cy="62.58" r="1.08" fill="#8fa7bf" opacity="0.84"/>
<circle cx="570.83" cy="62.58" r="1.08" fill="#8fa7bf" opacity="0.84"/>
<circle cx="593.58" cy="43.08" r="1.08" fill="#8fa7bf" opacity="0.84"/>
<circle cx="596.83" cy="43.08" r="1.08" fill="#8fa7bf" opacity="0.84"/>
<circle cx="600.08" cy="43.08" r="1.08" fill="#8fa7bf" opacity="0.84"/>
<circle cx="590.33" cy="46.33" r="1.08" fill="#8fa7bf" opacity="0.84"/>
<circle cx="603.33" cy="46.33" r="1.08" fill="#8fa7bf" opacity="0.84"/>
<circle cx="603.33" cy="49.58" r="1.08" fill="#8fa7bf" opacity="0.84"/>
<circle cx="600.08" cy="52.83" r="1.08" fill="#8fa7bf" opacity="0.84"/>
<circle cx="596.83" cy="56.08" r="1.08" fill="#8fa7bf" opacity="0.84"/>
<circle cx="593.58" cy="59.33" r="1.08" fill="#8fa7bf" opacity="0.84"/>
<circle cx="590.33" cy="62.58" r="1.08" fill="#8fa7bf" opacity="0.84"/>
<circle cx="593.58" cy="62.58" r="1.08" fill="#8fa7bf" opacity="0.84"/>
<circle cx="596.83" cy="62.58" r="1.08" fill="#8fa7bf" opacity="0.84"/>
<circle cx="600.08" cy="62.58" r="1.08" fill="#8fa7bf" opacity="0.84"/>
<circle cx="603.33" cy="62.58" r="1.08" fill="#8fa7bf" opacity="0.84"/>
<circle cx="613.08" cy="43.08" r="1.08" fill="#8fa7bf" opacity="0.84"/>
<circle cx="616.33" cy="43.08" r="1.08" fill="#8fa7bf" opacity="0.84"/>
<circle cx="619.58" cy="43.08" r="1.08" fill="#8fa7bf" opacity="0.84"/>
<circle cx="609.83" cy="46.33" r="1.08" fill="#8fa7bf" opacity="0.84"/>
<circle cx="622.83" cy="46.33" r="1.08" fill="#8fa7bf" opacity="0.84"/>
<circle cx="609.83" cy="49.58" r="1.08" fill="#8fa7bf" opacity="0.84"/>
<circle cx="619.58" cy="49.58" r="1.08" fill="#8fa7bf" opacity="0.84"/>
<circle cx="622.83" cy="49.58" r="1.08" fill="#8fa7bf" opacity="0.84"/>
<circle cx="609.83" cy="52.83" r="1.08" fill="#8fa7bf" opacity="0.84"/>
<circle cx="616.33" cy="52.83" r="1.08" fill="#8fa7bf" opacity="0.84"/>
<circle cx="622.83" cy="52.83" r="1.08" fill="#8fa7bf" opacity="0.84"/>
<circle cx="609.83" cy="56.08" r="1.08" fill="#8fa7bf" opacity="0.84"/>
<circle cx="613.08" cy="56.08" r="1.08" fill="#8fa7bf" opacity="0.84"/>
<circle cx="622.83" cy="56.08" r="1.08" fill="#8fa7bf" opacity="0.84"/>
<circle cx="609.83" cy="59.33" r="1.08" fill="#8fa7bf" opacity="0.84"/>
<circle cx="622.83" cy="59.33" r="1.08" fill="#8fa7bf" opacity="0.84"/>
<circle cx="613.08" cy="62.58" r="1.08" fill="#8fa7bf" opacity="0.84"/>
<circle cx="616.33" cy="62.58" r="1.08" fill="#8fa7bf" opacity="0.84"/>
<circle cx="619.58" cy="62.58" r="1.08" fill="#8fa7bf" opacity="0.84"/>
<circle cx="632.58" cy="43.08" r="1.08" fill="#8fa7bf" opacity="0.84"/>
<circle cx="635.83" cy="43.08" r="1.08" fill="#8fa7bf" opacity="0.84"/>
<circle cx="639.08" cy="43.08" r="1.08" fill="#8fa7bf" opacity="0.84"/>
<circle cx="629.33" cy="46.33" r="1.08" fill="#8fa7bf" opacity="0.84"/>
<circle cx="642.33" cy="46.33" r="1.08" fill="#8fa7bf" opacity="0.84"/>
<circle cx="642.33" cy="49.58" r="1.08" fill="#8fa7bf" opacity="0.84"/>
<circle cx="639.08" cy="52.83" r="1.08" fill="#8fa7bf" opacity="0.84"/>
<circle cx="635.83" cy="56.08" r="1.08" fill="#8fa7bf" opacity="0.84"/>
<circle cx="632.58" cy="59.33" r="1.08" fill="#8fa7bf" opacity="0.84"/>
<circle cx="629.33" cy="62.58" r="1.08" fill="#8fa7bf" opacity="0.84"/>
<circle cx="632.58" cy="62.58" r="1.08" fill="#8fa7bf" opacity="0.84"/>
<circle cx="635.83" cy="62.58" r="1.08" fill="#8fa7bf" opacity="0.84"/>
<circle cx="639.08" cy="62.58" r="1.08" fill="#8fa7bf" opacity="0.84"/>
<circle cx="642.33" cy="62.58" r="1.08" fill="#8fa7bf" opacity="0.84"/>
<circle cx="655.33" cy="43.08" r="1.08" fill="#8fa7bf" opacity="0.84"/>
<circle cx="658.58" cy="43.08" r="1.08" fill="#8fa7bf" opacity="0.84"/>
<circle cx="652.08" cy="46.33" r="1.08" fill="#8fa7bf" opacity="0.84"/>
<circle cx="648.83" cy="49.58" r="1.08" fill="#8fa7bf" opacity="0.84"/>
<circle cx="648.83" cy="52.83" r="1.08" fill="#8fa7bf" opacity="0.84"/>
<circle cx="652.08" cy="52.83" r="1.08" fill="#8fa7bf" opacity="0.84"/>
<circle cx="655.33" cy="52.83" r="1.08" fill="#8fa7bf" opacity="0.84"/>
<circle cx="658.58" cy="52.83" r="1.08" fill="#8fa7bf" opacity="0.84"/>
<circle cx="648.83" cy="56.08" r="1.08" fill="#8fa7bf" opacity="0.84"/>
<circle cx="661.83" cy="56.08" r="1.08" fill="#8fa7bf" opacity="0.84"/>
<circle cx="648.83" cy="59.33" r="1.08" fill="#8fa7bf" opacity="0.84"/>
<circle cx="661.83" cy="59.33" r="1.08" fill="#8fa7bf" opacity="0.84"/>
<circle cx="652.08" cy="62.58" r="1.08" fill="#8fa7bf" opacity="0.84"/>
<circle cx="655.33" cy="62.58" r="1.08" fill="#8fa7bf" opacity="0.84"/>
<circle cx="658.58" cy="62.58" r="1.08" fill="#8fa7bf" opacity="0.84"/>
<circle cx="671.58" cy="43.08" r="1.08" fill="#8fa7bf" opacity="0.84"/>
<circle cx="674.83" cy="43.08" r="1.08" fill="#8fa7bf" opacity="0.84"/>
<circle cx="678.08" cy="43.08" r="1.08" fill="#8fa7bf" opacity="0.84"/>
<circle cx="668.33" cy="46.33" r="1.08" fill="#8fa7bf" opacity="0.84"/>
<circle cx="681.33" cy="46.33" r="1.08" fill="#8fa7bf" opacity="0.84"/>
<circle cx="668.33" cy="49.58" r="1.08" fill="#8fa7bf" opacity="0.84"/>
<circle cx="678.08" cy="49.58" r="1.08" fill="#8fa7bf" opacity="0.84"/>
<circle cx="681.33" cy="49.58" r="1.08" fill="#8fa7bf" opacity="0.84"/>
<circle cx="668.33" cy="52.83" r="1.08" fill="#8fa7bf" opacity="0.84"/>
<circle cx="674.83" cy="52.83" r="1.08" fill="#8fa7bf" opacity="0.84"/>
<circle cx="681.33" cy="52.83" r="1.08" fill="#8fa7bf" opacity="0.84"/>
<circle cx="668.33" cy="56.08" r="1.08" fill="#8fa7bf" opacity="0.84"/>
<circle cx="671.58" cy="56.08" r="1.08" fill="#8fa7bf" opacity="0.84"/>
<circle cx="681.33" cy="56.08" r="1.08" fill="#8fa7bf" opacity="0.84"/>
<circle cx="668.33" cy="59.33" r="1.08" fill="#8fa7bf" opacity="0.84"/>
<circle cx="681.33" cy="59.33" r="1.08" fill="#8fa7bf" opacity="0.84"/>
<circle cx="671.58" cy="62.58" r="1.08" fill="#8fa7bf" opacity="0.84"/>
<circle cx="674.83" cy="62.58" r="1.08" fill="#8fa7bf" opacity="0.84"/>
<circle cx="678.08" cy="62.58" r="1.08" fill="#8fa7bf" opacity="0.84"/>
<circle cx="687.83" cy="43.08" r="1.08" fill="#8fa7bf" opacity="0.84"/>
<circle cx="691.08" cy="43.08" r="1.08" fill="#8fa7bf" opacity="0.84"/>
<circle cx="694.33" cy="43.08" r="1.08" fill="#8fa7bf" opacity="0.84"/>
<circle cx="697.58" cy="43.08" r="1.08" fill="#8fa7bf" opacity="0.84"/>
<circle cx="700.83" cy="43.08" r="1.08" fill="#8fa7bf" opacity="0.84"/>
<circle cx="687.83" cy="46.33" r="1.08" fill="#8fa7bf" opacity="0.84"/>
<circle cx="687.83" cy="49.58" r="1.08" fill="#8fa7bf" opacity="0.84"/>
<circle cx="687.83" cy="52.83" r="1.08" fill="#8fa7bf" opacity="0.84"/>
<circle cx="691.08" cy="52.83" r="1.08" fill="#8fa7bf" opacity="0.84"/>
<circle cx="694.33" cy="52.83" r="1.08" fill="#8fa7bf" opacity="0.84"/>
<circle cx="697.58" cy="52.83" r="1.08" fill="#8fa7bf" opacity="0.84"/>
<circle cx="700.83" cy="56.08" r="1.08" fill="#8fa7bf" opacity="0.84"/>
<circle cx="700.83" cy="59.33" r="1.08" fill="#8fa7bf" opacity="0.84"/>
<circle cx="687.83" cy="62.58" r="1.08" fill="#8fa7bf" opacity="0.84"/>
<circle cx="691.08" cy="62.58" r="1.08" fill="#8fa7bf" opacity="0.84"/>
<circle cx="694.33" cy="62.58" r="1.08" fill="#8fa7bf" opacity="0.84"/>
<circle cx="697.58" cy="62.58" r="1.08" fill="#8fa7bf" opacity="0.84"/>
<circle cx="713.83" cy="43.08" r="1.08" fill="#8fa7bf" opacity="0.84"/>
<circle cx="710.58" cy="46.33" r="1.08" fill="#8fa7bf" opacity="0.84"/>
<circle cx="713.83" cy="46.33" r="1.08" fill="#8fa7bf" opacity="0.84"/>
<circle cx="713.83" cy="49.58" r="1.08" fill="#8fa7bf" opacity="0.84"/>
<circle cx="713.83" cy="52.83" r="1.08" fill="#8fa7bf" opacity="0.84"/>
<circle cx="713.83" cy="56.08" r="1.08" fill="#8fa7bf" opacity="0.84"/>
<circle cx="713.83" cy="59.33" r="1.08" fill="#8fa7bf" opacity="0.84"/>
<circle cx="710.58" cy="62.58" r="1.08" fill="#8fa7bf" opacity="0.84"/>
<circle cx="713.83" cy="62.58" r="1.08" fill="#8fa7bf" opacity="0.84"/>
<circle cx="717.08" cy="62.58" r="1.08" fill="#8fa7bf" opacity="0.84"/>
<circle cx="726.83" cy="43.08" r="1.08" fill="#8fa7bf" opacity="0.84"/>
<circle cx="730.08" cy="43.08" r="1.08" fill="#8fa7bf" opacity="0.84"/>
<circle cx="733.33" cy="43.08" r="1.08" fill="#8fa7bf" opacity="0.84"/>
<circle cx="736.58" cy="43.08" r="1.08" fill="#8fa7bf" opacity="0.84"/>
<circle cx="739.83" cy="43.08" r="1.08" fill="#8fa7bf" opacity="0.84"/>
<circle cx="739.83" cy="46.33" r="1.08" fill="#8fa7bf" opacity="0.84"/>
<circle cx="736.58" cy="49.58" r="1.08" fill="#8fa7bf" opacity="0.84"/>
<circle cx="733.33" cy="52.83" r="1.08" fill="#8fa7bf" opacity="0.84"/>
<circle cx="730.08" cy="56.08" r="1.08" fill="#8fa7bf" opacity="0.84"/>
<circle cx="730.08" cy="59.33" r="1.08" fill="#8fa7bf" opacity="0.84"/>
<circle cx="730.08" cy="62.58" r="1.08" fill="#8fa7bf" opacity="0.84"/>
<rect x="58" y="90" width="154" height="136" rx="4" stroke="#8b949e" opacity="0.56"/>
<circle cx="100.00" cy="118.50" r="2.89" fill="#ff7b72"/>
<circle cx="108.50" cy="118.50" r="2.89" fill="#ff7b72"/>
<circle cx="117.00" cy="118.50" r="2.89" fill="#ff7b72"/>
<circle cx="151.00" cy="118.50" r="2.89" fill="#ff7b72"/>
<circle cx="159.50" cy="118.50" r="2.89" fill="#ff7b72"/>
<circle cx="168.00" cy="118.50" r="2.89" fill="#ff7b72"/>
<circle cx="91.50" cy="127.00" r="2.89" fill="#ff7b72"/>
<circle cx="100.00" cy="127.00" r="2.89" fill="#ff7b72"/>
<circle cx="108.50" cy="127.00" r="2.89" fill="#ff7b72"/>
<circle cx="117.00" cy="127.00" r="2.89" fill="#ff7b72"/>
<circle cx="125.50" cy="127.00" r="2.89" fill="#ff7b72"/>
<circle cx="142.50" cy="127.00" r="2.89" fill="#ff7b72"/>
<circle cx="151.00" cy="127.00" r="2.89" fill="#ff7b72"/>
<circle cx="159.50" cy="127.00" r="2.89" fill="#ff7b72"/>
<circle cx="168.00" cy="127.00" r="2.89" fill="#ff7b72"/>
<circle cx="176.50" cy="127.00" r="2.89" fill="#ff7b72"/>
<circle cx="83.00" cy="135.50" r="2.89" fill="#ff7b72"/>
<circle cx="91.50" cy="135.50" r="2.89" fill="#ff7b72"/>
<circle cx="100.00" cy="135.50" r="2.89" fill="#ff7b72"/>
<circle cx="108.50" cy="135.50" r="2.89" fill="#ff7b72"/>
<circle cx="117.00" cy="135.50" r="2.89" fill="#ff7b72"/>
<circle cx="125.50" cy="135.50" r="2.89" fill="#ff7b72"/>
<circle cx="134.00" cy="135.50" r="2.89" fill="#ff7b72"/>
<circle cx="142.50" cy="135.50" r="2.89" fill="#ff7b72"/>
<circle cx="151.00" cy="135.50" r="2.89" fill="#ff7b72"/>
<circle cx="159.50" cy="135.50" r="2.89" fill="#ff7b72"/>
<circle cx="168.00" cy="135.50" r="2.89" fill="#ff7b72"/>
<circle cx="176.50" cy="135.50" r="2.89" fill="#ff7b72"/>
<circle cx="185.00" cy="135.50" r="2.89" fill="#ff7b72"/>
<circle cx="83.00" cy="144.00" r="2.89" fill="#ff7b72"/>
<circle cx="91.50" cy="144.00" r="2.89" fill="#ff7b72"/>
<circle cx="100.00" cy="144.00" r="2.89" fill="#ff7b72"/>
<circle cx="108.50" cy="144.00" r="2.89" fill="#ff7b72"/>
<circle cx="117.00" cy="144.00" r="2.89" fill="#ff7b72"/>
<circle cx="125.50" cy="144.00" r="2.89" fill="#ff7b72"/>
<circle cx="134.00" cy="144.00" r="2.89" fill="#ff7b72"/>
<circle cx="142.50" cy="144.00" r="2.89" fill="#ff7b72"/>
<circle cx="151.00" cy="144.00" r="2.89" fill="#ff7b72"/>
<circle cx="159.50" cy="144.00" r="2.89" fill="#ff7b72"/>
<circle cx="168.00" cy="144.00" r="2.89" fill="#ff7b72"/>
<circle cx="176.50" cy="144.00" r="2.89" fill="#ff7b72"/>
<circle cx="185.00" cy="144.00" r="2.89" fill="#ff7b72"/>
<circle cx="83.00" cy="152.50" r="2.89" fill="#ff7b72"/>
<circle cx="91.50" cy="152.50" r="2.89" fill="#ff7b72"/>
<circle cx="100.00" cy="152.50" r="2.89" fill="#ff7b72"/>
<circle cx="108.50" cy="152.50" r="2.89" fill="#ff7b72"/>
<circle cx="117.00" cy="152.50" r="2.89" fill="#ff7b72"/>
<circle cx="125.50" cy="152.50" r="2.89" fill="#ff7b72"/>
<circle cx="134.00" cy="152.50" r="2.89" fill="#ff7b72"/>
<circle cx="142.50" cy="152.50" r="2.89" fill="#ff7b72"/>
<circle cx="151.00" cy="152.50" r="2.89" fill="#ff7b72"/>
<circle cx="159.50" cy="152.50" r="2.89" fill="#ff7b72"/>
<circle cx="168.00" cy="152.50" r="2.89" fill="#ff7b72"/>
<circle cx="176.50" cy="152.50" r="2.89" fill="#ff7b72"/>
<circle cx="185.00" cy="152.50" r="2.89" fill="#ff7b72"/>
<circle cx="91.50" cy="161.00" r="2.89" fill="#ff7b72"/>
<circle cx="100.00" cy="161.00" r="2.89" fill="#ff7b72"/>
<circle cx="108.50" cy="161.00" r="2.89" fill="#ff7b72"/>
<circle cx="117.00" cy="161.00" r="2.89" fill="#ff7b72"/>
<circle cx="125.50" cy="161.00" r="2.89" fill="#ff7b72"/>
<circle cx="134.00" cy="161.00" r="2.89" fill="#ff7b72"/>
<circle cx="142.50" cy="161.00" r="2.89" fill="#ff7b72"/>
<circle cx="151.00" cy="161.00" r="2.89" fill="#ff7b72"/>
<circle cx="159.50" cy="161.00" r="2.89" fill="#ff7b72"/>
<circle cx="168.00" cy="161.00" r="2.89" fill="#ff7b72"/>
<circle cx="176.50" cy="161.00" r="2.89" fill="#ff7b72"/>
<circle cx="100.00" cy="169.50" r="2.89" fill="#ff7b72"/>
<circle cx="108.50" cy="169.50" r="2.89" fill="#ff7b72"/>
<circle cx="117.00" cy="169.50" r="2.89" fill="#ff7b72"/>
<circle cx="125.50" cy="169.50" r="2.89" fill="#ff7b72"/>
<circle cx="134.00" cy="169.50" r="2.89" fill="#ff7b72"/>
<circle cx="142.50" cy="169.50" r="2.89" fill="#ff7b72"/>
<circle cx="151.00" cy="169.50" r="2.89" fill="#ff7b72"/>
<circle cx="159.50" cy="169.50" r="2.89" fill="#ff7b72"/>
<circle cx="168.00" cy="169.50" r="2.89" fill="#ff7b72"/>
<circle cx="108.50" cy="178.00" r="2.89" fill="#ff7b72"/>
<circle cx="117.00" cy="178.00" r="2.89" fill="#ff7b72"/>
<circle cx="125.50" cy="178.00" r="2.89" fill="#ff7b72"/>
<circle cx="134.00" cy="178.00" r="2.89" fill="#ff7b72"/>
<circle cx="142.50" cy="178.00" r="2.89" fill="#ff7b72"/>
<circle cx="151.00" cy="178.00" r="2.89" fill="#ff7b72"/>
<circle cx="159.50" cy="178.00" r="2.89" fill="#ff7b72"/>
<circle cx="117.00" cy="186.50" r="2.89" fill="#ff7b72"/>
<circle cx="125.50" cy="186.50" r="2.89" fill="#ff7b72"/>
<circle cx="134.00" cy="186.50" r="2.89" fill="#ff7b72"/>
<circle cx="142.50" cy="186.50" r="2.89" fill="#ff7b72"/>
<circle cx="151.00" cy="186.50" r="2.89" fill="#ff7b72"/>
<circle cx="125.50" cy="195.00" r="2.89" fill="#ff7b72"/>
<circle cx="134.00" cy="195.00" r="2.89" fill="#ff7b72"/>
<circle cx="142.50" cy="195.00" r="2.89" fill="#ff7b72"/>
<circle cx="134.00" cy="203.50" r="2.89" fill="#ff7b72"/>
<circle cx="241.16" cy="87.16" r="1.16" fill="#8b949e" opacity="0.95"/>
<circle cx="244.66" cy="87.16" r="1.16" fill="#8b949e" opacity="0.95"/>
<circle cx="248.16" cy="87.16" r="1.16" fill="#8b949e" opacity="0.95"/>
<circle cx="251.66" cy="87.16" r="1.16" fill="#8b949e" opacity="0.95"/>
<circle cx="241.16" cy="90.66" r="1.16" fill="#8b949e" opacity="0.95"/>
<circle cx="255.16" cy="90.66" r="1.16" fill="#8b949e" opacity="0.95"/>
<circle cx="241.16" cy="94.16" r="1.16" fill="#8b949e" opacity="0.95"/>
<circle cx="255.16" cy="94.16" r="1.16" fill="#8b949e" opacity="0.95"/>
<circle cx="241.16" cy="97.66" r="1.16" fill="#8b949e" opacity="0.95"/>
<circle cx="255.16" cy="97.66" r="1.16" fill="#8b949e" opacity="0.95"/>
<circle cx="241.16" cy="101.16" r="1.16" fill="#8b949e" opacity="0.95"/>
<circle cx="255.16" cy="101.16" r="1.16" fill="#8b949e" opacity="0.95"/>
<circle cx="241.16" cy="104.66" r="1.16" fill="#8b949e" opacity="0.95"/>
<circle cx="255.16" cy="104.66" r="1.16" fill="#8b949e" opacity="0.95"/>
<circle cx="241.16" cy="108.16" r="1.16" fill="#8b949e" opacity="0.95"/>
<circle cx="244.66" cy="108.16" r="1.16" fill="#8b949e" opacity="0.95"/>
<circle cx="248.16" cy="108.16" r="1.16" fill="#8b949e" opacity="0.95"/>
<circle cx="251.66" cy="108.16" r="1.16" fill="#8b949e" opacity="0.95"/>
<circle cx="262.16" cy="87.16" r="1.16" fill="#8b949e" opacity="0.95"/>
<circle cx="265.66" cy="87.16" r="1.16" fill="#8b949e" opacity="0.95"/>
<circle cx="269.16" cy="87.16" r="1.16" fill="#8b949e" opacity="0.95"/>
<circle cx="272.66" cy="87.16" r="1.16" fill="#8b949e" opacity="0.95"/>
<circle cx="262.16" cy="90.66" r="1.16" fill="#8b949e" opacity="0.95"/>
<circle cx="276.16" cy="90.66" r="1.16" fill="#8b949e" opacity="0.95"/>
<circle cx="262.16" cy="94.16" r="1.16" fill="#8b949e" opacity="0.95"/>
<circle cx="276.16" cy="94.16" r="1.16" fill="#8b949e" opacity="0.95"/>
<circle cx="262.16" cy="97.66" r="1.16" fill="#8b949e" opacity="0.95"/>
<circle cx="265.66" cy="97.66" r="1.16" fill="#8b949e" opacity="0.95"/>
<circle cx="269.16" cy="97.66" r="1.16" fill="#8b949e" opacity="0.95"/>
<circle cx="272.66" cy="97.66" r="1.16" fill="#8b949e" opacity="0.95"/>
<circle cx="262.16" cy="101.16" r="1.16" fill="#8b949e" opacity="0.95"/>
<circle cx="269.16" cy="101.16" r="1.16" fill="#8b949e" opacity="0.95"/>
<circle cx="262.16" cy="104.66" r="1.16" fill="#8b949e" opacity="0.95"/>
<circle cx="272.66" cy="104.66" r="1.16" fill="#8b949e" opacity="0.95"/>
<circle cx="262.16" cy="108.16" r="1.16" fill="#8b949e" opacity="0.95"/>
<circle cx="276.16" cy="108.16" r="1.16" fill="#8b949e" opacity="0.95"/>
<circle cx="286.66" cy="87.16" r="1.16" fill="#8b949e" opacity="0.95"/>
<circle cx="290.16" cy="87.16" r="1.16" fill="#8b949e" opacity="0.95"/>
<circle cx="293.66" cy="87.16" r="1.16" fill="#8b949e" opacity="0.95"/>
<circle cx="283.16" cy="90.66" r="1.16" fill="#8b949e" opacity="0.95"/>
<circle cx="297.16" cy="90.66" r="1.16" fill="#8b949e" opacity="0.95"/>
<circle cx="283.16" cy="94.16" r="1.16" fill="#8b949e" opacity="0.95"/>
<circle cx="297.16" cy="94.16" r="1.16" fill="#8b949e" opacity="0.95"/>
<circle cx="283.16" cy="97.66" r="1.16" fill="#8b949e" opacity="0.95"/>
<circle cx="297.16" cy="97.66" r="1.16" fill="#8b949e" opacity="0.95"/>
<circle cx="283.16" cy="101.16" r="1.16" fill="#8b949e" opacity="0.95"/>
<circle cx="297.16" cy="101.16" r="1.16" fill="#8b949e" opacity="0.95"/>
<circle cx="283.16" cy="104.66" r="1.16" fill="#8b949e" opacity="0.95"/>
<circle cx="297.16" cy="104.66" r="1.16" fill="#8b949e" opacity="0.95"/>
<circle cx="286.66" cy="108.16" r="1.16" fill="#8b949e" opacity="0.95"/>
<circle cx="290.16" cy="108.16" r="1.16" fill="#8b949e" opacity="0.95"/>
<circle cx="293.66" cy="108.16" r="1.16" fill="#8b949e" opacity="0.95"/>
<circle cx="304.16" cy="87.16" r="1.16" fill="#8b949e" opacity="0.95"/>
<circle cx="307.66" cy="87.16" r="1.16" fill="#8b949e" opacity="0.95"/>
<circle cx="311.16" cy="87.16" r="1.16" fill="#8b949e" opacity="0.95"/>
<circle cx="314.66" cy="87.16" r="1.16" fill="#8b949e" opacity="0.95"/>
<circle cx="304.16" cy="90.66" r="1.16" fill="#8b949e" opacity="0.95"/>
<circle cx="318.16" cy="90.66" r="1.16" fill="#8b949e" opacity="0.95"/>
<circle cx="304.16" cy="94.16" r="1.16" fill="#8b949e" opacity="0.95"/>
<circle cx="318.16" cy="94.16" r="1.16" fill="#8b949e" opacity="0.95"/>
<circle cx="304.16" cy="97.66" r="1.16" fill="#8b949e" opacity="0.95"/>
<circle cx="307.66" cy="97.66" r="1.16" fill="#8b949e" opacity="0.95"/>
<circle cx="311.16" cy="97.66" r="1.16" fill="#8b949e" opacity="0.95"/>
<circle cx="314.66" cy="97.66" r="1.16" fill="#8b949e" opacity="0.95"/>
<circle cx="304.16" cy="101.16" r="1.16" fill="#8b949e" opacity="0.95"/>
<circle cx="304.16" cy="104.66" r="1.16" fill="#8b949e" opacity="0.95"/>
<circle cx="304.16" cy="108.16" r="1.16" fill="#8b949e" opacity="0.95"/>
<text x="240" y="122" fill="#8b949e" font-family="Cascadia Code, SFMono-Regular, Consolas, monospace" font-size="22" font-weight="700">Pixel Heart</text>
<text x="240" y="148" fill="#8fa7bf" font-family="Cascadia Code, SFMono-Regular, Consolas, monospace" font-size="14" letter-spacing="0.7">COMMON / 649738</text>
<circle cx="290.33" cy="165.08" r="1.08" fill="#8fa7bf" opacity="0.84"/>
<circle cx="293.58" cy="165.08" r="1.08" fill="#8fa7bf" opacity="0.84"/>
<circle cx="296.83" cy="165.08" r="1.08" fill="#8fa7bf" opacity="0.84"/>
<circle cx="300.08" cy="165.08" r="1.08" fill="#8fa7bf" opacity="0.84"/>
<circle cx="287.08" cy="168.33" r="1.08" fill="#8fa7bf" opacity="0.84"/>
<circle cx="287.08" cy="171.58" r="1.08" fill="#8fa7bf" opacity="0.84"/>
<circle cx="287.08" cy="174.83" r="1.08" fill="#8fa7bf" opacity="0.84"/>
<circle cx="287.08" cy="178.08" r="1.08" fill="#8fa7bf" opacity="0.84"/>
<circle cx="287.08" cy="181.33" r="1.08" fill="#8fa7bf" opacity="0.84"/>
<circle cx="290.33" cy="184.58" r="1.08" fill="#8fa7bf" opacity="0.84"/>
<circle cx="293.58" cy="184.58" r="1.08" fill="#8fa7bf" opacity="0.84"/>
<circle cx="296.83" cy="184.58" r="1.08" fill="#8fa7bf" opacity="0.84"/>
<circle cx="300.08" cy="184.58" r="1.08" fill="#8fa7bf" opacity="0.84"/>
<circle cx="306.58" cy="165.08" r="1.08" fill="#8fa7bf" opacity="0.84"/>
<circle cx="309.83" cy="165.08" r="1.08" fill="#8fa7bf" opacity="0.84"/>
<circle cx="313.08" cy="165.08" r="1.08" fill="#8fa7bf" opacity="0.84"/>
<circle cx="316.33" cy="165.08" r="1.08" fill="#8fa7bf" opacity="0.84"/>
<circle cx="319.58" cy="165.08" r="1.08" fill="#8fa7bf" opacity="0.84"/>
<circle cx="313.08" cy="168.33" r="1.08" fill="#8fa7bf" opacity="0.84"/>
<circle cx="313.08" cy="171.58" r="1.08" fill="#8fa7bf" opacity="0.84"/>
<circle cx="313.08" cy="174.83" r="1.08" fill="#8fa7bf" opacity="0.84"/>
<circle cx="313.08" cy="178.08" r="1.08" fill="#8fa7bf" opacity="0.84"/>
<circle cx="313.08" cy="181.33" r="1.08" fill="#8fa7bf" opacity="0.84"/>
<circle cx="306.58" cy="184.58" r="1.08" fill="#8fa7bf" opacity="0.84"/>
<circle cx="309.83" cy="184.58" r="1.08" fill="#8fa7bf" opacity="0.84"/>
<circle cx="313.08" cy="184.58" r="1.08" fill="#8fa7bf" opacity="0.84"/>
<circle cx="316.33" cy="184.58" r="1.08" fill="#8fa7bf" opacity="0.84"/>
<circle cx="319.58" cy="184.58" r="1.08" fill="#8fa7bf" opacity="0.84"/>
<circle cx="326.08" cy="165.08" r="1.08" fill="#8fa7bf" opacity="0.84"/>
<circle cx="329.33" cy="165.08" r="1.08" fill="#8fa7bf" opacity="0.84"/>
<circle cx="332.58" cy="165.08" r="1.08" fill="#8fa7bf" opacity="0.84"/>
<circle cx="335.83" cy="165.08" r="1.08" fill="#8fa7bf" opacity="0.84"/>
<circle cx="326.08" cy="168.33" r="1.08" fill="#8fa7bf" opacity="0.84"/>
<circle cx="339.08" cy="168.33" r="1.08" fill="#8fa7bf" opacity="0.84"/>
<circle cx="326.08" cy="171.58" r="1.08" fill="#8fa7bf" opacity="0.84"/>
<circle cx="339.08" cy="171.58" r="1.08" fill="#8fa7bf" opacity="0.84"/>
<circle cx="326.08" cy="174.83" r="1.08" fill="#8fa7bf" opacity="0.84"/>
<circle cx="329.33" cy="174.83" r="1.08" fill="#8fa7bf" opacity="0.84"/>
<circle cx="332.58" cy="174.83" r="1.08" fill="#8fa7bf" opacity="0.84"/>
<circle cx="335.83" cy="174.83" r="1.08" fill="#8fa7bf" opacity="0.84"/>
<circle cx="326.08" cy="178.08" r="1.08" fill="#8fa7bf" opacity="0.84"/>
<circle cx="326.08" cy="181.33" r="1.08" fill="#8fa7bf" opacity="0.84"/>
<circle cx="326.08" cy="184.58" r="1.08" fill="#8fa7bf" opacity="0.84"/>
<circle cx="345.58" cy="165.08" r="1.08" fill="#8fa7bf" opacity="0.84"/>
<circle cx="358.58" cy="165.08" r="1.08" fill="#8fa7bf" opacity="0.84"/>
<circle cx="345.58" cy="168.33" r="1.08" fill="#8fa7bf" opacity="0.84"/>
<circle cx="358.58" cy="168.33" r="1.08" fill="#8fa7bf" opacity="0.84"/>
<circle cx="345.58" cy="171.58" r="1.08" fill="#8fa7bf" opacity="0.84"/>
<circle cx="358.58" cy="171.58" r="1.08" fill="#8fa7bf" opacity="0.84"/>
<circle cx="345.58" cy="174.83" r="1.08" fill="#8fa7bf" opacity="0.84"/>
<circle cx="348.83" cy="174.83" r="1.08" fill="#8fa7bf" opacity="0.84"/>
<circle cx="352.08" cy="174.83" r="1.08" fill="#8fa7bf" opacity="0.84"/>
<circle cx="355.33" cy="174.83" r="1.08" fill="#8fa7bf" opacity="0.84"/>
<circle cx="358.58" cy="174.83" r="1.08" fill="#8fa7bf" opacity="0.84"/>
<circle cx="345.58" cy="178.08" r="1.08" fill="#8fa7bf" opacity="0.84"/>
<circle cx="358.58" cy="178.08" r="1.08" fill="#8fa7bf" opacity="0.84"/>
<circle cx="345.58" cy="181.33" r="1.08" fill="#8fa7bf" opacity="0.84"/>
<circle cx="358.58" cy="181.33" r="1.08" fill="#8fa7bf" opacity="0.84"/>
<circle cx="345.58" cy="184.58" r="1.08" fill="#8fa7bf" opacity="0.84"/>
<circle cx="358.58" cy="184.58" r="1.08" fill="#8fa7bf" opacity="0.84"/>
<circle cx="365.08" cy="165.08" r="1.08" fill="#8fa7bf" opacity="0.84"/>
<circle cx="368.33" cy="165.08" r="1.08" fill="#8fa7bf" opacity="0.84"/>
<circle cx="371.58" cy="165.08" r="1.08" fill="#8fa7bf" opacity="0.84"/>
<circle cx="374.83" cy="165.08" r="1.08" fill="#8fa7bf" opacity="0.84"/>
<circle cx="378.08" cy="165.08" r="1.08" fill="#8fa7bf" opacity="0.84"/>
<circle cx="365.08" cy="168.33" r="1.08" fill="#8fa7bf" opacity="0.84"/>
<circle cx="365.08" cy="171.58" r="1.08" fill="#8fa7bf" opacity="0.84"/>
<circle cx="365.08" cy="174.83" r="1.08" fill="#8fa7bf" opacity="0.84"/>
<circle cx="368.33" cy="174.83" r="1.08" fill="#8fa7bf" opacity="0.84"/>
<circle cx="371.58" cy="174.83" r="1.08" fill="#8fa7bf" opacity="0.84"/>
<circle cx="374.83" cy="174.83" r="1.08" fill="#8fa7bf" opacity="0.84"/>
<circle cx="365.08" cy="178.08" r="1.08" fill="#8fa7bf" opacity="0.84"/>
<circle cx="365.08" cy="181.33" r="1.08" fill="#8fa7bf" opacity="0.84"/>
<circle cx="365.08" cy="184.58" r="1.08" fill="#8fa7bf" opacity="0.84"/>
<circle cx="368.33" cy="184.58" r="1.08" fill="#8fa7bf" opacity="0.84"/>
<circle cx="371.58" cy="184.58" r="1.08" fill="#8fa7bf" opacity="0.84"/>
<circle cx="374.83" cy="184.58" r="1.08" fill="#8fa7bf" opacity="0.84"/>
<circle cx="378.08" cy="184.58" r="1.08" fill="#8fa7bf" opacity="0.84"/>
<circle cx="384.58" cy="165.08" r="1.08" fill="#8fa7bf" opacity="0.84"/>
<circle cx="387.83" cy="165.08" r="1.08" fill="#8fa7bf" opacity="0.84"/>
<circle cx="391.08" cy="165.08" r="1.08" fill="#8fa7bf" opacity="0.84"/>
<circle cx="394.33" cy="165.08" r="1.08" fill="#8fa7bf" opacity="0.84"/>
<circle cx="384.58" cy="168.33" r="1.08" fill="#8fa7bf" opacity="0.84"/>
<circle cx="397.58" cy="168.33" r="1.08" fill="#8fa7bf" opacity="0.84"/>
<circle cx="384.58" cy="171.58" r="1.08" fill="#8fa7bf" opacity="0.84"/>
<circle cx="397.58" cy="171.58" r="1.08" fill="#8fa7bf" opacity="0.84"/>
<circle cx="384.58" cy="174.83" r="1.08" fill="#8fa7bf" opacity="0.84"/>
<circle cx="387.83" cy="174.83" r="1.08" fill="#8fa7bf" opacity="0.84"/>
<circle cx="391.08" cy="174.83" r="1.08" fill="#8fa7bf" opacity="0.84"/>
<circle cx="394.33" cy="174.83" r="1.08" fill="#8fa7bf" opacity="0.84"/>
<circle cx="384.58" cy="178.08" r="1.08" fill="#8fa7bf" opacity="0.84"/>
<circle cx="391.08" cy="178.08" r="1.08" fill="#8fa7bf" opacity="0.84"/>
<circle cx="384.58" cy="181.33" r="1.08" fill="#8fa7bf" opacity="0.84"/>
<circle cx="394.33" cy="181.33" r="1.08" fill="#8fa7bf" opacity="0.84"/>
<circle cx="384.58" cy="184.58" r="1.08" fill="#8fa7bf" opacity="0.84"/>
<circle cx="397.58" cy="184.58" r="1.08" fill="#8fa7bf" opacity="0.84"/>
<rect x="278" y="190" width="384" height="56" rx="4" fill="#101820" stroke="#243246"/>
<text x="286" y="210" fill="#edf6ff" font-family="Cascadia Code, SFMono-Regular, Consolas, monospace" font-size="18" letter-spacing="1.2">ORTSG</text>
<text x="286" y="270" fill="#8fa7bf" font-family="Cascadia Code, SFMono-Regular, Consolas, monospace" font-size="14" letter-spacing="0.7">ATBASH / MIRROR MAP</text>
<text x="286" y="292" fill="#8fa7bf" font-family="Cascadia Code, SFMono-Regular, Consolas, monospace" font-size="13" letter-spacing="0.6">DETAILS BELOW REVEAL THE ANSWER</text>
<defs>
  <pattern id="dotgrid" width="24" height="24" patternUnits="userSpaceOnUse">
    <circle cx="4" cy="4" r="0.85" fill="#58A6FF" opacity="0.22"/>
  </pattern>
</defs>
</svg>
