<svg width="800" height="280" viewBox="0 0 800 280" fill="none" xmlns="http://www.w3.org/2000/svg" role="img" aria-labelledby="title desc">
<title id="title">Daily pixel drop</title>
<desc id="desc">2026 / 07 / 06. COMMON drop Beach With Umbrella.</desc>
<rect width="800" height="280" rx="8" fill="#0D1117"/>
<rect x="1" y="1" width="798" height="278" rx="7" stroke="#243246"/>
<rect x="18" y="18" width="764" height="244" rx="5" fill="url(#dotgrid)" opacity="0.58"/>
<path d="M52 46H32V66M748 46H768V66M52 234H32V214M748 234H768V214" stroke="#8b949e" stroke-width="1.5" stroke-linecap="square" opacity="0.76"/>
<rect x="304" y="56" width="192" height="188" rx="5" stroke="#8b949e" opacity="0.54"/>
<circle cx="385.00" cy="95.00" r="3.40" fill="#f8312f"/>
<circle cx="395.00" cy="95.00" r="3.40" fill="#f7312f"/>
<circle cx="405.00" cy="95.00" r="3.40" fill="#f7312e"/>
<circle cx="365.00" cy="105.00" r="3.40" fill="#f8312f"/>
<circle cx="375.00" cy="105.00" r="3.40" fill="#f8312f"/>
<circle cx="385.00" cy="105.00" r="3.40" fill="#f84948"/>
<circle cx="395.00" cy="105.00" r="3.40" fill="#f68a89"/>
<circle cx="405.00" cy="105.00" r="3.40" fill="#f6a9a8"/>
<circle cx="415.00" cy="105.00" r="3.40" fill="#f5b0af"/>
<circle cx="425.00" cy="105.00" r="3.40" fill="#f5b3b3"/>
<circle cx="365.00" cy="115.00" r="3.40" fill="#f83533"/>
<circle cx="375.00" cy="115.00" r="3.40" fill="#f69c9b"/>
<circle cx="385.00" cy="115.00" r="3.40" fill="#f4f1f1"/>
<circle cx="395.00" cy="115.00" r="3.40" fill="#f4f4f4"/>
<circle cx="405.00" cy="115.00" r="3.40" fill="#f4dddc"/>
<circle cx="415.00" cy="115.00" r="3.40" fill="#f68584"/>
<circle cx="425.00" cy="115.00" r="3.40" fill="#f75452"/>
<circle cx="435.00" cy="115.00" r="3.40" fill="#dc4d48"/>
<circle cx="365.00" cy="125.00" r="3.40" fill="#f5bdbd"/>
<circle cx="375.00" cy="125.00" r="3.40" fill="#f4f4f4"/>
<circle cx="385.00" cy="125.00" r="3.40" fill="#f4f4f4"/>
<circle cx="395.00" cy="125.00" r="3.40" fill="#f6a3a2"/>
<circle cx="405.00" cy="125.00" r="3.40" fill="#f83937"/>
<circle cx="415.00" cy="125.00" r="3.40" fill="#f8312f"/>
<circle cx="425.00" cy="125.00" r="3.40" fill="#f8312f"/>
<circle cx="435.00" cy="125.00" r="3.40" fill="#f75957"/>
<circle cx="445.00" cy="125.00" r="3.40" fill="#f5afae"/>
<circle cx="375.00" cy="135.00" r="3.40" fill="#f4f3f3"/>
<circle cx="385.00" cy="135.00" r="3.40" fill="#f68180"/>
<circle cx="395.00" cy="135.00" r="3.40" fill="#f8312f"/>
<circle cx="405.00" cy="135.00" r="3.40" fill="#f8312f"/>
<circle cx="415.00" cy="135.00" r="3.40" fill="#f8312f"/>
<circle cx="425.00" cy="135.00" r="3.40" fill="#f8312f"/>
<circle cx="435.00" cy="135.00" r="3.40" fill="#f68c8a"/>
<circle cx="445.00" cy="135.00" r="3.40" fill="#f5acab"/>
<circle cx="385.00" cy="145.00" r="3.40" fill="#f74745"/>
<circle cx="395.00" cy="145.00" r="3.40" fill="#f83230"/>
<circle cx="405.00" cy="145.00" r="3.40" fill="#f8312f"/>
<circle cx="415.00" cy="145.00" r="3.40" fill="#f8312f"/>
<circle cx="425.00" cy="145.00" r="3.40" fill="#f83c3a"/>
<circle cx="435.00" cy="145.00" r="3.40" fill="#f4e1e1"/>
<circle cx="445.00" cy="145.00" r="3.40" fill="#f6a4a3"/>
<circle cx="455.00" cy="145.00" r="3.40" fill="#f7302f"/>
<circle cx="345.00" cy="155.00" r="3.40" fill="#26eafc"/>
<circle cx="355.00" cy="155.00" r="3.40" fill="#26eafc"/>
<circle cx="365.00" cy="155.00" r="3.40" fill="#26eafc"/>
<circle cx="375.00" cy="155.00" r="3.40" fill="#26eafc"/>
<circle cx="385.00" cy="155.00" r="3.40" fill="#2fd9e7"/>
<circle cx="395.00" cy="155.00" r="3.40" fill="#af635f"/>
<circle cx="405.00" cy="155.00" r="3.40" fill="#f83230"/>
<circle cx="415.00" cy="155.00" r="3.40" fill="#f8312f"/>
<circle cx="425.00" cy="155.00" r="3.40" fill="#f6aaaa"/>
<circle cx="435.00" cy="155.00" r="3.40" fill="#f4f4f4"/>
<circle cx="445.00" cy="155.00" r="3.40" fill="#f68583"/>
<circle cx="455.00" cy="155.00" r="3.40" fill="#7f9ba5"/>
<circle cx="335.00" cy="165.00" r="3.40" fill="#55ddce"/>
<circle cx="345.00" cy="165.00" r="3.40" fill="#26eafc"/>
<circle cx="355.00" cy="165.00" r="3.40" fill="#26eafc"/>
<circle cx="365.00" cy="165.00" r="3.40" fill="#26eafc"/>
<circle cx="375.00" cy="165.00" r="3.40" fill="#2be1f1"/>
<circle cx="385.00" cy="165.00" r="3.40" fill="#549291"/>
<circle cx="395.00" cy="165.00" r="3.40" fill="#2ae3f3"/>
<circle cx="405.00" cy="165.00" r="3.40" fill="#8b9ca4"/>
<circle cx="415.00" cy="165.00" r="3.40" fill="#f68988"/>
<circle cx="425.00" cy="165.00" r="3.40" fill="#f4f4f4"/>
<circle cx="435.00" cy="165.00" r="3.40" fill="#f4efef"/>
<circle cx="445.00" cy="165.00" r="3.40" fill="#f84543"/>
<circle cx="455.00" cy="165.00" r="3.40" fill="#44cfde"/>
<circle cx="465.00" cy="165.00" r="3.40" fill="#56ddce"/>
<circle cx="335.00" cy="175.00" r="3.40" fill="#d8ba53"/>
<circle cx="345.00" cy="175.00" r="3.40" fill="#d4bc57"/>
<circle cx="355.00" cy="175.00" r="3.40" fill="#d4bc57"/>
<circle cx="365.00" cy="175.00" r="3.40" fill="#ccb558"/>
<circle cx="375.00" cy="175.00" r="3.40" fill="#a37d47"/>
<circle cx="385.00" cy="175.00" r="3.40" fill="#d5b551"/>
<circle cx="395.00" cy="175.00" r="3.40" fill="#d4bc57"/>
<circle cx="405.00" cy="175.00" r="3.40" fill="#d4bc57"/>
<circle cx="415.00" cy="175.00" r="3.40" fill="#f2cf8b"/>
<circle cx="425.00" cy="175.00" r="3.40" fill="#f4f4f3"/>
<circle cx="435.00" cy="175.00" r="3.40" fill="#f69594"/>
<circle cx="445.00" cy="175.00" r="3.40" fill="#f9422f"/>
<circle cx="455.00" cy="175.00" r="3.40" fill="#d4bb57"/>
<circle cx="465.00" cy="175.00" r="3.40" fill="#d9b952"/>
<circle cx="335.00" cy="185.00" r="3.40" fill="#ffaf2d"/>
<circle cx="345.00" cy="185.00" r="3.40" fill="#ffb02e"/>
<circle cx="355.00" cy="185.00" r="3.40" fill="#ffb02e"/>
<circle cx="365.00" cy="185.00" r="3.40" fill="#c27e30"/>
<circle cx="375.00" cy="185.00" r="3.40" fill="#f9ab2e"/>
<circle cx="385.00" cy="185.00" r="3.40" fill="#ffb02e"/>
<circle cx="395.00" cy="185.00" r="3.40" fill="#ffb02e"/>
<circle cx="405.00" cy="185.00" r="3.40" fill="#ffb02e"/>
<circle cx="415.00" cy="185.00" r="3.40" fill="#ffb02e"/>
<circle cx="425.00" cy="185.00" r="3.40" fill="#fbb36a"/>
<circle cx="435.00" cy="185.00" r="3.40" fill="#f83432"/>
<circle cx="445.00" cy="185.00" r="3.40" fill="#fc802e"/>
<circle cx="455.00" cy="185.00" r="3.40" fill="#ffb02e"/>
<circle cx="465.00" cy="185.00" r="3.40" fill="#ffaf2d"/>
<circle cx="345.00" cy="195.00" r="3.40" fill="#ffb02e"/>
<circle cx="355.00" cy="195.00" r="3.40" fill="#ffb02e"/>
<circle cx="365.00" cy="195.00" r="3.40" fill="#ffb02e"/>
<circle cx="375.00" cy="195.00" r="3.40" fill="#ffb02e"/>
<circle cx="385.00" cy="195.00" r="3.40" fill="#ffb02e"/>
<circle cx="395.00" cy="195.00" r="3.40" fill="#ffb02e"/>
<circle cx="405.00" cy="195.00" r="3.40" fill="#ffb02e"/>
<circle cx="415.00" cy="195.00" r="3.40" fill="#ffb02e"/>
<circle cx="425.00" cy="195.00" r="3.40" fill="#ffb02e"/>
<circle cx="435.00" cy="195.00" r="3.40" fill="#fea32e"/>
<circle cx="445.00" cy="195.00" r="3.40" fill="#ffb02e"/>
<circle cx="455.00" cy="195.00" r="3.40" fill="#ffb02e"/>
<circle cx="345.00" cy="205.00" r="3.40" fill="#ffb02e"/>
<circle cx="355.00" cy="205.00" r="3.40" fill="#ffb02e"/>
<circle cx="365.00" cy="205.00" r="3.40" fill="#ffb02e"/>
<circle cx="375.00" cy="205.00" r="3.40" fill="#ffb02e"/>
<circle cx="385.00" cy="205.00" r="3.40" fill="#ffb02e"/>
<circle cx="395.00" cy="205.00" r="3.40" fill="#ffb02e"/>
<circle cx="405.00" cy="205.00" r="3.40" fill="#ffb02e"/>
<circle cx="415.00" cy="205.00" r="3.40" fill="#ffb02e"/>
<circle cx="425.00" cy="205.00" r="3.40" fill="#ffb02e"/>
<circle cx="435.00" cy="205.00" r="3.40" fill="#ffb02e"/>
<circle cx="445.00" cy="205.00" r="3.40" fill="#ffb02e"/>
<circle cx="455.00" cy="205.00" r="3.40" fill="#ffb02e"/>
<defs>
  <pattern id="dotgrid" width="24" height="24" patternUnits="userSpaceOnUse">
    <circle cx="4" cy="4" r="0.85" fill="#58A6FF" opacity="0.22"/>
  </pattern>
</defs>
</svg>
