<svg width="800" height="280" viewBox="0 0 800 280" fill="none" xmlns="http://www.w3.org/2000/svg" role="img" aria-labelledby="title desc">
<title id="title">Daily pixel drop</title>
<desc id="desc">2026 / 06 / 29. COMMON drop Candy.</desc>
<rect width="800" height="280" rx="8" fill="#0D1117"/>
<rect x="1" y="1" width="798" height="278" rx="7" stroke="#243246"/>
<rect x="18" y="18" width="764" height="244" rx="5" fill="url(#dotgrid)" opacity="0.58"/>
<path d="M52 46H32V66M748 46H768V66M52 234H32V214M748 234H768V214" stroke="#8b949e" stroke-width="1.5" stroke-linecap="square" opacity="0.76"/>
<rect x="304" y="56" width="192" height="188" rx="5" stroke="#8b949e" opacity="0.54"/>
<circle cx="365.00" cy="85.00" r="3.40" fill="#e0e0e0"/>
<circle cx="355.00" cy="95.00" r="3.40" fill="#dfdfdf"/>
<circle cx="365.00" cy="95.00" r="3.40" fill="#e5e5e5"/>
<circle cx="375.00" cy="95.00" r="3.40" fill="#e0e0e0"/>
<circle cx="345.00" cy="105.00" r="3.40" fill="#e0e0e0"/>
<circle cx="355.00" cy="105.00" r="3.40" fill="#f3f3f3"/>
<circle cx="365.00" cy="105.00" r="3.40" fill="#ececec"/>
<circle cx="375.00" cy="105.00" r="3.40" fill="#e7e7e7"/>
<circle cx="345.00" cy="115.00" r="3.40" fill="#e0e0e0"/>
<circle cx="355.00" cy="115.00" r="3.40" fill="#f0f0f0"/>
<circle cx="365.00" cy="115.00" r="3.40" fill="#e7e7e7"/>
<circle cx="375.00" cy="115.00" r="3.40" fill="#e9e9e9"/>
<circle cx="395.00" cy="115.00" r="3.40" fill="#ff999f"/>
<circle cx="335.00" cy="125.00" r="3.40" fill="#e4e4e4"/>
<circle cx="345.00" cy="125.00" r="3.40" fill="#f1f1f1"/>
<circle cx="355.00" cy="125.00" r="3.40" fill="#ececec"/>
<circle cx="365.00" cy="125.00" r="3.40" fill="#e0e0e0"/>
<circle cx="375.00" cy="125.00" r="3.40" fill="#eaccce"/>
<circle cx="385.00" cy="125.00" r="3.40" fill="#ffaaae"/>
<circle cx="395.00" cy="125.00" r="3.40" fill="#ffc9cc"/>
<circle cx="405.00" cy="125.00" r="3.40" fill="#ffb4b7"/>
<circle cx="415.00" cy="125.00" r="3.40" fill="#ffa7ac"/>
<circle cx="345.00" cy="135.00" r="3.40" fill="#dfdfdf"/>
<circle cx="355.00" cy="135.00" r="3.40" fill="#e0e0e0"/>
<circle cx="365.00" cy="135.00" r="3.40" fill="#e8cfd1"/>
<circle cx="375.00" cy="135.00" r="3.40" fill="#fe9ca1"/>
<circle cx="385.00" cy="135.00" r="3.40" fill="#ffdadc"/>
<circle cx="395.00" cy="135.00" r="3.40" fill="#ffb0b4"/>
<circle cx="405.00" cy="135.00" r="3.40" fill="#ffacb0"/>
<circle cx="415.00" cy="135.00" r="3.40" fill="#ff757b"/>
<circle cx="425.00" cy="135.00" r="3.40" fill="#ffabb0"/>
<circle cx="365.00" cy="145.00" r="3.40" fill="#ff9ba0"/>
<circle cx="375.00" cy="145.00" r="3.40" fill="#fe7279"/>
<circle cx="385.00" cy="145.00" r="3.40" fill="#ff646c"/>
<circle cx="395.00" cy="145.00" r="3.40" fill="#ff6a72"/>
<circle cx="405.00" cy="145.00" r="3.40" fill="#fe7179"/>
<circle cx="415.00" cy="145.00" r="3.40" fill="#ff6269"/>
<circle cx="425.00" cy="145.00" r="3.40" fill="#fe979d"/>
<circle cx="365.00" cy="155.00" r="3.40" fill="#fea7ac"/>
<circle cx="375.00" cy="155.00" r="3.40" fill="#ff626a"/>
<circle cx="385.00" cy="155.00" r="3.40" fill="#fe737b"/>
<circle cx="395.00" cy="155.00" r="3.40" fill="#ff6169"/>
<circle cx="405.00" cy="155.00" r="3.40" fill="#fe7179"/>
<circle cx="415.00" cy="155.00" r="3.40" fill="#ff6b72"/>
<circle cx="425.00" cy="155.00" r="3.40" fill="#ff8a90"/>
<circle cx="365.00" cy="165.00" r="3.40" fill="#ffa5a9"/>
<circle cx="375.00" cy="165.00" r="3.40" fill="#fe8086"/>
<circle cx="385.00" cy="165.00" r="3.40" fill="#ff686f"/>
<circle cx="395.00" cy="165.00" r="3.40" fill="#fe737b"/>
<circle cx="405.00" cy="165.00" r="3.40" fill="#ff6269"/>
<circle cx="415.00" cy="165.00" r="3.40" fill="#fe757d"/>
<circle cx="425.00" cy="165.00" r="3.40" fill="#f6adb0"/>
<circle cx="435.00" cy="165.00" r="3.40" fill="#e0e0e0"/>
<circle cx="445.00" cy="165.00" r="3.40" fill="#e0e0e0"/>
<circle cx="375.00" cy="175.00" r="3.40" fill="#fea5a9"/>
<circle cx="385.00" cy="175.00" r="3.40" fill="#ff858b"/>
<circle cx="395.00" cy="175.00" r="3.40" fill="#fe747b"/>
<circle cx="405.00" cy="175.00" r="3.40" fill="#ff7b82"/>
<circle cx="415.00" cy="175.00" r="3.40" fill="#f9a5aa"/>
<circle cx="425.00" cy="175.00" r="3.40" fill="#e5ddde"/>
<circle cx="435.00" cy="175.00" r="3.40" fill="#eeeeee"/>
<circle cx="445.00" cy="175.00" r="3.40" fill="#f1f1f1"/>
<circle cx="455.00" cy="175.00" r="3.40" fill="#e7e7e7"/>
<circle cx="465.00" cy="175.00" r="3.40" fill="#e0e0e0"/>
<circle cx="385.00" cy="185.00" r="3.40" fill="#ffa9ad"/>
<circle cx="395.00" cy="185.00" r="3.40" fill="#ffa7ab"/>
<circle cx="405.00" cy="185.00" r="3.40" fill="#ffafb3"/>
<circle cx="415.00" cy="185.00" r="3.40" fill="#e1dede"/>
<circle cx="425.00" cy="185.00" r="3.40" fill="#e3e3e3"/>
<circle cx="435.00" cy="185.00" r="3.40" fill="#f2f2f2"/>
<circle cx="445.00" cy="185.00" r="3.40" fill="#e8e8e8"/>
<circle cx="455.00" cy="185.00" r="3.40" fill="#e6e6e6"/>
<circle cx="465.00" cy="185.00" r="3.40" fill="#e0e0e0"/>
<circle cx="415.00" cy="195.00" r="3.40" fill="#e0e0e0"/>
<circle cx="425.00" cy="195.00" r="3.40" fill="#e8e8e8"/>
<circle cx="435.00" cy="195.00" r="3.40" fill="#ececec"/>
<circle cx="445.00" cy="195.00" r="3.40" fill="#e3e3e3"/>
<circle cx="425.00" cy="205.00" r="3.40" fill="#e0e0e0"/>
<circle cx="435.00" cy="205.00" r="3.40" fill="#e6e6e6"/>
<circle cx="435.00" cy="215.00" r="3.40" fill="#e0e0e0"/>
<defs>
  <pattern id="dotgrid" width="24" height="24" patternUnits="userSpaceOnUse">
    <circle cx="4" cy="4" r="0.85" fill="#58A6FF" opacity="0.22"/>
  </pattern>
</defs>
</svg>
