<svg width="800" height="280" viewBox="0 0 800 280" fill="none" xmlns="http://www.w3.org/2000/svg" role="img" aria-labelledby="title desc">
<title id="title">Daily pixel drop</title>
<desc id="desc">2026 / 06 / 10. COMMON drop Watermelon.</desc>
<rect width="800" height="280" rx="8" fill="#0D1117"/>
<rect x="1" y="1" width="798" height="278" rx="7" stroke="#243246"/>
<rect x="18" y="18" width="764" height="244" rx="5" fill="url(#dotgrid)" opacity="0.58"/>
<path d="M52 46H32V66M748 46H768V66M52 234H32V214M748 234H768V214" stroke="#8b949e" stroke-width="1.5" stroke-linecap="square" opacity="0.76"/>
<rect x="304" y="56" width="192" height="188" rx="5" stroke="#8b949e" opacity="0.54"/>
<circle cx="365.00" cy="95.00" r="3.40" fill="#008463"/>
<circle cx="375.00" cy="95.00" r="3.40" fill="#71b596"/>
<circle cx="355.00" cy="105.00" r="3.40" fill="#008463"/>
<circle cx="365.00" cy="105.00" r="3.40" fill="#6bb394"/>
<circle cx="375.00" cy="105.00" r="3.40" fill="#fba492"/>
<circle cx="385.00" cy="105.00" r="3.40" fill="#f8312f"/>
<circle cx="345.00" cy="115.00" r="3.40" fill="#008463"/>
<circle cx="355.00" cy="115.00" r="3.40" fill="#389d7d"/>
<circle cx="365.00" cy="115.00" r="3.40" fill="#fab09c"/>
<circle cx="375.00" cy="115.00" r="3.40" fill="#f83230"/>
<circle cx="385.00" cy="115.00" r="3.40" fill="#f8312f"/>
<circle cx="395.00" cy="115.00" r="3.40" fill="#f8312f"/>
<circle cx="345.00" cy="125.00" r="3.40" fill="#008463"/>
<circle cx="355.00" cy="125.00" r="3.40" fill="#b3cbae"/>
<circle cx="365.00" cy="125.00" r="3.40" fill="#f9413c"/>
<circle cx="375.00" cy="125.00" r="3.40" fill="#f8312f"/>
<circle cx="385.00" cy="125.00" r="3.40" fill="#7b2524"/>
<circle cx="395.00" cy="125.00" r="3.40" fill="#f0302e"/>
<circle cx="405.00" cy="125.00" r="3.40" fill="#f8312f"/>
<circle cx="345.00" cy="135.00" r="3.40" fill="#028564"/>
<circle cx="355.00" cy="135.00" r="3.40" fill="#f4b7a2"/>
<circle cx="365.00" cy="135.00" r="3.40" fill="#f8312f"/>
<circle cx="375.00" cy="135.00" r="3.40" fill="#f8312f"/>
<circle cx="385.00" cy="135.00" r="3.40" fill="#e42f2d"/>
<circle cx="395.00" cy="135.00" r="3.40" fill="#f8312f"/>
<circle cx="405.00" cy="135.00" r="3.40" fill="#f8312f"/>
<circle cx="415.00" cy="135.00" r="3.40" fill="#f8312f"/>
<circle cx="345.00" cy="145.00" r="3.40" fill="#0e8a69"/>
<circle cx="355.00" cy="145.00" r="3.40" fill="#fca694"/>
<circle cx="365.00" cy="145.00" r="3.40" fill="#f8312f"/>
<circle cx="375.00" cy="145.00" r="3.40" fill="#e22f2d"/>
<circle cx="385.00" cy="145.00" r="3.40" fill="#dd2e2d"/>
<circle cx="395.00" cy="145.00" r="3.40" fill="#f4312f"/>
<circle cx="405.00" cy="145.00" r="3.40" fill="#622322"/>
<circle cx="415.00" cy="145.00" r="3.40" fill="#f8312f"/>
<circle cx="425.00" cy="145.00" r="3.40" fill="#f8312f"/>
<circle cx="345.00" cy="155.00" r="3.40" fill="#018564"/>
<circle cx="355.00" cy="155.00" r="3.40" fill="#f1b4a0"/>
<circle cx="365.00" cy="155.00" r="3.40" fill="#f8312f"/>
<circle cx="375.00" cy="155.00" r="3.40" fill="#c92d2b"/>
<circle cx="385.00" cy="155.00" r="3.40" fill="#bf2c2a"/>
<circle cx="395.00" cy="155.00" r="3.40" fill="#f8312f"/>
<circle cx="405.00" cy="155.00" r="3.40" fill="#f8312f"/>
<circle cx="415.00" cy="155.00" r="3.40" fill="#f7312f"/>
<circle cx="425.00" cy="155.00" r="3.40" fill="#eb302e"/>
<circle cx="435.00" cy="155.00" r="3.40" fill="#f8312f"/>
<circle cx="345.00" cy="165.00" r="3.40" fill="#008463"/>
<circle cx="355.00" cy="165.00" r="3.40" fill="#aac6a9"/>
<circle cx="365.00" cy="165.00" r="3.40" fill="#f93f3b"/>
<circle cx="375.00" cy="165.00" r="3.40" fill="#f8312f"/>
<circle cx="385.00" cy="165.00" r="3.40" fill="#f8312f"/>
<circle cx="395.00" cy="165.00" r="3.40" fill="#b52b29"/>
<circle cx="405.00" cy="165.00" r="3.40" fill="#de2f2d"/>
<circle cx="415.00" cy="165.00" r="3.40" fill="#dd2e2d"/>
<circle cx="425.00" cy="165.00" r="3.40" fill="#882625"/>
<circle cx="435.00" cy="165.00" r="3.40" fill="#f8312f"/>
<circle cx="445.00" cy="165.00" r="3.40" fill="#f83331"/>
<circle cx="345.00" cy="175.00" r="3.40" fill="#008463"/>
<circle cx="355.00" cy="175.00" r="3.40" fill="#2e9878"/>
<circle cx="365.00" cy="175.00" r="3.40" fill="#f6a997"/>
<circle cx="375.00" cy="175.00" r="3.40" fill="#f8312f"/>
<circle cx="385.00" cy="175.00" r="3.40" fill="#f8312f"/>
<circle cx="395.00" cy="175.00" r="3.40" fill="#cb2d2b"/>
<circle cx="405.00" cy="175.00" r="3.40" fill="#e9302e"/>
<circle cx="415.00" cy="175.00" r="3.40" fill="#f8312f"/>
<circle cx="425.00" cy="175.00" r="3.40" fill="#f8312f"/>
<circle cx="435.00" cy="175.00" r="3.40" fill="#f83432"/>
<circle cx="445.00" cy="175.00" r="3.40" fill="#fab19e"/>
<circle cx="455.00" cy="175.00" r="3.40" fill="#62af90"/>
<circle cx="355.00" cy="185.00" r="3.40" fill="#008463"/>
<circle cx="365.00" cy="185.00" r="3.40" fill="#56a98a"/>
<circle cx="375.00" cy="185.00" r="3.40" fill="#f5ab98"/>
<circle cx="385.00" cy="185.00" r="3.40" fill="#f9413d"/>
<circle cx="395.00" cy="185.00" r="3.40" fill="#f8312f"/>
<circle cx="405.00" cy="185.00" r="3.40" fill="#f8312f"/>
<circle cx="415.00" cy="185.00" r="3.40" fill="#f8312f"/>
<circle cx="425.00" cy="185.00" r="3.40" fill="#f94944"/>
<circle cx="435.00" cy="185.00" r="3.40" fill="#f7baa5"/>
<circle cx="445.00" cy="185.00" r="3.40" fill="#5cac8d"/>
<circle cx="455.00" cy="185.00" r="3.40" fill="#008463"/>
<circle cx="365.00" cy="195.00" r="3.40" fill="#008463"/>
<circle cx="375.00" cy="195.00" r="3.40" fill="#2b9777"/>
<circle cx="385.00" cy="195.00" r="3.40" fill="#a5c6a9"/>
<circle cx="395.00" cy="195.00" r="3.40" fill="#eab9a3"/>
<circle cx="405.00" cy="195.00" r="3.40" fill="#fdaf9c"/>
<circle cx="415.00" cy="195.00" r="3.40" fill="#ebbea7"/>
<circle cx="425.00" cy="195.00" r="3.40" fill="#a6c9ac"/>
<circle cx="435.00" cy="195.00" r="3.40" fill="#2c9777"/>
<circle cx="445.00" cy="195.00" r="3.40" fill="#008463"/>
<circle cx="375.00" cy="205.00" r="3.40" fill="#008463"/>
<circle cx="385.00" cy="205.00" r="3.40" fill="#008463"/>
<circle cx="395.00" cy="205.00" r="3.40" fill="#008463"/>
<circle cx="405.00" cy="205.00" r="3.40" fill="#048665"/>
<circle cx="415.00" cy="205.00" r="3.40" fill="#008463"/>
<circle cx="425.00" cy="205.00" r="3.40" fill="#008463"/>
<circle cx="435.00" cy="205.00" r="3.40" fill="#008463"/>
<defs>
  <pattern id="dotgrid" width="24" height="24" patternUnits="userSpaceOnUse">
    <circle cx="4" cy="4" r="0.85" fill="#58A6FF" opacity="0.22"/>
  </pattern>
</defs>
</svg>
