<svg width="800" height="280" viewBox="0 0 800 280" fill="none" xmlns="http://www.w3.org/2000/svg" role="img" aria-labelledby="title desc">
<title id="title">Daily pixel drop</title>
<desc id="desc">2026 / 06 / 23. COMMON drop Rocket.</desc>
<rect width="800" height="280" rx="8" fill="#0D1117"/>
<rect x="1" y="1" width="798" height="278" rx="7" stroke="#243246"/>
<rect x="18" y="18" width="764" height="244" rx="5" fill="url(#dotgrid)" opacity="0.58"/>
<path d="M52 46H32V66M748 46H768V66M52 234H32V214M748 234H768V214" stroke="#8b949e" stroke-width="1.5" stroke-linecap="square" opacity="0.76"/>
<rect x="304" y="56" width="192" height="188" rx="5" stroke="#8b949e" opacity="0.54"/>
<circle cx="425.00" cy="95.00" r="3.40" fill="#ca0b4a"/>
<circle cx="435.00" cy="95.00" r="3.40" fill="#cb0f4d"/>
<circle cx="445.00" cy="95.00" r="3.40" fill="#ca0b4a"/>
<circle cx="455.00" cy="95.00" r="3.40" fill="#ca0b4a"/>
<circle cx="405.00" cy="105.00" r="3.40" fill="#ca0b4a"/>
<circle cx="415.00" cy="105.00" r="3.40" fill="#d95d86"/>
<circle cx="425.00" cy="105.00" r="3.40" fill="#eabfce"/>
<circle cx="435.00" cy="105.00" r="3.40" fill="#e9b8c8"/>
<circle cx="445.00" cy="105.00" r="3.40" fill="#cc1451"/>
<circle cx="455.00" cy="105.00" r="3.40" fill="#ca0b4a"/>
<circle cx="395.00" cy="115.00" r="3.40" fill="#d02e64"/>
<circle cx="405.00" cy="115.00" r="3.40" fill="#e6a8bd"/>
<circle cx="415.00" cy="115.00" r="3.40" fill="#e0e0e0"/>
<circle cx="425.00" cy="115.00" r="3.40" fill="#cbcdce"/>
<circle cx="435.00" cy="115.00" r="3.40" fill="#eeeeee"/>
<circle cx="445.00" cy="115.00" r="3.40" fill="#e9b7c8"/>
<circle cx="455.00" cy="115.00" r="3.40" fill="#cb1350"/>
<circle cx="385.00" cy="125.00" r="3.40" fill="#d33e6f"/>
<circle cx="395.00" cy="125.00" r="3.40" fill="#efd6de"/>
<circle cx="405.00" cy="125.00" r="3.40" fill="#f0f0f0"/>
<circle cx="415.00" cy="125.00" r="3.40" fill="#92b7d1"/>
<circle cx="425.00" cy="125.00" r="3.40" fill="#84c9fb"/>
<circle cx="435.00" cy="125.00" r="3.40" fill="#b8c4cc"/>
<circle cx="445.00" cy="125.00" r="3.40" fill="#efd6de"/>
<circle cx="455.00" cy="125.00" r="3.40" fill="#cb124f"/>
<circle cx="375.00" cy="135.00" r="3.40" fill="#d2366a"/>
<circle cx="385.00" cy="135.00" r="3.40" fill="#efdae1"/>
<circle cx="395.00" cy="135.00" r="3.40" fill="#f4f4f4"/>
<circle cx="405.00" cy="135.00" r="3.40" fill="#f1f1f1"/>
<circle cx="415.00" cy="135.00" r="3.40" fill="#99b6cb"/>
<circle cx="425.00" cy="135.00" r="3.40" fill="#87c3ee"/>
<circle cx="435.00" cy="135.00" r="3.40" fill="#bfc8cd"/>
<circle cx="445.00" cy="135.00" r="3.40" fill="#de799a"/>
<circle cx="355.00" cy="145.00" r="3.40" fill="#ca0b49"/>
<circle cx="365.00" cy="145.00" r="3.40" fill="#ca0b4a"/>
<circle cx="375.00" cy="145.00" r="3.40" fill="#e8b5c6"/>
<circle cx="385.00" cy="145.00" r="3.40" fill="#f4f4f4"/>
<circle cx="395.00" cy="145.00" r="3.40" fill="#f4f4f4"/>
<circle cx="405.00" cy="145.00" r="3.40" fill="#f4f4f4"/>
<circle cx="415.00" cy="145.00" r="3.40" fill="#eaeaea"/>
<circle cx="425.00" cy="145.00" r="3.40" fill="#dadada"/>
<circle cx="435.00" cy="145.00" r="3.40" fill="#eccdd7"/>
<circle cx="445.00" cy="145.00" r="3.40" fill="#cc1954"/>
<circle cx="345.00" cy="155.00" r="3.40" fill="#ca0b4a"/>
<circle cx="355.00" cy="155.00" r="3.40" fill="#ca0b4a"/>
<circle cx="365.00" cy="155.00" r="3.40" fill="#d33e6f"/>
<circle cx="375.00" cy="155.00" r="3.40" fill="#f5dce2"/>
<circle cx="385.00" cy="155.00" r="3.40" fill="#f695ac"/>
<circle cx="395.00" cy="155.00" r="3.40" fill="#f695ad"/>
<circle cx="405.00" cy="155.00" r="3.40" fill="#f4f4f4"/>
<circle cx="415.00" cy="155.00" r="3.40" fill="#f4f4f4"/>
<circle cx="425.00" cy="155.00" r="3.40" fill="#f3edef"/>
<circle cx="435.00" cy="155.00" r="3.40" fill="#d6507d"/>
<circle cx="345.00" cy="165.00" r="3.40" fill="#ca0b4a"/>
<circle cx="355.00" cy="165.00" r="3.40" fill="#d4134f"/>
<circle cx="365.00" cy="165.00" r="3.40" fill="#f03767"/>
<circle cx="375.00" cy="165.00" r="3.40" fill="#f93061"/>
<circle cx="385.00" cy="165.00" r="3.40" fill="#f92f60"/>
<circle cx="395.00" cy="165.00" r="3.40" fill="#f86e8f"/>
<circle cx="405.00" cy="165.00" r="3.40" fill="#f4f4f4"/>
<circle cx="415.00" cy="165.00" r="3.40" fill="#f2e7ea"/>
<circle cx="425.00" cy="165.00" r="3.40" fill="#d85c85"/>
<circle cx="355.00" cy="175.00" r="3.40" fill="#873363"/>
<circle cx="365.00" cy="175.00" r="3.40" fill="#e63061"/>
<circle cx="375.00" cy="175.00" r="3.40" fill="#f92f60"/>
<circle cx="385.00" cy="175.00" r="3.40" fill="#f92f60"/>
<circle cx="395.00" cy="175.00" r="3.40" fill="#f6b6c5"/>
<circle cx="405.00" cy="175.00" r="3.40" fill="#e9b5c6"/>
<circle cx="415.00" cy="175.00" r="3.40" fill="#d33f70"/>
<circle cx="345.00" cy="185.00" r="3.40" fill="#ff8257"/>
<circle cx="355.00" cy="185.00" r="3.40" fill="#ec7a59"/>
<circle cx="365.00" cy="185.00" r="3.40" fill="#813f63"/>
<circle cx="375.00" cy="185.00" r="3.40" fill="#e63061"/>
<circle cx="385.00" cy="185.00" r="3.40" fill="#f62e5f"/>
<circle cx="395.00" cy="185.00" r="3.40" fill="#d43e6f"/>
<circle cx="405.00" cy="185.00" r="3.40" fill="#ca0b4a"/>
<circle cx="345.00" cy="195.00" r="3.40" fill="#ff8257"/>
<circle cx="355.00" cy="195.00" r="3.40" fill="#ff8257"/>
<circle cx="365.00" cy="195.00" r="3.40" fill="#eb7959"/>
<circle cx="375.00" cy="195.00" r="3.40" fill="#7c3a64"/>
<circle cx="385.00" cy="195.00" r="3.40" fill="#d81b54"/>
<circle cx="395.00" cy="195.00" r="3.40" fill="#ca0b4a"/>
<circle cx="405.00" cy="195.00" r="3.40" fill="#ca0b4a"/>
<circle cx="345.00" cy="205.00" r="3.40" fill="#ff8257"/>
<circle cx="355.00" cy="205.00" r="3.40" fill="#ff8257"/>
<circle cx="365.00" cy="205.00" r="3.40" fill="#ff8257"/>
<circle cx="385.00" cy="205.00" r="3.40" fill="#ca0b4a"/>
<circle cx="395.00" cy="205.00" r="3.40" fill="#ca0b4a"/>
<defs>
  <pattern id="dotgrid" width="24" height="24" patternUnits="userSpaceOnUse">
    <circle cx="4" cy="4" r="0.85" fill="#58A6FF" opacity="0.22"/>
  </pattern>
</defs>
</svg>
