<svg width="800" height="280" viewBox="0 0 800 280" fill="none" xmlns="http://www.w3.org/2000/svg" role="img" aria-labelledby="title desc">
<title id="title">Daily pixel drop</title>
<desc id="desc">2026 / 06 / 02. COMMON drop Keycap 7.</desc>
<rect width="800" height="280" rx="8" fill="#0D1117"/>
<rect x="1" y="1" width="798" height="278" rx="7" stroke="#243246"/>
<rect x="18" y="18" width="764" height="244" rx="5" fill="url(#dotgrid)" opacity="0.58"/>
<path d="M52 46H32V66M748 46H768V66M52 234H32V214M748 234H768V214" stroke="#8b949e" stroke-width="1.5" stroke-linecap="square" opacity="0.76"/>
<rect x="304" y="56" width="192" height="188" rx="5" stroke="#8b949e" opacity="0.54"/>
<circle cx="335.00" cy="85.00" r="3.40" fill="#7ca6b7"/>
<circle cx="345.00" cy="85.00" r="3.40" fill="#86acbd"/>
<circle cx="355.00" cy="85.00" r="3.40" fill="#85abbc"/>
<circle cx="365.00" cy="85.00" r="3.40" fill="#84abbc"/>
<circle cx="375.00" cy="85.00" r="3.40" fill="#84abbc"/>
<circle cx="385.00" cy="85.00" r="3.40" fill="#84abbc"/>
<circle cx="395.00" cy="85.00" r="3.40" fill="#84abbc"/>
<circle cx="405.00" cy="85.00" r="3.40" fill="#84aabc"/>
<circle cx="415.00" cy="85.00" r="3.40" fill="#83aabc"/>
<circle cx="425.00" cy="85.00" r="3.40" fill="#83aabc"/>
<circle cx="435.00" cy="85.00" r="3.40" fill="#82aabc"/>
<circle cx="445.00" cy="85.00" r="3.40" fill="#82aabc"/>
<circle cx="455.00" cy="85.00" r="3.40" fill="#82aabc"/>
<circle cx="465.00" cy="85.00" r="3.40" fill="#6495a7"/>
<circle cx="335.00" cy="95.00" r="3.40" fill="#8aaebe"/>
<circle cx="345.00" cy="95.00" r="3.40" fill="#91b5c4"/>
<circle cx="355.00" cy="95.00" r="3.40" fill="#9cc3d2"/>
<circle cx="365.00" cy="95.00" r="3.40" fill="#9cc3d2"/>
<circle cx="375.00" cy="95.00" r="3.40" fill="#8fb3c3"/>
<circle cx="385.00" cy="95.00" r="3.40" fill="#8cafbf"/>
<circle cx="395.00" cy="95.00" r="3.40" fill="#8cafbf"/>
<circle cx="405.00" cy="95.00" r="3.40" fill="#8cafbf"/>
<circle cx="415.00" cy="95.00" r="3.40" fill="#8cafbf"/>
<circle cx="425.00" cy="95.00" r="3.40" fill="#8cafbf"/>
<circle cx="435.00" cy="95.00" r="3.40" fill="#8cafbf"/>
<circle cx="445.00" cy="95.00" r="3.40" fill="#8cafbf"/>
<circle cx="455.00" cy="95.00" r="3.40" fill="#6a95a6"/>
<circle cx="465.00" cy="95.00" r="3.40" fill="#427a8e"/>
<circle cx="335.00" cy="105.00" r="3.40" fill="#8baebf"/>
<circle cx="345.00" cy="105.00" r="3.40" fill="#98bdcc"/>
<circle cx="355.00" cy="105.00" r="3.40" fill="#9ac0cf"/>
<circle cx="365.00" cy="105.00" r="3.40" fill="#8db0c0"/>
<circle cx="375.00" cy="105.00" r="3.40" fill="#8cafbf"/>
<circle cx="385.00" cy="105.00" r="3.40" fill="#8cafbf"/>
<circle cx="395.00" cy="105.00" r="3.40" fill="#8cafbf"/>
<circle cx="405.00" cy="105.00" r="3.40" fill="#8cafbf"/>
<circle cx="415.00" cy="105.00" r="3.40" fill="#8cafbf"/>
<circle cx="425.00" cy="105.00" r="3.40" fill="#8cafbf"/>
<circle cx="435.00" cy="105.00" r="3.40" fill="#8cafbf"/>
<circle cx="445.00" cy="105.00" r="3.40" fill="#739cac"/>
<circle cx="455.00" cy="105.00" r="3.40" fill="#427687"/>
<circle cx="465.00" cy="105.00" r="3.40" fill="#417a8d"/>
<circle cx="335.00" cy="115.00" r="3.40" fill="#8aaebf"/>
<circle cx="345.00" cy="115.00" r="3.40" fill="#98becd"/>
<circle cx="355.00" cy="115.00" r="3.40" fill="#8eb2c1"/>
<circle cx="365.00" cy="115.00" r="3.40" fill="#8cafbf"/>
<circle cx="375.00" cy="115.00" r="3.40" fill="#c1d4dc"/>
<circle cx="385.00" cy="115.00" r="3.40" fill="#ecf0f2"/>
<circle cx="395.00" cy="115.00" r="3.40" fill="#ecf0f2"/>
<circle cx="405.00" cy="115.00" r="3.40" fill="#ecf0f2"/>
<circle cx="415.00" cy="115.00" r="3.40" fill="#ecf0f2"/>
<circle cx="425.00" cy="115.00" r="3.40" fill="#cad9e1"/>
<circle cx="435.00" cy="115.00" r="3.40" fill="#8cafbf"/>
<circle cx="445.00" cy="115.00" r="3.40" fill="#6a95a5"/>
<circle cx="455.00" cy="115.00" r="3.40" fill="#427687"/>
<circle cx="465.00" cy="115.00" r="3.40" fill="#40798d"/>
<circle cx="335.00" cy="125.00" r="3.40" fill="#8aaebe"/>
<circle cx="345.00" cy="125.00" r="3.40" fill="#8eb1c1"/>
<circle cx="355.00" cy="125.00" r="3.40" fill="#8cafbf"/>
<circle cx="365.00" cy="125.00" r="3.40" fill="#8cafbf"/>
<circle cx="375.00" cy="125.00" r="3.40" fill="#94b5c3"/>
<circle cx="385.00" cy="125.00" r="3.40" fill="#9dbac8"/>
<circle cx="395.00" cy="125.00" r="3.40" fill="#9dbac8"/>
<circle cx="405.00" cy="125.00" r="3.40" fill="#9dbbc8"/>
<circle cx="415.00" cy="125.00" r="3.40" fill="#eff3f4"/>
<circle cx="425.00" cy="125.00" r="3.40" fill="#b6ccd6"/>
<circle cx="435.00" cy="125.00" r="3.40" fill="#8cafbf"/>
<circle cx="445.00" cy="125.00" r="3.40" fill="#6a95a5"/>
<circle cx="455.00" cy="125.00" r="3.40" fill="#427687"/>
<circle cx="465.00" cy="125.00" r="3.40" fill="#40798d"/>
<circle cx="335.00" cy="135.00" r="3.40" fill="#8aaebe"/>
<circle cx="345.00" cy="135.00" r="3.40" fill="#8cafbf"/>
<circle cx="355.00" cy="135.00" r="3.40" fill="#8cafbf"/>
<circle cx="365.00" cy="135.00" r="3.40" fill="#8cafbf"/>
<circle cx="375.00" cy="135.00" r="3.40" fill="#8cafbf"/>
<circle cx="385.00" cy="135.00" r="3.40" fill="#8cafbf"/>
<circle cx="395.00" cy="135.00" r="3.40" fill="#8cafbf"/>
<circle cx="405.00" cy="135.00" r="3.40" fill="#acc5d0"/>
<circle cx="415.00" cy="135.00" r="3.40" fill="#f0f3f5"/>
<circle cx="425.00" cy="135.00" r="3.40" fill="#8fb1c1"/>
<circle cx="435.00" cy="135.00" r="3.40" fill="#8cafbf"/>
<circle cx="445.00" cy="135.00" r="3.40" fill="#6a95a5"/>
<circle cx="455.00" cy="135.00" r="3.40" fill="#427687"/>
<circle cx="465.00" cy="135.00" r="3.40" fill="#3f798d"/>
<circle cx="335.00" cy="145.00" r="3.40" fill="#8aaebe"/>
<circle cx="345.00" cy="145.00" r="3.40" fill="#8cafbf"/>
<circle cx="355.00" cy="145.00" r="3.40" fill="#8cafbf"/>
<circle cx="365.00" cy="145.00" r="3.40" fill="#8cafbf"/>
<circle cx="375.00" cy="145.00" r="3.40" fill="#8cafbf"/>
<circle cx="385.00" cy="145.00" r="3.40" fill="#8cafbf"/>
<circle cx="395.00" cy="145.00" r="3.40" fill="#8cafbf"/>
<circle cx="405.00" cy="145.00" r="3.40" fill="#dee7eb"/>
<circle cx="415.00" cy="145.00" r="3.40" fill="#c3d5dd"/>
<circle cx="425.00" cy="145.00" r="3.40" fill="#8cafbf"/>
<circle cx="435.00" cy="145.00" r="3.40" fill="#8cafbf"/>
<circle cx="445.00" cy="145.00" r="3.40" fill="#6a95a5"/>
<circle cx="455.00" cy="145.00" r="3.40" fill="#427687"/>
<circle cx="465.00" cy="145.00" r="3.40" fill="#3f798d"/>
<circle cx="335.00" cy="155.00" r="3.40" fill="#8aaebe"/>
<circle cx="345.00" cy="155.00" r="3.40" fill="#8cafbf"/>
<circle cx="355.00" cy="155.00" r="3.40" fill="#8cafbf"/>
<circle cx="365.00" cy="155.00" r="3.40" fill="#8cafbf"/>
<circle cx="375.00" cy="155.00" r="3.40" fill="#8cafbf"/>
<circle cx="385.00" cy="155.00" r="3.40" fill="#8cafbf"/>
<circle cx="395.00" cy="155.00" r="3.40" fill="#a3bfcb"/>
<circle cx="405.00" cy="155.00" r="3.40" fill="#f7f8f8"/>
<circle cx="415.00" cy="155.00" r="3.40" fill="#96b6c4"/>
<circle cx="425.00" cy="155.00" r="3.40" fill="#8cafbf"/>
<circle cx="435.00" cy="155.00" r="3.40" fill="#8cafbf"/>
<circle cx="445.00" cy="155.00" r="3.40" fill="#6a95a5"/>
<circle cx="455.00" cy="155.00" r="3.40" fill="#427687"/>
<circle cx="465.00" cy="155.00" r="3.40" fill="#3f788d"/>
<circle cx="335.00" cy="165.00" r="3.40" fill="#8aaebe"/>
<circle cx="345.00" cy="165.00" r="3.40" fill="#8cafbf"/>
<circle cx="355.00" cy="165.00" r="3.40" fill="#8cafbf"/>
<circle cx="365.00" cy="165.00" r="3.40" fill="#8cafbf"/>
<circle cx="375.00" cy="165.00" r="3.40" fill="#8cafbf"/>
<circle cx="385.00" cy="165.00" r="3.40" fill="#8cafbf"/>
<circle cx="395.00" cy="165.00" r="3.40" fill="#d5e1e6"/>
<circle cx="405.00" cy="165.00" r="3.40" fill="#d0dee4"/>
<circle cx="415.00" cy="165.00" r="3.40" fill="#8cafbf"/>
<circle cx="425.00" cy="165.00" r="3.40" fill="#8cafbf"/>
<circle cx="435.00" cy="165.00" r="3.40" fill="#8cafbf"/>
<circle cx="445.00" cy="165.00" r="3.40" fill="#6a95a5"/>
<circle cx="455.00" cy="165.00" r="3.40" fill="#427687"/>
<circle cx="465.00" cy="165.00" r="3.40" fill="#3e788d"/>
<circle cx="335.00" cy="175.00" r="3.40" fill="#8aaebe"/>
<circle cx="345.00" cy="175.00" r="3.40" fill="#8cafbf"/>
<circle cx="355.00" cy="175.00" r="3.40" fill="#8cafbf"/>
<circle cx="365.00" cy="175.00" r="3.40" fill="#8cafbf"/>
<circle cx="375.00" cy="175.00" r="3.40" fill="#8cafbf"/>
<circle cx="385.00" cy="175.00" r="3.40" fill="#9bbac7"/>
<circle cx="395.00" cy="175.00" r="3.40" fill="#f9f9f9"/>
<circle cx="405.00" cy="175.00" r="3.40" fill="#a0bdca"/>
<circle cx="415.00" cy="175.00" r="3.40" fill="#8cafbf"/>
<circle cx="425.00" cy="175.00" r="3.40" fill="#8cafbf"/>
<circle cx="435.00" cy="175.00" r="3.40" fill="#8cafbf"/>
<circle cx="445.00" cy="175.00" r="3.40" fill="#6a95a5"/>
<circle cx="455.00" cy="175.00" r="3.40" fill="#427687"/>
<circle cx="465.00" cy="175.00" r="3.40" fill="#3e788c"/>
<circle cx="335.00" cy="185.00" r="3.40" fill="#8aaebe"/>
<circle cx="345.00" cy="185.00" r="3.40" fill="#8cafbf"/>
<circle cx="355.00" cy="185.00" r="3.40" fill="#8cafbf"/>
<circle cx="365.00" cy="185.00" r="3.40" fill="#8cafbf"/>
<circle cx="375.00" cy="185.00" r="3.40" fill="#8cafbf"/>
<circle cx="385.00" cy="185.00" r="3.40" fill="#b1c8d3"/>
<circle cx="395.00" cy="185.00" r="3.40" fill="#c9d9e0"/>
<circle cx="405.00" cy="185.00" r="3.40" fill="#8cafbf"/>
<circle cx="415.00" cy="185.00" r="3.40" fill="#8cafbf"/>
<circle cx="425.00" cy="185.00" r="3.40" fill="#8cafbf"/>
<circle cx="435.00" cy="185.00" r="3.40" fill="#8cafbf"/>
<circle cx="445.00" cy="185.00" r="3.40" fill="#6a94a5"/>
<circle cx="455.00" cy="185.00" r="3.40" fill="#427687"/>
<circle cx="465.00" cy="185.00" r="3.40" fill="#3d788c"/>
<circle cx="335.00" cy="195.00" r="3.40" fill="#89aebe"/>
<circle cx="345.00" cy="195.00" r="3.40" fill="#8cafbf"/>
<circle cx="355.00" cy="195.00" r="3.40" fill="#719aaa"/>
<circle cx="365.00" cy="195.00" r="3.40" fill="#6591a1"/>
<circle cx="375.00" cy="195.00" r="3.40" fill="#6591a1"/>
<circle cx="385.00" cy="195.00" r="3.40" fill="#6591a1"/>
<circle cx="395.00" cy="195.00" r="3.40" fill="#6591a1"/>
<circle cx="405.00" cy="195.00" r="3.40" fill="#6591a1"/>
<circle cx="415.00" cy="195.00" r="3.40" fill="#6591a1"/>
<circle cx="425.00" cy="195.00" r="3.40" fill="#6591a1"/>
<circle cx="435.00" cy="195.00" r="3.40" fill="#6491a1"/>
<circle cx="445.00" cy="195.00" r="3.40" fill="#4e7f90"/>
<circle cx="455.00" cy="195.00" r="3.40" fill="#427687"/>
<circle cx="465.00" cy="195.00" r="3.40" fill="#3d788c"/>
<circle cx="335.00" cy="205.00" r="3.40" fill="#89aebe"/>
<circle cx="345.00" cy="205.00" r="3.40" fill="#6b95a5"/>
<circle cx="355.00" cy="205.00" r="3.40" fill="#427687"/>
<circle cx="365.00" cy="205.00" r="3.40" fill="#427687"/>
<circle cx="375.00" cy="205.00" r="3.40" fill="#427687"/>
<circle cx="385.00" cy="205.00" r="3.40" fill="#427687"/>
<circle cx="395.00" cy="205.00" r="3.40" fill="#427687"/>
<circle cx="405.00" cy="205.00" r="3.40" fill="#427687"/>
<circle cx="415.00" cy="205.00" r="3.40" fill="#427687"/>
<circle cx="425.00" cy="205.00" r="3.40" fill="#427687"/>
<circle cx="435.00" cy="205.00" r="3.40" fill="#427687"/>
<circle cx="445.00" cy="205.00" r="3.40" fill="#427687"/>
<circle cx="455.00" cy="205.00" r="3.40" fill="#427687"/>
<circle cx="465.00" cy="205.00" r="3.40" fill="#3d778c"/>
<circle cx="335.00" cy="215.00" r="3.40" fill="#6094a9"/>
<circle cx="345.00" cy="215.00" r="3.40" fill="#42798c"/>
<circle cx="355.00" cy="215.00" r="3.40" fill="#41798d"/>
<circle cx="365.00" cy="215.00" r="3.40" fill="#41798d"/>
<circle cx="375.00" cy="215.00" r="3.40" fill="#40798d"/>
<circle cx="385.00" cy="215.00" r="3.40" fill="#40798d"/>
<circle cx="395.00" cy="215.00" r="3.40" fill="#40798d"/>
<circle cx="405.00" cy="215.00" r="3.40" fill="#3f788d"/>
<circle cx="415.00" cy="215.00" r="3.40" fill="#3f788c"/>
<circle cx="425.00" cy="215.00" r="3.40" fill="#3f788c"/>
<circle cx="435.00" cy="215.00" r="3.40" fill="#3e788c"/>
<circle cx="445.00" cy="215.00" r="3.40" fill="#3e788c"/>
<circle cx="455.00" cy="215.00" r="3.40" fill="#3e778b"/>
<circle cx="465.00" cy="215.00" r="3.40" fill="#3a788e"/>
<defs>
  <pattern id="dotgrid" width="24" height="24" patternUnits="userSpaceOnUse">
    <circle cx="4" cy="4" r="0.85" fill="#58A6FF" opacity="0.22"/>
  </pattern>
</defs>
</svg>
