<svg width="800" height="280" viewBox="0 0 800 280" fill="none" xmlns="http://www.w3.org/2000/svg" role="img" aria-labelledby="title desc">
<title id="title">Daily pixel drop</title>
<desc id="desc">2026 / 08 / 21. COMMON drop Fortune Cookie.</desc>
<rect width="800" height="280" rx="8" fill="#0D1117"/>
<rect x="1" y="1" width="798" height="278" rx="7" stroke="#243246"/>
<rect x="18" y="18" width="764" height="244" rx="5" fill="url(#dotgrid)" opacity="0.58"/>
<path d="M52 46H32V66M748 46H768V66M52 234H32V214M748 234H768V214" stroke="#8b949e" stroke-width="1.5" stroke-linecap="square" opacity="0.76"/>
<rect x="304" y="56" width="192" height="188" rx="5" stroke="#8b949e" opacity="0.54"/>
<circle cx="405.00" cy="85.00" r="3.40" fill="#f7c876"/>
<circle cx="415.00" cy="85.00" r="3.40" fill="#f6c46e"/>
<circle cx="425.00" cy="85.00" r="3.40" fill="#f6c167"/>
<circle cx="385.00" cy="95.00" r="3.40" fill="#f7c876"/>
<circle cx="395.00" cy="95.00" r="3.40" fill="#f7c876"/>
<circle cx="405.00" cy="95.00" r="3.40" fill="#f6c268"/>
<circle cx="415.00" cy="95.00" r="3.40" fill="#f3b858"/>
<circle cx="425.00" cy="95.00" r="3.40" fill="#f6c671"/>
<circle cx="435.00" cy="95.00" r="3.40" fill="#f6c46e"/>
<circle cx="375.00" cy="105.00" r="3.40" fill="#f7c876"/>
<circle cx="385.00" cy="105.00" r="3.40" fill="#f7c876"/>
<circle cx="395.00" cy="105.00" r="3.40" fill="#f7c876"/>
<circle cx="405.00" cy="105.00" r="3.40" fill="#efae4d"/>
<circle cx="415.00" cy="105.00" r="3.40" fill="#df933f"/>
<circle cx="425.00" cy="105.00" r="3.40" fill="#f7c876"/>
<circle cx="435.00" cy="105.00" r="3.40" fill="#f7c673"/>
<circle cx="445.00" cy="105.00" r="3.40" fill="#f5c268"/>
<circle cx="355.00" cy="115.00" r="3.40" fill="#f7c876"/>
<circle cx="365.00" cy="115.00" r="3.40" fill="#f7c876"/>
<circle cx="375.00" cy="115.00" r="3.40" fill="#f7c876"/>
<circle cx="385.00" cy="115.00" r="3.40" fill="#f7c876"/>
<circle cx="395.00" cy="115.00" r="3.40" fill="#f7c671"/>
<circle cx="405.00" cy="115.00" r="3.40" fill="#e39639"/>
<circle cx="415.00" cy="115.00" r="3.40" fill="#ebac58"/>
<circle cx="425.00" cy="115.00" r="3.40" fill="#f7c876"/>
<circle cx="435.00" cy="115.00" r="3.40" fill="#f7c875"/>
<circle cx="445.00" cy="115.00" r="3.40" fill="#f5c064"/>
<circle cx="455.00" cy="115.00" r="3.40" fill="#f4bb59"/>
<circle cx="345.00" cy="125.00" r="3.40" fill="#f7c876"/>
<circle cx="355.00" cy="125.00" r="3.40" fill="#f7c876"/>
<circle cx="365.00" cy="125.00" r="3.40" fill="#f7c876"/>
<circle cx="375.00" cy="125.00" r="3.40" fill="#f7c876"/>
<circle cx="385.00" cy="125.00" r="3.40" fill="#f7c876"/>
<circle cx="395.00" cy="125.00" r="3.40" fill="#f6c063"/>
<circle cx="405.00" cy="125.00" r="3.40" fill="#da862f"/>
<circle cx="415.00" cy="125.00" r="3.40" fill="#f6c674"/>
<circle cx="425.00" cy="125.00" r="3.40" fill="#f7c876"/>
<circle cx="435.00" cy="125.00" r="3.40" fill="#f7c876"/>
<circle cx="445.00" cy="125.00" r="3.40" fill="#f7c46d"/>
<circle cx="455.00" cy="125.00" r="3.40" fill="#f4b953"/>
<circle cx="335.00" cy="135.00" r="3.40" fill="#f6c876"/>
<circle cx="345.00" cy="135.00" r="3.40" fill="#f7c876"/>
<circle cx="355.00" cy="135.00" r="3.40" fill="#f7c876"/>
<circle cx="365.00" cy="135.00" r="3.40" fill="#f7c876"/>
<circle cx="375.00" cy="135.00" r="3.40" fill="#f7c876"/>
<circle cx="385.00" cy="135.00" r="3.40" fill="#f7c46c"/>
<circle cx="395.00" cy="135.00" r="3.40" fill="#f1b04a"/>
<circle cx="405.00" cy="135.00" r="3.40" fill="#e29947"/>
<circle cx="415.00" cy="135.00" r="3.40" fill="#f7c876"/>
<circle cx="425.00" cy="135.00" r="3.40" fill="#f7c876"/>
<circle cx="435.00" cy="135.00" r="3.40" fill="#f7c876"/>
<circle cx="445.00" cy="135.00" r="3.40" fill="#f6c36a"/>
<circle cx="455.00" cy="135.00" r="3.40" fill="#f4b54c"/>
<circle cx="465.00" cy="135.00" r="3.40" fill="#f3b449"/>
<circle cx="335.00" cy="145.00" r="3.40" fill="#f7c876"/>
<circle cx="345.00" cy="145.00" r="3.40" fill="#f7c876"/>
<circle cx="355.00" cy="145.00" r="3.40" fill="#f7c876"/>
<circle cx="365.00" cy="145.00" r="3.40" fill="#f7c773"/>
<circle cx="375.00" cy="145.00" r="3.40" fill="#f6c063"/>
<circle cx="385.00" cy="145.00" r="3.40" fill="#f5b74d"/>
<circle cx="395.00" cy="145.00" r="3.40" fill="#e69a36"/>
<circle cx="405.00" cy="145.00" r="3.40" fill="#f3bf6d"/>
<circle cx="415.00" cy="145.00" r="3.40" fill="#f7c876"/>
<circle cx="425.00" cy="145.00" r="3.40" fill="#f7c876"/>
<circle cx="435.00" cy="145.00" r="3.40" fill="#f7c773"/>
<circle cx="445.00" cy="145.00" r="3.40" fill="#f5bf61"/>
<circle cx="455.00" cy="145.00" r="3.40" fill="#f1af43"/>
<circle cx="465.00" cy="145.00" r="3.40" fill="#eba53d"/>
<circle cx="335.00" cy="155.00" r="3.40" fill="#f7c268"/>
<circle cx="345.00" cy="155.00" r="3.40" fill="#f6c166"/>
<circle cx="355.00" cy="155.00" r="3.40" fill="#f6be5e"/>
<circle cx="365.00" cy="155.00" r="3.40" fill="#f5b851"/>
<circle cx="375.00" cy="155.00" r="3.40" fill="#f4b445"/>
<circle cx="385.00" cy="155.00" r="3.40" fill="#f4b140"/>
<circle cx="395.00" cy="155.00" r="3.40" fill="#eeb053"/>
<circle cx="405.00" cy="155.00" r="3.40" fill="#f7c876"/>
<circle cx="415.00" cy="155.00" r="3.40" fill="#f7c876"/>
<circle cx="425.00" cy="155.00" r="3.40" fill="#f7c775"/>
<circle cx="435.00" cy="155.00" r="3.40" fill="#f6c36b"/>
<circle cx="445.00" cy="155.00" r="3.40" fill="#f4b750"/>
<circle cx="455.00" cy="155.00" r="3.40" fill="#e79b36"/>
<circle cx="465.00" cy="155.00" r="3.40" fill="#f0ae45"/>
<circle cx="335.00" cy="165.00" r="3.40" fill="#f5b74f"/>
<circle cx="345.00" cy="165.00" r="3.40" fill="#f4b446"/>
<circle cx="355.00" cy="165.00" r="3.40" fill="#f4b343"/>
<circle cx="365.00" cy="165.00" r="3.40" fill="#f4b140"/>
<circle cx="375.00" cy="165.00" r="3.40" fill="#f4b13f"/>
<circle cx="385.00" cy="165.00" r="3.40" fill="#f4b243"/>
<circle cx="395.00" cy="165.00" r="3.40" fill="#f7c774"/>
<circle cx="405.00" cy="165.00" r="3.40" fill="#f7c875"/>
<circle cx="415.00" cy="165.00" r="3.40" fill="#f7c773"/>
<circle cx="425.00" cy="165.00" r="3.40" fill="#f6c36b"/>
<circle cx="435.00" cy="165.00" r="3.40" fill="#f4ba56"/>
<circle cx="445.00" cy="165.00" r="3.40" fill="#f2af42"/>
<circle cx="455.00" cy="165.00" r="3.40" fill="#df8e2f"/>
<circle cx="465.00" cy="165.00" r="3.40" fill="#f3b54c"/>
<circle cx="345.00" cy="175.00" r="3.40" fill="#f4b241"/>
<circle cx="355.00" cy="175.00" r="3.40" fill="#f4b13f"/>
<circle cx="365.00" cy="175.00" r="3.40" fill="#f4b241"/>
<circle cx="375.00" cy="175.00" r="3.40" fill="#f4b446"/>
<circle cx="395.00" cy="175.00" r="3.40" fill="#f6c26a"/>
<circle cx="405.00" cy="175.00" r="3.40" fill="#f6c269"/>
<circle cx="415.00" cy="175.00" r="3.40" fill="#f5bf61"/>
<circle cx="425.00" cy="175.00" r="3.40" fill="#f4b750"/>
<circle cx="435.00" cy="175.00" r="3.40" fill="#f2af42"/>
<circle cx="445.00" cy="175.00" r="3.40" fill="#da8429"/>
<circle cx="455.00" cy="175.00" r="3.40" fill="#eaa23c"/>
<circle cx="345.00" cy="185.00" r="3.40" fill="#f4b448"/>
<circle cx="355.00" cy="185.00" r="3.40" fill="#f4b445"/>
<circle cx="395.00" cy="185.00" r="3.40" fill="#f4b64c"/>
<circle cx="405.00" cy="185.00" r="3.40" fill="#f4b54a"/>
<circle cx="415.00" cy="185.00" r="3.40" fill="#f2b044"/>
<circle cx="425.00" cy="185.00" r="3.40" fill="#e69b38"/>
<circle cx="435.00" cy="185.00" r="3.40" fill="#dba671"/>
<circle cx="445.00" cy="185.00" r="3.40" fill="#e0d0c0"/>
<circle cx="455.00" cy="185.00" r="3.40" fill="#e6d1ae"/>
<circle cx="395.00" cy="195.00" r="3.40" fill="#f2b144"/>
<circle cx="405.00" cy="195.00" r="3.40" fill="#e08f2f"/>
<circle cx="415.00" cy="195.00" r="3.40" fill="#d27826"/>
<circle cx="425.00" cy="195.00" r="3.40" fill="#ddcdbf"/>
<circle cx="435.00" cy="195.00" r="3.40" fill="#e0e0e0"/>
<circle cx="445.00" cy="195.00" r="3.40" fill="#e0e0e0"/>
<circle cx="455.00" cy="195.00" r="3.40" fill="#e0e0e0"/>
<circle cx="395.00" cy="205.00" r="3.40" fill="#f0ad43"/>
<circle cx="405.00" cy="205.00" r="3.40" fill="#df8f31"/>
<circle cx="415.00" cy="205.00" r="3.40" fill="#e59a37"/>
<circle cx="425.00" cy="205.00" r="3.40" fill="#e4d5bc"/>
<circle cx="435.00" cy="205.00" r="3.40" fill="#e0e0e0"/>
<circle cx="445.00" cy="205.00" r="3.40" fill="#e0e0e0"/>
<circle cx="435.00" cy="215.00" r="3.40" fill="#e0e0e0"/>
<defs>
  <pattern id="dotgrid" width="24" height="24" patternUnits="userSpaceOnUse">
    <circle cx="4" cy="4" r="0.85" fill="#58A6FF" opacity="0.22"/>
  </pattern>
</defs>
</svg>
