<svg width="800" height="280" viewBox="0 0 800 280" fill="none" xmlns="http://www.w3.org/2000/svg" role="img" aria-labelledby="title desc">
<title id="title">Daily pixel drop</title>
<desc id="desc">2026 / 05 / 17. COMMON drop Static Cherry.</desc>
<rect width="800" height="280" rx="8" fill="#0D1117"/>
<rect x="1" y="1" width="798" height="278" rx="7" stroke="#243246"/>
<rect x="18" y="18" width="764" height="244" rx="5" fill="url(#dotgrid)" opacity="0.58"/>
<path d="M52 46H32V66M748 46H768V66M52 234H32V214M748 234H768V214" stroke="#8b949e" stroke-width="1.5" stroke-linecap="square" opacity="0.76"/>
<rect x="304" y="56" width="192" height="188" rx="5" stroke="#8b949e" opacity="0.54"/>
<circle cx="388.00" cy="102.00" r="4.08" fill="#3fb950"/>
<circle cx="436.00" cy="102.00" r="4.08" fill="#3fb950"/>
<circle cx="376.00" cy="114.00" r="4.08" fill="#3fb950"/>
<circle cx="424.00" cy="114.00" r="4.08" fill="#3fb950"/>
<circle cx="364.00" cy="126.00" r="4.08" fill="#3fb950"/>
<circle cx="412.00" cy="126.00" r="4.08" fill="#3fb950"/>
<circle cx="352.00" cy="138.00" r="4.08" fill="#3fb950"/>
<circle cx="400.00" cy="138.00" r="4.08" fill="#3fb950"/>
<circle cx="352.00" cy="162.00" r="4.08" fill="#ff7b72"/>
<circle cx="364.00" cy="162.00" r="4.08" fill="#ff7b72"/>
<circle cx="376.00" cy="162.00" r="4.08" fill="#ff7b72"/>
<circle cx="424.00" cy="162.00" r="4.08" fill="#ff7b72"/>
<circle cx="436.00" cy="162.00" r="4.08" fill="#ff7b72"/>
<circle cx="448.00" cy="162.00" r="4.08" fill="#ff7b72"/>
<circle cx="340.00" cy="174.00" r="4.08" fill="#ff7b72"/>
<circle cx="352.00" cy="174.00" r="4.08" fill="#ff7b72"/>
<circle cx="364.00" cy="174.00" r="4.08" fill="#ff7b72"/>
<circle cx="376.00" cy="174.00" r="4.08" fill="#ff7b72"/>
<circle cx="388.00" cy="174.00" r="4.08" fill="#ff7b72"/>
<circle cx="412.00" cy="174.00" r="4.08" fill="#ff7b72"/>
<circle cx="424.00" cy="174.00" r="4.08" fill="#ff7b72"/>
<circle cx="436.00" cy="174.00" r="4.08" fill="#ff7b72"/>
<circle cx="448.00" cy="174.00" r="4.08" fill="#ff7b72"/>
<circle cx="460.00" cy="174.00" r="4.08" fill="#ff7b72"/>
<circle cx="340.00" cy="186.00" r="4.08" fill="#ff7b72"/>
<circle cx="352.00" cy="186.00" r="4.08" fill="#ff7b72"/>
<circle cx="364.00" cy="186.00" r="4.08" fill="#ff7b72"/>
<circle cx="376.00" cy="186.00" r="4.08" fill="#ff7b72"/>
<circle cx="388.00" cy="186.00" r="4.08" fill="#ff7b72"/>
<circle cx="412.00" cy="186.00" r="4.08" fill="#ff7b72"/>
<circle cx="424.00" cy="186.00" r="4.08" fill="#ff7b72"/>
<circle cx="436.00" cy="186.00" r="4.08" fill="#ff7b72"/>
<circle cx="448.00" cy="186.00" r="4.08" fill="#ff7b72"/>
<circle cx="460.00" cy="186.00" r="4.08" fill="#ff7b72"/>
<circle cx="352.00" cy="198.00" r="4.08" fill="#ff7b72"/>
<circle cx="364.00" cy="198.00" r="4.08" fill="#ff7b72"/>
<circle cx="376.00" cy="198.00" r="4.08" fill="#ff7b72"/>
<circle cx="424.00" cy="198.00" r="4.08" fill="#ff7b72"/>
<circle cx="436.00" cy="198.00" r="4.08" fill="#ff7b72"/>
<circle cx="448.00" cy="198.00" r="4.08" fill="#ff7b72"/>
<defs>
  <pattern id="dotgrid" width="24" height="24" patternUnits="userSpaceOnUse">
    <circle cx="4" cy="4" r="0.85" fill="#58A6FF" opacity="0.22"/>
  </pattern>
</defs>
</svg>
